<svg xmlns="http://www.w3.org/2000/svg" width="25" height="19" fill="none" viewBox="0 0 25 19">
  <g clip-path="url(#a)">
    <path fill="#E2CAB3" d="M12.5 18.998c6.904 0 12.5-2.689 12.5-6.006s-5.596-6.006-12.5-6.006S0 9.676 0 12.992c0 3.317 5.596 6.006 12.5 6.006Z"/>
    <path fill="#fff" fill-rule="evenodd" d="M25.002 12.33c0 3.317-5.596 6.006-12.5 6.006C5.595 18.336 0 15.647 0 12.33c0-3.316 5.596-6.006 12.501-6.006 6.905 0 12.501 2.69 12.501 6.006Z" clip-rule="evenodd"/>
    <path fill="#E7D8C8" fill-rule="evenodd" d="M25.002 12.232c0 3.211-5.596 5.816-12.5 5.816C5.595 18.048 0 15.448 0 12.232c0-3.217 5.596-5.818 12.501-5.818 6.905 0 12.501 2.609 12.501 5.818Z" clip-rule="evenodd"/>
    <path fill="#E2CAB3" fill-rule="evenodd" d="M24.446 12.232c0 2.29-4.787 4.15-10.692 4.15s-10.688-1.855-10.688-4.15c0-2.296 4.787-4.151 10.692-4.151s10.688 1.863 10.688 4.15Z" clip-rule="evenodd"/>
    <path fill="#C66720" fill-rule="evenodd" d="M19.683 6.778c-.094-.088.01-.173-.031-.281a.432.432 0 0 0-.164-.204c-.2-.157-.456-.188-.678-.248-.296-.08-.569-.268-.859-.382-.354-.141-.717-.223-1.061-.413-.657-.362-1.234-.94-1.865-1.38a9.9 9.9 0 0 0-1.986-1.028 14.522 14.522 0 0 0-1.676-.537c-1.327-.737-2.777-.737-4.169-.398-1.16.287-2.367.94-2.93 2.413-.268.698-.343 1.52-.372 2.296a4.22 4.22 0 0 0 .265 1.725c.435 1.118 1.298 1.882 2.123 2.42.944.627 2.03 1.047 3.091.996.65-.03 1.366-.135 1.97-.483.492-.283.86-.835 1.245-1.31.48-.616 1.095-1.014 1.755-1.14.708-.124 1.439.157 2.146.206.617.048 1.228.106 1.843.192.36.05.769.074 1.085-.196a.809.809 0 0 0 .235-.484.936.936 0 0 0-.009-.339c-.03-.157-.118-.314.028-.4.38-.23.339-.721.014-1.025Z" clip-rule="evenodd"/>
    <path fill="#BB5200" fill-rule="evenodd" d="M19.681 6.768c-.094-.088.01-.174-.032-.28a.438.438 0 0 0-.164-.204 1.323 1.323 0 0 0-.506-.207c.009.033.018.067.024.102.024.11.027.226.01.338a.81.81 0 0 1-.237.483c-.32.272-.732.248-1.086.198a29.151 29.151 0 0 0-1.842-.193c-.708-.055-1.438-.33-2.145-.207-.66.126-1.275.524-1.755 1.14-.39.475-.756 1.027-1.249 1.314-.603.345-1.318.45-1.972.48-1.061.05-2.145-.378-3.09-.997-.632-.414-1.283-.958-1.745-1.692.02.448.11.887.265 1.286.435 1.12 1.297 1.881 2.123 2.42.944.619 2.03 1.047 3.091.997.644-.03 1.361-.142 1.963-.483.493-.284.86-.836 1.246-1.311.48-.615 1.095-1.014 1.755-1.14.708-.123 1.439.156 2.146.207.617.047 1.228.106 1.843.192.353.05.769.074 1.085-.196a.815.815 0 0 0 .236-.484.961.961 0 0 0-.01-.339c-.03-.166-.118-.314.027-.4.387-.229.343-.721.02-1.024Z" clip-rule="evenodd"/>
    <path fill="#DA840D" fill-rule="evenodd" d="M11.086 3.94c-.217-.092-.44-.156-.65-.278-.354-.203-.693-.438-1.061-.612a2.688 2.688 0 0 0-1.416-.223c-.765.024-1.568.244-2.21.78a1.635 1.635 0 0 0-.096.088c-.432.328-.785.814-1.017 1.4-.138.36-.253.806-.14 1.204.103.347.464.392.693.444.026 0 .052.014.078.02.14.083.287.141.438.175.546.276 1.017.729 1.53 1.093.676.47 1.437.57 2.13.09.334-.247.628-.58.866-.976.317-.215.594-.524.808-.902a3.1 3.1 0 0 1 .552-.767c.13-.13.33-.325.343-.566.032-.583-.515-.833-.848-.97Z" clip-rule="evenodd"/>
    <path fill="#BB5200" fill-rule="evenodd" d="M4.887 5.645a.274.274 0 0 0-.095.076.38.38 0 0 0-.065.119.277.277 0 0 0-.053.149.217.217 0 0 0 .015.165c.074.14.236-.026.366-.065l.053.02a.021.021 0 0 0 .02 0 .033.033 0 0 0 .015-.018.023.023 0 0 0 .013 0 .027.027 0 0 0 .013-.005.038.038 0 0 0 .009-.013.05.05 0 0 0 .004-.017c.019-.22-.1-.483-.295-.41Zm3.751 1.867a.255.255 0 0 0-.041-.08.185.185 0 0 0-.06-.05c-.181-.121-.708.249-.53.547a.19.19 0 0 0 .077.068c.03.012.062.014.092.004a.611.611 0 0 0 .296-.187.438.438 0 0 0 .163-.213l.012-.027a.078.078 0 0 0 .002-.033.068.068 0 0 0-.011-.03Zm2.251-2.936a.676.676 0 0 0-.268.133.61.61 0 0 0-.224.278c-.036.042-.062.097-.042.134a.54.54 0 0 0-.03.06.08.08 0 0 0-.001.04.07.07 0 0 0 .018.034c.036.03.076.052.118.064a.32.32 0 0 0 .098.042c.235.057.614-.145.718-.44.114-.325-.237-.374-.387-.345ZM6.29 3.743c-.135-.096-.337.088-.44.184-.104.095-.293.293-.236.492.007.026.018.05.032.07a.203.203 0 0 0 .096.089c.038.015.08.015.117-.002.189-.057.776-.59.43-.833Zm.418 2.282a.09.09 0 0 0-.027-.013.417.417 0 0 0-.39.01.352.352 0 0 0-.235.17.19.19 0 0 0-.03.058.23.23 0 0 0 0 .14.19.19 0 0 0 .03.058c.03.145.172.237.324.25a.37.37 0 0 0 .245.073.393.393 0 0 0 .238-.108c.213-.202.015-.538-.155-.638Zm1.4-2.669c-.205-.107-.455.081-.573.3a.519.519 0 0 0-.02.45l.006.01a.32.32 0 0 0 .016.027l.012.014a.217.217 0 0 0 .09.07.17.17 0 0 0 .056.012c.072.031.15.025.217-.019a.548.548 0 0 0 .155-.157.858.858 0 0 0 .144-.149c.148-.202.085-.464-.103-.558ZM8.056 5.58c-.098-.496-.34-.626-.7-.6h-.048a.04.04 0 0 0-.034.011.557.557 0 0 0-.08.027.09.09 0 0 0-.052-.002.107.107 0 0 0-.047.029l-.025.033a.102.102 0 0 0-.059.029.157.157 0 0 0-.039.065.205.205 0 0 0 .017.16.34.34 0 0 0 .101.175.166.166 0 0 0 .103.035c.036.053.075.102.118.157l.008.014c0 .06.005.118.013.177 0 .073.003.147.01.22a.413.413 0 0 0 .052.145.295.295 0 0 0 .095.1.618.618 0 0 0 .059.074c.026.043.06.076.098.096.039.02.08.026.122.017a.213.213 0 0 0 .111-.065.324.324 0 0 0 .072-.13c.146-.148.16-.487.105-.766Zm1.441-.968c-.055-.401-.503-.188-.527.114a.855.855 0 0 0-.142.269.062.062 0 0 0 0 .035c.004.01.011.02.02.024.096.065.199.11.305.132a.09.09 0 0 0 .058 0 .25.25 0 0 0 .139-.047.538.538 0 0 0 .131-.235.688.688 0 0 0 .016-.292Zm.625 1.461c-.206-.282-.88-.072-.909.361a.243.243 0 0 0-.019.22.168.168 0 0 0 .065.08.11.11 0 0 0 .087.014c.076-.007.15-.02.224-.041a.27.27 0 0 1 .156.013l.036.014.079.037a.172.172 0 0 0 .11.036.178.178 0 0 0 .109-.045.594.594 0 0 0 .13-.329.662.662 0 0 0-.068-.36ZM6.188 5.007a.326.326 0 0 0-.177-.054.326.326 0 0 0-.177.054.21.21 0 0 0-.139.103.728.728 0 0 0-.126.165.089.089 0 0 0-.01.052c.002.018.01.034.02.045.17.196.472.033.59-.183a.093.093 0 0 0 .01-.055.218.218 0 0 0 .02-.053.07.07 0 0 0 .005-.04.06.06 0 0 0-.016-.034Z" clip-rule="evenodd"/>
    <path fill="#5F825C" fill-rule="evenodd" d="M6.99 7.04c.019-.048-.027-.092-.058-.074-.085.048-.168.1-.25.157a1.208 1.208 0 0 0-.354-.05c-.024 0-.035.035-.035.064 0 .116.064.182.118.262a.357.357 0 0 0-.172.185.075.075 0 0 0-.004.056c.002.01.007.017.013.023.006.006.013.01.02.012l.057.022c-.083.22-.223.374-.224.642 0 .06.07.093.084.026a.774.774 0 0 1 .217-.422c.007.051.015.102.02.157a.066.066 0 0 0 .012.029.042.042 0 0 0 .022.016.033.033 0 0 0 .025-.002.047.047 0 0 0 .02-.02c.056-.108.166-.328.236-.096.003.011.008.02.015.026.007.007.015.01.024.01a.036.036 0 0 0 .024-.01.056.056 0 0 0 .016-.026c.011-.06.053-.487.102-.41.006.01.015.016.024.019a.032.032 0 0 0 .027-.004.051.051 0 0 0 .02-.025.075.075 0 0 0 .006-.036c-.014-.19-.077-.357-.005-.532Z" clip-rule="evenodd"/>
    <path fill="#8DB54F" fill-rule="evenodd" d="M7.252 3.185c.021 0 .027-.036.023-.06-.015-.1-.073-.147-.127-.207a.347.347 0 0 0 .131-.186.07.07 0 0 0-.004-.05.047.047 0 0 0-.014-.017.033.033 0 0 0-.019-.007l-.048-.01c.048-.202.155-.355.127-.584-.005-.052-.07-.07-.074-.01a.725.725 0 0 1-.144.395l-.034-.13a.054.054 0 0 0-.013-.023.034.034 0 0 0-.02-.01.03.03 0 0 0-.02.005A.046.046 0 0 0 7 2.31c-.04.102-.111.313-.19.117a.044.044 0 0 0-.017-.018.03.03 0 0 0-.021-.004.035.035 0 0 0-.02.012.055.055 0 0 0-.01.025c0 .053 0 .426-.047.368a.034.034 0 0 0-.021-.012.03.03 0 0 0-.023.007.05.05 0 0 0-.015.024.066.066 0 0 0-.002.031c.012.066.03.126.046.187a1.098 1.098 0 0 0-.656-.146.032.032 0 0 0-.02.012.052.052 0 0 0-.01.026c0 .01 0 .02.004.028a.041.041 0 0 0 .016.02c.313.157.074.192 0 .23a.831.831 0 0 0-.236.19c-.12.14-.222.305-.301.49-.021.044.03.092.059.064.1-.099.206-.183.318-.252a.16.16 0 0 1 .089-.028c.03 0 .06.01.088.028-.01.07-.016.14-.016.211a.056.056 0 0 0 .023.044.033.033 0 0 0 .04-.004c.087-.1.315-.43.414-.058a.05.05 0 0 0 .016.023.034.034 0 0 0 .022.01.034.034 0 0 0 .023-.01.054.054 0 0 0 .015-.023c.018-.041.05-.096.077-.148.028.031.057.061.083.096.006.006.012.01.02.012a.032.032 0 0 0 .02-.002.042.042 0 0 0 .018-.015.063.063 0 0 0 .01-.025c.011-.176.014-.351.023-.527.043-.034.086-.07.127-.108.102.015.204.015.306 0Zm2.992 2.279c-.034-.029-.069.03-.058.072.032.114.067.229.106.34a2.72 2.72 0 0 0-.055.461c0 .033.027.049.047.049.088 0 .14-.076.202-.142a.45.45 0 0 0 .128.239.037.037 0 0 0 .043.008.046.046 0 0 0 .018-.017.066.066 0 0 0 .009-.027c0-.025.013-.05.019-.074.161.12.27.314.471.326.045 0 .074-.088.023-.11a.604.604 0 0 1-.307-.313l.118-.022a.038.038 0 0 0 .023-.013.06.06 0 0 0 .014-.027.074.074 0 0 0 0-.033.06.06 0 0 0-.014-.027c-.078-.082-.236-.237-.062-.314a.047.047 0 0 0 .02-.02.07.07 0 0 0 .007-.033.07.07 0 0 0-.007-.031.047.047 0 0 0-.02-.021c-.043-.019-.364-.094-.305-.157a.062.062 0 0 0 .015-.03.076.076 0 0 0-.002-.036.058.058 0 0 0-.017-.028.036.036 0 0 0-.026-.01c-.138.015-.256.091-.39-.01Z" clip-rule="evenodd"/>
    <path fill="#E2CAB3" fill-rule="evenodd" d="M21.983 11.785v-.09c0-.014 0-.034-.006-.051-.006-.018 0 0 0 0a2.857 2.857 0 0 0-.277-.824 4.878 4.878 0 0 0-1.035-1.397c-.227-.218-.463-.422-.689-.638-.258-.246-.485-.532-.736-.784-.251-.253-1.463-2.422-2.313-3.814-.397-.652-.998-1.697-2.061-2.166-.715-.313-1.425-.062-2.176-.262-.556-.147-1.415-.194-1.868.314-.658.417-1.145 1.195-1.523 1.95-.164.32-.288.67-.368 1.042v.031l-.02.12c0 .033-.012.065-.016.1l-.014.114c0 .041-.007.08-.01.121-.002.041 0 .066-.007.099v.226c0 .052 0 .103.006.157.01.27.038.538.081.803-.623.25-1.155.72-1.835.93-.637.195-1.54.675-1.789 1.444-.496.81-.659 1.867-.72 2.837a4.78 4.78 0 0 0 .074 1.242l.007.033.03.13.028.106.035.123c.013.04.028.081.043.122.014.04.022.069.036.102.029.076.06.15.095.223.023.05.048.098.073.149a5.456 5.456 0 0 0 1.179 1.6c.462.42 2.45 2.41 6.159.336.957-.535 2.487-1.995 2.512-1.995 2.23.096 2.93.347 3.656.302a.27.27 0 0 1 .05 0c1.37.058 1.815-.18 2.281-1.15l.013-.022a1.588 1.588 0 0 0 .158-.3 1.35 1.35 0 0 0 .313-.126l.017-.011a1.237 1.237 0 0 0 .272-.215l.016-.016c.045-.048.088-.1.126-.157.044-.058.083-.12.118-.188a.902.902 0 0 0 .038-.085c0-.01.007-.02.01-.03a1.31 1.31 0 0 0 .028-.095.377.377 0 0 0 .012-.053.426.426 0 0 0 .005-.04l.008-.051v-.137c-.015-.026-.015-.042-.016-.06Z" clip-rule="evenodd" style="mix-blend-mode:multiply"/>
    <path fill="#C66720" fill-rule="evenodd" d="M20.639 10.767c-.1-.093.01-.184-.033-.298a.462.462 0 0 0-.175-.217c-.212-.156-.483-.2-.72-.263-.315-.085-.605-.285-.913-.408-.378-.157-.762-.237-1.128-.437-.702-.384-1.315-1.005-1.985-1.46a10.59 10.59 0 0 0-2.11-1.098 15.736 15.736 0 0 0-1.781-.57c-1.407-.785-2.949-.785-4.429-.421-1.232.3-2.516.991-3.12 2.56-.28.747-.353 1.614-.393 2.44a4.464 4.464 0 0 0 .283 1.83c.464 1.191 1.376 2.002 2.254 2.573 1.004.658 2.158 1.112 3.284 1.058.691-.031 1.452-.144 2.092-.513.524-.3.915-.887 1.326-1.392.51-.655 1.163-1.079 1.864-1.212.753-.13 1.533.156 2.28.22.656.05 1.304.114 1.958.205.382.053.817.078 1.153-.209a.865.865 0 0 0 .255-.514c.018-.12.015-.244-.01-.36-.034-.177-.13-.33.029-.426.4-.243.36-.765.019-1.088Z" clip-rule="evenodd"/>
    <path fill="#BB5200" fill-rule="evenodd" d="M20.639 10.756c-.1-.093.01-.184-.034-.298a.453.453 0 0 0-.174-.217 1.383 1.383 0 0 0-.539-.218 1.068 1.068 0 0 1 .037.468.864.864 0 0 1-.254.513c-.336.287-.771.261-1.153.208a29.097 29.097 0 0 0-1.958-.204c-.751-.058-1.533-.351-2.28-.22-.702.135-1.354.558-1.865 1.211-.41.505-.801 1.098-1.325 1.394-.64.369-1.4.48-2.092.513-1.126.054-2.28-.401-3.284-1.06-.674-.439-1.366-1.018-1.861-1.797.016.476.108.941.27 1.366.473 1.19 1.38 1.996 2.26 2.572 1.003.658 2.158 1.113 3.284 1.06.69-.033 1.452-.145 2.092-.515.524-.3.914-.887 1.324-1.392.511-.654 1.164-1.078 1.866-1.21.751-.133 1.533.156 2.28.219.656.05 1.304.113 1.958.204.382.053.817.078 1.153-.209a.745.745 0 0 0 .165-.223.967.967 0 0 0 .088-.291.968.968 0 0 0-.009-.36c-.033-.177-.128-.33.03-.426.4-.24.36-.765.02-1.088Z" clip-rule="evenodd"/>
    <path fill="#DA840D" fill-rule="evenodd" d="M11.502 7.751a5.887 5.887 0 0 1-.69-.296c-.376-.215-.737-.463-1.122-.65-.486-.216-1-.296-1.51-.235-.815.024-1.67.258-2.352.824l-.102.092c-.46.35-.833.867-1.08 1.49-.147.383-.27.856-.149 1.28.107.371.493.42.74.47l.084.024c.148.088.305.15.465.185.57.29 1.07.77 1.62 1.155.72.507 1.534.607 2.265.098a3.6 3.6 0 0 0 .92-1.039 2.85 2.85 0 0 0 .858-.956c.162-.313.361-.588.59-.816.14-.138.354-.345.366-.602.029-.613-.552-.875-.903-1.024Z" clip-rule="evenodd"/>
    <path fill="#BB5200" fill-rule="evenodd" d="M4.912 9.566a.282.282 0 0 0-.101.079.395.395 0 0 0-.069.126.307.307 0 0 0-.056.158.23.23 0 0 0 .016.176c.08.147.256-.028.388-.069.02.006.038.013.057.022a.024.024 0 0 0 .022 0 .036.036 0 0 0 .015-.02h.014a.031.031 0 0 0 .013-.007.042.042 0 0 0 .01-.014.055.055 0 0 0 .005-.017c.02-.232-.108-.513-.314-.434Zm3.986 1.982a.27.27 0 0 0-.043-.085.195.195 0 0 0-.065-.055c-.191-.128-.755.265-.562.582a.19.19 0 0 0 .082.073.136.136 0 0 0 .098.004.632.632 0 0 0 .32-.2.45.45 0 0 0 .173-.225.301.301 0 0 0 .013-.028.08.08 0 0 0 0-.036.064.064 0 0 0-.016-.03Zm2.392-3.121a.715.715 0 0 0-.284.143.641.641 0 0 0-.236.295c-.039.044-.066.103-.045.142a.425.425 0 0 0-.032.063.087.087 0 0 0-.001.043c.003.015.01.027.019.035a.305.305 0 0 0 .127.07.309.309 0 0 0 .104.043c.25.062.652-.156.763-.47.117-.342-.256-.39-.415-.364Zm-4.887-.886c-.143-.1-.354.094-.472.196-.118.102-.311.314-.256.524a.258.258 0 0 0 .033.075.217.217 0 0 0 .103.093.16.16 0 0 0 .125-.002c.21-.06.835-.626.467-.886Zm.445 2.426a.445.445 0 0 0-.443-.003.374.374 0 0 0-.246.18.198.198 0 0 0-.033.063.243.243 0 0 0 0 .148.2.2 0 0 0 .033.062c.03.157.182.251.343.265a.4.4 0 0 0 .26.078.421.421 0 0 0 .254-.114c.225-.215.012-.572-.168-.679Zm1.487-2.835c-.219-.115-.484.085-.61.314a.553.553 0 0 0-.02.47v.013a.186.186 0 0 0 .03.042.25.25 0 0 0 .096.074.21.21 0 0 0 .06.014.24.24 0 0 0 .236-.02.616.616 0 0 0 .164-.172.965.965 0 0 0 .152-.156.384.384 0 0 0-.108-.58Zm-.056 2.363c-.103-.528-.36-.663-.743-.636h-.051a.05.05 0 0 0-.036.01c-.03 0-.062.015-.091.024a.098.098 0 0 0-.056 0 .117.117 0 0 0-.05.03l-.027.034a.118.118 0 0 0-.058.037.178.178 0 0 0-.038.07.224.224 0 0 0 .017.163.36.36 0 0 0 .107.182c.033.024.07.037.109.038l.117.157.009.014c0 .063.006.126.014.188a1.84 1.84 0 0 0 .012.235.43.43 0 0 0 .054.155.306.306 0 0 0 .101.105c.02.033.041.064.064.093.18.22.354.114.43-.088.16-.154.175-.514.116-.81Zm1.532-1.027c-.058-.428-.534-.2-.56.12a.913.913 0 0 0-.151.286.066.066 0 0 0 0 .038.045.045 0 0 0 .021.026 1 1 0 0 0 .323.14c.02.006.042.006.063 0a.28.28 0 0 0 .147-.05c.135-.099.183-.372.157-.56Zm.664 1.551c-.215-.296-.935-.077-.966.383-.08.156-.034.346.142.337a1.49 1.49 0 0 0 .236-.046.284.284 0 0 1 .166.014.167.167 0 0 0 .038.014l.082.041c.037.027.078.04.12.039a.192.192 0 0 0 .116-.05c.151-.136.195-.558.066-.732Zm-4.18-1.134a.348.348 0 0 0-.185-.055.348.348 0 0 0-.186.055.23.23 0 0 0-.149.11.785.785 0 0 0-.133.175.097.097 0 0 0-.01.055c.003.02.01.037.022.049.18.207.503.034.626-.196a.098.098 0 0 0 .01-.056.22.22 0 0 0 .02-.057.082.082 0 0 0 .004-.044.066.066 0 0 0-.019-.036Z" clip-rule="evenodd"/>
    <path fill="#5F825C" fill-rule="evenodd" d="M7.147 11.044c.02-.048-.028-.095-.061-.076-.09.05-.18.105-.267.156a1.241 1.241 0 0 0-.37-.054c-.027 0-.038.039-.037.069 0 .123.066.192.118.277a.382.382 0 0 0-.184.2.08.08 0 0 0-.004.06.06.06 0 0 0 .014.023.04.04 0 0 0 .022.012c.02 0 .04.016.06.024-.087.233-.236.398-.236.682 0 .064.073.098.089.028a.802.802 0 0 1 .236-.449l.022.157a.07.07 0 0 0 .012.032.045.045 0 0 0 .023.018.035.035 0 0 0 .026-.002.05.05 0 0 0 .022-.021c.06-.115.176-.35.245-.102a.06.06 0 0 0 .017.027c.007.007.016.01.025.01.01 0 .018-.003.026-.01a.061.061 0 0 0 .017-.027c.012-.063.056-.52.108-.438.007.011.015.019.025.022.01.003.02.002.03-.004a.054.054 0 0 0 .022-.027.079.079 0 0 0 .005-.04c-.014-.183-.076-.36-.005-.546Z" clip-rule="evenodd"/>
    <path fill="#8DB54F" fill-rule="evenodd" d="M7.934 6.078c-.037-.028-.074.035-.06.079.032.122.07.241.11.36-.033.16-.052.325-.058.491a.05.05 0 0 0 .05.052.327.327 0 0 0 .215-.157.47.47 0 0 0 .14.253.042.042 0 0 0 .022.013c.008.001.016 0 .023-.004a.05.05 0 0 0 .02-.018.072.072 0 0 0 .01-.029c0-.027.012-.053.02-.078.172.127.287.332.5.346.049 0 .078-.092.025-.116a.64.64 0 0 1-.325-.326c.041 0 .081-.017.118-.024a.041.041 0 0 0 .024-.014.066.066 0 0 0 .015-.03.08.08 0 0 0 0-.035.065.065 0 0 0-.016-.029c-.083-.086-.254-.25-.066-.33a.053.053 0 0 0 .02-.023.077.077 0 0 0 0-.066.053.053 0 0 0-.02-.023c-.047-.02-.387-.1-.324-.166a.064.064 0 0 0 .017-.032.08.08 0 0 0-.002-.04.06.06 0 0 0-.018-.029.037.037 0 0 0-.029-.009c-.139.022-.275.094-.411-.016Zm2.671 3.292c-.037-.029-.073.032-.062.078.035.122.071.241.112.36-.033.16-.052.325-.057.491 0 .035.028.05.05.052a.33.33 0 0 0 .214-.157.483.483 0 0 0 .14.253.04.04 0 0 0 .022.013c.008.001.016 0 .023-.004a.049.049 0 0 0 .02-.018.071.071 0 0 0 .01-.029c0-.027.012-.053.02-.078.172.125.287.332.5.346.05 0 .079-.092.026-.117a.63.63 0 0 1-.326-.327l.118-.021a.044.044 0 0 0 .023-.015.068.068 0 0 0 .014-.03.082.082 0 0 0 0-.034.067.067 0 0 0-.014-.03c-.083-.086-.254-.25-.066-.33a.052.052 0 0 0 .021-.023.077.077 0 0 0 0-.068.052.052 0 0 0-.02-.022c-.048-.02-.388-.1-.325-.157a.064.064 0 0 0 .017-.032.08.08 0 0 0-.002-.04.06.06 0 0 0-.018-.029.037.037 0 0 0-.029-.009c-.139.006-.274.086-.411-.024Z" clip-rule="evenodd"/>
    <path fill="#E2CAB3" fill-rule="evenodd" d="M22.305 11.222c0-.014 0-.029.006-.043l.007-.06v-.308l-.007-.055c0-.014 0-.028-.007-.044-.007-.016-.006-.04-.01-.06a3.435 3.435 0 0 0-.327-.886 5.123 5.123 0 0 0-1.11-1.44c-.236-.217-.479-.416-.716-.627-.269-.244-.51-.534-.772-.784-.281-.274-1.596-2.527-2.523-3.984-.434-.684-1.097-1.779-2.162-2.18-.716-.27-1.387.094-2.13-.042-.556-.118-1.391-.071-1.795.545-.607.541-1.021 1.467-1.331 2.353a5.43 5.43 0 0 0-.279 1.202v.038c0 .044-.008.088-.011.132l-.007.117v.375c0 .085 0 .168.013.253l.017.175c.069.713.233 1.404.486 2.039.249.623.623 1.143 1.08 1.499l.137.096c1.415.94 2.713.528 3.286.494.19-.018.378-.05.565-.098.14-.03.291-.069.447-.105.555-.133 1.17-.272 1.594-.218.093.01.185.037.273.079 1.18.616 1.427 1.925 2.616 2.509.07.034.142.066.218.095l.027.01h.007c.54.2 1.209.263 1.723-.04l.064-.04.016-.011c.247-.166.445-.437.563-.77l.03-.099-.003-.048.015-.07Z" clip-rule="evenodd" style="mix-blend-mode:multiply"/>
    <path fill="#C66720" fill-rule="evenodd" d="M22.383 9.38a5.266 5.266 0 0 0-1.14-1.478c-.242-.223-.492-.428-.735-.65-.276-.252-.524-.551-.793-.815-.289-.282-1.64-2.597-2.594-4.093-.443-.7-1.123-1.827-2.217-2.24-.735-.277-1.424.098-2.187-.041-.57-.104-1.424-.055-1.836.573-.624.556-1.05 1.506-1.368 2.415a5.167 5.167 0 0 0-.301 2.172 7.73 7.73 0 0 0 .516 2.27c.255.64.639 1.174 1.109 1.54 1.508 1.097 2.908.64 3.514.605.677-.04 2.327-.68 2.957-.35 1.208.627 1.465 1.976 2.686 2.57.852.416 2.22.535 2.689-.773.204-.57-.06-1.235-.3-1.704Z" clip-rule="evenodd"/>
    <path fill="#BB5200" fill-rule="evenodd" d="M22.683 11.085c-.472 1.308-1.838 1.19-2.69.774-1.22-.595-1.477-1.94-2.685-2.57-.63-.33-2.28.313-2.956.35-.605.035-2.005.493-3.515-.606-.47-.367-.854-.9-1.108-1.54a7.755 7.755 0 0 1-.517-2.27 4.885 4.885 0 0 1 .013-.92v.146c0 .049.018.075.03.111a.086.086 0 0 1 .003.04.074.074 0 0 1-.014.036c0 .018 0 .037.01.056.258 1.383 1.455 2.195 2.323 2.823 1.167.818 2.467 1.245 3.787 1.243.688.011 1.241-.35 1.854-.721a1.19 1.19 0 0 1 .697-.193c.24.011.476.1.686.257 1.027.76 1.87 2.125 3.105 2.304.323.05.65.018.964-.097l.037-.014c.063.259.054.54-.024.791Z" clip-rule="evenodd"/>
    <path fill="#DA840D" fill-rule="evenodd" d="M19.957 7.411c-.274-.263-2.497-3.806-2.645-4.14-.149-.334-.65-.47-.777-.8a2.026 2.026 0 0 0-.405-.711 1.396 1.396 0 0 0-.598-.403c-.447-.167-.9-.157-1.331-.411a3.207 3.207 0 0 0-.677-.353 2.668 2.668 0 0 0-.744-.088c-.44 0-.911-.047-1.345.055-.227.056-.43.224-.568.47-.196.225-.315.585-.407.913-.178.635-.365 1.335-.354 2.03.015.332.084.656.203.95.118.293.283.549.483.75.392.397.91.429 1.348.67.257.141.443.416.67.628.192.167.41.274.637.313.51.108 1.039-.144 1.524-.326.601-.224 1.204-.463 1.82-.166.273.134.557.217.846.248.248.156.527.25.772.398.353.215.685.503 1.044.709l.118.12c.118.126.677.748.837.41.242-.522-.19-1.012-.45-1.266Z" clip-rule="evenodd"/>
    <path fill="#BB5200" fill-rule="evenodd" d="M10.84 3.414a.1.1 0 0 0-.075.03.167.167 0 0 0-.043.087.474.474 0 0 0-.013.232.181.181 0 0 0 .007.105.12.12 0 0 0 .061.068c.198.108.336.342.563.368a.084.084 0 0 0 .042-.01.11.11 0 0 0 .035-.03.154.154 0 0 0 .024-.048.182.182 0 0 0 .008-.056.977.977 0 0 0-.203-.52.577.577 0 0 0-.407-.226Zm1.346-1.834a.795.795 0 0 0-.136-.269.56.56 0 0 0-.208-.166.26.26 0 0 0-.284.028.073.073 0 0 0-.038.01.099.099 0 0 0-.03.03.78.78 0 0 0-.119.272.208.208 0 0 0-.001.073.185.185 0 0 0 .023.065.13.13 0 0 0 .043.045c.017.01.035.015.053.015a1.27 1.27 0 0 1 .558.09.09.09 0 0 0 .06-.003.119.119 0 0 0 .051-.041.177.177 0 0 0 .029-.07.205.205 0 0 0 0-.08Zm.618 1.754h-.011a.072.072 0 0 0-.064-.013.094.094 0 0 0-.054.047c-.268.403.368.693.502.93.07.124.191.01.203-.106.036-.361-.29-.899-.576-.858Zm1.787-1.07a1.254 1.254 0 0 0-.32-.53.256.256 0 0 0-.11-.082.2.2 0 0 0-.127-.006.182.182 0 0 0-.076.066.27.27 0 0 0-.042.107.388.388 0 0 0-.063.183.41.41 0 0 0 .016.144.33.33 0 0 0 .063.12c.028.033.06.056.096.069.131.069.278.063.41.128a.09.09 0 0 0 .066.008.113.113 0 0 0 .058-.042.175.175 0 0 0 .033-.077.206.206 0 0 0-.004-.088Zm.699 2.274c-.092-.295-.344-.627-.598-.605a.099.099 0 0 0-.073.03.163.163 0 0 0-.044.083.356.356 0 0 0-.01.17c.01.056.034.106.067.143l.013.024a.95.95 0 0 0 .508.378.09.09 0 0 0 .067-.003.123.123 0 0 0 .056-.05.203.203 0 0 0 .013-.17Zm-2.974.569a.113.113 0 0 0-.077.035.182.182 0 0 0-.047.088.261.261 0 0 0 .023.179.17.17 0 0 0 .055.06.12.12 0 0 0 .068.02c.118.13.213.296.339.415.018.013.037.02.058.02.02 0 .04-.007.057-.02a.142.142 0 0 0 .043-.054.195.195 0 0 0 .018-.076.848.848 0 0 0-.174-.468.494.494 0 0 0-.363-.199Zm2.458.784a.628.628 0 0 0-.218-.254.428.428 0 0 0-.286-.069.11.11 0 0 0-.021-.014.091.091 0 0 0-.078.009.141.141 0 0 0-.056.071.191.191 0 0 0-.04.08.262.262 0 0 0 .015.156c.001.156.024.313.158.346.133.033.28-.09.424-.092.02 0 .04-.008.058-.022a.143.143 0 0 0 .042-.056.198.198 0 0 0 .002-.155Zm1.353-3.326c-.062-.207-.15-.43-.344-.38-.22.056-.22.37-.118.616a.162.162 0 0 0 .001.072.127.127 0 0 0 .032.06c.109.143.23.27.36.376a.1.1 0 0 0 .058.02c.02.001.04-.006.058-.019a.141.141 0 0 0 .044-.055.196.196 0 0 0 .017-.076 1.905 1.905 0 0 0-.108-.614Zm.765 2.199a.694.694 0 0 0-.263-.342.199.199 0 0 0-.195-.015.078.078 0 0 0-.046.01.107.107 0 0 0-.037.037.501.501 0 0 0-.128.279c-.007.09.06.157.118.157.14.01.28.045.413.105.11.058.18-.115.138-.23Zm-.07 1.049a.325.325 0 0 0-.263-.102.218.218 0 0 0-.147.075.093.093 0 0 0-.06.033.152.152 0 0 0-.034.073.184.184 0 0 0 .004.085c.008.028.023.05.042.066a.342.342 0 0 0 .237.115.333.333 0 0 0 .241-.1.17.17 0 0 0 .029-.06.203.203 0 0 0-.011-.135.145.145 0 0 0-.038-.05Zm1.373-.16a1.02 1.02 0 0 0-.3-.553.1.1 0 0 0-.06-.027.095.095 0 0 0-.063.02.144.144 0 0 0-.045.059.202.202 0 0 0-.015.083.558.558 0 0 0 .025.19.444.444 0 0 0 .085.158.53.53 0 0 0 .2.241c.087.052.203-.022.173-.17Zm.959 1.469a.836.836 0 0 0-.103-.254.148.148 0 0 0-.013-.066.1.1 0 0 0-.04-.045.67.67 0 0 0-.128-.07.144.144 0 0 0-.02-.016.097.097 0 0 0-.057-.004.114.114 0 0 0-.053.03.165.165 0 0 0-.037.057.215.215 0 0 0-.015.074.662.662 0 0 0 .14.368c.05.055.108.097.17.124a.096.096 0 0 0 .063.001.122.122 0 0 0 .056-.04.184.184 0 0 0 .034-.073.222.222 0 0 0 .003-.086Z" clip-rule="evenodd"/>
    <path fill="#8DB54F" fill-rule="evenodd" d="M13.866 2.421c-.148-.19-.31-.36-.482-.508a.59.59 0 0 0-.377-.053.48.48 0 0 1 .16-.14.13.13 0 0 0 .038-.05.176.176 0 0 0 0-.139.13.13 0 0 0-.037-.05 21.061 21.061 0 0 1-.065-.264c.02-.107-.071-.23-.15-.157-.162.147-.308.314-.472.47a.747.747 0 0 0-.13-.247.529.529 0 0 0-.197-.153.075.075 0 0 0-.044-.002.09.09 0 0 0-.04.024.13.13 0 0 0-.03.045.168.168 0 0 0-.01.057c0 .185-.286.141-.398.206a.12.12 0 0 0-.034.041.179.179 0 0 0-.014.119c.004.02.012.038.023.053l.026.027a.621.621 0 0 0-.29.324.175.175 0 0 0 .002.142.12.12 0 0 0 .04.05.083.083 0 0 0 .055.015c.167 0 .4-.157.59-.172a.886.886 0 0 0-.156.254.177.177 0 0 0-.001.139.13.13 0 0 0 .037.051c.016.013.034.02.052.02h.088c-.228.38-.385.717-.323 1.272.006.027.017.05.033.069a.1.1 0 0 0 .056.034c.02.004.041 0 .06-.012a.125.125 0 0 0 .046-.054c.117-.293.273-.556.461-.776l.046.09c.012.026.03.046.052.057a.084.084 0 0 0 .068.006.11.11 0 0 0 .056-.049.175.175 0 0 0 .025-.083c.007-.077.008-.157.013-.234l.011-.18a.49.49 0 0 0 .02-.055.07.07 0 0 0 .052.018.29.29 0 0 1 .105.121.412.412 0 0 1 .043.176c.006.027.017.05.033.069.015.018.035.03.056.034.02.004.041 0 .06-.012a.125.125 0 0 0 .047-.053c.03-.18.126-.226.287-.14.012.01.026.016.04.02a.08.08 0 0 0 .04-.003.097.097 0 0 0 .039-.023.135.135 0 0 0 .028-.041.315.315 0 0 1 .13-.102.243.243 0 0 1 .153-.01.09.09 0 0 0 .058-.023.143.143 0 0 0 .04-.063.187.187 0 0 0-.02-.155Z" clip-rule="evenodd"/>
    <path fill="#5F825C" fill-rule="evenodd" d="M12.45 2.123c-.07.077-.132.165-.185.262a.685.685 0 0 0-.18.059.023.023 0 0 0-.005.013c0 .005.002.01.004.013a.013.013 0 0 0 .01.006.742.742 0 0 0 .14-.038 5.133 5.133 0 0 0-.247.62.512.512 0 0 0-.125.106c-.008.01 0 .03.01.02a.66.66 0 0 1 .1-.087c-.027.081-.057.157-.088.237-.01.026.022.053.032.025.03-.08.06-.157.089-.239a.374.374 0 0 0 0 .104.02.02 0 0 0 .005.01.012.012 0 0 0 .008.003.012.012 0 0 0 .009-.003.019.019 0 0 0 .005-.01c0-.05-.008-.102 0-.157a.02.02 0 0 0 .002-.009.02.02 0 0 0-.002-.008c.066-.185.14-.366.22-.541v.143c0 .047.037.034.038 0a1.99 1.99 0 0 0 0-.222c.052-.103.11-.202.172-.294.006-.007-.004-.022-.013-.013Zm-.077-.147c-.06-.04-.118-.088-.182-.13a.875.875 0 0 1 0-.294l.033-.033a.175.175 0 0 0 .046-.048.015.015 0 0 0 .002-.007l-.002-.008a.01.01 0 0 0-.005-.004h-.006a.114.114 0 0 0-.06.044c.01-.058.016-.116.02-.174 0-.025-.028-.028-.033 0-.017.071-.03.145-.039.22a.893.893 0 0 0-.066-.114c-.007 0 0 0 0 0 .029.048.051.1.066.157a.766.766 0 0 0 .013.235.49.49 0 0 0-.236-.094c0-.01 0-.018.01-.03a.034.034 0 0 0 0-.014.026.026 0 0 0-.007-.012.859.859 0 0 0-.106-.051.018.018 0 0 0-.008.003.026.026 0 0 0-.007.007.035.035 0 0 0-.004.021c0 .004 0 .008.002.011a.029.029 0 0 0 .006.009.02.02 0 0 0 .007.005c.027.009.054.023.082.031v.02a.287.287 0 0 0-.114.028.01.01 0 0 0-.002.005c0 .002 0 .004.002.006a.005.005 0 0 0 .004.002.358.358 0 0 1 .098-.01.59.59 0 0 1-.056.115s0 .013.009 0a.67.67 0 0 0 .053-.08.301.301 0 0 0 .017-.04c.159.044.31.128.444.247.02.024.036-.012.019-.023Zm.577-.722c.01-.02-.012-.04-.025-.026-.035.04-.068.081-.1.125a.008.008 0 0 0-.004-.002l-.004.001a.01.01 0 0 0-.004.004.013.013 0 0 0-.002.005v.02c-.057.085-.11.176-.155.272 0-.049.014-.097.016-.148 0-.018-.02-.017-.022 0 0 .073-.023.143-.026.215a2.022 2.022 0 0 0-.066.17c0 .014.01.026.015.012.02-.045.044-.088.066-.132a.243.243 0 0 0 .153-.054v-.02a.118.118 0 0 0-.063.015l-.062.016c.038-.068.08-.134.118-.2 0 .014.007.027.018.022.039-.014.106-.01.132-.053a.01.01 0 0 0 .003-.004l.001-.005V1.48a.01.01 0 0 0-.004-.004.105.105 0 0 0-.058 0l-.055.019V1.46c.039-.049.084-.127.127-.206Zm.538 1.152a.553.553 0 0 1-.294-.011.57.57 0 0 0 .126-.016c.022 0 .016-.052 0-.052-.064 0-.129.017-.193.027a.017.017 0 0 0-.008.003.024.024 0 0 0-.007.008 1.324 1.324 0 0 1-.167-.085c.026.01.054.006.079-.01a.014.014 0 0 0 .005-.007.02.02 0 0 0 .001-.008.02.02 0 0 0-.002-.008.014.014 0 0 0-.004-.006.093.093 0 0 0-.062-.014l-.099-.017-.008.001a.017.017 0 0 0-.006.008.519.519 0 0 0-.236-.093c-.012 0-.015.026 0 .029.085.023.168.06.247.11.02.064.045.126.073.186.008.011.025 0 .02-.014-.013-.047-.026-.097-.041-.143.072.043.142.087.215.121.02.049.043.094.07.136.007.011.017 0 .013-.012-.01-.036-.025-.07-.038-.105a.472.472 0 0 0 .333.017.02.02 0 0 0 .006-.006.032.032 0 0 0 .005-.018.03.03 0 0 0-.002-.01.025.025 0 0 0-.005-.007.018.018 0 0 0-.006-.006.014.014 0 0 0-.008 0 .016.016 0 0 0-.007.002Zm-.994.192c.016-.076.029-.153.038-.232 0-.012-.014-.017-.02 0a1.04 1.04 0 0 0-.06.273.89.89 0 0 0-.057.093c-.007.012.008.03.017.017l.035-.05v.114a.49.49 0 0 0-.038.083c0 .013.013.022.017.01a.305.305 0 0 1 .022-.043c.001.043.004.086.008.129 0 .014.018.01.018 0v-.11c.005.01.008.02.01.03l.003.007a.016.016 0 0 0 .004.005.012.012 0 0 0 .006.002h.005a.014.014 0 0 0 .005-.003.02.02 0 0 0 .004-.006.024.024 0 0 0 .002-.014c0-.035-.03-.055-.038-.088-.008-.033.007-.1.013-.148.007.022.01.045.013.068 0 .026.036.015.032-.011a.365.365 0 0 0-.03-.11l-.009-.016Z" clip-rule="evenodd"/>
    <path fill="#8DB54F" fill-rule="evenodd" d="M13.952 7.399a2.954 2.954 0 0 0-.154-.433.458.458 0 0 0-.186-.157.2.2 0 0 1 .11-.017.053.053 0 0 0 .03-.013.079.079 0 0 0 .02-.031.104.104 0 0 0 .007-.04.104.104 0 0 0-.008-.04l.018-.157c.03-.048.007-.144-.047-.135-.118.02-.223.061-.336.085a.535.535 0 0 0-.02-.17.444.444 0 0 0-.071-.144.056.056 0 0 0-.023-.016.044.044 0 0 0-.026-.002.052.052 0 0 0-.024.014.074.074 0 0 0-.017.026c-.04.096-.177-.023-.247-.03a.05.05 0 0 0-.026.01.07.07 0 0 0-.02.025.106.106 0 0 0-.008.07l.008.02a.262.262 0 0 0-.215.07.075.075 0 0 0-.022.03.103.103 0 0 0 0 .08.075.075 0 0 0 .022.03c.088.054.236.054.344.114a.4.4 0 0 0-.13.078.076.076 0 0 0-.022.03.103.103 0 0 0 0 .08.076.076 0 0 0 .021.03.37.37 0 0 0 .046.027c-.192.12-.34.241-.416.552a.11.11 0 0 0 .003.047.084.084 0 0 0 .022.038c.01.01.022.015.035.015a.052.052 0 0 0 .035-.013c.117-.111.249-.193.389-.243 0 .02 0 .041.005.062a.1.1 0 0 0 .015.05.068.068 0 0 0 .034.027.049.049 0 0 0 .04-.006.075.075 0 0 0 .03-.037l.051-.12c.013-.03.028-.059.043-.087l.02-.024a.06.06 0 0 0 .024.029.257.257 0 0 1 .02.205.108.108 0 0 0 .003.047.085.085 0 0 0 .022.037c.01.01.021.015.033.016a.051.051 0 0 0 .035-.012c.052-.083.11-.075.178.027.004.009.01.017.016.023.007.006.014.01.022.013a.046.046 0 0 0 .024 0 .053.053 0 0 0 .023-.011.145.145 0 0 1 .088-.008.17.17 0 0 1 .082.047c.056.02.122-.044.1-.108Z" clip-rule="evenodd"/>
    <path fill="#5F825C" fill-rule="evenodd" d="M13.271 6.754a.51.51 0 0 0-.145.074.324.324 0 0 0-.099-.031c-.01 0-.014.015 0 .02a.486.486 0 0 0 .08.028c-.09.07-.173.15-.252.239a.206.206 0 0 0-.086.012v.014a.277.277 0 0 1 .07-.01l-.093.092c-.01.01 0 .034.012.023l.093-.094a.223.223 0 0 0-.017.057c0 .002.001.003.003.005a.007.007 0 0 0 .004.002l.005-.002a.01.01 0 0 0 .003-.005c.012-.025.015-.057.028-.082a.011.011 0 0 0 0-.01 2.98 2.98 0 0 1 .217-.206l-.03.072a.02.02 0 0 0 0 .01.015.015 0 0 0 .006.007.01.01 0 0 0 .007.002.011.011 0 0 0 .007-.005.885.885 0 0 0 .045-.113.983.983 0 0 1 .147-.096s.002-.004-.005-.003Zm.487.505a.426.426 0 0 1-.152-.107c.024.013.046.025.07.035.023.009.019-.02.007-.029-.033-.022-.07-.036-.105-.053a.01.01 0 0 0-.01 0 .923.923 0 0 1-.07-.103.06.06 0 0 0 .02.016.046.046 0 0 0 .022.006s.01 0 0-.015a.09.09 0 0 0-.03-.028l-.048-.044h-.01a.451.451 0 0 0-.104-.13s-.012 0-.007.014a.81.81 0 0 1 .107.143 1.04 1.04 0 0 0 0 .122h.013c.001 0 0-.058.006-.088.028.047.058.096.088.138a.743.743 0 0 0 .01.096c0 .008.01 0 .01 0v-.067a.354.354 0 0 0 .18.126.014.014 0 0 0 .007-.008.023.023 0 0 0 .002-.013.018.018 0 0 0-.006-.011Zm-.556-.243a.923.923 0 0 0 .066-.107c0-.007 0-.015-.009-.01a.446.446 0 0 0-.084.122.316.316 0 0 0-.049.028c-.007 0 0 .017 0 .014l.029-.014-.024.06a.145.145 0 0 0-.037.03s0 .015.007.01a.116.116 0 0 1 .02-.015.978.978 0 0 0-.02.07c-.007.022.006.013.009 0 .002-.012.015-.037.022-.056a.05.05 0 0 1 0 .019l.002.007a.008.008 0 0 0 .006.004.008.008 0 0 0 .006-.004.013.013 0 0 0 .003-.007v-.06c0-.02.022-.049.035-.072a.233.233 0 0 1 0 .039c0 .016.014.022.019 0a.262.262 0 0 0 0-.067l-.001.009Z" clip-rule="evenodd"/>
    <path fill="#8DB54F" fill-rule="evenodd" d="M15.649 3.307a1.633 1.633 0 0 0-.096-.273.289.289 0 0 0-.118-.1.132.132 0 0 1 .07-.011.033.033 0 0 0 .019-.009.049.049 0 0 0 .013-.019.066.066 0 0 0-.001-.05c0-.035.008-.068.011-.101.004-.033 0-.093-.03-.086-.071.014-.14.039-.211.053a.355.355 0 0 0-.013-.11.297.297 0 0 0-.045-.092.037.037 0 0 0-.015-.01.029.029 0 0 0-.017-.002.033.033 0 0 0-.015.01.048.048 0 0 0-.01.016c-.026.06-.112-.016-.158-.019a.03.03 0 0 0-.016.006.044.044 0 0 0-.012.015.067.067 0 0 0-.004.057.16.16 0 0 0-.136.044.049.049 0 0 0-.014.02.066.066 0 0 0 0 .05.049.049 0 0 0 .014.018c.056.035.152.036.218.072a.26.26 0 0 0-.083.05.047.047 0 0 0-.014.02.065.065 0 0 0 0 .05.047.047 0 0 0 .014.02l.03.016a.435.435 0 0 0-.157.137.62.62 0 0 0-.097.214c-.001.01 0 .02.003.03.003.01.008.017.014.023a.034.034 0 0 0 .021.01.033.033 0 0 0 .022-.008.699.699 0 0 1 .247-.157v.04c0 .01.004.02.01.03a.04.04 0 0 0 .02.016.031.031 0 0 0 .026-.003.046.046 0 0 0 .018-.022l.033-.075c.01-.025.018-.038.027-.057l.013-.014a.035.035 0 0 0 .014.017.163.163 0 0 1 .013.13.07.07 0 0 0 .002.03c.003.01.008.018.014.024.006.006.014.01.021.01a.033.033 0 0 0 .022-.007c.033-.053.071-.047.118.016.006.011.015.02.025.023.01.003.02.001.03-.006a.09.09 0 0 1 .055-.005.106.106 0 0 1 .05.03c.028.022.069-.02.055-.061Z" clip-rule="evenodd"/>
    <path fill="#5F825C" fill-rule="evenodd" d="M15.526 3.22a.273.273 0 0 1-.095-.068l.043.022c.009 0 .012-.014 0-.019l-.066-.033a.006.006 0 0 0-.003-.001l-.004.001a.56.56 0 0 1-.045-.064.041.041 0 0 0 .027.014s.006 0 0-.01a.077.077 0 0 0-.018-.018l-.031-.027a.284.284 0 0 0-.066-.083s-.008 0 0 .01a.555.555 0 0 1 .067.089v.078c0 .025.008 0 .008 0a.443.443 0 0 0 0-.056c.02.03.037.06.057.086 0 .02.003.041.007.061h.006V3.16a.22.22 0 0 0 .107.077.006.006 0 0 0 .006 0 .008.008 0 0 0 .004-.005v-.007a.01.01 0 0 0-.004-.006Zm-.351-.154a.79.79 0 0 0 .041-.07s0-.007-.006 0a.288.288 0 0 0-.053.077l-.03.02v.009l.017-.01-.015.038a.091.091 0 0 0-.023.019v.008l.012-.011c0 .015-.01.031-.013.045-.003.014 0 0 0 0l.014-.036v.011h.011V3.13l.022-.047a.096.096 0 0 1 0 .025c0 .01.01.013.012 0a.125.125 0 0 0 0-.042h.01Z" clip-rule="evenodd"/>
    <path fill="#8DB54F" fill-rule="evenodd" d="M18.616 5.578a1.71 1.71 0 0 0-.354-.21.367.367 0 0 0-.236.044.373.373 0 0 1 .08-.116.097.097 0 0 0 .018-.038.116.116 0 0 0 0-.045.1.1 0 0 0-.015-.04.067.067 0 0 0-.028-.023l-.069-.146c0-.069-.07-.125-.108-.066-.082.123-.15.256-.228.381a.39.39 0 0 0-.107-.123.282.282 0 0 0-.136-.054.05.05 0 0 0-.027.008.069.069 0 0 0-.022.023.108.108 0 0 0-.012.07c.016.114-.157.144-.217.205a.09.09 0 0 0-.016.032.11.11 0 0 0 .005.074.09.09 0 0 0 .02.027l.02.013a.467.467 0 0 0-.139.254.114.114 0 0 0 0 .044.096.096 0 0 0 .015.039.07.07 0 0 0 .029.023.05.05 0 0 0 .033.002c.1-.036.223-.176.34-.226a.68.68 0 0 0-.065.185.114.114 0 0 0-.001.045.097.097 0 0 0 .016.04.065.065 0 0 0 .029.022.05.05 0 0 0 .034.001c.016 0 .032-.012.051-.02-.093.274-.15.511-.048.834a.077.077 0 0 0 .027.031c.012.007.024.01.036.008a.06.06 0 0 0 .033-.018.09.09 0 0 0 .022-.038c.037-.2.101-.389.189-.558l.036.045a.07.07 0 0 0 .04.036.053.053 0 0 0 .047-.008.087.087 0 0 0 .031-.048.118.118 0 0 0 0-.063c0-.047-.012-.096-.019-.144a1.81 1.81 0 0 1-.013-.112v-.037a.043.043 0 0 0 .035 0c.03.007.057.026.079.054a.232.232 0 0 1 .044.103.077.077 0 0 0 .028.03c.01.007.023.01.035.008a.06.06 0 0 0 .034-.018.092.092 0 0 0 .021-.038c0-.114.051-.156.158-.142a.05.05 0 0 0 .051-.006.074.074 0 0 0 .02-.022.099.099 0 0 0 .013-.03.239.239 0 0 1 .067-.088.164.164 0 0 1 .091-.036c.015 0 .03-.006.042-.019a.095.095 0 0 0 .024-.048.117.117 0 0 0-.004-.058.085.085 0 0 0-.029-.043Z" clip-rule="evenodd"/>
    <path fill="#5F825C" fill-rule="evenodd" d="M17.727 5.685a.994.994 0 0 0-.08.196.422.422 0 0 0-.1.073c-.002.002-.002.005 0 .008a.01.01 0 0 0 .003.006.006.006 0 0 0 .006 0 .56.56 0 0 0 .079-.05c-.034.139-.06.281-.077.425a.394.394 0 0 0-.063.09s0 .017.01.009a.458.458 0 0 1 .049-.072 3.99 3.99 0 0 1-.026.157c0 .018.019.028.022.01l.026-.158a.175.175 0 0 0 .015.061c.006.013.017 0 .016 0a.513.513 0 0 1-.02-.102c.02-.123.04-.247.07-.368l.013.088c.005.03.026.012.024-.008a1.226 1.226 0 0 0-.024-.133c.02-.074.042-.145.07-.214l-.013-.018Zm-.064-.075c-.041-.01-.084-.026-.125-.04a.57.57 0 0 1-.03-.179l.017-.027a.14.14 0 0 0 .021-.039.01.01 0 0 0 0-.004l-.001-.004a.005.005 0 0 0-.003-.002h-.004a.11.11 0 0 0-.032.04.83.83 0 0 0-.008-.108.014.014 0 0 0-.004-.007.009.009 0 0 0-.006-.003.01.01 0 0 0-.006.003.015.015 0 0 0-.004.007 1.197 1.197 0 0 0 0 .144.47.47 0 0 0-.053-.055c.018.027.047.049.058.082a.443.443 0 0 0 .035.14.269.269 0 0 0-.153-.01v-.02c0-.008 0-.013-.007-.015a.47.47 0 0 0-.065-.01c-.018 0-.019.035 0 .035h.053v.013a.2.2 0 0 0-.063.036v.01a.237.237 0 0 1 .058-.027.51.51 0 0 1-.02.081h.006c.008-.018.017-.037.024-.058v-.03a.634.634 0 0 1 .297.06c.021.022.027-.01.015-.012Zm.263-.548c0-.014-.012-.022-.017-.01a1.09 1.09 0 0 0-.045.095h-.009v.028a1.702 1.702 0 0 0-.062.196 1.239 1.239 0 0 0-.007-.093c0-.01-.014 0-.013 0 0 .046 0 .091.01.135.009.044-.016.079-.022.116 0 .01.01.014.01 0 .002-.014.017-.062.026-.094a.16.16 0 0 0 .086-.064v-.01a.088.088 0 0 0-.038.023l-.035.021c.015-.048.033-.097.049-.144 0 .002 0 .004.002.005a.01.01 0 0 0 .003.004.007.007 0 0 0 .008 0c.022-.017.063-.028.074-.059V5.2a.066.066 0 0 0-.034.017l-.03.022v-.023c.01-.05.029-.1.044-.154Zm.46.583a.363.363 0 0 1-.18.055.585.585 0 0 0 .075-.036.014.014 0 0 0 .007-.008.02.02 0 0 0 0-.012.015.015 0 0 0-.006-.01.01.01 0 0 0-.01 0 .852.852 0 0 0-.117.055s-.007 0-.007.01a.553.553 0 0 1-.112-.018.058.058 0 0 0 .049-.026.014.014 0 0 0 0-.01.01.01 0 0 0-.003-.004.083.083 0 0 0-.039 0c-.02 0-.041 0-.061.009a.018.018 0 0 0-.009.01.282.282 0 0 0-.153 0c-.007 0-.006.017 0 .017a.554.554 0 0 1 .16.015c.02.035.043.068.067.1.005 0 .015 0 .01-.015l-.041-.077c.048.013.097.024.144.03a.393.393 0 0 0 .058.067c.005 0 .01 0 .007-.009-.004-.01-.024-.038-.036-.056a.3.3 0 0 0 .203-.059c.018-.012.006-.037-.006-.028Zm-.578.314c.003-.05.003-.098 0-.147h-.013a.73.73 0 0 0 0 .177.619.619 0 0 0-.025.067c0 .01.009.016.014 0 .004-.016.009-.025.015-.037l.01.069a.337.337 0 0 0-.012.058c0 .009.01.012.011 0a.154.154 0 0 1 .009-.032.886.886 0 0 0 .018.077h.011c-.002 0-.008-.045-.012-.067.004.004.007.01.01.015.005.014.022 0 .016-.01-.006-.012-.023-.029-.033-.046-.01-.017-.007-.061-.01-.093a.217.217 0 0 1 .017.04c0 .015.023 0 .018-.015a.173.173 0 0 0-.044-.056Z" clip-rule="evenodd"/>
    <path fill="#E2CAB3" fill-rule="evenodd" d="M17.36 15.236c0 .48-.842.852-1.87.831-1.026-.02-1.854-.428-1.85-.908.005-.48.844-.853 1.871-.83 1.027.021 1.855.426 1.85.907Z" clip-rule="evenodd" style="mix-blend-mode:multiply"/>
    <path fill="#E7D8C8" fill-rule="evenodd" d="m18.034 12.28-5.072-.073.52 2.402c.117.71.962 1.255 1.992 1.286 1.109.037 1.8-.293 2.029-1.355l.53-2.26Z" clip-rule="evenodd"/>
    <path fill="#fff" fill-rule="evenodd" d="M18.058 12.039c-.008 1.002-1.158 1.795-2.568 1.776-1.41-.018-2.548-.848-2.54-1.85.009-1.002 1.159-1.796 2.57-1.772 1.41.023 2.547.845 2.538 1.846Z" clip-rule="evenodd"/>
    <path fill="#E2CAB3" fill-rule="evenodd" d="M17.97 11.996c-.007.941-1.117 1.692-2.477 1.673-1.36-.019-2.459-.8-2.452-1.744.007-.944 1.118-1.692 2.477-1.673 1.359.02 2.46.802 2.452 1.744Z" clip-rule="evenodd"/>
    <path fill="#C73A54" fill-rule="evenodd" d="M17.782 12.324c-.006.76-1.034 1.36-2.297 1.342-1.263-.017-2.276-.65-2.276-1.408 0-.757 1.035-1.36 2.297-1.342 1.262.017 2.283.65 2.276 1.408Z" clip-rule="evenodd"/>
    <path fill="#fff" fill-rule="evenodd" d="M15.542 11.408c-.862-.012-1.588.254-1.801.627a3.057 3.057 0 0 1 1.237-.208c.908.012 1.641.313 1.64.685 0 .323-.585.583-1.349.627.086 0 .175.013.264.014 1.028.016 1.864-.363 1.867-.846.004-.483-.831-.883-1.858-.899Z" clip-rule="evenodd" opacity=".1"/>
    <path fill="#ED6366" fill-rule="evenodd" d="M13.473 12.32a.25.25 0 0 0-.085.09s0 .013.007.01a.371.371 0 0 0 .09-.079.017.017 0 0 0 .002-.008.017.017 0 0 0-.002-.008.01.01 0 0 0-.006-.005h-.006Zm.183.126a.356.356 0 0 0-.106.137s0 .01.007.008c.045-.029.086-.066.127-.1.041-.032-.003-.065-.028-.045Zm.086-.382a.408.408 0 0 0-.056.097c0 .019.013.035.026.022a.312.312 0 0 0 .069-.083c.017-.025-.018-.064-.04-.036Zm.188.254c0-.01-.011 0-.012 0-.007.05-.017.108.014.147.007.008.02 0 .019-.01-.008-.046-.016-.09-.02-.137Zm-.103.342c-.04.012-.05.06-.054.105 0 .018.02.026.025 0a.601.601 0 0 1 .043-.091c.006-.003-.005-.018-.014-.014Zm.197.245a.173.173 0 0 0-.067.102c0 .01.009.021.016.01.021-.03.044-.06.067-.087a.022.022 0 0 0 .003-.011.02.02 0 0 0-.004-.01.013.013 0 0 0-.007-.006.01.01 0 0 0-.008.002Zm-.38-.065c0-.01-.018 0-.014.01a.21.21 0 0 0 .048.087c.007 0 .017 0 .013-.012-.003-.013-.033-.055-.047-.085Zm.667-.254a.873.873 0 0 0-.168.028.018.018 0 0 0-.004.007.024.024 0 0 0 .004.023.013.013 0 0 0 .006.004h.007c.053 0 .118 0 .157-.046.008-.005.004-.016-.002-.016Zm.024-.366a.118.118 0 0 0-.093.055.017.017 0 0 0-.002.006v.006l.002.006c0 .002.002.003.003.004a.01.01 0 0 0 .004.003h.005a.192.192 0 0 0 .09-.059.018.018 0 0 0 0-.013.014.014 0 0 0-.004-.005.01.01 0 0 0-.005-.002Zm-.226-.283c-.026.02-.029.056-.035.092-.005.036.02.022.025 0a.237.237 0 0 0 .03-.085.02.02 0 0 0-.002-.007.012.012 0 0 0-.006-.004.01.01 0 0 0-.007 0 .012.012 0 0 0-.005.004Zm.403-.019a.012.012 0 0 0-.01.005.02.02 0 0 0-.003.012.02.02 0 0 0 .004.012.012.012 0 0 0 .009.006h.054c.02 0 .026.014.04.015.014.002.01 0 .01-.01.008-.08-.073-.054-.104-.04Zm-.062-.184a.17.17 0 0 0-.068.016.012.012 0 0 0-.01.006.022.022 0 0 0-.004.013c0 .005.002.01.004.013a.013.013 0 0 0 .01.006.215.215 0 0 0 .066-.025.01.01 0 0 0 .008-.004.016.016 0 0 0 .003-.01c0-.004 0-.007-.002-.01a.01.01 0 0 0-.008-.005Zm.253.575c-.024-.035-.07-.024-.101-.046-.032-.022-.035.024-.017.038.018.014.084.053.118.023l.002-.003a.015.015 0 0 0 0-.009.012.012 0 0 0-.002-.003Zm-.07.34a.317.317 0 0 1-.057-.027c-.016-.013-.032.014-.017.027.01.01.022.02.035.024a.067.067 0 0 0 .038.002.01.01 0 0 0 .006-.005.018.018 0 0 0 0-.016.012.012 0 0 0-.005-.005Zm-.215.323a.214.214 0 0 1-.084 0c-.017 0-.025.031-.007.036.015.01.031.015.048.015a.087.087 0 0 0 .049-.015.015.015 0 0 0 .008-.008.023.023 0 0 0 .002-.014.02.02 0 0 0-.006-.012.011.011 0 0 0-.01-.002Zm-.167.268a.741.741 0 0 0-.081-.045c-.013-.01-.03 0-.019.021.011.02.026.035.044.043a.069.069 0 0 0 .054.001.007.007 0 0 0 .004-.003.014.014 0 0 0 .002-.012.01.01 0 0 0-.004-.005Zm.502.053a.565.565 0 0 0-.118.017c-.018 0-.022.03 0 .033a.163.163 0 0 0 .118-.025c.014-.008.009-.022 0-.025Zm-.018-.291c-.035 0-.061.037-.098.047a.012.012 0 0 0-.01.005.02.02 0 0 0-.003.012c0 .004.001.009.004.012a.012.012 0 0 0 .009.005.163.163 0 0 0 .105-.058c.012-.01 0-.025-.007-.023Zm.509.219c-.067.024-.133.058-.2.083-.017 0-.008.041.01.036a.308.308 0 0 0 .199-.1v-.013a.013.013 0 0 0-.004-.004.008.008 0 0 0-.005-.002Zm-.214-.268a.184.184 0 0 0-.064.09c-.007.02.018.035.028.018a.867.867 0 0 0 .055-.081c.007-.013-.003-.038-.018-.027Zm-.052-.4a.457.457 0 0 0-.106.118c-.011.014.008.037.02.023.033-.039.082-.07.099-.125.002-.01-.006-.024-.013-.016Zm.052-.478c-.044 0-.08.06-.11.094a.02.02 0 0 0-.006.012c-.001.005 0 .01.001.014a.016.016 0 0 0 .01.01c.003 0 .007 0 .01-.003.04-.025.093-.054.106-.108a.02.02 0 0 0 0-.007.019.019 0 0 0-.002-.007.014.014 0 0 0-.004-.004.01.01 0 0 0-.005-.001Zm-.149-.157a.275.275 0 0 0-.073.077c-.013.019.012.04.026.023a.398.398 0 0 0 .06-.08.018.018 0 0 0 .002-.008.016.016 0 0 0-.003-.008.01.01 0 0 0-.005-.005l-.007.001Zm.083-.22a.233.233 0 0 0-.125.023.014.014 0 0 0-.003.009l.003.009a.008.008 0 0 0 .007.003c.037-.01.076-.017.118-.03v-.014Zm.421.072c-.037 0-.073-.012-.11-.014-.006 0-.007.01 0 .01.037 0 .072.019.11.02h.002l.002-.002.001-.003v-.003a.01.01 0 0 0-.001-.005l-.002-.002h-.002Zm-.015.174c-.028-.055-.108-.039-.151-.022-.02 0-.013.044.005.046h.075c.02.003.04.003.061 0a.013.013 0 0 0 .005-.003.021.021 0 0 0 .006-.013v-.008Zm0 .378a.173.173 0 0 0-.136.029c-.02.009-.007.045.013.036.041-.018.085-.02.125-.04a.013.013 0 0 0 .004-.005.017.017 0 0 0 0-.015.012.012 0 0 0-.005-.005Zm.004.368a.492.492 0 0 0-.062.032c-.016.01 0 .041.01.032a.445.445 0 0 0 .06-.049c.006-.003 0-.019-.008-.016Zm.27.303a.87.87 0 0 0-.118.1c-.018.013 0 .043.02.03a.283.283 0 0 0 .118-.115c-.003-.01-.013-.02-.02-.015Zm.223.243a.574.574 0 0 0-.126.075.021.021 0 0 0-.005.01l.001.012a.017.017 0 0 0 .006.009.011.011 0 0 0 .01.002.628.628 0 0 0 .126-.079.019.019 0 0 0 .004-.01l-.001-.01a.016.016 0 0 0-.006-.009.01.01 0 0 0-.009 0Zm.517-.22c-.047.037-.088.09-.135.131-.015.014 0 .043.02.029a.41.41 0 0 0 .132-.145c.005-.015-.008-.015-.017-.015Zm.346-.403a.575.575 0 0 0-.046.133c-.007.024.025.04.032.014a.367.367 0 0 0 .036-.14c-.005-.013-.016-.016-.022-.007Zm-.67.193a.578.578 0 0 0-.058.119c-.008.019.017.037.027.019a.538.538 0 0 0 .055-.123c0-.003 0-.007-.002-.01a.017.017 0 0 0-.006-.008.01.01 0 0 0-.008-.002.013.013 0 0 0-.008.005Zm-.29-.363a.363.363 0 0 0-.064.105c-.015.03.022.062.035.033a.324.324 0 0 0 .043-.127v-.007a.011.011 0 0 0-.004-.005.008.008 0 0 0-.006-.002.008.008 0 0 0-.005.003Zm-.051-.463a.548.548 0 0 0-.052.142c-.011.028.026.045.036.017a.345.345 0 0 0 .037-.157c-.002-.01-.014-.01-.021-.003Zm.297.023a.199.199 0 0 0-.06.045c-.023.022.009.061.028.034a.41.41 0 0 0 .042-.064c.005-.01-.002-.019-.01-.015Zm.238.262c-.04.02-.065.09-.08.136 0 .004.001.009.003.012a.018.018 0 0 0 .006.009.012.012 0 0 0 .01.002.014.014 0 0 0 .008-.006c.023-.042.07-.087.067-.144a.019.019 0 0 0-.002-.005.012.012 0 0 0-.003-.004.009.009 0 0 0-.005-.001h-.004Zm.202.295-.03.03c-.018.02.01.05.024.027a.37.37 0 0 0 .022-.048.015.015 0 0 0-.003-.009.008.008 0 0 0-.007-.003.009.009 0 0 0-.006.004Zm.077-.443c-.006 0-.015 0-.016.01-.01.036 0 .076 0 .116 0 .039.039.036.04 0 .001-.036.017-.109-.024-.126Zm-.756-.357a.398.398 0 0 0-.155-.021c-.018 0-.02.028 0 .033.05.018.103.026.155.023a.012.012 0 0 0 .01-.005.02.02 0 0 0 .003-.012.02.02 0 0 0-.003-.012.012.012 0 0 0-.01-.005Zm-.204.548c0-.02-.027-.022-.033 0a.215.215 0 0 0-.008.1c0 .012.021.023.028 0a.202.202 0 0 0 .013-.1Zm-.2.707c0-.022-.032-.022-.032 0a.105.105 0 0 0 .003.042c.004.013.01.025.018.034.006 0 .018 0 .018-.01a.263.263 0 0 0-.007-.066Zm.062.295c-.01 0-.02.003-.028.01a.078.078 0 0 0-.023.024c-.013.015 0 .043.017.028a.213.213 0 0 0 .04-.052s0-.01-.006-.01Zm.859-1.348c-.019-.03-.05-.038-.075-.058-.025-.02-.031.01-.02.025.01.018.024.031.039.041.015.01.032.014.049.014.002 0 .004 0 .006-.002a.012.012 0 0 0 .004-.006.017.017 0 0 0 0-.007.013.013 0 0 0-.003-.007Zm-.284.441a.34.34 0 0 0-.048.156c0 .005 0 .009.002.013a.019.019 0 0 0 .007.008.012.012 0 0 0 .01.002.015.015 0 0 0 .008-.005.298.298 0 0 0 .046-.157.017.017 0 0 0-.003-.01.018.018 0 0 0-.006-.008.013.013 0 0 0-.007-.003.012.012 0 0 0-.008.004Z" clip-rule="evenodd"/>
    <path fill="#48264C" fill-rule="evenodd" d="M13.862 11.951a.304.304 0 0 0-.09.096s0 .014.008.01a.385.385 0 0 0 .096-.084c.007-.011-.003-.028-.014-.022Zm.196.135a.363.363 0 0 0-.118.146s0 .012.008.01c.047-.032.091-.073.136-.108.045-.034.001-.07-.026-.048Zm.094-.411a.383.383 0 0 0-.059.103v.014a.024.024 0 0 0 .007.011.015.015 0 0 0 .01.005.015.015 0 0 0 .01-.005.313.313 0 0 0 .074-.089c.017-.034-.02-.069-.042-.04Zm.202.273c0-.003 0-.005-.002-.007a.007.007 0 0 0-.005-.003.007.007 0 0 0-.005.003.012.012 0 0 0-.002.007c-.007.053-.019.116.015.157.007.01.021 0 .02-.011-.007-.047-.016-.096-.021-.146Zm-.112.367c-.044.014-.053.063-.058.113 0 .018.023.028.027.01a.496.496 0 0 1 .046-.1c.006-.01-.006-.028-.015-.023Zm.211.262a.186.186 0 0 0-.072.11.017.017 0 0 0 0 .01c0 .003.002.006.005.007a.007.007 0 0 0 .007 0 .01.01 0 0 0 .006-.006c.021-.035.05-.062.072-.095.022-.032-.005-.035-.018-.026Zm-.408-.067c0-.011-.018 0-.014.009.01.037.029.069.052.094.007 0 .017 0 .013-.014a.711.711 0 0 0-.051-.09Zm.717-.278a1.01 1.01 0 0 0-.167.028.012.012 0 0 0-.01.006.022.022 0 0 0-.005.013c0 .005.002.01.005.013a.013.013 0 0 0 .01.006c.057 0 .127 0 .168-.049a.01.01 0 0 0 .002-.004v-.01a.011.011 0 0 0-.003-.003Zm.026-.389a.109.109 0 0 0-.053.014.142.142 0 0 0-.044.04.02.02 0 0 0-.004.011c0 .004 0 .008.003.012a.013.013 0 0 0 .007.007.01.01 0 0 0 .009-.001.186.186 0 0 0 .09-.061.014.014 0 0 0 .002-.007v-.008a.013.013 0 0 0-.004-.005.008.008 0 0 0-.006-.002Zm-.243-.304c-.028.021-.03.06-.038.098-.007.038.02.024.027.008a.226.226 0 0 0 .032-.09c.001-.016-.012-.023-.021-.016Zm.433-.025c-.019 0-.015.037 0 .036a.233.233 0 0 1 .058 0c.014 0 .028.014.042.015h.004a.007.007 0 0 0 .003-.001.014.014 0 0 0 .003-.01c.008-.078-.078-.05-.11-.04Zm-.068-.192a.2.2 0 0 0-.083.022.025.025 0 0 0-.005.014c0 .006.002.01.005.015a.014.014 0 0 0 .01.006.195.195 0 0 0 .077-.032.02.02 0 0 0 .002-.009.02.02 0 0 0-.001-.01.013.013 0 0 0-.006-.006Zm.272.615c-.025-.036-.074-.025-.109-.048-.034-.024-.036.026-.018.04.017.014.09.058.126.025.005-.003.005-.01 0-.017Zm-.074.367a.335.335 0 0 1-.063-.03c-.017-.012-.034.016-.018.03a.09.09 0 0 0 .037.024.074.074 0 0 0 .041.003.015.015 0 0 0 .003-.027Zm-.232.346a.295.295 0 0 1-.09 0c-.018 0-.026.033-.009.04.017.01.035.016.053.016a.095.095 0 0 0 .052-.016.015.015 0 0 0 .01-.009.026.026 0 0 0 .002-.015.02.02 0 0 0-.006-.013.012.012 0 0 0-.012-.003Zm-.179.288c-.025-.024-.059-.029-.087-.05-.028-.022-.03.009-.02.024a.101.101 0 0 0 .047.046.073.073 0 0 0 .058 0 .008.008 0 0 0 .004-.003.014.014 0 0 0 .002-.012.01.01 0 0 0-.004-.005Zm.538.058a.539.539 0 0 0-.118.017c-.019 0-.022.031 0 .034.045.01.09.002.131-.026.002-.005-.004-.024-.013-.025Zm-.021-.314c-.038 0-.066.04-.105.05a.011.011 0 0 0-.013.003.018.018 0 0 0-.004.007.024.024 0 0 0 0 .017.018.018 0 0 0 .004.006.011.011 0 0 0 .013.003.164.164 0 0 0 .118-.063c.01-.003 0-.026-.013-.023Zm.548.235c-.072.027-.141.061-.213.09-.02 0-.01.043.01.039a.341.341 0 0 0 .213-.108c.005-.008-.002-.023-.01-.02Zm-.229-.288a.198.198 0 0 0-.068.097c-.008.022.018.04.03.02.011-.019.042-.055.058-.088.017-.032-.003-.04-.02-.03Zm-.057-.429a.518.518 0 0 0-.113.126c-.011.016.009.041.022.025.035-.04.088-.073.106-.133a.018.018 0 0 0 0-.009.015.015 0 0 0-.003-.007.01.01 0 0 0-.006-.003c-.002 0-.005 0-.006.002Zm.056-.504a.24.24 0 0 0-.124.113.029.029 0 0 0 .002.016.016.016 0 0 0 .01.009c.004 0 .008 0 .012-.003.041-.029.099-.059.118-.117a.015.015 0 0 0 .002-.005.02.02 0 0 0 0-.006l-.001-.005a.017.017 0 0 0-.003-.005.012.012 0 0 0-.004-.002.01.01 0 0 0-.004-.001c-.002 0-.003 0-.004.002a.016.016 0 0 0-.004.004Zm-.159-.184a.263.263 0 0 0-.078.083c-.015.02.013.044.027.024a.402.402 0 0 0 .065-.085.02.02 0 0 0-.002-.017.012.012 0 0 0-.005-.005h-.007Zm.088-.222a.267.267 0 0 0-.125.021.008.008 0 0 0-.005 0 .01.01 0 0 0-.004.002.014.014 0 0 0-.004.005.02.02 0 0 0 0 .013l.004.005a.01.01 0 0 0 .004.003l.005-.001c.04-.011.083-.019.118-.031.014-.016.014-.016.007-.016Zm.452.071c-.039 0-.079-.014-.118-.015-.006 0-.007.01 0 .01.04 0 .077.021.118.021.008 0 .008-.016 0-.016Zm-.015.185c-.03-.058-.118-.04-.163-.023-.021 0-.014.049.006.05.02.002.053 0 .08 0a.229.229 0 0 0 .066 0 .014.014 0 0 0 .006-.004.021.021 0 0 0 .004-.006.027.027 0 0 0 0-.017Zm.001.407a.194.194 0 0 0-.147.03c-.023.01-.008.05.012.04.045-.02.093-.023.135-.044a.011.011 0 0 0 .005-.005.017.017 0 0 0 .002-.008c0-.003 0-.006-.002-.008a.011.011 0 0 0-.005-.005Zm.002.393a.484.484 0 0 0-.066.036c-.017.01 0 .044.012.033a.34.34 0 0 0 .063-.052c.011-.007 0-.02-.009-.017Zm.29.326a.955.955 0 0 0-.128.109c-.02.014 0 .045.021.033a.31.31 0 0 0 .118-.126.01.01 0 0 0-.01-.016Zm.239.26a.66.66 0 0 0-.135.08.019.019 0 0 0-.007.012.025.025 0 0 0 0 .014.017.017 0 0 0 .01.01.011.011 0 0 0 .01-.001.61.61 0 0 0 .139-.087.02.02 0 0 0 .003-.013l-.001-.007a.018.018 0 0 0-.004-.005.011.011 0 0 0-.004-.003.009.009 0 0 0-.005-.001c-.002 0-.004 0-.005.002Zm.553-.23c-.051.04-.095.099-.144.143-.017.014 0 .044.019.03a.44.44 0 0 0 .144-.157c.007-.016-.009-.03-.02-.016Zm.374-.439a.64.64 0 0 0-.05.143c-.007.028.026.044.035.017.01-.027.043-.1.037-.157a.018.018 0 0 0-.004-.007.01.01 0 0 0-.007-.003.01.01 0 0 0-.006.001.015.015 0 0 0-.005.006Zm-.719.209a.662.662 0 0 0-.063.127c-.008.02.02.04.03.02a.57.57 0 0 0 .058-.131c.005-.02-.013-.032-.025-.016Zm-.312-.389a.396.396 0 0 0-.069.113c-.015.031.024.066.038.034a.338.338 0 0 0 .047-.135v-.007a.013.013 0 0 0-.005-.006.009.009 0 0 0-.011.001Zm-.051-.499a.552.552 0 0 0-.055.157c-.012.032.028.05.039.02a.387.387 0 0 0 .038-.168.018.018 0 0 0-.005-.01.011.011 0 0 0-.009-.003.012.012 0 0 0-.008.004Zm.315.02a.213.213 0 0 0-.064.05c-.024.024.01.066.03.037a.396.396 0 0 0 .045-.07c.006-.004-.002-.017-.011-.017Zm.255.287c-.043.02-.069.096-.084.146a.026.026 0 0 0 0 .015.02.02 0 0 0 .007.011.012.012 0 0 0 .011.002.017.017 0 0 0 .01-.009c.025-.047.076-.096.071-.157a.014.014 0 0 0-.006-.008.01.01 0 0 0-.01 0Zm.217.317a.232.232 0 0 0-.032.033c-.019.02.01.054.025.029a.447.447 0 0 0 .022-.043.018.018 0 0 0 .002-.01.016.016 0 0 0-.004-.008.01.01 0 0 0-.006-.003c-.003 0-.005 0-.007.002Zm.083-.475c-.007 0-.016 0-.017.01-.01.038 0 .082 0 .123 0 .041.042.04.042 0 0-.039.02-.114-.025-.133Zm-.811-.388a.427.427 0 0 0-.166-.023c-.02 0-.021.03 0 .035a.441.441 0 0 0 .173.025.018.018 0 0 0 .007-.01v-.016a.02.02 0 0 0-.004-.005.014.014 0 0 0-.004-.004.01.01 0 0 0-.006-.002Zm-.218.593c0-.022-.03-.023-.035 0a.205.205 0 0 0-.009.104c0 .016.021.027.03.01a.202.202 0 0 0 .014-.114Zm-.215.764c0-.023-.035-.023-.035 0-.002.015 0 .03.003.045a.085.085 0 0 0 .02.035c.006 0 .02 0 .02-.01a.397.397 0 0 0-.008-.07Zm.066.314c-.026 0-.036.016-.055.038-.019.022 0 .045.019.03a.246.246 0 0 0 .043-.055v-.005l-.001-.004a.01.01 0 0 0-.003-.002.008.008 0 0 0-.003-.002Zm.921-1.451a.33.33 0 0 0-.081-.06c-.014-.012-.033.008-.021.026a.13.13 0 0 0 .042.044c.017.01.035.015.053.014a.01.01 0 0 0 .006-.003.015.015 0 0 0 .003-.006.018.018 0 0 0-.002-.015Zm-.303.472a.348.348 0 0 0-.052.157c0 .02.017.04.028.019a.309.309 0 0 0 .05-.168.022.022 0 0 0-.005-.008.016.016 0 0 0-.007-.004h-.007a.015.015 0 0 0-.007.004Z" clip-rule="evenodd" opacity=".4"/>
  </g>
  <defs>
    <clipPath id="a">
      <path fill="#fff" d="M0 0h25v19H0z"/>
    </clipPath>
  </defs>
</svg>
