<svg xmlns="http://www.w3.org/2000/svg" width="26" height="17" fill="none" viewBox="0 0 26 17">
  <path fill="#E2CAB3" fill-rule="evenodd" d="M23.983 13.898c0 1.121-5.098 2.35-10.505 2.35-5.407 0-9.828-1.948-9.828-3.07 0-1.122 5.138-1.31 10.544-1.31 5.405 0 9.79.908 9.79 2.03Z" clip-rule="evenodd"/>
  <path fill="#E2CAB3" fill-rule="evenodd" d="M24.82 15.043c.015.599-1.287 1.119-2.91 1.16-1.623.04-2.952-.41-2.967-1.011-.015-.6 1.287-1.12 2.91-1.16 1.623-.041 2.952.41 2.967 1.01Z" clip-rule="evenodd"/>
  <path fill="#5F825C" fill-rule="evenodd" d="M1.191 10.78c-.865 2.029.188 3.092 1.59 3.267.552.068 1.381-.31 1.994-.547.5-.22.973-.492 1.413-.812.209-.212.455-.5.504-.82a.692.692 0 0 0-.077-.357.46.46 0 0 1 .068-.129c.074-.136-.127-.242-.027-.395.16-.245-.05-.509-.154-.726-.035-.07-.926-.854-.967-.929-.743-.778-.943-1.145-1.966-1.305-1.283-.202-2.527.261-2.378 2.752Z" clip-rule="evenodd"/>
  <path fill="#5F825C" fill-rule="evenodd" d="M1.655 10.03c.147.017.218.41.158.88-.061.47-.227.832-.375.814-.147-.018-.216-.41-.157-.88.06-.471.22-.834.374-.814Z" clip-rule="evenodd" opacity=".4" style="mix-blend-mode:multiply"/>
  <path fill="#8DB54F" fill-rule="evenodd" d="M1.793 12.23c-.313.137-.284.538-.157.798a.82.82 0 0 0 .117.18c.154.194.366.335.607.401.3.075.646.025.82-.212a.033.033 0 0 1 .02-.015v-.03c-.04-.153-.277-.183-.404-.203-.276-.042-.358-.283-.442-.506-.084-.223-.285-.539-.56-.413Z" clip-rule="evenodd"/>
  <path fill="#5F825C" fill-rule="evenodd" d="M4.63 9.216c-.255.136-.018.445.105.592.276.339.655.582.885.968.231.386-.07.984.299 1.31a.18.18 0 0 0 .255-.017.3.3 0 0 0 .036-.084.645.645 0 0 0 .104-.188 1.04 1.04 0 0 0-.024-.652c-.058-.187.072-.369.015-.556a.493.493 0 0 0-.121-.185.992.992 0 0 0-.193-.17 2.891 2.891 0 0 1-.37-.365 3.66 3.66 0 0 0-.438-.435c-.168-.157-.384-.31-.553-.218Z" clip-rule="evenodd" opacity=".4" style="mix-blend-mode:multiply"/>
  <path fill="#300D33" fill-rule="evenodd" d="M1.426 10.905c-.138-.023-.225-.078-.671-.188-.446-.109-.673-.134-.742-.175-.07-.04.124-.255.124-.255s.335.127.61.228c.274.101.777.235.777.235s.079.044.047.115c-.032.071-.145.04-.145.04Z" clip-rule="evenodd"/>
  <path fill="#DA840D" fill-rule="evenodd" d="M24.86 6.95c-.375.087-.691.311-1.081.33-.414.021-.829-.15-1.233-.228-.88-.17-1.78-.264-2.67-.361-1.796-.197-3.615-.282-5.417-.487-1.803-.205-3.591-.439-5.395-.43a15.43 15.43 0 0 0-2.593.223c-.705.122-1.424.264-2.015.684a2.77 2.77 0 0 0-.983 1.32c-.24.643 1.029 4.58 1.22 4.838 1.67 2.189 4.47 2.667 9.08 2.576 4.925-.099 6.828-.642 8.223-1.862.75-.655 1.381-2.34 1.494-2.67.192-.581.405-1.154.604-1.733.126-.366.257-.729.414-1.083.167-.333.306-.679.415-1.034a.061.061 0 0 0-.01-.058.063.063 0 0 0-.054-.024Z" clip-rule="evenodd"/>
  <path fill="#C66720" fill-rule="evenodd" d="M24.113 7.22c-.628.438-1.533.456-2.27.6-1.817.355-3.629.6-5.484.556-1.815-.041-3.63-.253-5.439-.4-1.848-.151-3.7-.26-5.554-.176-.41.015-.815.078-1.21.189-.201.057-.502.137-.603.342a.428.428 0 0 0-.04.17v.009c-.091.304.015.558.12.827.025.114.052.228.079.341-.047 0-.054.071 0 .073h.015a.06.06 0 0 0 .07.015.06.06 0 0 0 .021-.015c.326 0 .65-.06.977-.069.491-.014.908.235 1.338.44.77.364 1.499.79 2.279 1.113a8.02 8.02 0 0 0 1.072.357 8.73 8.73 0 0 0 1.105.161c.395.05.785.137 1.18.19.44.052.884.066 1.328.043a33.106 33.106 0 0 0 5.248-.513c1.575-.293 3.15-.734 4.52-1.575a4.125 4.125 0 0 0 1.343-1.302c.158-.245.292-.509.438-.76.108-.188.238-.41.218-.628-.031-.473-.558-.12-.75.012Z" clip-rule="evenodd"/>
  <path fill="#C66720" fill-rule="evenodd" d="M13.522 14.496c-6.837.957-8.883-1.769-8.821-1.688 1.668 2.188 4.47 2.667 9.078 2.575 4.925-.097 6.927-.673 8.323-1.893.707-.62 1.49-2.905 1.647-3.35-3.422 2.788-4.398 3.535-10.227 4.356Z" clip-rule="evenodd" opacity=".4"/>
  <path fill="#F0A508" fill-rule="evenodd" d="M25.994 4.721c-.078-.48-.828-.547-1.199-.684-.327-.12-.552-.41-.819-.628a3.953 3.953 0 0 0-.95-.575c-.78-.334-1.562-.6-2.273-1.073-.655-.436-1.459-.492-2.21-.614a6.19 6.19 0 0 1-1.355-.37A5.021 5.021 0 0 0 15.97.388c-.434-.057-.88.041-1.313.06-.481.018-.923-.138-1.375-.274A2.977 2.977 0 0 0 12.13.003c-.364.03-.69.221-.997.41a.051.051 0 0 0-.026.042c-.347.18-.68.38-1.028.56a3.59 3.59 0 0 1-.925.349c-.396.082-.77.016-1.163-.035-.69-.089-1.344-.105-1.999.145-.779.299-1.399.906-2.17 1.231-.665.274-1.244.598-1.658 1.204-.173.254-.29.541-.345.843-.052.324.027.618.096.935.091.41.01.739-.109 1.134-.101.26-.094.55.02.806.109.208.338.342.538.448.2.107.711.222.754.47.183 1.057 1.381.562 2.087.822.347.13.667.326 1.02.454.404.146.828.256 1.243.366.828.222 1.627.517 2.432.82.355.138.69.307 1.07.376.38.068.772.007 1.148-.026.78-.07 3.248.136 3.576-.029.424-.207.817-.187 1.276-.15.358.031.667-.232 1.026-.26a5.74 5.74 0 0 0 1.214-.253c.352-.135.71-.252 1.074-.35.414-.092.776-.389 1.194-.445.814-.11 1.41-.562 2.04-1.086.572-.475 1.924-2.11 2.042-2.435.117-.324.204-.684.3-1.019.052-.187.166-.41.133-.61Z" clip-rule="evenodd"/>
  <g opacity=".5">
    <path fill="#E2CAB3" fill-rule="evenodd" d="M13.233 2.31c-.114.149-.252.19-.24 1.117.013.928.102 1.278-.258 1.98-.36.704-1.06 1.386-1.307 2.135-.247.748-.56 1.976-.243 2.453.316.478 1.468.713 3.039.756 1.57.042 3.293-.212 4.26-.51.969-.299 1.528-.422 1.748-.685.22-.262-.876-2.505-1.642-3.38-.767-.876-1.134-1.166-1.999-1.891-.865-.725-1.243-1.014-1.67-1.6-.426-.584-.537-.616-.986-.61-.253 0-.5.082-.702.235Z" clip-rule="evenodd" opacity=".5"/>
    <path fill="#E2CAB3" fill-rule="evenodd" d="M4.51 8.204c.609-1.391 1.413-2.025 1.638-2.34.62-.865.988-1.244 1.81-1.367.821-.123.37-.119 1.305-.249.933-.13 1.716-.331 2.348-.82.63-.49.957-.872 1.292-.99.336-.12.854-.385.486-.01-.367.374.123.517-.567 1.533s-1.02 1.541-1.265 2.325c-.246.784-.5 3.23-1.063 3.422-.562.193-1.903.227-3.149-.23A30.28 30.28 0 0 1 4.51 8.203Zm16.836.625s1.155-.357 1.818-.927c.663-.57 1.326-1.103 1.536-1.887.21-.783.448-.979.19-1.212-.256-.232-1.63-1.467-2.762-2.076-1.13-.609-2.569-.993-3.848-1.26-1.279-.266-1.957-.11-2.624-.136-.667-.026-1.724.735-1.709.744.37.351.78.658 1.224.912.6.312 1.998.84 2.68 1.231.682.391 1.224 1.256 1.38 1.66.158.405.38.531.604 1.307.226.775.85 2.024.85 2.024l.662-.38Z" clip-rule="evenodd" opacity=".5"/>
    <path fill="#E2CAB3" fill-rule="evenodd" d="M2.629 4.117s-.533 1.418-.257 2.1c.191.448.452.864.773 1.232 0 0 .69.653 1.162-.024.47-.677 1.492-2.258 2.302-2.868.811-.61 1.82-.741 2.57-.83.748-.09 2.506-.389 2.992-.781.487-.393 1.777-.872 1.777-.872a9.67 9.67 0 0 0-1.737-.597c-.903-.205-2.348.343-3.52.07-1.173-.274-2.316.343-3.615 1-.862.448-1.681.974-2.447 1.57Z" clip-rule="evenodd" opacity=".5"/>
    <path fill="#E2CAB3" fill-rule="evenodd" d="M10.363 1.213S11.578.079 12.402.099c1.043.028 1.381.255 1.88.41.568.176.794.246.648.471-.147.226-.837 1.231-.837 1.231s-1.658-.805-2.265-.898a9.745 9.745 0 0 0-1.465-.1Z" clip-rule="evenodd" opacity=".5"/>
  </g>
  <path fill="#E2CAB3" fill-rule="evenodd" d="M22.304 2.468c-.327-.136-.656-.25-.978-.402a11.51 11.51 0 0 0-1.16-.511 6.103 6.103 0 0 0-1.096-.226c-.84-.137-1.61-.48-2.415-.726a4.304 4.304 0 0 0-1.427-.184c-.42.028-.841.028-1.261 0-.414-.043-.779-.233-1.182-.339-.49-.128-.898 0-1.333.231-.642.33-1.283.732-1.98.943a3.62 3.62 0 0 1-1.151.175c-.415-.014-.81-.096-1.217-.123a2.368 2.368 0 0 0-1.305.235c-.306.16-.595.352-.86.572a.635.635 0 0 0 0 .072c-.081.233-.11.48-.085.724a1.735 1.735 0 0 0 .668 1.287c.288.24.589.425.83.714.24.289.414.59.69.82.45.38 1.048.411 1.614.411.299 0 .596-.015.893 0a5.05 5.05 0 0 1 1.193.274c.795.246 1.576.586 2.398.746.821.16 1.636-.032 2.435-.244.798-.213 1.585-.355 2.367-.56a6.253 6.253 0 0 0 1.982-.867 9.447 9.447 0 0 0 1.736-1.615c.195-.225.38-.457.572-.684.17-.171.285-.39.327-.627a2.731 2.731 0 0 1-.255-.096Z" clip-rule="evenodd" opacity=".4"/>
  <path fill="#C66720" fill-rule="evenodd" d="M11.283 3.408a2.554 2.554 0 0 1-.186.033h-.02c-.433.083-.863.187-1.309.153-.3-.022-1.478.01-1.201.547.003.01.003.02 0 .03.243.152.783.09.966.076.156-.01.31-.033.463-.067.433-.17.845-.39 1.228-.653a.527.527 0 0 0 .06-.119Zm1.713 1.102a3.198 3.198 0 0 0-.03-.859 5.866 5.866 0 0 1-.705 1.223c-.165.207-.385.386-.519.616-.072.123-.171.306-.119.457.083.236.23.235.386.203.268-.164.513-.547.646-.744.123-.182.222-.379.297-.585l.044-.31Zm4.416-.82c-.324-.13-.655-.244-.99-.34a3.977 3.977 0 0 1-.6-.207 1.086 1.086 0 0 0-.49-.15.061.061 0 0 0-.054.025.06.06 0 0 0-.006.06.22.22 0 0 0 .078.109c.206.285.434.554.682.804.222.249.414.517.663.748.337.321.946.517 1.291.074.381-.494-.138-.941-.574-1.123ZM16.02 1.266c-.118-.25-.5-.244-.752-.185a.437.437 0 0 0-.06.013 1.59 1.59 0 0 0-.763.84c.414-.121.72-.41 1.157-.46.07-.008.497-.04.417-.208Zm-5.846.454a.662.662 0 0 0 .171.03 2.04 2.04 0 0 1 .415-.027c.054-.003.108-.003.161 0 .181.007.362.025.54.052l.07.02a.395.395 0 0 0 .277-.076c-.405-.176-1.52-.595-1.671-.055a.049.049 0 0 0 .037.056ZM2.599 7.64a.926.926 0 0 0-.07.223.617.617 0 0 0-.035.178.025.025 0 0 0 .024.02.025.025 0 0 0 .012-.002c.041-.023.042-.093.05-.137.012-.093.033-.185.063-.274.01-.02-.032-.034-.044-.008Zm.259.212a.815.815 0 0 0-.076.215c-.01.04-.043.102-.03.137a.022.022 0 0 0 .018.017c.052 0 .058-.068.066-.105.02-.08.036-.164.064-.243.01-.024-.028-.045-.042-.02Zm1.249.933c-.013.137-.057.274-.055.419 0 .04.064.047.066 0 .02-.141.034-.283.04-.426-.001-.027-.048-.02-.051.007Zm.343.071a.822.822 0 0 0-.064.34c0 .044.07.053.072 0 .004-.112.016-.225.037-.336.005-.022-.036-.029-.046-.004Zm5.58 1.867a.726.726 0 0 0-.043.16.508.508 0 0 0-.017.15.028.028 0 0 0 .042.014.027.027 0 0 0 .01-.014.548.548 0 0 0 .018-.136c.009-.058.012-.115.023-.173.002-.012-.025-.016-.032 0Zm.393.048a1.11 1.11 0 0 0-.044.212.53.53 0 0 0-.014.185.03.03 0 0 0 .054 0 .55.55 0 0 0 .02-.166c0-.076.012-.153.018-.228a.018.018 0 0 0-.027-.012.018.018 0 0 0-.007.009Zm1.559.234c0-.022-.026-.041-.037-.02a.48.48 0 0 0-.055.218c0 .039-.01.137.038.147a.024.024 0 0 0 .02-.002.024.024 0 0 0 .013-.014.498.498 0 0 0-.01-.127.631.631 0 0 1 .031-.202Zm.388-.014a.015.015 0 0 0-.014-.01.015.015 0 0 0-.015.01c-.03.117-.042.238-.036.358 0 .037.06.041.058 0a2.515 2.515 0 0 1 .007-.358Zm.426.042a.018.018 0 0 0-.005-.012.018.018 0 0 0-.03.013c-.007.054-.01.109-.014.163 0 .04-.027.092 0 .126a.013.013 0 0 0 .016 0c.046 0 .044-.075.046-.11a.753.753 0 0 0-.013-.18Zm7.566-.854v-.017a.432.432 0 0 1-.02-.06c-.015-.053-.017-.11-.034-.164 0-.015-.03-.023-.035 0-.004.023 0 .324.086.273a.019.019 0 0 0 .007-.006.02.02 0 0 0-.005-.026Zm.492-.123a1.898 1.898 0 0 0-.1-.245.022.022 0 0 0-.011-.013.023.023 0 0 0-.03.01.022.022 0 0 0-.002.017 2 2 0 0 0 .08.26c.016.04.08.012.063-.03Zm.472-.243a.576.576 0 0 1-.095-.228.024.024 0 0 0-.046 0 .407.407 0 0 0 .083.274c.026.043.086-.006.058-.046Zm.588-.067a.444.444 0 0 1-.16-.321.017.017 0 0 0-.026-.004c-.122.085.06.303.128.368.035.038.093-.009.058-.043Zm.666-.311a3.417 3.417 0 0 0-.242-.353c-.01-.017-.041-.011-.034.01.043.138.164.235.224.367.015.037.067.013.052-.024Zm.55-.423c-.013-.026-.046-.041-.068-.057l-.11-.08a1.923 1.923 0 0 0-.085-.059c-.029-.019-.03-.008-.043-.015-.012-.006-.01 0-.007 0 .005 0 .007.022.017.032a.94.94 0 0 0 .077.071c.035.03.07.057.107.085.036.027.055.05.087.05a.025.025 0 0 0 .024-.017v-.01Zm.468-.342a.047.047 0 0 0-.036-.032.277.277 0 0 1-.07-.046.633.633 0 0 1-.125-.146c-.015-.024-.05 0-.04.026a.52.52 0 0 0 .126.172c.033.03.095.08.138.052a.023.023 0 0 0 .007-.026Zm1.559-1.759a.071.071 0 0 0-.05-.025.221.221 0 0 1-.086-.034.307.307 0 0 1-.118-.154c0-.02-.036-.009-.034.01a.287.287 0 0 0 .103.19c.04.032.138.085.184.038a.02.02 0 0 0 .005-.012.019.019 0 0 0-.004-.013Zm.305-.349a.73.73 0 0 1-.284-.26c-.012-.02-.048 0-.036.018a.644.644 0 0 0 .296.29c.027.011.052-.035.024-.048Zm.19-.482a1.504 1.504 0 0 1-.152-.113c-.047-.042-.091-.085-.138-.123-.018-.014-.042.012-.026.03a.748.748 0 0 0 .29.262.032.032 0 0 0 .036-.018.031.031 0 0 0 .002-.021.03.03 0 0 0-.012-.018ZM2.256 7.279c-.12.162-.2.35-.236.547 0 .017.023.018.028 0a1.46 1.46 0 0 1 .248-.52c.017-.026-.023-.053-.04-.027Zm-.216-.136c-.03.014-.042.04-.063.067-.02.028-.057.08-.081.122a.283.283 0 0 0-.054.167c0 .02.031.017.033 0a.448.448 0 0 1 .085-.17c.034-.05.099-.108.105-.168a.018.018 0 0 0-.007-.016.018.018 0 0 0-.017-.002Zm.4.445a.942.942 0 0 0-.094.197.828.828 0 0 0-.066.202c0 .018.026.024.03 0a.901.901 0 0 1 .076-.194.583.583 0 0 0 .083-.204.014.014 0 0 0-.004-.01.015.015 0 0 0-.025.009Zm.748.479c-.103.031-.152.167-.18.261a.02.02 0 0 0 .014.024.02.02 0 0 0 .025-.01.692.692 0 0 1 .065-.137c.026-.041.064-.075.091-.116.006-.008-.002-.022-.015-.022Zm.23.41c-.054.02-.083.087-.108.137a.385.385 0 0 0-.038.189c0 .022.034.026.035 0a.474.474 0 0 1 .041-.157c.023-.054.076-.095.092-.148a.016.016 0 0 0-.005-.017.017.017 0 0 0-.017-.004Zm.222.143a.828.828 0 0 0-.1.226c-.03.075-.051.151-.066.23a.018.018 0 0 0 .014.022c.005.001.01 0 .014-.002a.018.018 0 0 0 .008-.012c.02-.076.047-.15.079-.223a.828.828 0 0 0 .083-.23v-.007a.016.016 0 0 0-.006-.011.017.017 0 0 0-.026.008Zm.203.221a.685.685 0 0 0-.058.34c0 .024.036.027.036 0 0-.113.05-.225.044-.337a.012.012 0 0 0-.01-.008.013.013 0 0 0-.012.005Zm6.982 2.035a.869.869 0 0 0-.054.398c0 .018.032.017.033 0 0-.065.01-.136.018-.195a.818.818 0 0 0 .024-.199c0-.013-.017-.012-.021-.004Zm.36.263c0-.063.03-.12.036-.182a.01.01 0 0 0-.004-.005.01.01 0 0 0-.006-.002.01.01 0 0 0-.006.002.452.452 0 0 0-.03.436c.009.02.037 0 .03-.014a.513.513 0 0 1-.02-.235Zm.332.046A.598.598 0 0 0 11.5 11a.018.018 0 0 0-.016-.01.018.018 0 0 0-.015.01.505.505 0 0 0 0 .188.898.898 0 0 0 .037.21c0 .024.043.018.037 0a1.294 1.294 0 0 1-.026-.212Zm12.429-3.118c0-.015-.02-.024-.027-.011a.11.11 0 0 0 0 .119c.022.042.075.105.128.098a.017.017 0 0 0 .01-.007.016.016 0 0 0 .002-.012c-.013-.074-.13-.104-.113-.187Zm.499-.22c-.014-.022-.027-.025-.051-.033a.187.187 0 0 1-.087-.057.416.416 0 0 1-.093-.187.021.021 0 0 0-.03-.006.02.02 0 0 0-.009.021.47.47 0 0 0 .09.208c.035.043.126.113.181.074a.018.018 0 0 0 .003-.01.018.018 0 0 0-.004-.01Zm.235-.464c-.043-.043-.089-.085-.129-.13-.017-.02-.051 0-.039.023.032.055.07.106.113.152.038.038.08.1.139.104a.02.02 0 0 0 .02-.022c-.008-.053-.063-.089-.105-.127Z" clip-rule="evenodd"/>
  <path fill="#DA840D" fill-rule="evenodd" d="M14.586 2.621c0 .377-.582.684-1.301.684-.72 0-1.301-.305-1.301-.684 0-.378.581-.683 1.3-.683.72 0 1.302.307 1.302.683Z" clip-rule="evenodd" opacity=".4"/>
  <path fill="#C73A54" fill-rule="evenodd" d="M21.71 8.34c-2.934-.737-4.162.881-4.113 2.785.019.744.704 1.77 1.154 2.546.4.62.866 1.194 1.39 1.715.331.234.773.503 1.217.503a.972.972 0 0 0 .47-.176.702.702 0 0 1 .187.064c.21.071.303-.219.532-.116.366.165.682-.171.956-.355.088-.058.966-1.407 1.062-1.478.904-1.15 1.36-1.49 1.37-2.886.01-1.746-.874-3.309-4.225-2.602Z" clip-rule="evenodd"/>
  <path fill="#ED6366" fill-rule="evenodd" d="M22.822 8.797c0 .2-.517.375-1.165.392-.647.016-1.176-.137-1.182-.333-.005-.195.517-.379 1.165-.39.647-.013 1.176.132 1.182.331Z" clip-rule="evenodd" style="mix-blend-mode:multiply"/>
  <path fill="#ED6366" fill-rule="evenodd" d="M19.862 9.443c-.258-.387-.787-.274-1.115-.047l-.016.013c-.076.05-.145.111-.205.18-.232.245-.38.557-.421.89-.04.41.1.866.457 1.048.01.005.018.014.024.024a.231.231 0 0 0 .04-.013c.201-.082.192-.41.193-.577 0-.37.31-.535.595-.694.261-.149.674-.484.448-.824Z" clip-rule="evenodd"/>
  <path fill="#ED6366" fill-rule="evenodd" d="M24.536 12.602c-.243-.31-.608.069-.782.26-.405.445-.658.993-1.135 1.379-.478.386-1.346.105-1.717.666a.242.242 0 0 0 .076.337.497.497 0 0 0 .12.03c.086.047.18.08.276.098.303.04.61-.018.879-.164.243-.115.518.02.76-.094a.664.664 0 0 0 .224-.199c.078-.089.143-.188.194-.294.121-.199.26-.388.414-.563.188-.21.357-.436.507-.675.18-.255.343-.575.184-.78Z" clip-rule="evenodd" style="mix-blend-mode:multiply"/>
  <path fill="#8DB54F" fill-rule="evenodd" d="M24.459 5.742c-.163-.055-.463.191-.59.266-.29.173-.584.347-.863.535a3.42 3.42 0 0 0-1.028 1.127c-.105.19-.176.398-.209.613a.972.972 0 0 0-.06.378.063.063 0 0 0 .032.038.066.066 0 0 0 .024.007c.707.008 1.431-.45 1.926-.911.259-.226.464-.507.6-.82.068-.178.12-.361.152-.548.039-.2-.019-.442.046-.626a.048.048 0 0 0-.03-.06Z" clip-rule="evenodd"/>
  <path fill="#300D33" fill-rule="evenodd" d="M21.587 8.68c0-.195.06-.317.116-.932.057-.616.046-.923.087-1.025.041-.1.373.114.373.114s-.107.472-.185.859a16.6 16.6 0 0 0-.158 1.083s-.043.114-.146.085c-.104-.029-.087-.183-.087-.183Z" clip-rule="evenodd"/>
</svg>
