<svg xmlns="http://www.w3.org/2000/svg" width="116" height="80" fill="none" viewBox="0 0 116 80">
  <g clip-path="url(#a)">
    <path fill="#E2CAB3" fill-rule="evenodd" d="M116 59.513c0 11.313-25.954 20.486-57.997 20.486C25.959 80 0 70.827 0 59.513s25.953-20.487 58.003-20.487S116 48.199 116 59.512Z" clip-rule="evenodd"/>
    <path fill="#fff" fill-rule="evenodd" d="M116 57.253c0 11.314-25.954 20.486-57.997 20.486C25.959 77.74 0 68.567 0 57.253s25.953-20.487 58.003-20.487S116 45.94 116 57.253Z" clip-rule="evenodd"/>
    <path fill="#E7D8C8" fill-rule="evenodd" d="M116 56.929c0 10.96-25.954 19.843-57.997 19.843C25.959 76.772 0 67.89 0 56.93s25.953-19.84 58.003-19.84S116 45.974 116 56.929Z" clip-rule="evenodd"/>
    <path fill="#E2CAB3" fill-rule="evenodd" d="M113.428 56.93c0 7.821-22.211 14.156-49.607 14.156S14.208 64.751 14.208 56.93s22.21-14.157 49.613-14.157c27.402 0 49.607 6.341 49.607 14.157Z" clip-rule="evenodd"/>
    <path fill="#EEBE30" d="M109.246 57.436c-1.056-4.837-6.199-6.883-10.26-7.208-2.506-.195-5.01.325-7.51.46a21.794 21.794 0 0 1-4.158-.165c-1.52-.207-2.975-.743-4.508-.867-2.662-.212-5.3.69-7.78 1.634-2.916 1.115-5.83 2.13-8.819 2.99a86.52 86.52 0 0 1-18.107 3.345 39.911 39.911 0 0 1-7.508-.041c-1.75-.213-3.477-.59-5.227-.79-3.066-.337-6.464.058-7.701 3.58a5.911 5.911 0 0 0-2.668.625c-1.25.525-2.922 1.457-3.567 2.808-1.346 2.826 3.018 3.935 4.635 4.236 1.54.283 3.09.383 4.635.542 2.15.224 3.875 1.221 5.692 2.436 4.581 3.062 10.695 3.263 15.91 2.909a40.065 40.065 0 0 0 8.48-1.552c2.916-.85 5.915-.336 8.86.153 2.53.523 5.158.368 7.606-.448 2.462-.855 4.599-2.418 6.705-3.987 2.457-1.829 5.251-1.941 8.142-2.171a48.351 48.351 0 0 0 8.45-1.268 38.357 38.357 0 0 0 6.766-2.36c1.847-.95 2.366-2.72 1.932-4.86Z"/>
    <path fill="#E3AC8A" d="M92.78 53.23c0 7.622-16.555 14.706-36.49 14.706-19.937 0-36.626-7.61-36.626-15.23 0-7.622 16.69-12.388 36.625-12.388 19.936 0 36.492 5.291 36.492 12.912Z"/>
    <path fill="#DA840D" d="M92.383 51.76c0 7.622-16.158 13.798-36.094 13.798s-36.1-6.176-36.1-13.797c0-7.622 16.164-13.803 36.1-13.803s36.094 6.181 36.094 13.803Z"/>
    <path fill="#F0A508" d="M82.544 50.452c0 5.657-11.986 10.234-26.78 10.234-14.793 0-26.792-4.577-26.792-10.234s12.005-10.235 26.792-10.235c14.788 0 26.78 4.613 26.78 10.235Z"/>
    <path fill="#DA840D" d="M37.741 54.227c0 .59-.682 1.103-1.527 1.103-.845 0-1.52-.496-1.52-1.103 0-.608.681-1.103 1.52-1.103.84 0 1.527.495 1.527 1.103Zm-3.048-4.642a.82.82 0 0 1-.163.45.85.85 0 0 1-.39.288.87.87 0 0 1-.913-.206.825.825 0 0 1-.166-.9.837.837 0 0 1 .313-.367.865.865 0 0 1 .468-.138.888.888 0 0 1 .612.263.847.847 0 0 1 .24.61Zm10.574 5.98c.02.287-.05.573-.198.82-.15.249-.371.447-.637.57a1.497 1.497 0 0 1-1.63-.248 1.426 1.426 0 0 1-.428-.731 1.403 1.403 0 0 1 .065-.84 1.44 1.44 0 0 1 .538-.66c.243-.162.53-.249.824-.25a1.448 1.448 0 0 1 1.017.373 1.36 1.36 0 0 1 .45.967Zm-3.187-5.313c0 .366-.416.667-.923.667-.507 0-.93-.301-.93-.667 0-.366.417-.667.93-.667.513 0 .924.295.924.667Zm9.332 3.162a.902.902 0 0 1-.104.537.932.932 0 0 1-.397.385.96.96 0 0 1-1.06-.129.9.9 0 0 1-.254-1.014.924.924 0 0 1 .345-.43.958.958 0 0 1 .534-.163.906.906 0 0 1 .639.22.866.866 0 0 1 .297.594Zm.356 4.914c0 .377-.446.684-1.002.684-.555 0-1.001-.307-1.001-.684 0-.378.452-.684 1.002-.684.549 0 1.001.306 1.001.684Zm-3.995-7.322a.693.693 0 0 1-.15.377.734.734 0 0 1-1.102.039.696.696 0 0 1-.116-.765.708.708 0 0 1 .274-.301.731.731 0 0 1 .4-.105c.193.014.373.1.502.241.13.14.198.325.191.514Zm10.393 1.434c0 .378-.435.684-.972.684-.537 0-.972-.306-.972-.684 0-.377.435-.678.972-.678.537 0 .972.3.972.678Zm0 3.532c0 .224-.435.407-.972.407-.537 0-.972-.183-.972-.407 0-.224.435-.407.972-.407.537 0 .972.183.972.407Zm6.573-2.294c0 .3-.392.549-.881.549-.49 0-.876-.248-.876-.549 0-.3.393-.554.876-.554.482 0 .88.247.88.554Zm-1.051 3.942a.89.89 0 0 1-.052.549.914.914 0 0 1-.367.418.946.946 0 0 1-1.072-.066.907.907 0 0 1-.311-.46.888.888 0 0 1 .018-.55.91.91 0 0 1 .341-.44.943.943 0 0 1 .538-.165.846.846 0 0 1 .601.177.81.81 0 0 1 .304.537Zm7.316-1.145a.943.943 0 0 1-.254.466.994.994 0 0 1-1.01.238.972.972 0 0 1-.443-.301.938.938 0 0 1-.12-1.008.957.957 0 0 1 .36-.394.988.988 0 0 1 .52-.145c.28.03.535.168.713.382.177.214.261.488.234.762Zm-.525-5.155c0 .236-.308.424-.688.424-.38 0-.682-.188-.682-.424s.308-.42.682-.42c.374 0 .688.207.688.42Zm5.794 1.255c0 .915-.416 1.652-.923 1.652-.507 0-.93-.737-.93-1.651 0-.915.416-1.658.93-1.658.513 0 .923.743.923 1.657Zm2.324-1.68c0 .117-.047.23-.132.312a.458.458 0 0 1-.64 0 .437.437 0 0 1 0-.625.459.459 0 0 1 .638.001.443.443 0 0 1 .134.312Zm-15.222-1.41c0 .419-.568.767-1.262.767-.694 0-1.261-.349-1.261-.767 0-.42.561-.773 1.261-.773.7 0 1.262.348 1.262.773Zm-23.666-3.977c0 .26-.441.472-.984.472-.544 0-.984-.212-.984-.472s.44-.472.984-.472c.543 0 .983.212.983.472Zm5.793-.948c0 .265-.5.477-1.116.477-.616 0-1.123-.212-1.123-.478 0-.265.501-.472 1.123-.472s1.116.213 1.116.472Zm7.292 1.16c0 .372-.675.679-1.514.679-.84 0-1.515-.307-1.515-.679 0-.371.682-.684 1.515-.684.832 0 1.514.307 1.514.684Zm5.373-1.16a.47.47 0 0 1-.08.267.499.499 0 0 1-.755.076.475.475 0 0 1-.105-.523.481.481 0 0 1 .183-.215.498.498 0 0 1 .615.06c.09.09.142.21.142.334Zm-.973 3.732c0 .23-.458.42-1.032.42-.573 0-1.026-.19-1.026-.42 0-.23.459-.419 1.026-.419.568 0 1.032.19 1.032.42Zm8.07-3.94a.68.68 0 0 1-.126.382.721.721 0 0 1-1.091.08.684.684 0 0 1-.133-.758.695.695 0 0 1 .27-.302.719.719 0 0 1 .665-.045.7.7 0 0 1 .369.38.67.67 0 0 1 .046.263Zm3.846 2.785c0 .118-.357.212-.804.212-.446 0-.796-.094-.796-.212s.356-.212.796-.212c.441 0 .803.094.803.212Zm2.503-1.392a.3.3 0 0 1-.137.33.319.319 0 0 1-.47-.175.3.3 0 0 1 .123-.336.319.319 0 0 1 .182-.055.282.282 0 0 1 .2.058.27.27 0 0 1 .102.178Z"/>
    <path fill="#DA840D" d="M69.109 47.136a.658.658 0 0 1-.148.35.697.697 0 0 1-1.036.027.66.66 0 0 1-.118-.716.671.671 0 0 1 .25-.289.694.694 0 0 1 .37-.11.732.732 0 0 1 .497.231.7.7 0 0 1 .185.507Zm3.874-1.18c0 .242-.374.443-.839.443-.465 0-.833-.201-.833-.443s.375-.448.833-.448c.459 0 .84.2.84.448Z"/>
    <path fill="#E3AC8A" d="M92.78 47.568c0 7.615-16.555 14.706-36.49 14.706-19.937 0-36.626-7.616-36.626-15.231 0-7.616 16.69-12.388 36.625-12.388 19.936 0 36.492 5.291 36.492 12.913Z"/>
    <path fill="#DA840D" d="M92.383 46.093c0 7.622-16.158 13.798-36.094 13.798s-36.1-6.176-36.1-13.798c0-7.621 16.164-13.797 36.1-13.797s36.094 6.176 36.094 13.797Z"/>
    <path fill="#F0A508" d="M55.764 55.024c14.79 0 26.78-4.583 26.78-10.235 0-5.652-11.99-10.234-26.78-10.234-14.79 0-26.78 4.582-26.78 10.234s11.99 10.235 26.78 10.235Z"/>
    <path fill="#DA840D" d="M37.741 48.565c0 .59-.682 1.103-1.527 1.103-.845 0-1.52-.495-1.52-1.103s.681-1.103 1.52-1.103c.84 0 1.527.49 1.527 1.103Zm-3.048-4.649a.82.82 0 0 1-.155.455.85.85 0 0 1-.386.296.87.87 0 0 1-.92-.195.814.814 0 0 1-.174-.903.836.836 0 0 1 .314-.37.866.866 0 0 1 .47-.139.879.879 0 0 1 .605.258.84.84 0 0 1 .246.598Zm10.574 5.987c.02.286-.05.572-.198.82-.15.248-.371.446-.637.57a1.497 1.497 0 0 1-1.63-.248 1.426 1.426 0 0 1-.428-.732 1.403 1.403 0 0 1 .065-.84 1.44 1.44 0 0 1 .538-.66c.243-.162.53-.249.824-.25.376-.01.74.124 1.015.375.275.25.437.597.451.965Zm-3.187-5.315c0 .366-.416.667-.923.667-.507 0-.93-.301-.93-.667 0-.366.417-.672.93-.672.513 0 .924.324.924.672Zm9.332 3.192a.902.902 0 0 1-.104.538.932.932 0 0 1-.397.385.96.96 0 0 1-1.06-.13.9.9 0 0 1-.254-1.015.924.924 0 0 1 .345-.429.958.958 0 0 1 .534-.163.906.906 0 0 1 .639.22.866.866 0 0 1 .297.595Zm.356 4.878c0 .377-.446.684-1.002.684-.555 0-1.001-.307-1.001-.684 0-.378.452-.678 1.002-.678.549 0 1.001.3 1.001.678Zm-3.995-7.322a.694.694 0 0 1-.146.379.733.733 0 0 1-1.103.045.696.696 0 0 1-.12-.766.707.707 0 0 1 .275-.302.73.73 0 0 1 .4-.105.748.748 0 0 1 .502.237c.13.14.198.324.192.512Zm10.393 1.441c0 .377-.435.684-.972.684-.537 0-.972-.307-.972-.684 0-.378.435-.685.972-.685.537 0 .972.307.972.685Zm0 3.533c0 .224-.435.407-.972.407-.537 0-.972-.182-.972-.407 0-.224.435-.407.972-.407.537 0 .972.183.972.407Zm6.573-2.3c0 .307-.392.555-.881.555-.49 0-.876-.248-.876-.554 0-.307.393-.55.876-.55.482 0 .88.249.88.55Zm-1.051 3.94a.89.89 0 0 1-.048.55.915.915 0 0 1-.365.42.947.947 0 0 1-1.074-.06.907.907 0 0 1-.313-.46.888.888 0 0 1 .017-.551.91.91 0 0 1 .34-.44.945.945 0 0 1 .538-.167.84.84 0 0 1 .6.172c.17.133.28.325.305.535Zm7.316-1.145a.937.937 0 0 1-.252.463.987.987 0 0 1-1.002.237.966.966 0 0 1-.44-.3.933.933 0 0 1-.124-.999.951.951 0 0 1 .355-.393.982.982 0 0 1 .515-.147c.279.032.534.168.711.381.177.213.262.485.237.758Zm-.525-5.131c0 .23-.308.419-.688.419-.38 0-.682-.189-.682-.419 0-.23.308-.419.682-.419.374 0 .688.165.688.42Zm5.794 1.233c0 .914-.416 1.658-.923 1.658-.507 0-.93-.744-.93-1.658 0-.914.416-1.652.93-1.652.513 0 .923.755.923 1.652Zm2.324-1.677a.443.443 0 0 1-.134.312.46.46 0 0 1-.737-.142.433.433 0 0 1 .099-.482.457.457 0 0 1 .493-.096.45.45 0 0 1 .203.163.43.43 0 0 1 .076.245Zm-15.222-1.414c0 .425-.568.773-1.262.773-.694 0-1.261-.348-1.261-.773 0-.425.561-.767 1.261-.767.7 0 1.262.342 1.262.767ZM39.709 39.84c0 .265-.441.478-.984.478-.544 0-.984-.212-.984-.478 0-.265.44-.472.984-.472.543 0 .983.212.983.472Zm5.793-.945c0 .26-.5.472-1.116.472-.616 0-1.123-.212-1.123-.472s.501-.472 1.123-.472 1.116.213 1.116.472Zm7.292 1.158c0 .377-.675.684-1.514.684-.84 0-1.515-.307-1.515-.684 0-.378.682-.685 1.515-.685.832 0 1.514.307 1.514.684Zm5.373-1.158a.47.47 0 0 1-.08.268.5.5 0 0 1-.755.076.475.475 0 0 1-.105-.523.481.481 0 0 1 .183-.215.497.497 0 0 1 .274-.078c.128 0 .25.05.341.139.09.088.142.208.142.333Zm-.973 3.735c0 .23-.458.42-1.032.42-.573 0-1.026-.19-1.026-.42 0-.23.459-.424 1.026-.424.568 0 1.032.188 1.032.424Zm8.07-3.94a.679.679 0 0 1-.118.387.703.703 0 0 1-.32.256.722.722 0 0 1-.774-.156.684.684 0 0 1-.14-.761.695.695 0 0 1 .27-.306.719.719 0 0 1 .4-.105.702.702 0 0 1 .485.205.67.67 0 0 1 .197.48Zm3.846 2.783c0 .112-.357.207-.804.207-.446 0-.796-.095-.796-.207 0-.112.356-.212.796-.212.441 0 .803.094.803.212Zm2.504-1.361a.3.3 0 0 1-.019.185.309.309 0 0 1-.124.141.32.32 0 0 1-.363-.024.305.305 0 0 1-.096-.343.307.307 0 0 1 .117-.147.319.319 0 0 1 .183-.054.282.282 0 0 1 .202.06.27.27 0 0 1 .1.182Z"/>
    <path fill="#DA840D" d="M69.109 41.474a.658.658 0 0 1-.148.349.697.697 0 0 1-1.036.027.66.66 0 0 1-.118-.716.671.671 0 0 1 .25-.288.694.694 0 0 1 .37-.11.732.732 0 0 1 .497.23.7.7 0 0 1 .185.508Zm3.874-1.186c0 .248-.374.449-.839.449-.465 0-.833-.201-.833-.449s.375-.448.833-.448c.459 0 .84.2.84.448Z"/>
    <path fill="#E3AC8A" d="M93.354 37.445c0 7.615-16.562 14.706-36.498 14.706-19.936 0-36.618-7.616-36.618-15.237S36.92 24.556 56.856 24.556c19.936 0 36.498 5.268 36.498 12.89Z"/>
    <path fill="#DA840D" d="M92.95 35.983c0 7.62-16.164 13.797-36.1 13.797s-36.088-6.188-36.088-13.797c0-7.61 16.158-13.81 36.094-13.81s36.093 6.176 36.093 13.81Z"/>
    <path fill="#F0A508" d="M83.118 34.667c0 5.65-11.993 10.234-26.78 10.234-14.788 0-26.763-4.583-26.763-10.234s11.975-10.24 26.762-10.24c14.788 0 26.78 4.583 26.78 10.24Z"/>
    <path fill="#DA840D" d="M38.309 38.442c0 .59-.676 1.103-1.521 1.103-.845 0-1.521-.495-1.521-1.103 0-.607.682-1.103 1.55-1.103.87 0 1.492.49 1.492 1.103Zm-3.042-4.648a.82.82 0 0 1-.16.45.849.849 0 0 1-.387.291.87.87 0 0 1-.914-.197.825.825 0 0 1-.176-.897.836.836 0 0 1 .308-.37.864.864 0 0 1 .465-.144.884.884 0 0 1 .618.257.85.85 0 0 1 .246.61Zm10.604 5.987c.018.285-.052.57-.201.816-.15.246-.37.443-.635.564a1.491 1.491 0 0 1-1.621-.25 1.42 1.42 0 0 1-.426-.729 1.397 1.397 0 0 1 .066-.836c.108-.266.294-.495.536-.656a1.49 1.49 0 0 1 .82-.248c.376-.011.74.124 1.014.375.273.25.434.597.447.964Zm-3.217-5.321c0 .372-.416.672-.93.672-.512 0-.923-.3-.923-.672 0-.372.416-.666.923-.666.508 0 .93.3.93.666Zm9.332 3.169a.903.903 0 0 1-.104.537.932.932 0 0 1-.397.385.96.96 0 0 1-1.06-.129.9.9 0 0 1-.254-1.015.924.924 0 0 1 .345-.43.957.957 0 0 1 .534-.162.906.906 0 0 1 .638.22.865.865 0 0 1 .298.594Zm.355 4.908c0 .377-.446.684-1.002.684-.555 0-1.002-.307-1.002-.684 0-.378.447-.655 1.002-.655.556 0 1.002.283 1.002.655Zm-3.995-7.322a.694.694 0 0 1-.21.496.727.727 0 0 1-1.016 0 .694.694 0 0 1 0-.992.727.727 0 0 1 1.016 0 .69.69 0 0 1 .21.496Zm10.394 1.439c0 .378-.435.685-.972.685-.538 0-.972-.307-.972-.685 0-.377.434-.672.972-.672.537 0 .971.295.971.672Zm0 3.534c0 .224-.435.407-.972.407-.538 0-.972-.183-.972-.407 0-.224.434-.407.972-.407.537 0 .971.183.971.407Zm6.572-2.3c0 .307-.393.554-.882.554-.488 0-.88-.247-.88-.554 0-.307.398-.549.88-.549.483 0 .882.248.882.549Zm-1.05 3.939a.896.896 0 0 1-.046.554.92.92 0 0 1-.366.426.953.953 0 0 1-1.081-.057.913.913 0 0 1-.317-.462.894.894 0 0 1 .015-.555.915.915 0 0 1 .342-.444.95.95 0 0 1 .542-.17.84.84 0 0 1 .604.171.806.806 0 0 1 .307.537Zm7.316-1.126a.945.945 0 0 1-.267.452.993.993 0 0 1-1.003.212.97.97 0 0 1-.434-.303.938.938 0 0 1-.118-.996.964.964 0 0 1 .351-.393.988.988 0 0 1 .51-.151 1.093 1.093 0 0 1 .736.391 1.042 1.042 0 0 1 .225.788Zm-.525-5.15c0 .23-.308.419-.688.419-.38 0-.683-.189-.683-.419 0-.23.302-.419.683-.419.38 0 .688.19.688.42Zm5.794 1.233c0 .914-.417 1.658-.93 1.658-.513 0-.923-.744-.923-1.658 0-.914.416-1.652.923-1.652.507 0 .93.738.93 1.652Zm2.318-1.675a.43.43 0 0 1-.079.24.446.446 0 0 1-.459.181.45.45 0 0 1-.227-.12.433.433 0 0 1-.094-.475.438.438 0 0 1 .164-.195.454.454 0 0 1 .564.058c.084.083.13.195.13.31Zm-15.223-1.415c0 .424-.561.767-1.255.767-.694 0-1.262-.343-1.262-.767 0-.425.562-.767 1.262-.767s1.255.342 1.255.767Zm-23.66-3.971c0 .26-.44.472-.983.472-.544 0-.99-.212-.99-.472s.44-.478.99-.478c.549 0 .983.212.983.478Zm5.794-.949c0 .266-.5.472-1.122.472-.622 0-1.117-.206-1.117-.472 0-.265.501-.472 1.117-.472.615 0 1.122.213 1.122.472Zm7.291 1.156c0 .377-.676.684-1.515.684-.839 0-1.515-.307-1.515-.685 0-.377.682-.684 1.515-.684.833 0 1.515.307 1.515.684Zm5.373-1.157a.474.474 0 0 1-.16.303.495.495 0 0 1-.652 0 .474.474 0 0 1-.16-.303.474.474 0 0 1 .16-.303.496.496 0 0 1 .652 0c.09.078.146.186.16.303Zm-.973 3.728c0 .236-.458.425-1.032.425-.573 0-1.032-.189-1.032-.425s.465-.418 1.032-.418c.568 0 1.032.188 1.032.418Zm8.071-3.934a.679.679 0 0 1-.116.385.702.702 0 0 1-.316.256.722.722 0 0 1-.772-.145.675.675 0 0 1-.156-.753.693.693 0 0 1 .26-.31.718.718 0 0 1 .393-.118.707.707 0 0 1 .501.197.677.677 0 0 1 .206.488Zm3.843 2.785c0 .112-.362.206-.802.206-.44 0-.797-.094-.797-.206 0-.112.356-.212.797-.212.44 0 .802.123.802.212Zm2.506-1.392a.307.307 0 0 1-.113.16.318.318 0 0 1-.49-.16.307.307 0 0 1 .112-.16.318.318 0 0 1 .491.16Z"/>
    <path fill="#DA840D" d="M69.682 31.351a.659.659 0 0 1-.148.35.697.697 0 0 1-1.036.027.66.66 0 0 1-.118-.716.67.67 0 0 1 .25-.289.693.693 0 0 1 .37-.11.732.732 0 0 1 .498.231.7.7 0 0 1 .184.507Zm3.875-1.185c0 .248-.374.448-.839.448-.465 0-.839-.2-.839-.448s.374-.442.84-.442c.464 0 .838.194.838.442Z"/>
    <path fill="#E3AC8A" d="M93.354 30.938c0 7.622-16.562 14.706-36.498 14.706-19.936 0-36.618-7.61-36.618-15.23 0-7.622 16.682-12.388 36.618-12.388 19.936 0 36.498 5.291 36.498 12.912Z"/>
    <path fill="#DA840D" d="M92.95 29.494c0 7.615-16.164 13.797-36.1 13.797s-36.088-6.205-36.088-13.797c0-7.592 16.158-13.804 36.094-13.804s36.093 6.135 36.093 13.804Z"/>
    <path fill="#F0A508" d="M83.118 28.16c0 5.651-11.993 10.235-26.78 10.235-14.788 0-26.763-4.584-26.763-10.235 0-5.65 11.975-10.24 26.762-10.24 14.788 0 26.78 4.583 26.78 10.24Z"/>
    <path fill="#DA840D" d="M38.309 31.936c0 .59-.676 1.103-1.521 1.103-.845 0-1.521-.496-1.521-1.103 0-.608.682-1.104 1.52-1.104.84 0 1.522.496 1.522 1.104Zm-3.042-4.649a.82.82 0 0 1-.16.45.849.849 0 0 1-.387.292.87.87 0 0 1-.914-.198.825.825 0 0 1-.176-.897.835.835 0 0 1 .308-.37.865.865 0 0 1 .465-.144.888.888 0 0 1 .618.257.85.85 0 0 1 .246.61Zm9.126 7.326c.806 0 1.46-.6 1.46-1.339 0-.74-.654-1.339-1.46-1.339-.807 0-1.461.6-1.461 1.34 0 .739.654 1.338 1.46 1.338Zm-1.739-6.653c0 .366-.416.667-.93.667-.512 0-.923-.313-.923-.667 0-.354.416-.672.923-.672.508 0 .93.3.93.672Zm9.332 3.162a.903.903 0 0 1-.104.537.932.932 0 0 1-.397.385.961.961 0 0 1-1.06-.129.9.9 0 0 1-.254-1.014.924.924 0 0 1 .345-.43.957.957 0 0 1 .534-.163.906.906 0 0 1 .638.22.866.866 0 0 1 .298.594Zm.355 4.907c0 .377-.446.684-1.002.684-.555 0-1.002-.307-1.002-.684 0-.378.447-.679 1.002-.679.556 0 1.002.307 1.002.678Zm-3.995-7.315a.693.693 0 0 1-.146.375.734.734 0 0 1-1.096.05.696.696 0 0 1-.133-.758.706.706 0 0 1 .264-.306.73.73 0 0 1 .393-.116.756.756 0 0 1 .518.233.717.717 0 0 1 .2.522Zm10.394 1.434c0 .378-.435.685-.972.685-.538 0-.972-.307-.972-.685 0-.377.434-.654.972-.654.537 0 .971.277.971.654Zm0 3.532c0 .225-.435.408-.972.408-.538 0-.972-.183-.972-.407 0-.224.434-.407.972-.407.537 0 .971.183.971.407Zm6.572-2.299c0 .307-.393.555-.882.555-.488 0-.88-.248-.88-.555 0-.307.398-.549.88-.549.483 0 .882.248.882.55Zm-1.05 3.941a.895.895 0 0 1-.046.553.92.92 0 0 1-.366.426.952.952 0 0 1-1.081-.057.913.913 0 0 1-.317-.462.894.894 0 0 1 .015-.555.916.916 0 0 1 .342-.444.95.95 0 0 1 .542-.17.841.841 0 0 1 .604.171.806.806 0 0 1 .307.538Zm7.315-1.11a.944.944 0 0 1-.266.452.993.993 0 0 1-1.003.212.97.97 0 0 1-.434-.303.938.938 0 0 1-.118-.996.955.955 0 0 1 .351-.392.988.988 0 0 1 .51-.152 1.088 1.088 0 0 1 .738.39 1.036 1.036 0 0 1 .222.79Zm-.524-5.166c0 .236-.308.425-.688.425-.38 0-.683-.19-.683-.425 0-.236.302-.419.683-.419.38 0 .688.189.688.419Zm5.794 1.233c0 .914-.417 1.657-.93 1.657-.513 0-.923-.743-.923-1.657 0-.915.416-1.652.923-1.652.507 0 .93.743.93 1.652Zm2.318-1.675a.43.43 0 0 1-.079.24.456.456 0 0 1-.686.06.434.434 0 0 1-.094-.475.439.439 0 0 1 .164-.195.454.454 0 0 1 .662.2.427.427 0 0 1 .033.17Zm-15.223-1.417c0 .424-.561.772-1.255.772-.694 0-1.262-.348-1.262-.772 0-.425.562-.767 1.262-.767s1.255.342 1.255.767Zm-23.66-3.97c0 .26-.44.472-.983.472-.544 0-.99-.212-.99-.472s.44-.472.99-.472c.549 0 .983.212.983.472Zm5.794-.95c0 .265-.5.478-1.122.478-.622 0-1.117-.213-1.117-.478 0-.266.501-.472 1.117-.472.615 0 1.122.212 1.122.472Zm7.291 1.157c0 .377-.676.684-1.515.684-.839 0-1.515-.307-1.515-.684 0-.378.682-.679 1.515-.679.833 0 1.515.301 1.515.678Zm5.372-1.157a.47.47 0 0 1-.08.268.499.499 0 0 1-.755.076.475.475 0 0 1-.104-.523.48.48 0 0 1 .182-.215.498.498 0 0 1 .616.06c.09.09.141.21.141.334ZM57.767 26c0 .23-.458.42-1.032.42-.573 0-1.032-.19-1.032-.42 0-.23.465-.424 1.032-.424.568 0 1.032.189 1.032.425Zm8.071-3.939a.679.679 0 0 1-.116.385.702.702 0 0 1-.316.257.722.722 0 0 1-.772-.146.676.676 0 0 1-.156-.753.693.693 0 0 1 .26-.31.718.718 0 0 1 .663-.067.701.701 0 0 1 .383.371.67.67 0 0 1 .054.263Zm3.843 2.784c0 .112-.362.207-.802.207-.44 0-.797-.095-.797-.207 0-.112.356-.212.797-.212.44 0 .802.094.802.212Zm2.506-1.392a.3.3 0 0 1-.136.33.319.319 0 0 1-.363-.018.3.3 0 0 1 .01-.49.318.318 0 0 1 .182-.058.288.288 0 0 1 .202.058.276.276 0 0 1 .105.178Z"/>
    <path fill="#DA840D" d="M69.682 24.844a.66.66 0 0 1-.148.35.696.696 0 0 1-1.036.027.66.66 0 0 1-.118-.716.67.67 0 0 1 .25-.289.694.694 0 0 1 .37-.11.732.732 0 0 1 .498.231.7.7 0 0 1 .184.507Zm3.875-1.184c0 .247-.374.448-.839.448-.465 0-.839-.201-.839-.449 0-.247.374-.442.84-.442.464 0 .838.2.838.442Z"/>
    <path fill="#C66720" d="M91.96 24.238c-.845-7.326-15.983-13.154-34.537-13.154-17.358 0-31.723 5.102-34.198 11.75a5.698 5.698 0 0 0-.893 2.99c0 7.622 15.994 15.237 35.091 15.237s34.96-7.078 34.96-14.711a5.545 5.545 0 0 0-.423-2.112Z"/>
    <path fill="#E3AC8A" d="M94.09 22.917c0 7.621-16.561 14.712-36.497 14.712s-36.619-7.616-36.619-15.214c0-7.597 16.683-12.387 36.619-12.387S94.09 15.296 94.09 22.917Z"/>
    <path fill="#DA840D" d="M93.77 21.448c0 7.621-15.692 13.379-35.61 13.379S22.067 28.65 22.067 21.029 38.224 7.232 58.16 7.232c19.936 0 35.61 6.595 35.61 14.216Z"/>
    <path fill="#F0A508" d="M57.074 30.373c14.79 0 26.78-4.582 26.78-10.235 0-5.652-11.99-10.234-26.78-10.234-14.79 0-26.78 4.582-26.78 10.234 0 5.653 11.99 10.235 26.78 10.235Z"/>
    <path fill="#DA840D" d="M39.045 23.913c0 .59-.682 1.109-1.521 1.109-.839 0-1.521-.496-1.521-1.11 0-.613.682-1.102 1.52-1.102.84 0 1.522.495 1.522 1.103Zm-3.042-4.643a.82.82 0 0 1-.164.45.85.85 0 0 1-.39.288.87.87 0 0 1-.912-.206.815.815 0 0 1-.166-.9.836.836 0 0 1 .313-.367.865.865 0 0 1 .468-.138.886.886 0 0 1 .611.263.847.847 0 0 1 .24.61Zm10.587 5.987c.016.285-.055.57-.205.814a1.44 1.44 0 0 1-.636.562 1.49 1.49 0 0 1-1.62-.254 1.42 1.42 0 0 1-.423-.729 1.4 1.4 0 0 1 .067-.836c.108-.265.295-.493.536-.654a1.49 1.49 0 0 1 .82-.248 1.448 1.448 0 0 1 1.015.377 1.388 1.388 0 0 1 .446.968Zm-3.199-5.32c0 .371-.416.666-.93.666-.513 0-.923-.295-.923-.666 0-.372.417-.667.924-.667.506 0 .929.3.929.667Zm9.33 3.163a.902.902 0 0 1-.103.537.93.93 0 0 1-.398.385.96.96 0 0 1-1.06-.13.9.9 0 0 1-.254-1.015.924.924 0 0 1 .346-.43.956.956 0 0 1 .534-.162.9.9 0 0 1 .64.218.86.86 0 0 1 .295.596Zm.357 4.912c0 .378-.446.685-1.002.685-.555 0-1.002-.307-1.002-.685 0-.377.447-.684 1.002-.684.556 0 1.002.307 1.002.684Zm-3.995-7.32a.692.692 0 0 1-.147.375.734.734 0 0 1-1.096.05.696.696 0 0 1-.132-.758.706.706 0 0 1 .264-.306.73.73 0 0 1 .392-.116.756.756 0 0 1 .52.231.72.72 0 0 1 .199.524Zm10.393 1.439c0 .378-.435.678-.972.678-.537 0-.972-.3-.972-.678 0-.378.435-.684.972-.684.537 0 .972.306.972.684Zm0 3.534c0 .224-.435.407-.972.407-.537 0-.972-.183-.972-.407 0-.224.435-.407.972-.407.537 0 .972.183.972.407Zm6.573-2.301c0 .307-.399.549-.882.549-.482 0-.88-.242-.88-.549 0-.307.398-.554.88-.554.483 0 .882.247.882.554Zm-1.05 3.941a.895.895 0 0 1-.046.554.92.92 0 0 1-.366.426.952.952 0 0 1-1.082-.057.915.915 0 0 1-.317-.462.895.895 0 0 1 .016-.555.916.916 0 0 1 .341-.445.95.95 0 0 1 .542-.168.846.846 0 0 1 .603.172.81.81 0 0 1 .309.535Zm7.314-1.145a.937.937 0 0 1-.252.463.987.987 0 0 1-1.442-.062.934.934 0 0 1-.123-1 .951.951 0 0 1 .355-.392.982.982 0 0 1 .515-.147c.279.031.534.168.71.38.178.213.263.485.237.758Zm-.531-5.132c0 .23-.302.419-.682.419-.38 0-.682-.189-.682-.419 0-.23.302-.424.682-.424.38 0 .682.188.682.424Zm5.801 1.233c0 .914-.416 1.652-.93 1.652-.513 0-.923-.738-.923-1.652 0-.914.417-1.657.923-1.657.507 0 .93.743.93 1.657Zm2.317-1.675a.43.43 0 0 1-.08.24.445.445 0 0 1-.46.175.45.45 0 0 1-.226-.122.432.432 0 0 1 .073-.669.454.454 0 0 1 .42-.036.454.454 0 0 1 .242.242.433.433 0 0 1 .032.17ZM64.678 19.17c0 .424-.561.767-1.255.767-.694 0-1.256-.343-1.256-.767 0-.425.562-.773 1.262-.773s1.25.348 1.25.773Zm-23.635-3.975c0 .26-.44.472-.984.472-.543 0-.99-.212-.99-.472 0-.259.44-.471.99-.471s.984.212.984.471Zm5.77-.945c0 .26-.5.473-1.123.473-.621 0-1.116-.213-1.116-.472 0-.26.5-.472 1.117-.472.615 0 1.122.212 1.122.472Zm7.291 1.157c0 .377-.676.684-1.515.684-.839 0-1.515-.307-1.515-.684 0-.378.676-.66 1.515-.66.84 0 1.515.282 1.515.66Zm5.371-1.157a.47.47 0 0 1-.079.267.499.499 0 0 1-.753.079.475.475 0 0 1-.109-.522.48.48 0 0 1 .18-.215.497.497 0 0 1 .46-.047.484.484 0 0 1 .264.256.46.46 0 0 1 .037.182Zm-.971 3.729c0 .236-.459.419-1.032.419-.574 0-1.032-.183-1.032-.42 0-.235.464-.418 1.032-.418.567 0 1.032.189 1.032.419Zm8.07-3.941a.68.68 0 0 1-.113.386.72.72 0 0 1-1.088.117.677.677 0 0 1 .101-1.065.717.717 0 0 1 .662-.067.702.702 0 0 1 .382.367.671.671 0 0 1 .056.262Zm3.844 2.784c0 .118-.362.213-.802.213-.44 0-.797-.095-.797-.213s.356-.206.797-.206c.44 0 .802.094.802.206Zm2.505-1.391a.3.3 0 0 1-.136.33.319.319 0 0 1-.363-.018.3.3 0 0 1 .01-.49.319.319 0 0 1 .181-.058.288.288 0 0 1 .203.058.276.276 0 0 1 .105.178Z"/>
    <path fill="#DA840D" d="M70.418 16.823a.652.652 0 0 1-.174.51.682.682 0 0 1-.505.219.696.696 0 0 1-.504-.218.663.663 0 0 1-.175-.511.653.653 0 0 1 .175-.512.682.682 0 0 1 .504-.218.694.694 0 0 1 .505.218.663.663 0 0 1 .174.512Zm3.869-1.179c0 .247-.368.448-.833.448-.464 0-.839-.2-.839-.448s.375-.449.84-.449c.464 0 .832.2.832.449Z"/>
    <path fill="#E3AC8A" d="M93.933 15.567c0 4.648-6.156 9.096-15.481 11.857a75.23 75.23 0 0 1-21.016 2.849c-7.406 0-13.49-1.906-19.635-2.36-10.248-.779-16.984-8.081-16.984-12.871 0-7.621 16.689-12.388 36.619-12.388s36.497 5.292 36.497 12.913Z"/>
    <path fill="#DA840D" d="M93.475 14.558c0 7.62-16.164 13.797-36.1 13.797-19.935 0-36.093-6.176-36.093-13.797C21.282 6.936 37.422.76 57.376.76s36.099 6.176 36.099 13.798Z"/>
    <path fill="#F0A508" d="M83.637 13.254c0 5.65-11.993 10.234-26.78 10.234-14.788 0-26.78-4.583-26.78-10.234 0-5.652 11.986-10.24 26.78-10.24 14.793 0 26.78 4.583 26.78 10.24Z"/>
    <path fill="#DA840D" d="M38.828 17.03c0 .59-.682 1.102-1.521 1.102-.84 0-1.521-.495-1.521-1.103 0-.607.682-1.103 1.52-1.103.84 0 1.522.49 1.522 1.103Zm-3.043-4.642a.82.82 0 0 1-.16.452.85.85 0 0 1-.39.29.87.87 0 0 1-.914-.202.825.825 0 0 1-.169-.902.836.836 0 0 1 .314-.367.865.865 0 0 1 .468-.139.887.887 0 0 1 .61.262.846.846 0 0 1 .241.606Zm10.587 5.98c.018.285-.052.57-.2.816a1.45 1.45 0 0 1-.636.564 1.491 1.491 0 0 1-1.62-.25 1.42 1.42 0 0 1-.427-.729 1.4 1.4 0 0 1 .067-.836c.107-.266.294-.495.536-.656.241-.161.527-.248.82-.248.375-.011.74.123 1.013.375.274.25.435.597.447.964Zm-3.198-5.315c0 .366-.417.667-.93.667-.513 0-.923-.301-.923-.667 0-.365.416-.666.93-.666.512 0 .923.295.923.666Zm9.336 3.161a.897.897 0 0 1-.105.533.925.925 0 0 1-.396.38.954.954 0 0 1-1.053-.132.895.895 0 0 1-.25-1.008.919.919 0 0 1 .345-.426.95.95 0 0 1 .53-.161.9.9 0 0 1 .636.22.86.86 0 0 1 .294.594Zm.35 4.908c0 .378-.446.684-1.001.684-.555 0-1.002-.306-1.002-.684 0-.377.447-.678 1.002-.678.555 0 1.002.307 1.002.678Zm-3.97-7.319a.693.693 0 0 1-.145.376.733.733 0 0 1-1.097.056.697.697 0 0 1-.135-.758.706.706 0 0 1 .265-.308.73.73 0 0 1 .393-.115.758.758 0 0 1 .518.229.724.724 0 0 1 .2.52Zm10.369 1.439c0 .377-.435.684-.972.684-.537 0-.948-.307-.948-.684 0-.378.435-.684.972-.684.537 0 .948.306.948.684Zm0 3.533c0 .224-.435.407-.972.407-.537 0-.948-.183-.948-.407 0-.224.435-.407.972-.407.537 0 .948.183.948.407Zm6.573-2.3c0 .307-.399.554-.882.554s-.88-.247-.88-.554c0-.307.397-.549.88-.549s.882.248.882.549Zm-1.051 3.939a.914.914 0 0 1-.333.493.95.95 0 0 1-1.144 0 .913.913 0 0 1-.333-.493.913.913 0 0 1 .333-.493.95.95 0 0 1 1.144 0 .914.914 0 0 1 .334.493Zm7.315-1.137a.924.924 0 0 1-.202.781.983.983 0 0 1-1.491 0 .936.936 0 0 1-.202-.781.93.93 0 0 1 .188-.803.97.97 0 0 1 .76-.357.991.991 0 0 1 .76.357.941.941 0 0 1 .187.803Zm-.531-5.121c0 .23-.302.419-.682.419-.38 0-.682-.189-.682-.419 0-.23.302-.419.682-.419.38 0 .682.171.682.42Zm5.8 1.216c0 .914-.416 1.657-.93 1.657-.512 0-.923-.743-.923-1.657s.41-1.652.924-1.652c.513 0 .93.738.93 1.652Zm2.306-1.675a.43.43 0 0 1-.078.24.446.446 0 0 1-.46.181.45.45 0 0 1-.227-.12.434.434 0 0 1-.094-.475.439.439 0 0 1 .165-.195.454.454 0 0 1 .563.058.437.437 0 0 1 .131.31Zm-15.21-1.417c0 .425-.561.773-1.261.773-.7 0-1.256-.348-1.256-.773 0-.424.562-.766 1.256-.766s1.261.342 1.261.767ZM40.802 8.31c0 .26-.441.473-.99.473-.55 0-.984-.213-.984-.472 0-.26.44-.478.984-.478.543 0 .99.212.99.478Zm5.794-.95c0 .266-.501.472-1.123.472s-1.123-.206-1.123-.471c0-.266.507-.472 1.123-.472s1.123.188 1.123.472Zm7.291 1.157c0 .378-.676.685-1.515.685-.839 0-1.515-.307-1.515-.685 0-.377.676-.684 1.515-.684.839 0 1.515.307 1.515.684Zm5.371-1.156a.47.47 0 0 1-.08.267.487.487 0 0 1-.5.208.493.493 0 0 1-.252-.13.475.475 0 0 1-.109-.52.48.48 0 0 1 .18-.216.497.497 0 0 1 .459-.047.485.485 0 0 1 .265.256.46.46 0 0 1 .037.182Zm-.972 3.734c0 .23-.464.418-1.032.418-.567 0-1.032-.188-1.032-.418 0-.23.465-.425 1.032-.425.568 0 1.032.189 1.032.425Zm8.064-3.94a.673.673 0 0 1-.108.385.697.697 0 0 1-.31.26.715.715 0 0 1-.77-.137.68.68 0 0 1-.16-.748.688.688 0 0 1 .258-.31.712.712 0 0 1 .39-.117.703.703 0 0 1 .491.193.67.67 0 0 1 .21.474Zm3.85 2.784c0 .112-.361.206-.802.206-.44 0-.803-.094-.803-.206 0-.112.362-.212.803-.212.44 0 .803.094.803.212Zm2.506-1.393a.3.3 0 0 1-.136.33.32.32 0 0 1-.363-.018.307.307 0 0 1-.104-.34.308.308 0 0 1 .114-.15.319.319 0 0 1 .181-.058.288.288 0 0 1 .202.058.276.276 0 0 1 .106.178Z"/>
    <path fill="#DA840D" d="M70.201 9.939a.66.66 0 0 1-.148.35.698.698 0 0 1-1.036.027.66.66 0 0 1-.118-.717.671.671 0 0 1 .25-.288.694.694 0 0 1 .37-.11.732.732 0 0 1 .498.231.699.699 0 0 1 .184.507Zm3.869-1.186c0 .248-.375.448-.833.448-.459 0-.84-.2-.84-.448s.375-.442.84-.442c.464 0 .833.194.833.442Z"/>
    <path fill="#EEBE30" d="M62.855 45.615a2.213 2.213 0 0 0-.897-1.255 2.31 2.31 0 0 0-1.517-.385c-3.621.254-3.923 6.182-2.65 8.772a1.908 1.908 0 0 0 2.566-.248c1.159-1.268 1.527-3.103 1.937-4.719a55.37 55.37 0 0 0 .561-2.165Zm26.884-30.804a11.292 11.292 0 0 1-3.428-2.047 31.298 31.298 0 0 1-3.32-3.687C81.488 7.272 79.303 6.565 77.01 6.3c-2.553-.3-5.191.254-7.762.124a9.064 9.064 0 0 1-3.948-1.02c-1.207-.673-2.154-1.77-3.186-2.72-2.022-1.77-4.588-1.77-7.14-2.17A36.317 36.317 0 0 0 49.855 0c-1.756-.041-4.828-.065-6.005 1.57-1.304.59-1.763 2.158-2.059 3.48a18.42 18.42 0 0 1-.79 3.209 7.88 7.88 0 0 1-2.415 3.026c-2.3 1.87-5.142 2.872-7.743 4.176-2.113 1.056-4.702 2.554-5.837 4.672-.682 1.268-.604 3.439.604 4.377 1.49 1.12 2.625-.991 2.945-2.059.296-.967.404-1.952 1.207-2.678a9.284 9.284 0 0 1 3.754-1.923c1.165-.319 2.415-.319 3.562-.666a15.448 15.448 0 0 0 3.844-2.071c1.376-.897 2.716-1.77 4.352-2.159 1.358-.307 3.458-.26 4.527.755a12 12 0 0 1 1.503 2.253 5.78 5.78 0 0 0 2.124 1.77c1.702.95 3.652 1.369 5.432 2.23.596.302 1.109.74 1.497 1.274.06.088.115.177.17.271.043.067.083.136.12.207 1.943 3.504-.501 7.214-.435 10.913 0 1.993 1.479 5.256 3.978 3.657.169-.106.326-.224.483-.342.283-2.584.513-5.233 1.43-7.669.863-2.265 2.04-4.359 1.913-6.854-.072-1.375-.742-2.637-.905-3.994-.23-1.887 1.509-2.743 3.072-3.114a10.68 10.68 0 0 1 6.724.448c4.008 1.61 7.243 4.931 11.697 5.48 1.763.218 4.316-.053 5.016-1.935.7-1.881-2.626-2.967-3.881-3.492Z"/>
    <path fill="#fff" d="M65.216 17.272a4.07 4.07 0 0 0-.984-1.7 4.2 4.2 0 0 0-1.678-1.06c-.918-.237-2.366.359-2.252 1.444a.157.157 0 0 0 .06.113c-.603 1.256 1.148 3.42 1.751 4.341.442.59.72 1.28.809 2.006.103.938-.205 1.864-.115 2.79.036.413.356 2.176 1.207 1.469.972-.803 1.075-2.62 1.274-3.764a12.622 12.622 0 0 0-.072-5.64Zm17.551-6.107a7.502 7.502 0 0 0-4.4-3.28c-1.859-.524-6.32-1.09-6.79 1.57a.25.25 0 0 0 .04.153c.028.045.072.08.123.1.12.085.225.187.314.301a.264.264 0 0 0 .115.112.228.228 0 0 0 .15 0c.345.309.758.535 1.208.661 1.106.24 2.234.37 3.368.39 1.569.147 2.444.807 3.537 1.834.603.59 2.257 1.829 3.108.89.652-.66-.417-2.188-.773-2.73Zm-53.639 7.41a3.287 3.287 0 0 0-.796 0 .075.075 0 0 0-.025-.063.08.08 0 0 0-.066-.02 2.92 2.92 0 0 0-1.223.491 2.84 2.84 0 0 0-.871.973c-.145.294-.429 1.327.193 1.38.622.053 1.11-.59 1.46-.926a20.47 20.47 0 0 0 1.437-1.61.145.145 0 0 0-.04-.198.153.153 0 0 0-.069-.027Zm72.803 34.012a4.177 4.177 0 0 0-3.126.59 4.04 4.04 0 0 0-1.143 1.128 3.94 3.94 0 0 0-.602 1.474.126.126 0 0 0 .03.107.132.132 0 0 0 .103.046.83.83 0 0 1 0 .118c-.212.92-1.328 1.345-2.034 1.734-.525.284-1.069.537-1.612.797-1.81.896-4.66 2.052-5.22 4.43a.133.133 0 0 0 .041.147c1.087.732 2.336-.36 3.187-1.044a14.084 14.084 0 0 1 5.88-2.672c2.377-.507 6.813-.354 7.671-3.54.519-1.976-1.781-3.073-3.175-3.315Z" opacity=".5"/>
    <path fill="#48264C" d="M63.03 6.836c-.21-.29-.748-.909-1.11-.95-.205 0-.284-.401-.477-.342s-.489.206-.754 0a2.602 2.602 0 0 0-.284-.224.465.465 0 0 0-.386-.065c-.17.065-.236.312-.44.153-.206-.16-.695.083-.816.319a.918.918 0 0 0-.096.206c-.718.1-1.443 1.18-1.714 1.681a3.015 3.015 0 0 0 .163 3.085c.657 1.098 1.997 1.245 3.18 1.28a3.54 3.54 0 0 0 1.389-.118 2.561 2.561 0 0 0 1.044-.82c1.195-1.439 1.424-2.69.302-4.205Z"/>
    <path fill="#300D33" d="M63.03 6.836a3.98 3.98 0 0 0-.724-.76 4.144 4.144 0 0 1-.91 2.695 4.317 4.317 0 0 1-4.534 1.451c.072.17.157.337.254.496.658 1.097 1.998 1.244 3.18 1.28.467.052.939.012 1.389-.118a2.56 2.56 0 0 0 1.044-.82c1.195-1.457 1.424-2.708.302-4.224Z"/>
    <path fill="#48264C" d="M64.093 65.552a3.211 3.211 0 0 0-.912-1.262c-.066-.366-.15-.726-.229-1.091a.239.239 0 0 0-.124-.171.25.25 0 0 0-.214-.012c-.543.248-.664-.071-1.038-.36a.387.387 0 0 0-.398 0c-.604.401-1.244-.549-1.715 0-.275.413-.58.808-.91 1.18a5.741 5.741 0 0 0-1.075.855 3.415 3.415 0 0 0-.604.684 3.83 3.83 0 0 0-.187.33c-.048.107-.09.219-.127.325a.081.081 0 0 0 0 .035 3.695 3.695 0 0 0 .042 2.36c.46 1.363 1.908 1.846 3.206 2.159a4.038 4.038 0 0 0 1.563.2 2.979 2.979 0 0 0 1.364-.666c1.666-1.298 2.22-2.625 1.358-4.566Z"/>
    <path fill="#300D33" d="M64.093 65.552a4.365 4.365 0 0 0-.604-1.009 4.735 4.735 0 0 1-1.675 2.766 4.934 4.934 0 0 1-3.093 1.092 4.856 4.856 0 0 1-2.287-.566c.038.2.09.397.157.59.458 1.362 1.907 1.846 3.205 2.159a4.04 4.04 0 0 0 1.563.2 2.978 2.978 0 0 0 1.364-.666c1.678-1.298 2.233-2.625 1.37-4.566Z"/>
    <path fill="#48264C" d="M53.18 5.81c-.187-.36-.67-1.145-1.068-1.257-.205-.053-.205-.425-.404-.46-.06-.53-.308-1.085-.942-.973-.145 0-.531.395-.682.17a.647.647 0 0 0-.338-.288c-.296-.112-.555.141-.724.336-.284.324-.646-.153-1.014 0-.177.102-.32.25-.415.426a1.053 1.053 0 0 0-.122.577v.094a6.2 6.2 0 0 0-1.207 1.18 3.392 3.392 0 0 0-.398 3.463c.53 1.338 2.003 1.77 3.313 2a4.19 4.19 0 0 0 1.52.129 3 3 0 0 0 1.323-.732c1.635-1.421 2.118-2.772 1.158-4.665Z"/>
    <path fill="#300D33" d="M53.18 5.809a4.786 4.786 0 0 0-.67-.98 4.737 4.737 0 0 1-1.52 2.865 4.94 4.94 0 0 1-3.036 1.265 4.882 4.882 0 0 1-2.306-.449c.048.201.11.398.187.59.531 1.34 2.004 1.77 3.314 2a4.188 4.188 0 0 0 1.55.106 3 3 0 0 0 1.323-.731c1.635-1.422 2.118-2.773 1.159-4.666Z"/>
    <path fill="#48264C" d="M76.653 10.576c-.187-.454-.7-1.451-1.16-1.616-.259-.089-.247-.625-.512-.59-.362.035-.706.13-.99-.207a3.637 3.637 0 0 0-.296-.383.602.602 0 0 0-.483-.212c-.241.041-.404.36-.603.076-.284-.377-.93-.094-1.159.19a1.407 1.407 0 0 0-.187.247c-.966-.077-2.24 1.18-2.74 1.77a4.354 4.354 0 0 0-.922 2.017 4.306 4.306 0 0 0 .197 2.2c.52 1.681 2.228 2.289 3.749 2.696.58.203 1.195.29 1.81.254a3.404 3.404 0 0 0 1.612-.803c2.028-1.628 2.704-3.238 1.684-5.639Z"/>
    <path fill="#300D33" d="M76.653 10.576a5.607 5.607 0 0 0-.712-1.244 5.641 5.641 0 0 1-1.965 3.341 5.88 5.88 0 0 1-3.697 1.342 5.529 5.529 0 0 1-2.673-.708c.04.25.099.496.175.738.519 1.68 2.227 2.289 3.748 2.696.58.202 1.196.289 1.81.253a3.403 3.403 0 0 0 1.612-.802c2.046-1.605 2.722-3.215 1.702-5.616Z"/>
    <path fill="#48264C" d="M75.766 60.509c-.235-.525-.857-1.67-1.406-1.852-.314-.1-.314-.726-.604-.69-.428.047-.839.159-1.207-.225a3.65 3.65 0 0 0-.362-.442.747.747 0 0 0-.604-.236c-.29.047-.483.413-.742.094-.35-.436-1.117-.1-1.394.224-.083.092-.158.19-.224.295-1.158-.082-2.673 1.392-3.27 2.053a4.869 4.869 0 0 0-1.082 2.329 4.816 4.816 0 0 0 .26 2.544c.646 1.934 2.704 2.613 4.533 3.061a5.71 5.71 0 0 0 2.221.277 4.16 4.16 0 0 0 1.925-.938c2.39-1.875 3.175-3.751 1.956-6.494Z"/>
    <path fill="#300D33" d="M75.766 60.51a6.277 6.277 0 0 0-.869-1.434 6.72 6.72 0 0 1-2.372 3.915 7.003 7.003 0 0 1-4.376 1.553 6.867 6.867 0 0 1-3.223-.796c.048.29.121.577.218.855.645 1.935 2.703 2.614 4.532 3.062a5.71 5.71 0 0 0 2.221.277 4.16 4.16 0 0 0 1.926-.938c2.378-1.876 3.163-3.751 1.943-6.494Z"/>
    <path fill="#5F825C" d="M48.473 56.262s1.612-.59 2.547 1.493c.936 2.082 1.274 4.129 2.21 5.102.256.219.46.492.592.799.133.306.192.638.174.97 0 0-2.638-1.409-3.314-2.158a15.81 15.81 0 0 1-2.553-3.404 34.61 34.61 0 0 1-1.298-2.902l1.642.1Z"/>
    <path fill="#5F825C" d="M47.84 55.896s.404-1.634-1.811-2.3c-2.216-.667-4.346-.767-5.433-1.564a2.254 2.254 0 0 0-.889-.486 2.29 2.29 0 0 0-1.018-.05s1.732 2.4 2.571 2.949a16.393 16.393 0 0 0 3.755 2.082c1.605.59 3.096.932 3.096.932l-.272-1.563Z"/>
    <path fill="#ED6366" d="M47.526 56.694s2.975 2.076 2.89 4.901c-.084 2.826-.084 4.236-1.81 5.81-1.726 1.576-5.01 1.664-6.712 2.407-1.702.744-3.736 1.416-4.225 1.83-.489.412-1.527.83-3.054 0-1.527-.833-2.414-.744-2.124-3.074a44.402 44.402 0 0 1 2.209-8.801c.845-2.16 1.593-3.823 3.983-4.483a11.055 11.055 0 0 1 6.893.495c1.503.75 1.95.914 1.95.914Z"/>
    <path fill="#C73A54" d="M32.846 66.32c1.35.497 2.782.75 4.225.75 5.915 0 10.707-4.064 10.707-9.072a7.556 7.556 0 0 0-.096-1.233c.64.501 2.782 2.36 2.71 4.766-.085 2.82-.085 4.235-1.81 5.81-1.727 1.575-5.01 1.664-6.712 2.407-1.703.743-3.737 1.416-4.225 1.829-.49.413-1.528.831-3.055 0-1.527-.832-2.414-.75-2.124-3.074.09-.613.217-1.362.38-2.182Z"/>
    <path fill="#E7D8C8" d="M48.847 62.887c.404.053.5-.626.53-1.121a.785.785 0 0 0 0-.378v-.04c0-.048-.066-.06-.072 0a.085.085 0 0 0-.066.04c-.072.16-.954 1.428-.392 1.499Zm-.845-2.56a.06.06 0 0 0 .048.024.06.06 0 0 0 .027-.007 1.032 1.032 0 0 0 .303-.365 1.02 1.02 0 0 0 .105-.43.763.763 0 0 0 .054-.254.071.071 0 0 0-.066-.077.073.073 0 0 0-.037.006h-.066a.986.986 0 0 0-.368.493.964.964 0 0 0 0 .61Zm-1.744-1.341c.35.272.513-.348.603-.755.052-.123.088-.252.109-.383a.07.07 0 0 0-.01-.043.073.073 0 0 0-.078-.033.072.072 0 0 0-.039.023c-.169.194-.93.944-.585 1.191Zm-.224 2.632a.055.055 0 0 0 .085 0 1.96 1.96 0 0 0 .302-.365c.21-.23.34-.52.374-.826 0-.047-.049-.106-.103-.083l-.108.071c-.387.277-.845.814-.55 1.203Zm.604 2.638c.223.136.356-.177.428-.501.099-.166.157-.352.169-.543a.07.07 0 0 0-.03-.064.073.073 0 0 0-.072-.006h-.073v.04a1.69 1.69 0 0 0-.368.555c-.06.136-.218.43-.054.52Zm1.141 1.462c.241.153.494-.065.603-.278.06-.144.104-.295.133-.448a.894.894 0 0 0 .127-.39.081.081 0 0 0 0-.111v-.042c0-.047-.079-.094-.127-.053-.2.142-1.105 1.08-.736 1.322Zm-2.342.814c.205.277.405 0 .543-.272a.774.774 0 0 0 .266-.59.065.065 0 0 0-.03-.052.066.066 0 0 0-.06-.007c-.284.107-.972.578-.719.92Zm-1.136-3.415c.175-.207.378-.39.604-.543a.08.08 0 0 1 .12.026c.006.014.009.03.007.045a.716.716 0 0 1-.067.253v.089c-.03.246-.135.478-.302.666-.126.142-.422.213-.543 0-.12-.212.073-.436.181-.536Zm-.337-2.082c.048.183.29.165.41.07a.815.815 0 0 0 .194-.253.838.838 0 0 0 .193-.472.08.08 0 0 0-.033-.069.086.086 0 0 0-.076-.014 1.16 1.16 0 0 0-.447.307c-.108.1-.29.266-.241.43Zm1.038-4.406a.086.086 0 0 1 .103.047.917.917 0 0 1-.023.532.938.938 0 0 1-.315.435.092.092 0 0 1-.14-.041.459.459 0 0 1-.035-.13.664.664 0 0 1 .033-.502.688.688 0 0 1 .377-.341Zm-2.082 3.243c.18.148.331 0 .44-.236a1.12 1.12 0 0 0 .32-1.044.098.098 0 0 0-.09-.053c-.272.035-.502.407-.604.59-.103.183-.296.566-.067.743Zm-.067-3.386a.987.987 0 0 1 .115-.118.1.1 0 0 1 .094-.01.096.096 0 0 1 .057.074.884.884 0 0 1-.266.75.338.338 0 0 1 0 .047.238.238 0 0 1-.195.13.246.246 0 0 1-.215-.095c-.26-.26.109-.637.41-.779Zm-2.052 2.159c.12-.244.311-.45.55-.59a.085.085 0 0 1 .127.035.081.081 0 0 1 .005.048.951.951 0 0 1-.078.319v.1c-.013.13-.042.26-.085.383a.498.498 0 0 1-.235.283.098.098 0 0 1-.169 0c-.236-.123-.163-.43-.115-.578Zm-.429-1.427a.06.06 0 0 0 .066 0 2.21 2.21 0 0 0 .224-.242c.152-.124.28-.274.38-.442a.399.399 0 0 0 .048-.242v-.041c0-.042 0-.071-.06-.053a.218.218 0 0 0-.187-.077c-.405.006-.827.808-.47 1.097Zm-2.438.738c.121.224.405 0 .508-.124.164-.186.278-.409.331-.649a.579.579 0 0 0 .067-.26.086.086 0 0 0-.024-.072.092.092 0 0 0-.073-.027.874.874 0 0 0-.39.155.847.847 0 0 0-.268.316c-.102.172-.26.46-.15.661Zm.598 2.371c.072.183.265.095.338 0 .072-.094.066-.124.096-.182a1.025 1.025 0 0 0 .242-.962.076.076 0 0 0-.051-.047.08.08 0 0 0-.07.011c-.169.15-.301.336-.386.543-.073.154-.254.425-.17.637Zm2.456 1.02c.065-.296.233-.561.477-.749a.085.085 0 0 1 .085-.023.084.084 0 0 1 .06.064c.01.11-.004.22-.042.325a.711.711 0 0 1-.149.358.735.735 0 0 1-.316.232h-.06a.097.097 0 0 1-.105-.064.092.092 0 0 1-.004-.043l.054-.1Zm1.762.696a.092.092 0 0 1 .122.02c.009.01.015.024.018.039v.041c0 .33-.236.861-.604.89a.073.073 0 0 1-.084-.064 1.16 1.16 0 0 1 .16-.528c.096-.16.23-.297.389-.398Zm-2.07 1.072a1.2 1.2 0 0 1 .254-.188c.048 0 .133 0 .133.053a.974.974 0 0 1-.278.631.654.654 0 0 1-.29.248.068.068 0 0 1-.05-.001.066.066 0 0 1-.034-.035v-.065a.11.11 0 0 1 0-.047.579.579 0 0 1 .265-.596Zm-1.587-1.655a.098.098 0 0 1 .068.02c.02.016.032.038.035.062a.44.44 0 0 1 0 .153.576.576 0 0 1-.157.478.796.796 0 0 1-.356.33c-.037 0-.079 0-.097-.041-.133-.307.072-1.009.507-1.003Zm-2.722-.372a.095.095 0 0 0 .05.056.1.1 0 0 0 .077.003.89.89 0 0 0 .428-.413.861.861 0 0 0 .067-.584.096.096 0 0 0-.1-.055.099.099 0 0 0-.039.014 1.19 1.19 0 0 0-.338.354.707.707 0 0 0-.145.625Zm.266 2.277a.65.65 0 0 1 .096-.345.67.67 0 0 1 .266-.245.093.093 0 0 1 .084.006.086.086 0 0 1 .043.07.732.732 0 0 1-.23.644.34.34 0 0 1-.096.088.098.098 0 0 1-.133-.041.053.053 0 0 1 0-.041.5.5 0 0 1-.03-.136Zm5.529.855a.078.078 0 0 1 .084.077.817.817 0 0 1-.133.443.845.845 0 0 1-.356.306.105.105 0 0 1-.06 0h-.084a.068.068 0 0 1-.055-.015.065.065 0 0 1-.024-.05 1.04 1.04 0 0 1 .627-.761Zm.64 1.645a.093.093 0 0 0 .035.084.097.097 0 0 0 .091.016h.042a.055.055 0 0 0 .06 0l.043-.04a1.049 1.049 0 0 0 .44-.691.075.075 0 0 0-.029-.073.08.08 0 0 0-.079-.01 1.017 1.017 0 0 0-.459.413.817.817 0 0 0-.145.301Zm-.357 2.078a1.17 1.17 0 0 1 .326-.407c.058-.063.123-.12.193-.171a.099.099 0 0 1 .06 0 .08.08 0 0 1 .12.026c.007.013.01.03.007.044a.725.725 0 0 1-.185.375.752.752 0 0 1-.364.215h-.049a.074.074 0 0 1-.085-.003.07.07 0 0 1-.023-.08Zm-1.956-1.016a.58.58 0 0 1 .242-.436.788.788 0 0 1 .338-.201c.054 0 .126 0 .126.07a.786.786 0 0 1-.181.46.817.817 0 0 1-.422.266.099.099 0 0 1-.072-.019.096.096 0 0 1-.037-.063.047.047 0 0 1-.017-.04.047.047 0 0 1 .023-.037ZM39.1 64.51h.047a.134.134 0 0 1 .163.054c.01.018.017.037.018.058-.036.3-.295.69-.603.707-.048 0-.115-.035-.109-.088a.77.77 0 0 1 .129-.437.798.798 0 0 1 .354-.294Zm-.979 2.736c.123-.175.298-.31.501-.383a.099.099 0 0 1 .096.012.094.094 0 0 1 .037.088 1.423 1.423 0 0 1-.676.808.097.097 0 0 1-.098.014.097.097 0 0 1-.04-.032.092.092 0 0 1-.019-.047.543.543 0 0 1 .2-.46Zm-1.593-1.887a.714.714 0 0 1 .35-.59c.048 0 .139 0 .157.04a.81.81 0 0 1-.07.46.832.832 0 0 1-.31.349.11.11 0 0 1-.167-.038.104.104 0 0 1-.008-.062 1.32 1.32 0 0 1 .048-.16Zm-1.521-1.835a.336.336 0 0 1 .12-.177l.037-.041c.042-.053.157-.035.157.041a.661.661 0 0 1-.121.36.54.54 0 0 1-.211.401.08.08 0 0 1-.108-.022.076.076 0 0 1-.013-.037.811.811 0 0 1 .139-.525Zm1.503-5.097.078-.1c.042-.041.139 0 .139.041a.757.757 0 0 1-.248.637v.036a.073.073 0 0 1-.103-.003.071.071 0 0 1-.017-.032.351.351 0 0 1 0-.113.433.433 0 0 1 .15-.466Zm-.725 9.722a.072.072 0 0 0 .064.036.072.072 0 0 0 .063-.037l.048-.052a1.044 1.044 0 0 0 .416-.779.087.087 0 0 0-.042-.083.092.092 0 0 0-.096 0c-.26.183-.567.602-.453.915Zm-1.442-1.239a.358.358 0 0 1 .115-.2.508.508 0 0 1 .119-.136.097.097 0 0 1 .088 0 .095.095 0 0 1 .034.03.577.577 0 0 1 0 .4.693.693 0 0 1-.205.349.08.08 0 0 1-.101-.006.475.475 0 0 1-.05-.437Zm.247 2.011a.092.092 0 0 1 .13.02c.009.014.014.03.016.045a.97.97 0 0 1-.272.785v.047a.08.08 0 0 1-.145 0 .906.906 0 0 1 .272-.897Zm2.228.868a.098.098 0 0 1 .108.041.058.058 0 0 1 0 .065.724.724 0 0 1-.308.631.093.093 0 0 1-.078.016.09.09 0 0 1-.06-.051.076.076 0 0 1 0-.036.073.073 0 0 1-.077-.05.07.07 0 0 1-.002-.032.751.751 0 0 1 .417-.584Zm2.872-1.422a.092.092 0 0 1 .121.02.07.07 0 0 1 .018.039.904.904 0 0 1-.137.509.935.935 0 0 1-.4.352.13.13 0 0 1-.09 0l-.073.047a.073.073 0 0 1-.096-.064c.025-.192.099-.374.213-.532a1.2 1.2 0 0 1 .444-.371Zm4.902-.407a.335.335 0 0 1 .048-.077.296.296 0 0 1 0-.13.646.646 0 0 1 .314-.29c.048 0 .114 0 .133.036a.456.456 0 0 1 0 .254.389.389 0 0 1-.155.24.405.405 0 0 1-.28.073.096.096 0 0 1-.05-.043.092.092 0 0 1-.01-.064Z"/>
  </g>
  <defs>
    <clipPath id="a">
      <path fill="#fff" d="M0 0h116v80H0z"/>
    </clipPath>
  </defs>
</svg>
