<svg xmlns="http://www.w3.org/2000/svg" width="24" height="16" fill="none" viewBox="0 0 24 16">
  <g clip-path="url(#a)">
    <path fill="#E2CAB3" fill-rule="evenodd" d="M24 11.73c0 2.157-5.37 3.905-12 3.905S0 13.887 0 11.731c0-2.157 5.37-3.905 12-3.905 6.632 0 12 1.748 12 3.905Z" clip-rule="evenodd"/>
    <path fill="#fff" fill-rule="evenodd" d="M24 11.3c0 2.156-5.37 3.904-12 3.904S0 13.457 0 11.3c0-2.156 5.37-3.904 12-3.904 6.632 0 12 1.748 12 3.904Z" clip-rule="evenodd"/>
    <path fill="#E7D8C8" fill-rule="evenodd" d="M24 11.238c0 2.09-5.37 3.782-12 3.782S0 13.327 0 11.238c0-2.088 5.37-3.78 12-3.78 6.632 0 12 1.693 12 3.78Z" clip-rule="evenodd"/>
    <path fill="#E2CAB3" fill-rule="evenodd" d="M23.468 11.238c0 1.491-4.595 2.698-10.264 2.698-5.668 0-10.264-1.207-10.264-2.698 0-1.49 4.595-2.698 10.264-2.698 5.67 0 10.264 1.209 10.264 2.698Z" clip-rule="evenodd"/>
    <path fill="#EEBE30" d="M22.603 11.335c-.219-.922-1.283-1.312-2.123-1.374-.518-.037-1.037.062-1.554.088a4.888 4.888 0 0 1-.86-.032c-.315-.039-.616-.141-.933-.165-.55-.04-1.096.132-1.61.312a24.09 24.09 0 0 1-1.824.57c-1.22.334-2.476.548-3.746.637a8.965 8.965 0 0 1-1.554-.008c-.362-.04-.719-.112-1.081-.15-.635-.065-1.338.01-1.594.682-.192 0-.38.04-.552.12-.258.1-.604.277-.738.534-.278.539.625.75.96.807.318.054.639.074.959.104.444.043.801.233 1.177.464.948.584 2.213.622 3.292.554a8.92 8.92 0 0 0 1.754-.295c.604-.162 1.224-.064 1.834.029.523.1 1.067.07 1.573-.085.51-.164.952-.461 1.387-.76.509-.349 1.087-.37 1.685-.414a10.8 10.8 0 0 0 1.748-.242c.482-.11.95-.26 1.4-.45.382-.18.49-.518.4-.926Z"/>
    <path fill="#E3AC8A" d="M19.196 10.533c0 1.453-3.426 2.803-7.55 2.803-4.125 0-7.578-1.45-7.578-2.903 0-1.452 3.453-2.36 7.578-2.36 4.124 0 7.55 1.008 7.55 2.46Z"/>
    <path fill="#DA840D" d="M19.113 10.253c0 1.453-3.342 2.63-7.467 2.63s-7.469-1.177-7.469-2.63c0-1.452 3.344-2.63 7.469-2.63s7.467 1.178 7.467 2.63Z"/>
    <path fill="#F0A508" d="M17.078 10.004c0 1.078-2.48 1.95-5.54 1.95-3.061 0-5.544-.872-5.544-1.95 0-1.078 2.484-1.95 5.543-1.95 3.06 0 5.541.878 5.541 1.95Z"/>
    <path fill="#DA840D" d="M7.808 10.723c0 .113-.14.21-.315.21s-.315-.094-.315-.21c0-.115.141-.21.315-.21.173 0 .315.095.315.21Zm-.63-.884a.149.149 0 0 1-.034.086.175.175 0 0 1-.08.054.195.195 0 0 1-.101.006.182.182 0 0 1-.088-.045.153.153 0 0 1-.046-.081.144.144 0 0 1 .011-.09.164.164 0 0 1 .065-.07.19.19 0 0 1 .166-.013.181.181 0 0 1 .057.037.16.16 0 0 1 .038.053c.009.02.013.041.012.063Zm2.188 1.14a.252.252 0 0 1-.041.156.295.295 0 0 1-.132.108.333.333 0 0 1-.337-.047.268.268 0 0 1-.089-.14.248.248 0 0 1 .014-.16.28.28 0 0 1 .11-.125.33.33 0 0 1 .171-.048.325.325 0 0 1 .21.071.26.26 0 0 1 .068.084.242.242 0 0 1 .026.1Zm-.66-1.013c0 .07-.086.127-.19.127-.106 0-.193-.057-.193-.127s.086-.127.192-.127c.106 0 .191.056.191.127Zm1.931.602a.16.16 0 0 1-.021.103.187.187 0 0 1-.083.073.214.214 0 0 1-.219-.024.173.173 0 0 1-.06-.09.158.158 0 0 1 .008-.104.18.18 0 0 1 .07-.082.21.21 0 0 1 .111-.03.197.197 0 0 1 .133.041.16.16 0 0 1 .061.113Zm.073.937c0 .072-.092.13-.207.13-.115 0-.207-.058-.207-.13 0-.072.094-.13.207-.13.114 0 .207.058.207.13Zm-.826-1.395a.126.126 0 0 1-.03.071.15.15 0 0 1-.07.045.165.165 0 0 1-.086.003.153.153 0 0 1-.073-.04.129.129 0 0 1-.036-.07.122.122 0 0 1 .012-.076.14.14 0 0 1 .057-.058.161.161 0 0 1 .083-.02c.04.003.077.02.104.046a.131.131 0 0 1 .04.098Zm2.15.273c0 .072-.09.13-.2.13-.112 0-.202-.058-.202-.13 0-.072.09-.13.201-.13.111 0 .201.058.201.13Zm0 .673c0 .043-.09.078-.2.078-.112 0-.202-.035-.202-.078s.09-.077.201-.077c.111 0 .201.034.201.077Zm1.36-.437c0 .057-.081.104-.182.104-.101 0-.181-.047-.181-.104 0-.057.08-.106.18-.106.1 0 .183.047.183.106Zm-.217.751a.158.158 0 0 1-.01.105.18.18 0 0 1-.077.08.21.21 0 0 1-.222-.013.173.173 0 0 1-.064-.088.156.156 0 0 1 .004-.105.176.176 0 0 1 .07-.083.207.207 0 0 1 .112-.032.186.186 0 0 1 .124.034.152.152 0 0 1 .063.102Zm1.513-.218a.177.177 0 0 1-.052.089.221.221 0 0 1-.209.045.202.202 0 0 1-.092-.057.171.171 0 0 1-.043-.093.164.164 0 0 1 .018-.1.189.189 0 0 1 .075-.075.22.22 0 0 1 .107-.027.23.23 0 0 1 .148.073c.037.04.054.093.048.145Zm-.108-.982c0 .044-.064.08-.142.08-.08 0-.141-.036-.141-.08 0-.046.063-.08.14-.08.078 0 .143.039.143.08Zm1.198.239c0 .174-.085.314-.19.314s-.193-.14-.193-.314c0-.175.087-.316.193-.316.106 0 .19.141.19.316Zm.481-.321a.08.08 0 0 1-.027.06.099.099 0 0 1-.066.024.099.099 0 0 1-.066-.024.08.08 0 0 1-.028-.06.08.08 0 0 1 .027-.06.1.1 0 0 1 .132 0 .081.081 0 0 1 .028.06Zm-3.149-.268c0 .08-.117.146-.26.146-.145 0-.262-.067-.262-.146 0-.08.116-.148.261-.148.145 0 .261.067.261.148Zm-4.896-.758c0 .05-.091.09-.204.09-.112 0-.203-.04-.203-.09 0-.05.09-.09.203-.09.113 0 .204.04.204.09Zm1.199-.182c0 .052-.104.092-.231.092-.128 0-.233-.04-.233-.091 0-.05.104-.09.232-.09.13 0 .232.04.232.09Zm1.508.222c0 .07-.14.13-.314.13-.173 0-.313-.06-.313-.13s.141-.13.313-.13c.173 0 .314.058.314.13Zm1.111-.221a.084.084 0 0 1-.016.051.1.1 0 0 1-.046.034.112.112 0 0 1-.058.005.105.105 0 0 1-.052-.025.088.088 0 0 1-.028-.046.082.082 0 0 1 .006-.053.094.094 0 0 1 .038-.041.11.11 0 0 1 .056-.015.11.11 0 0 1 .071.026c.019.017.03.04.03.064Zm-.201.711c0 .044-.095.08-.213.08-.119 0-.212-.036-.212-.08 0-.044.094-.08.212-.08.117 0 .213.036.213.08Zm1.67-.751c0 .026-.01.052-.027.073a.144.144 0 0 1-.066.048.161.161 0 0 1-.085.005.151.151 0 0 1-.074-.037.128.128 0 0 1-.038-.069.12.12 0 0 1 .01-.076.137.137 0 0 1 .056-.058.159.159 0 0 1 .184.021.13.13 0 0 1 .03.043.12.12 0 0 1 .01.05Zm.795.531c0 .022-.073.04-.166.04-.092 0-.165-.018-.165-.04 0-.023.074-.04.165-.04.091 0 .166.017.166.04Zm.519-.265a.053.053 0 0 1-.003.035.06.06 0 0 1-.026.028.07.07 0 0 1-.075-.004.059.059 0 0 1-.022-.03.053.053 0 0 1 .001-.035.06.06 0 0 1 .024-.029.07.07 0 0 1 .038-.01.062.062 0 0 1 .042.01c.011.01.019.021.02.035Z"/>
    <path fill="#DA840D" d="M14.298 9.372a.121.121 0 0 1-.03.067.143.143 0 0 1-.067.04.156.156 0 0 1-.08.002.145.145 0 0 1-.068-.037.122.122 0 0 1-.034-.065.115.115 0 0 1 .01-.072.13.13 0 0 1 .052-.055.152.152 0 0 1 .076-.02.161.161 0 0 1 .103.043.131.131 0 0 1 .03.045c.006.017.01.034.008.052Zm.802-.225c0 .046-.077.084-.174.084-.096 0-.172-.038-.172-.084 0-.046.078-.085.172-.085.095 0 .174.038.174.085Z"/>
    <path fill="#E3AC8A" d="M19.196 9.454c0 1.451-3.426 2.803-7.55 2.803-4.125 0-7.578-1.451-7.578-2.903 0-1.451 3.453-2.36 7.578-2.36 4.124 0 7.55 1.008 7.55 2.46Z"/>
    <path fill="#DA840D" d="M19.113 9.173c0 1.453-3.342 2.63-7.467 2.63s-7.469-1.177-7.469-2.63c0-1.452 3.344-2.63 7.469-2.63s7.467 1.178 7.467 2.63Z"/>
    <path fill="#F0A508" d="M11.537 10.875c3.06 0 5.541-.873 5.541-1.95 0-1.078-2.48-1.95-5.54-1.95s-5.541.872-5.541 1.95c0 1.077 2.48 1.95 5.54 1.95Z"/>
    <path fill="#DA840D" d="M7.808 9.644c0 .113-.14.21-.315.21s-.315-.094-.315-.21c0-.115.141-.21.315-.21.173 0 .315.093.315.21Zm-.63-.886a.148.148 0 0 1-.032.087.175.175 0 0 1-.08.056.194.194 0 0 1-.101.008.182.182 0 0 1-.09-.045.154.154 0 0 1-.046-.081.144.144 0 0 1 .01-.09.164.164 0 0 1 .066-.071.19.19 0 0 1 .222.023c.033.03.051.07.051.113ZM9.366 9.9a.252.252 0 0 1-.041.156.293.293 0 0 1-.132.108.334.334 0 0 1-.337-.047.268.268 0 0 1-.089-.14.248.248 0 0 1 .014-.16.28.28 0 0 1 .11-.125.33.33 0 0 1 .171-.048.314.314 0 0 1 .21.071.26.26 0 0 1 .094.184Zm-.66-1.014c0 .07-.086.128-.19.128-.106 0-.193-.058-.193-.128s.086-.128.192-.128c.106 0 .191.062.191.128Zm1.931.609a.16.16 0 0 1-.021.102.187.187 0 0 1-.083.074.214.214 0 0 1-.219-.025.173.173 0 0 1-.06-.09.158.158 0 0 1 .008-.103.18.18 0 0 1 .07-.082.21.21 0 0 1 .111-.031.198.198 0 0 1 .133.041.16.16 0 0 1 .061.114Zm.073.929c0 .072-.092.13-.207.13-.115 0-.207-.058-.207-.13 0-.072.094-.13.207-.13.114 0 .207.058.207.13ZM9.884 9.03a.126.126 0 0 1-.03.071.149.149 0 0 1-.07.045.164.164 0 0 1-.085.004.152.152 0 0 1-.074-.04.129.129 0 0 1-.036-.07.122.122 0 0 1 .012-.076.14.14 0 0 1 .057-.058.161.161 0 0 1 .082-.02.16.16 0 0 1 .104.045.13.13 0 0 1 .04.098Zm2.15.273c0 .072-.09.13-.2.13-.112 0-.202-.058-.202-.13 0-.072.09-.13.201-.13.111 0 .201.058.201.13Zm0 .674c0 .043-.09.078-.2.078-.112 0-.202-.035-.202-.078s.09-.078.201-.078c.111 0 .201.035.201.078Zm1.36-.438c0 .058-.081.105-.182.105-.101 0-.181-.047-.181-.105 0-.059.08-.105.18-.105.1 0 .183.047.183.105Zm-.217.75a.157.157 0 0 1-.01.105.18.18 0 0 1-.076.08.209.209 0 0 1-.222-.011.173.173 0 0 1-.065-.088.157.157 0 0 1 .004-.105.177.177 0 0 1 .07-.084.208.208 0 0 1 .112-.032.184.184 0 0 1 .124.033.151.151 0 0 1 .063.102Zm1.513-.218a.175.175 0 0 1-.052.088.207.207 0 0 1-.096.05.22.22 0 0 1-.11-.005.202.202 0 0 1-.092-.057.171.171 0 0 1-.043-.092.163.163 0 0 1 .018-.098.187.187 0 0 1 .073-.075.216.216 0 0 1 .107-.028.23.23 0 0 1 .147.073c.036.04.054.092.049.144Zm-.108-.978c0 .044-.064.08-.142.08-.08 0-.141-.036-.141-.08 0-.044.063-.08.14-.08.078 0 .143.032.143.08Zm1.198.235c0 .174-.085.316-.19.316s-.193-.142-.193-.316c0-.174.087-.315.193-.315.106 0 .19.144.19.315Zm.481-.319c0 .022-.01.043-.027.059a.1.1 0 0 1-.118.01.087.087 0 0 1-.035-.037.077.077 0 0 1-.005-.049.082.082 0 0 1 .026-.043.097.097 0 0 1 .047-.023.103.103 0 0 1 .054.005.092.092 0 0 1 .043.03c.01.015.015.031.015.048Zm-3.149-.27c0 .08-.117.147-.26.147-.145 0-.262-.066-.262-.147 0-.081.116-.146.261-.146.145 0 .261.065.261.146Zm-4.896-.757c0 .05-.091.09-.204.09-.112 0-.203-.04-.203-.09 0-.051.09-.09.203-.09.113 0 .204.04.204.09Zm1.199-.181c0 .05-.104.09-.231.09-.128 0-.233-.04-.233-.09 0-.05.104-.09.232-.09.13 0 .232.04.232.09Zm1.508.221c0 .072-.14.13-.314.13-.173 0-.313-.058-.313-.13 0-.072.141-.13.313-.13.173 0 .314.058.314.13Zm1.111-.221a.084.084 0 0 1-.016.051.1.1 0 0 1-.046.034.112.112 0 0 1-.058.006.105.105 0 0 1-.052-.025.088.088 0 0 1-.028-.047.082.082 0 0 1 .006-.053.094.094 0 0 1 .038-.04.11.11 0 0 1 .056-.016c.027 0 .052.01.071.027.019.017.03.04.03.063Zm-.201.712c0 .044-.095.08-.213.08-.119 0-.212-.036-.212-.08 0-.044.094-.08.212-.08.117 0 .213.035.213.08Zm1.67-.751a.123.123 0 0 1-.025.074.144.144 0 0 1-.066.049.16.16 0 0 1-.085.007.152.152 0 0 1-.075-.037.127.127 0 0 1-.04-.069.12.12 0 0 1 .011-.076.136.136 0 0 1 .056-.059.159.159 0 0 1 .083-.02.152.152 0 0 1 .1.04.123.123 0 0 1 .04.09Zm.795.53c0 .021-.073.039-.166.039-.092 0-.165-.018-.165-.04 0-.02.074-.039.165-.039.091 0 .166.018.166.04Zm.519-.259a.053.053 0 0 1-.004.036.06.06 0 0 1-.026.026.07.07 0 0 1-.075-.004.059.059 0 0 1-.021-.03.053.053 0 0 1 .001-.036.06.06 0 0 1 .024-.028.07.07 0 0 1 .038-.01.062.062 0 0 1 .042.012.05.05 0 0 1 .02.034Z"/>
    <path fill="#DA840D" d="M14.298 8.293a.121.121 0 0 1-.03.066.143.143 0 0 1-.067.041.156.156 0 0 1-.08.002.145.145 0 0 1-.068-.037.122.122 0 0 1-.034-.065.115.115 0 0 1 .01-.072.13.13 0 0 1 .052-.055.153.153 0 0 1 .076-.02.162.162 0 0 1 .103.043.131.131 0 0 1 .03.045c.006.017.01.034.008.052Zm.802-.226c0 .047-.077.085-.174.085-.096 0-.172-.038-.172-.085 0-.047.078-.086.172-.086.095 0 .174.039.174.086Z"/>
    <path fill="#E3AC8A" d="M19.314 7.525c0 1.451-3.426 2.803-7.55 2.803-4.125 0-7.577-1.452-7.577-2.904 0-1.453 3.452-2.356 7.576-2.356 4.125 0 7.551 1.004 7.551 2.457Z"/>
    <path fill="#DA840D" d="M19.231 7.246c0 1.453-3.344 2.63-7.469 2.63s-7.466-1.18-7.466-2.63 3.343-2.632 7.467-2.632c4.125 0 7.468 1.177 7.468 2.632Z"/>
    <path fill="#F0A508" d="M17.197 6.995c0 1.077-2.482 1.95-5.541 1.95-3.06 0-5.537-.873-5.537-1.95s2.477-1.952 5.537-1.952 5.54.874 5.54 1.952Z"/>
    <path fill="#DA840D" d="M7.926 7.715c0 .113-.14.21-.315.21s-.314-.094-.314-.21c0-.116.14-.21.32-.21s.309.093.309.21Zm-.63-.886a.149.149 0 0 1-.033.086.175.175 0 0 1-.08.055.194.194 0 0 1-.1.007.182.182 0 0 1-.089-.044.154.154 0 0 1-.046-.081.144.144 0 0 1 .01-.09.163.163 0 0 1 .063-.071.19.19 0 0 1 .166-.014c.022.008.042.02.058.036a.148.148 0 0 1 .05.116ZM9.49 7.97a.25.25 0 0 1-.04.156.293.293 0 0 1-.132.107.332.332 0 0 1-.336-.048.267.267 0 0 1-.088-.138.247.247 0 0 1 .014-.16.28.28 0 0 1 .11-.125c.05-.03.11-.047.17-.047a.313.313 0 0 1 .21.071c.057.048.09.114.093.184Zm-.665-1.014c0 .071-.086.128-.192.128-.106 0-.191-.057-.191-.128 0-.07.086-.127.19-.127.106 0 .193.057.193.127Zm1.93.604a.16.16 0 0 1-.02.102.187.187 0 0 1-.083.073.214.214 0 0 1-.22-.024.173.173 0 0 1-.06-.09.16.16 0 0 1 .008-.103.18.18 0 0 1 .071-.082.21.21 0 0 1 .11-.032.198.198 0 0 1 .133.042.16.16 0 0 1 .061.114Zm.075.935c0 .072-.093.13-.208.13-.115 0-.207-.058-.207-.13 0-.072.092-.124.207-.124.115 0 .207.054.207.124ZM10.003 7.1c0 .036-.016.07-.044.095a.157.157 0 0 1-.105.039.157.157 0 0 1-.105-.04.127.127 0 0 1-.043-.094c0-.035.015-.07.043-.095a.157.157 0 0 1 .105-.039c.04 0 .077.014.105.04a.127.127 0 0 1 .044.094Zm2.15.274c0 .072-.09.13-.201.13-.111 0-.201-.058-.201-.13 0-.072.09-.128.2-.128.112 0 .202.056.202.128Zm0 .674c0 .043-.09.077-.201.077-.111 0-.201-.034-.201-.077s.09-.078.2-.078c.112 0 .202.035.202.078Zm1.36-.438c0 .058-.081.105-.182.105-.101 0-.183-.047-.183-.106 0-.058.083-.104.183-.104.1 0 .182.047.182.104Zm-.217.75a.158.158 0 0 1-.01.106.18.18 0 0 1-.076.08.21.21 0 0 1-.224-.01.175.175 0 0 1-.065-.088.158.158 0 0 1 .003-.106.177.177 0 0 1 .07-.085.208.208 0 0 1 .113-.032.185.185 0 0 1 .125.033.15.15 0 0 1 .064.102Zm1.514-.215a.178.178 0 0 1-.056.086.222.222 0 0 1-.207.04.201.201 0 0 1-.09-.057.165.165 0 0 1-.024-.19.188.188 0 0 1 .072-.075.217.217 0 0 1 .106-.029.24.24 0 0 1 .084.024.22.22 0 0 1 .068.051.194.194 0 0 1 .04.07.18.18 0 0 1 .006.08Zm-.11-.981c0 .044-.063.08-.142.08-.079 0-.141-.036-.141-.08 0-.044.062-.08.141-.08.079 0 .142.036.142.08Zm1.2.235c0 .174-.087.316-.193.316-.106 0-.191-.142-.191-.316 0-.174.086-.315.19-.315.106 0 .193.14.193.315Zm.479-.319a.078.078 0 0 1-.017.045.091.091 0 0 1-.041.03.102.102 0 0 1-.054.005.096.096 0 0 1-.046-.023.076.076 0 0 1-.02-.09.086.086 0 0 1 .034-.038.1.1 0 0 1 .117.011.08.08 0 0 1 .027.06Zm-3.149-.27c0 .08-.117.146-.26.146-.144 0-.261-.065-.261-.146 0-.081.116-.146.26-.146.146 0 .26.065.26.146Zm-4.896-.757c0 .05-.09.09-.203.09-.113 0-.205-.04-.205-.09 0-.05.091-.091.205-.091.113 0 .203.04.203.091Zm1.199-.181c0 .05-.104.09-.232.09-.129 0-.231-.04-.231-.09 0-.05.103-.09.23-.09.128 0 .233.04.233.09Zm1.509.22c0 .072-.14.13-.314.13-.173 0-.313-.058-.313-.13 0-.072.14-.13.313-.13.172 0 .314.058.314.13Zm1.111-.22a.088.088 0 0 1-.033.058.108.108 0 0 1-.067.023.108.108 0 0 1-.068-.023.088.088 0 0 1-.033-.058.088.088 0 0 1 .033-.058.108.108 0 0 1 .068-.023c.024 0 .048.008.067.023.019.015.03.036.033.058Zm-.201.711c0 .045-.095.08-.214.08-.118 0-.213-.035-.213-.08s.096-.08.213-.08c.118 0 .214.036.214.08Zm1.669-.75a.122.122 0 0 1-.024.073.143.143 0 0 1-.065.049.161.161 0 0 1-.16-.028.128.128 0 0 1-.04-.067.12.12 0 0 1 .008-.076.136.136 0 0 1 .054-.06.158.158 0 0 1 .081-.022.158.158 0 0 1 .104.038.13.13 0 0 1 .032.042.118.118 0 0 1 .01.05Zm.796.53c0 .021-.075.04-.166.04-.091 0-.165-.019-.165-.04 0-.02.074-.04.165-.04.091 0 .166.024.166.04Zm.518-.265a.058.058 0 0 1-.023.03.07.07 0 0 1-.078 0 .059.059 0 0 1-.024-.03.059.059 0 0 1 .024-.03.07.07 0 0 1 .078 0c.011.007.02.018.023.03Z"/>
    <path fill="#DA840D" d="M14.417 6.363a.12.12 0 0 1-.03.067.142.142 0 0 1-.067.04.156.156 0 0 1-.08.002.144.144 0 0 1-.068-.037.123.123 0 0 1-.035-.065.116.116 0 0 1 .01-.072.132.132 0 0 1 .052-.055.153.153 0 0 1 .077-.02.162.162 0 0 1 .103.044.133.133 0 0 1 .03.044.135.135 0 0 1 .008.052Zm.802-.225c0 .047-.078.085-.174.085-.096 0-.174-.038-.174-.085 0-.048.078-.085.174-.085.096 0 .174.037.174.085Z"/>
    <path fill="#E3AC8A" d="M19.314 6.285c0 1.452-3.426 2.802-7.55 2.802-4.125 0-7.577-1.45-7.577-2.902 0-1.453 3.452-2.361 7.576-2.361 4.125 0 7.551 1.008 7.551 2.46Z"/>
    <path fill="#DA840D" d="M19.231 6.01c0 1.451-3.344 2.63-7.469 2.63S4.296 7.456 4.296 6.01c0-1.447 3.343-2.631 7.467-2.631 4.125 0 7.468 1.17 7.468 2.63Z"/>
    <path fill="#F0A508" d="M17.197 5.755c0 1.077-2.482 1.951-5.541 1.951-3.06 0-5.537-.874-5.537-1.95 0-1.078 2.477-1.952 5.537-1.952s5.54.873 5.54 1.951Z"/>
    <path fill="#DA840D" d="M7.926 6.475c0 .112-.14.21-.315.21s-.314-.094-.314-.21c0-.116.14-.21.314-.21s.315.094.315.21Zm-.63-.885a.149.149 0 0 1-.033.085.175.175 0 0 1-.08.055.195.195 0 0 1-.1.007.182.182 0 0 1-.089-.044.154.154 0 0 1-.046-.08.144.144 0 0 1 .01-.091.163.163 0 0 1 .063-.07.19.19 0 0 1 .166-.015c.022.008.042.02.058.036a.148.148 0 0 1 .05.116Zm1.889 1.395c.167 0 .302-.114.302-.255 0-.141-.135-.255-.302-.255-.167 0-.302.114-.302.255 0 .14.135.255.302.255Zm-.36-1.268c0 .07-.086.127-.192.127-.106 0-.191-.06-.191-.127s.086-.128.19-.128c.106 0 .193.057.193.128Zm1.93.603a.16.16 0 0 1-.02.102.187.187 0 0 1-.083.074.214.214 0 0 1-.22-.025.173.173 0 0 1-.06-.09.16.16 0 0 1 .008-.103.18.18 0 0 1 .071-.082.21.21 0 0 1 .11-.031.198.198 0 0 1 .133.042.16.16 0 0 1 .061.113Zm.075.935c0 .072-.093.13-.208.13-.115 0-.207-.058-.207-.13 0-.072.092-.13.207-.13.115 0 .207.059.207.13Zm-.828-1.395a.126.126 0 0 1-.03.072.149.149 0 0 1-.069.045.164.164 0 0 1-.084.003.153.153 0 0 1-.073-.038.13.13 0 0 1-.038-.069.122.122 0 0 1 .01-.076.138.138 0 0 1 .055-.058.16.16 0 0 1 .08-.022.16.16 0 0 1 .108.044.132.132 0 0 1 .041.1Zm2.151.274c0 .072-.09.13-.201.13-.111 0-.201-.058-.201-.13 0-.072.09-.125.2-.125.112 0 .202.053.202.125Zm0 .674c0 .042-.09.077-.201.077-.111 0-.201-.035-.201-.077 0-.043.09-.078.2-.078.112 0 .202.035.202.078Zm1.36-.438c0 .058-.081.105-.182.105-.101 0-.183-.047-.183-.106 0-.058.083-.104.183-.104.1 0 .182.047.182.104Zm-.217.75a.158.158 0 0 1-.01.106.18.18 0 0 1-.076.08.21.21 0 0 1-.224-.01.175.175 0 0 1-.065-.088.158.158 0 0 1 .003-.106.177.177 0 0 1 .07-.085.208.208 0 0 1 .113-.032.185.185 0 0 1 .125.033.15.15 0 0 1 .064.102Zm1.514-.211a.177.177 0 0 1-.056.086.208.208 0 0 1-.097.047.222.222 0 0 1-.11-.006.201.201 0 0 1-.09-.058.165.165 0 0 1-.024-.19.188.188 0 0 1 .072-.075.217.217 0 0 1 .106-.029.24.24 0 0 1 .084.023c.027.013.05.03.068.051a.193.193 0 0 1 .04.071.18.18 0 0 1 .006.08Zm-.11-.985c0 .045-.063.081-.142.081-.079 0-.141-.036-.141-.08 0-.046.062-.08.141-.08.079 0 .142.035.142.08Zm1.2.235c0 .174-.087.316-.193.316-.106 0-.191-.142-.191-.316 0-.174.086-.315.19-.315.106 0 .193.142.193.315Zm.479-.319a.078.078 0 0 1-.017.046.091.091 0 0 1-.041.03.102.102 0 0 1-.054.004.096.096 0 0 1-.046-.023.076.076 0 0 1-.02-.09.086.086 0 0 1 .034-.038.1.1 0 0 1 .117.011.083.083 0 0 1 .02.028c.005.01.007.02.007.032Zm-3.149-.27c0 .08-.117.147-.26.147-.144 0-.261-.066-.261-.147 0-.081.116-.146.26-.146.146 0 .26.065.26.146Zm-4.896-.757c0 .05-.09.09-.203.09-.113 0-.205-.04-.205-.09 0-.05.091-.09.205-.09.113 0 .203.04.203.09Zm1.199-.181c0 .05-.104.091-.232.091-.129 0-.231-.04-.231-.091 0-.05.103-.09.23-.09.128 0 .233.04.233.09Zm1.509.22c0 .072-.14.13-.314.13-.173 0-.313-.058-.313-.13 0-.072.14-.129.313-.129.172 0 .314.057.314.13Zm1.111-.22a.084.084 0 0 1-.017.051.1.1 0 0 1-.045.034.112.112 0 0 1-.059.005.105.105 0 0 1-.052-.025.088.088 0 0 1-.027-.046.083.083 0 0 1 .006-.053.094.094 0 0 1 .037-.041.11.11 0 0 1 .057-.015c.027 0 .052.01.07.026.02.017.03.04.03.064Zm-.201.712c0 .043-.095.08-.214.08-.118 0-.213-.037-.213-.08 0-.044.096-.081.213-.081.118 0 .214.036.214.08Zm1.669-.751a.122.122 0 0 1-.024.073.143.143 0 0 1-.065.05.161.161 0 0 1-.084.007.152.152 0 0 1-.075-.036.128.128 0 0 1-.04-.067.12.12 0 0 1 .007-.076.136.136 0 0 1 .054-.06.158.158 0 0 1 .137-.012.147.147 0 0 1 .048.028.131.131 0 0 1 .031.043.119.119 0 0 1 .011.05Zm.796.53c0 .021-.075.039-.166.039-.091 0-.165-.018-.165-.039s.074-.04.165-.04c.091 0 .166.018.166.04Zm.518-.265a.053.053 0 0 1-.003.036.06.06 0 0 1-.025.027.07.07 0 0 1-.075-.003.059.059 0 0 1-.022-.03.053.053 0 0 1 0-.035.06.06 0 0 1 .024-.029.07.07 0 0 1 .038-.01.063.063 0 0 1 .042.01c.011.009.02.02.021.034Z"/>
    <path fill="#DA840D" d="M14.417 5.123a.12.12 0 0 1-.03.067.142.142 0 0 1-.067.04.156.156 0 0 1-.08.003.144.144 0 0 1-.068-.038.123.123 0 0 1-.035-.065.116.116 0 0 1 .01-.071.132.132 0 0 1 .052-.055.153.153 0 0 1 .077-.021c.02 0 .038.005.056.013a.15.15 0 0 1 .047.03.133.133 0 0 1 .03.046.127.127 0 0 1 .008.051Zm.802-.226c0 .048-.078.086-.174.086-.096 0-.174-.038-.174-.086 0-.047.078-.084.174-.084.096 0 .174.038.174.084Z"/>
    <path fill="#C66720" d="M19.026 5.008C18.851 3.61 15.72 2.5 11.881 2.5c-3.592 0-6.564.973-7.076 2.24a1.025 1.025 0 0 0-.185.57c0 1.453 3.31 2.904 7.26 2.904 3.952 0 7.234-1.35 7.234-2.804a.984.984 0 0 0-.088-.402Z"/>
    <path fill="#E3AC8A" d="M19.467 4.756c0 1.452-3.427 2.804-7.551 2.804-4.125 0-7.577-1.452-7.577-2.9S7.791 2.3 11.916 2.3c4.124 0 7.55 1.003 7.55 2.456Z"/>
    <path fill="#DA840D" d="M19.4 4.476c0 1.453-3.246 2.55-7.367 2.55-4.12 0-7.468-1.177-7.468-2.63 0-1.452 3.343-2.63 7.468-2.63s7.368 1.258 7.368 2.71Z"/>
    <path fill="#F0A508" d="M11.809 6.177c3.06 0 5.54-.873 5.54-1.95 0-1.078-2.48-1.951-5.54-1.951s-5.541.873-5.541 1.95c0 1.078 2.48 1.951 5.54 1.951Z"/>
    <path fill="#DA840D" d="M8.078 4.946c0 .112-.14.211-.314.211s-.315-.094-.315-.211c0-.117.141-.21.315-.21.173 0 .314.094.314.21Zm-.629-.886a.149.149 0 0 1-.034.087.175.175 0 0 1-.08.055.195.195 0 0 1-.102.006.182.182 0 0 1-.088-.046.154.154 0 0 1-.045-.08.144.144 0 0 1 .01-.091.164.164 0 0 1 .066-.07.19.19 0 0 1 .165-.013.181.181 0 0 1 .058.037.16.16 0 0 1 .038.053c.008.02.012.042.012.063ZM9.64 5.202a.251.251 0 0 1-.043.155.294.294 0 0 1-.132.108.332.332 0 0 1-.335-.049.267.267 0 0 1-.088-.139.247.247 0 0 1 .014-.16.28.28 0 0 1 .111-.124c.05-.03.11-.047.17-.047a.323.323 0 0 1 .21.072c.028.024.05.052.067.084a.243.243 0 0 1 .025.1Zm-.663-1.014c0 .07-.086.127-.192.127-.106 0-.19-.056-.19-.127 0-.07.085-.127.19-.127s.192.057.192.127Zm1.931.602a.16.16 0 0 1-.021.103.187.187 0 0 1-.082.074.214.214 0 0 1-.22-.025.173.173 0 0 1-.06-.09.16.16 0 0 1 .008-.103.18.18 0 0 1 .071-.082.21.21 0 0 1 .11-.031.197.197 0 0 1 .133.041.16.16 0 0 1 .061.114Zm.074.937c0 .072-.093.13-.208.13-.115 0-.207-.058-.207-.13 0-.072.092-.13.207-.13.115 0 .208.058.208.13Zm-.827-1.395a.126.126 0 0 1-.03.071.149.149 0 0 1-.07.045.164.164 0 0 1-.084.004.153.153 0 0 1-.073-.04.13.13 0 0 1-.038-.068.122.122 0 0 1 .01-.075.138.138 0 0 1 .055-.059.16.16 0 0 1 .081-.022.167.167 0 0 1 .108.044.138.138 0 0 1 .041.1Zm2.151.274c0 .072-.09.13-.201.13-.112 0-.202-.058-.202-.13 0-.072.09-.13.201-.13.112 0 .202.058.202.13Zm0 .674c0 .042-.09.077-.201.077-.112 0-.202-.035-.202-.077 0-.043.09-.078.201-.078.112 0 .202.035.202.078Zm1.359-.439c0 .058-.082.105-.182.105-.1 0-.182-.047-.182-.105 0-.058.082-.106.182-.106.1 0 .182.048.182.106Zm-.217.751a.158.158 0 0 1-.01.106.18.18 0 0 1-.075.08.21.21 0 0 1-.224-.01.174.174 0 0 1-.066-.088.158.158 0 0 1 .003-.106.178.178 0 0 1 .071-.084.209.209 0 0 1 .112-.033.186.186 0 0 1 .125.033.153.153 0 0 1 .064.102Zm1.513-.218a.175.175 0 0 1-.052.088.206.206 0 0 1-.096.05.22.22 0 0 1-.11-.004.201.201 0 0 1-.092-.057.171.171 0 0 1-.043-.092.163.163 0 0 1 .018-.099.187.187 0 0 1 .073-.075.216.216 0 0 1 .106-.028.23.23 0 0 1 .148.073c.036.04.054.092.048.144Zm-.109-.978c0 .044-.063.08-.141.08-.08 0-.142-.036-.142-.08 0-.044.063-.081.142-.081.078 0 .14.036.14.08Zm1.2.234c0 .175-.087.316-.193.316-.106 0-.19-.14-.19-.315 0-.174.085-.316.19-.316s.193.142.193.316Zm.479-.318a.078.078 0 0 1-.017.045.091.091 0 0 1-.042.03.102.102 0 0 1-.053.004.096.096 0 0 1-.047-.024.08.08 0 0 1-.024-.042.075.075 0 0 1 .006-.048.086.086 0 0 1 .034-.037.1.1 0 0 1 .116.012.083.083 0 0 1 .02.027c.005.01.007.021.007.033Zm-3.149-.27c0 .08-.116.146-.26.146-.144 0-.26-.065-.26-.146 0-.081.116-.147.261-.147.145 0 .259.066.259.147Zm-4.89-.758c0 .05-.092.09-.204.09-.112 0-.205-.04-.205-.09 0-.05.091-.09.205-.09.114 0 .204.04.204.09Zm1.194-.18c0 .05-.104.09-.233.09-.128 0-.23-.04-.23-.09 0-.05.103-.09.23-.09.128 0 .233.04.233.09Zm1.508.221c0 .072-.14.13-.314.13-.173 0-.313-.058-.313-.13 0-.072.14-.126.313-.126.174 0 .314.054.314.126Zm1.111-.221a.085.085 0 0 1-.016.051.1.1 0 0 1-.045.034.112.112 0 0 1-.059.006.105.105 0 0 1-.052-.025.089.089 0 0 1-.028-.047.083.083 0 0 1 .006-.052.094.094 0 0 1 .037-.041.11.11 0 0 1 .056-.016.11.11 0 0 1 .072.026.09.09 0 0 1 .022.03.082.082 0 0 1 .007.034Zm-.201.711c0 .045-.095.08-.213.08-.119 0-.214-.035-.214-.08s.096-.08.214-.08c.117 0 .213.036.213.08Zm1.67-.751a.122.122 0 0 1-.024.074.143.143 0 0 1-.065.049.161.161 0 0 1-.16-.027.129.129 0 0 1-.04-.067.12.12 0 0 1 .008-.077.135.135 0 0 1 .053-.06.158.158 0 0 1 .137-.012.147.147 0 0 1 .047.028.13.13 0 0 1 .032.042.12.12 0 0 1 .012.05Zm.796.53c0 .022-.076.04-.167.04-.091 0-.165-.018-.165-.04 0-.022.074-.039.165-.039.091 0 .166.018.166.039Zm.517-.264a.053.053 0 0 1-.003.035.06.06 0 0 1-.025.027.07.07 0 0 1-.075-.003.059.059 0 0 1-.022-.03.052.052 0 0 1 0-.035.06.06 0 0 1 .024-.029.07.07 0 0 1 .038-.01.063.063 0 0 1 .042.01c.011.009.02.021.021.034Z"/>
    <path fill="#DA840D" d="M14.57 3.595a.115.115 0 0 1-.007.052.125.125 0 0 1-.03.045.141.141 0 0 1-.047.03.155.155 0 0 1-.162-.03.124.124 0 0 1-.029-.045.116.116 0 0 1-.007-.052.116.116 0 0 1 .007-.053.124.124 0 0 1 .03-.045.141.141 0 0 1 .047-.03.155.155 0 0 1 .161.03.125.125 0 0 1 .03.045.115.115 0 0 1 .006.053Zm.8-.225c0 .047-.076.085-.172.085-.097 0-.174-.038-.174-.085 0-.048.078-.086.174-.086.096 0 .172.038.172.086Z"/>
    <path fill="#E3AC8A" d="M19.434 3.355c0 .886-1.273 1.734-3.203 2.26a16.814 16.814 0 0 1-4.348.543c-1.532 0-2.79-.363-4.062-.45-2.12-.148-3.514-1.54-3.514-2.453 0-1.453 3.453-2.361 7.576-2.361 4.124 0 7.551 1.008 7.551 2.461Z"/>
    <path fill="#DA840D" d="M19.34 3.163c0 1.452-3.345 2.63-7.47 2.63-4.124 0-7.467-1.178-7.467-2.63 0-1.453 3.34-2.63 7.468-2.63s7.469 1.177 7.469 2.63Z"/>
    <path fill="#F0A508" d="M17.304 2.914c0 1.077-2.481 1.95-5.54 1.95-3.06 0-5.541-.873-5.541-1.95S8.703.962 11.763.962c3.061 0 5.541.874 5.541 1.952Z"/>
    <path fill="#DA840D" d="M8.033 3.634c0 .112-.14.21-.314.21s-.315-.094-.315-.21c0-.116.14-.21.314-.21s.315.093.315.21Zm-.629-.884a.149.149 0 0 1-.033.085.175.175 0 0 1-.08.056.194.194 0 0 1-.102.006.182.182 0 0 1-.088-.045.154.154 0 0 1-.046-.081.144.144 0 0 1 .011-.09.164.164 0 0 1 .065-.07.19.19 0 0 1 .165-.013c.022.008.042.02.058.036a.16.16 0 0 1 .038.053c.008.02.012.041.012.062Zm2.19 1.14a.25.25 0 0 1-.041.155.293.293 0 0 1-.132.107.332.332 0 0 1-.335-.048.267.267 0 0 1-.088-.138.247.247 0 0 1 .014-.16.28.28 0 0 1 .11-.125c.05-.03.11-.047.17-.047a.313.313 0 0 1 .21.071.25.25 0 0 1 .092.184Zm-.662-1.014c0 .07-.086.127-.192.127-.106 0-.191-.057-.191-.127s.086-.127.192-.127c.106 0 .191.056.191.127Zm1.932.603a.16.16 0 0 1-.022.101.185.185 0 0 1-.082.073.212.212 0 0 1-.217-.026.172.172 0 0 1-.06-.088.157.157 0 0 1 .008-.104.178.178 0 0 1 .071-.08.21.21 0 0 1 .11-.032.196.196 0 0 1 .132.042.16.16 0 0 1 .06.114Zm.073.935c0 .072-.093.13-.208.13-.115 0-.207-.058-.207-.13 0-.072.092-.13.207-.13.115 0 .208.06.208.13Zm-.822-1.395a.126.126 0 0 1-.03.071.149.149 0 0 1-.069.046.164.164 0 0 1-.084.004.153.153 0 0 1-.074-.039.13.13 0 0 1-.038-.068.122.122 0 0 1 .01-.076.138.138 0 0 1 .055-.059.16.16 0 0 1 .081-.022c.02 0 .04.005.059.012a.154.154 0 0 1 .048.032.137.137 0 0 1 .032.045c.007.017.01.036.01.054Zm2.145.274c0 .072-.09.13-.2.13-.112 0-.197-.058-.197-.13 0-.072.09-.13.201-.13.111 0 .196.058.196.13Zm0 .674c0 .042-.09.077-.2.077-.112 0-.197-.035-.197-.077 0-.043.09-.078.201-.078.111 0 .196.035.196.078Zm1.36-.439c0 .059-.082.106-.182.106-.1 0-.182-.047-.182-.106 0-.058.082-.104.182-.104.1 0 .182.047.182.104Zm-.217.752a.174.174 0 0 1-.069.093.208.208 0 0 1-.237 0 .174.174 0 0 1-.069-.094.174.174 0 0 1 .07-.094.208.208 0 0 1 .236 0 .174.174 0 0 1 .07.094Zm1.513-.218a.163.163 0 0 1-.002.08.174.174 0 0 1-.04.07.199.199 0 0 1-.068.048.218.218 0 0 1-.24-.049.174.174 0 0 1-.04-.07.163.163 0 0 1-.002-.079.163.163 0 0 1 0-.08.174.174 0 0 1 .04-.073.2.2 0 0 1 .07-.05.22.22 0 0 1 .174 0 .199.199 0 0 1 .07.05.174.174 0 0 1 .038.073.163.163 0 0 1 0 .08Zm-.109-.976c0 .044-.063.08-.142.08-.078 0-.14-.036-.14-.08 0-.044.062-.08.14-.08.08 0 .142.033.142.08Zm1.2.232c0 .174-.086.316-.193.316-.106 0-.19-.142-.19-.316 0-.174.084-.315.19-.315.107 0 .193.14.193.315Zm.477-.319a.078.078 0 0 1-.016.046.091.091 0 0 1-.042.03.102.102 0 0 1-.053.004.096.096 0 0 1-.047-.023.076.076 0 0 1-.02-.09.086.086 0 0 1 .034-.037.1.1 0 0 1 .117.01.08.08 0 0 1 .027.06Zm-3.147-.27c0 .08-.116.147-.261.147-.145 0-.26-.066-.26-.147 0-.081.116-.146.26-.146.143 0 .26.065.26.146Zm-4.895-.757c0 .05-.091.09-.205.09-.114 0-.204-.04-.204-.09 0-.05.091-.09.204-.09.112 0 .205.04.205.09Zm1.198-.181c0 .05-.103.09-.232.09-.128 0-.232-.04-.232-.09 0-.05.105-.09.232-.09.128 0 .232.036.232.09Zm1.509.221c0 .072-.14.13-.314.13-.173 0-.313-.058-.313-.13 0-.072.14-.13.313-.13.174 0 .314.058.314.13Zm1.111-.221a.085.085 0 0 1-.016.051.099.099 0 0 1-.045.034.111.111 0 0 1-.11-.019.089.089 0 0 1-.029-.047.082.082 0 0 1 .006-.052.093.093 0 0 1 .037-.041.11.11 0 0 1 .056-.016.11.11 0 0 1 .072.026.09.09 0 0 1 .022.03.082.082 0 0 1 .007.034Zm-.2.712c0 .044-.097.08-.214.08-.117 0-.214-.036-.214-.08 0-.044.097-.081.214-.081.117 0 .213.036.213.08Zm1.668-.751a.12.12 0 0 1-.023.073.141.141 0 0 1-.064.05.16.16 0 0 1-.16-.026.128.128 0 0 1-.04-.067.119.119 0 0 1 .008-.076.134.134 0 0 1 .053-.059.157.157 0 0 1 .08-.022c.039 0 .075.013.102.037a.123.123 0 0 1 .044.09Zm.796.53c0 .021-.075.039-.166.039-.09 0-.166-.018-.166-.039 0-.02.075-.04.166-.04.091 0 .166.018.166.04Zm.519-.265a.053.053 0 0 1-.003.035.06.06 0 0 1-.025.028.07.07 0 0 1-.076-.004.059.059 0 0 1-.022-.029.053.053 0 0 1 .001-.035.06.06 0 0 1 .024-.029.07.07 0 0 1 .037-.011.063.063 0 0 1 .042.01c.012.01.02.021.022.035Z"/>
    <path fill="#DA840D" d="M14.524 2.283a.12.12 0 0 1-.03.066.143.143 0 0 1-.066.04.156.156 0 0 1-.08.003.145.145 0 0 1-.069-.038.122.122 0 0 1-.034-.065.116.116 0 0 1 .01-.071.131.131 0 0 1 .052-.055.153.153 0 0 1 .076-.02.162.162 0 0 1 .103.043.131.131 0 0 1 .03.045.12.12 0 0 1 .008.052Zm.801-.227c0 .048-.078.086-.172.086-.095 0-.174-.038-.174-.086 0-.047.077-.084.174-.084.096 0 .172.037.172.084Z"/>
    <path fill="#EEBE30" d="M13.005 9.082a.425.425 0 0 0-.186-.239.508.508 0 0 0-.314-.073c-.75.048-.812 1.178-.548 1.671a.42.42 0 0 0 .53-.047c.24-.242.316-.591.401-.9a9.89 9.89 0 0 0 .117-.412Zm5.562-5.871a2.381 2.381 0 0 1-.71-.39 6.166 6.166 0 0 1-.687-.703c-.31-.344-.763-.479-1.237-.53-.528-.057-1.074.049-1.606.024a2.003 2.003 0 0 1-.817-.194c-.25-.128-.446-.337-.66-.518-.417-.338-.948-.338-1.476-.414a8.137 8.137 0 0 0-1.06-.098c-.363-.008-.998-.012-1.242.3-.27.111-.364.41-.426.662a3.271 3.271 0 0 1-.163.612 1.53 1.53 0 0 1-.5.577c-.476.356-1.064.547-1.602.796-.437.2-.973.486-1.208.89-.14.242-.124.655.125.834.309.214.544-.189.61-.392.061-.184.083-.372.25-.51.223-.175.49-.3.776-.367.241-.06.5-.06.737-.127.285-.097.553-.23.795-.395.285-.17.562-.337.9-.411.282-.059.716-.05.937.144.122.132.226.276.311.43.114.142.265.258.44.336.352.182.755.261 1.124.425.123.058.23.141.31.243a.799.799 0 0 1 .06.091c.402.668-.104 1.375-.09 2.08 0 .38.306 1.002.822.697.035-.02.068-.042.1-.065.06-.492.106-.997.296-1.461.179-.432.422-.831.396-1.307-.015-.262-.153-.502-.187-.761-.048-.36.312-.523.636-.594.461-.11.95-.08 1.39.086.83.307 1.5.94 2.42 1.044.365.042.894-.01 1.038-.368.145-.36-.543-.566-.802-.666Z"/>
    <path fill="#fff" d="M13.493 3.68a.765.765 0 0 0-.204-.324.882.882 0 0 0-.347-.202c-.19-.045-.49.068-.466.275 0 .004.002.008.004.012a.03.03 0 0 0 .009.01c-.125.24.237.652.362.827a.764.764 0 0 1 .167.382c.021.18-.042.356-.024.532.008.079.074.415.25.28.201-.153.223-.5.264-.717a2.222 2.222 0 0 0-.015-1.075Zm3.631-1.164a1.547 1.547 0 0 0-.91-.625c-.384-.1-1.307-.208-1.405.3 0 .01.002.02.008.028a.053.053 0 0 0 .026.02.3.3 0 0 1 .065.057c.005.01.013.017.024.021.01.004.02.004.03 0a.646.646 0 0 0 .25.126c.23.046.463.07.697.074.325.029.506.154.732.35.125.113.467.349.643.17.135-.126-.086-.417-.16-.52ZM6.027 3.929a.737.737 0 0 0-.165 0l-.001-.007a.015.015 0 0 0-.004-.005.017.017 0 0 0-.007-.004h-.007a.635.635 0 0 0-.253.093.56.56 0 0 0-.18.186c-.03.056-.089.253.04.263.128.01.23-.113.302-.177.105-.097.204-.2.297-.307a.026.026 0 0 0 .002-.027.029.029 0 0 0-.01-.01.033.033 0 0 0-.014-.005ZM21.09 10.41a.937.937 0 0 0-.648.113.807.807 0 0 0-.236.215.719.719 0 0 0-.125.28.022.022 0 0 0 .006.021.028.028 0 0 0 .022.01.14.14 0 0 1 0 .022c-.044.175-.275.256-.421.33-.109.054-.221.103-.333.152-.375.17-.965.391-1.08.844a.023.023 0 0 0-.001.015c.002.005.005.01.01.013.224.14.482-.068.659-.199a3.036 3.036 0 0 1 1.216-.509c.492-.097 1.41-.067 1.587-.675.107-.376-.368-.585-.657-.631Z" opacity=".5"/>
    <path fill="#48264C" d="M13.04 1.691c-.043-.055-.154-.173-.229-.18-.042 0-.059-.077-.099-.066-.04.011-.1.04-.156 0a.526.526 0 0 0-.058-.043.101.101 0 0 0-.08-.012c-.035.012-.049.06-.091.03-.043-.031-.144.015-.169.06a.165.165 0 0 0-.02.04c-.149.018-.299.224-.355.32a.537.537 0 0 0 .034.588c.136.209.413.237.658.243.097.01.194.003.287-.022a.525.525 0 0 0 .216-.156c.248-.275.295-.513.063-.802Z"/>
    <path fill="#300D33" d="M13.04 1.691a.79.79 0 0 0-.149-.145.75.75 0 0 1-.188.514.908.908 0 0 1-.509.29.968.968 0 0 1-.43-.013.713.713 0 0 0 .053.094c.136.21.413.237.658.244.097.01.194.003.287-.022a.525.525 0 0 0 .216-.157c.248-.277.295-.516.063-.805Z"/>
    <path fill="#48264C" d="M13.26 12.882a.616.616 0 0 0-.188-.24c-.014-.07-.031-.139-.047-.209a.044.044 0 0 0-.01-.019.05.05 0 0 0-.016-.013.056.056 0 0 0-.044-.003c-.113.048-.138-.013-.215-.068a.086.086 0 0 0-.083 0c-.124.076-.257-.105-.354 0a2.01 2.01 0 0 1-.189.225c-.08.046-.156.1-.222.163a.675.675 0 0 0-.164.193.654.654 0 0 0-.026.069.652.652 0 0 0 .009.45c.095.26.394.351.663.41a.902.902 0 0 0 .323.04.639.639 0 0 0 .283-.128c.344-.247.46-.5.28-.87Z"/>
    <path fill="#300D33" d="M13.26 12.882a.82.82 0 0 0-.124-.192.894.894 0 0 1-.347.527 1.081 1.081 0 0 1-1.113.1.766.766 0 0 0 .032.112c.095.26.395.352.663.412a.905.905 0 0 0 .324.038.639.639 0 0 0 .282-.127c.347-.248.462-.5.284-.87Z"/>
    <path fill="#48264C" d="M11.003 1.495c-.039-.068-.139-.218-.221-.239-.043-.01-.043-.08-.084-.088-.012-.1-.064-.207-.195-.185-.03 0-.11.075-.14.032a.131.131 0 0 0-.07-.055c-.062-.021-.116.027-.15.064-.06.062-.134-.029-.21 0a.216.216 0 0 0-.086.082.188.188 0 0 0-.026.11v.018c-.094.064-.178.14-.25.224a.601.601 0 0 0-.082.66c.11.256.415.338.686.381a.938.938 0 0 0 .315.025.637.637 0 0 0 .273-.14c.338-.27.438-.528.24-.889Z"/>
    <path fill="#300D33" d="M11.003 1.495a.912.912 0 0 0-.139-.186.883.883 0 0 1-.314.546 1.085 1.085 0 0 1-1.105.156c.01.037.022.075.038.112.11.255.415.337.686.38a.939.939 0 0 0 .32.02.638.638 0 0 0 .274-.139c.338-.27.438-.528.24-.889Z"/>
    <path fill="#48264C" d="M15.86 2.404c-.04-.087-.146-.277-.24-.308-.054-.017-.052-.12-.107-.112-.075.006-.146.024-.204-.04a.702.702 0 0 0-.062-.073.124.124 0 0 0-.044-.03.137.137 0 0 0-.055-.01c-.05.007-.084.068-.125.014-.06-.072-.193-.018-.24.036a.284.284 0 0 0-.039.047c-.2-.014-.463.225-.567.338a.802.802 0 0 0-.19.384.76.76 0 0 0 .04.42c.108.32.461.436.776.513.12.039.247.055.374.049a.729.729 0 0 0 .334-.153c.42-.31.56-.617.348-1.075Z"/>
    <path fill="#300D33" d="M15.86 2.404a1.05 1.05 0 0 0-.148-.237 1.062 1.062 0 0 1-.407.637 1.282 1.282 0 0 1-.764.256 1.221 1.221 0 0 1-.554-.135c.009.047.02.094.037.14.107.32.46.436.775.514.12.039.247.055.375.048a.728.728 0 0 0 .333-.153c.423-.305.563-.612.352-1.07Z"/>
    <path fill="#48264C" d="M15.676 11.92c-.049-.1-.178-.318-.291-.353-.065-.019-.065-.138-.125-.131-.089.009-.174.03-.25-.043a.709.709 0 0 0-.075-.084.157.157 0 0 0-.056-.035.17.17 0 0 0-.069-.01c-.06.009-.1.079-.153.018-.073-.083-.231-.02-.289.043a.418.418 0 0 0-.046.056c-.24-.016-.553.265-.677.391a.897.897 0 0 0-.223.444.85.85 0 0 0 .053.485c.134.368.56.498.938.583.148.045.304.063.46.053a.892.892 0 0 0 .398-.179c.495-.357.657-.715.405-1.238Z"/>
    <path fill="#300D33" d="M15.676 11.92a1.179 1.179 0 0 0-.18-.272 1.268 1.268 0 0 1-.49.746 1.527 1.527 0 0 1-1.573.144c.01.055.025.11.045.163.134.369.56.498.938.583.147.046.304.064.46.053a.893.893 0 0 0 .398-.178c.492-.358.654-.716.402-1.238Z"/>
    <path fill="#5F825C" d="M10.029 11.111s.333-.112.527.285c.193.397.263.787.457.972a.423.423 0 0 1 .122.152.38.38 0 0 1 .036.186s-.545-.27-.685-.412a3.048 3.048 0 0 1-.528-.649c-.158-.285-.269-.553-.269-.553l.34.02Z"/>
    <path fill="#5F825C" d="M9.898 11.042s.083-.312-.375-.439-.899-.146-1.124-.298a.512.512 0 0 0-.395-.102s.359.458.533.562c.238.163.499.296.776.397.333.112.641.178.641.178l-.056-.298Z"/>
    <path fill="#ED6366" d="M9.833 11.194s.615.395.598.934c-.018.538-.018.807-.375 1.107-.357.3-1.036.317-1.388.459-.353.141-.773.27-.875.348-.1.079-.315.159-.631 0-.316-.158-.5-.141-.44-.585.09-.572.243-1.134.457-1.678.175-.411.33-.728.824-.854.474-.11.975-.077 1.426.094.311.143.404.175.404.175Z"/>
    <path fill="#C73A54" d="M6.796 13.028c.28.095.575.143.874.143 1.224 0 2.215-.774 2.215-1.729a1.33 1.33 0 0 0-.02-.235c.132.096.576.45.56.908-.017.538-.017.808-.374 1.108-.357.3-1.036.317-1.388.458-.353.142-.773.27-.875.349-.1.079-.316.159-.631 0-.316-.159-.5-.143-.44-.586a7.97 7.97 0 0 1 .079-.416Z"/>
    <path fill="#E7D8C8" d="M10.106 12.374c.084.01.104-.12.11-.214a.137.137 0 0 0 0-.072v-.008a.007.007 0 0 0-.015 0 .018.018 0 0 0-.014.008c-.014.03-.197.272-.08.286Zm-.174-.488a.013.013 0 0 0 .02 0 .201.201 0 0 0 .058-.066.18.18 0 0 0 .021-.083.136.136 0 0 0 .012-.048c0-.002 0-.005-.002-.007a.014.014 0 0 0-.005-.005.017.017 0 0 0-.015-.001h-.013a.19.19 0 0 0-.076.094.17.17 0 0 0 0 .116Zm-.362-.256c.073.052.107-.066.126-.143a.295.295 0 0 0 .022-.073c0-.003 0-.006-.002-.008a.015.015 0 0 0-.007-.006.016.016 0 0 0-.017.004c-.035.037-.193.18-.121.227Zm-.046.502a.012.012 0 0 0 .009.004.011.011 0 0 0 .009-.004.38.38 0 0 0 .062-.07.268.268 0 0 0 .078-.157c0-.009-.01-.02-.022-.016l-.022.014c-.08.053-.175.155-.114.229Zm.126.503c.045.026.073-.034.088-.096a.219.219 0 0 0 .035-.103l-.001-.007a.014.014 0 0 0-.005-.006.015.015 0 0 0-.008-.002l-.007.001h-.015v.008a.322.322 0 0 0-.076.106c-.013.026-.045.082-.012.099Zm.235.278c.05.03.103-.012.125-.053a.415.415 0 0 0 .028-.085.163.163 0 0 0 .026-.074.015.015 0 0 0 0-.021v-.009c0-.009-.016-.018-.026-.01-.042.027-.229.206-.153.252Zm-.485.155c.043.053.084 0 .113-.051a.15.15 0 0 0 .041-.051c.01-.02.014-.04.014-.062 0-.002 0-.004-.002-.005a.013.013 0 0 0-.004-.005.015.015 0 0 0-.006-.002h-.007c-.058.021-.2.111-.148.176Zm-.234-.65a.603.603 0 0 1 .134-.107c.003 0 .006 0 .009.002a.015.015 0 0 1 .007.006.013.013 0 0 1 .001.009.129.129 0 0 1-.014.048v.017a.228.228 0 0 1-.062.127c-.026.027-.088.04-.113 0-.024-.04.015-.083.038-.102Zm-.07-.397c.01.035.06.032.085.014a.158.158 0 0 0 .04-.049.153.153 0 0 0 .04-.09c0-.002 0-.005-.002-.007a.016.016 0 0 0-.005-.006.018.018 0 0 0-.007-.003h-.008a.242.242 0 0 0-.093.059c-.022.02-.06.05-.05.082Zm.215-.841a.019.019 0 0 1 .013.002.016.016 0 0 1 .008.008.162.162 0 0 1-.004.101.18.18 0 0 1-.066.083.02.02 0 0 1-.024-.001.017.017 0 0 1-.004-.007.082.082 0 0 1-.008-.024.117.117 0 0 1 .007-.096.139.139 0 0 1 .078-.065Zm-.431.619c.037.028.069 0 .091-.045a.215.215 0 0 0 .061-.092.197.197 0 0 0 .005-.107.019.019 0 0 0-.007-.008.022.022 0 0 0-.011-.002c-.057.007-.104.078-.125.112-.022.035-.062.108-.014.142Zm-.014-.645a.213.213 0 0 1 .024-.023.021.021 0 0 1 .02-.002.019.019 0 0 1 .007.006.017.017 0 0 1 .004.008.156.156 0 0 1-.009.078.17.17 0 0 1-.046.065v.01a.047.047 0 0 1-.016.017.054.054 0 0 1-.069-.011c-.053-.05.023-.121.085-.148Zm-.424.412a.279.279 0 0 1 .113-.113.02.02 0 0 1 .02 0 .016.016 0 0 1 .007.007.014.014 0 0 1 0 .009.17.17 0 0 1-.015.06v.02a.298.298 0 0 1-.018.073.097.097 0 0 1-.049.054.019.019 0 0 1-.007.007.022.022 0 0 1-.02 0 .019.019 0 0 1-.007-.007c-.05-.024-.034-.082-.024-.11Zm-.089-.273a.013.013 0 0 0 .007.002c.002 0 .005 0 .007-.002a.441.441 0 0 0 .046-.046.326.326 0 0 0 .079-.084.07.07 0 0 0 .01-.046v-.008c0-.008 0-.014-.013-.01a.046.046 0 0 0-.017-.012.051.051 0 0 0-.022-.003c-.083.001-.17.154-.097.21Zm-.505.141c.025.043.084 0 .105-.023a.27.27 0 0 0 .069-.124.104.104 0 0 0 .014-.05l-.001-.007a.018.018 0 0 0-.011-.01.02.02 0 0 0-.008-.002.19.19 0 0 0-.08.03.166.166 0 0 0-.056.06c-.022.033-.054.088-.032.126Zm.124.452c.015.035.055.018.07 0 .015-.018.014-.024.02-.035a.191.191 0 0 0 .051-.086.178.178 0 0 0 0-.097.015.015 0 0 0-.005-.006.017.017 0 0 0-.014-.004.017.017 0 0 0-.007.003.283.283 0 0 0-.08.104c-.015.029-.052.08-.035.121Zm.508.194a.246.246 0 0 1 .107-.147.018.018 0 0 1 .018.005.015.015 0 0 1 .004.007.13.13 0 0 1-.009.062.13.13 0 0 1-.03.069.151.151 0 0 1-.066.044H8.49l-.009-.001a.02.02 0 0 1-.007-.004.017.017 0 0 1-.005-.007.016.016 0 0 1-.001-.008l.011-.02Zm.365.133a.02.02 0 0 1 .025.004.016.016 0 0 1 .004.007v.008c0 .063-.049.164-.125.17h-.006a.016.016 0 0 1-.006-.003.014.014 0 0 1-.004-.004.013.013 0 0 1-.002-.006.209.209 0 0 1 .034-.1.237.237 0 0 1 .08-.076Zm-.428.204a.252.252 0 0 1 .052-.036c.01 0 .027 0 .027.01a.18.18 0 0 1-.057.12.133.133 0 0 1-.06.048.016.016 0 0 1-.01 0 .013.013 0 0 1-.007-.007v-.012a.02.02 0 0 1 0-.01.102.102 0 0 1 .008-.063.116.116 0 0 1 .047-.05Zm-.329-.315c.006 0 .01 0 .014.004a.017.017 0 0 1 .008.011v.03a.102.102 0 0 1-.005.048.11.11 0 0 1-.028.043.16.16 0 0 1-.074.063c-.007 0-.016 0-.02-.008-.027-.059.015-.192.105-.191Zm-.563-.071c.001.002.002.005.004.006a.021.021 0 0 0 .022.005.179.179 0 0 0 .09-.078.152.152 0 0 0 .013-.112.02.02 0 0 0-.012-.01.022.022 0 0 0-.017.002.237.237 0 0 0-.07.068.131.131 0 0 0-.03.056.123.123 0 0 0 0 .063Zm.055.434c0-.023.007-.046.02-.066a.135.135 0 0 1 .055-.046.02.02 0 0 1 .017 0 .017.017 0 0 1 .009.014.13.13 0 0 1-.007.066.142.142 0 0 1-.04.057.068.068 0 0 1-.02.017.021.021 0 0 1-.023-.002.017.017 0 0 1-.005-.006v-.004a.01.01 0 0 1 0-.004.09.09 0 0 1-.006-.026Zm1.144.163h.006c.003.001.005.002.006.004a.014.014 0 0 1 .005.01c0 .03-.01.06-.027.085a.173.173 0 0 1-.074.058.024.024 0 0 1-.012 0h-.024a.015.015 0 0 1-.005-.002.011.011 0 0 1-.004-.005.011.011 0 0 1-.001-.005.19.19 0 0 1 .045-.087.22.22 0 0 1 .085-.058Zm.132.313c0 .003 0 .006.002.01a.018.018 0 0 0 .005.006.02.02 0 0 0 .01.004h.017a.012.012 0 0 0 .013 0l.008-.008a.209.209 0 0 0 .06-.058.186.186 0 0 0 .032-.074l-.001-.008a.014.014 0 0 0-.005-.006.017.017 0 0 0-.008-.003l-.009.001a.205.205 0 0 0-.095.08.151.151 0 0 0-.03.056Zm-.074.397a.231.231 0 0 1 .068-.078.273.273 0 0 1 .04-.033.022.022 0 0 1 .012 0 .017.017 0 0 1 .01-.003c.003 0 .006 0 .009.002a.016.016 0 0 1 .006.006.013.013 0 0 1 .002.009.134.134 0 0 1-.039.071.158.158 0 0 1-.075.041h-.01a.016.016 0 0 1-.009.002.016.016 0 0 1-.009-.002.013.013 0 0 1-.005-.007v-.008Zm-.404-.194a.104.104 0 0 1 .015-.047.118.118 0 0 1 .035-.036.166.166 0 0 1 .07-.038c.011 0 .026 0 .026.013a.143.143 0 0 1-.038.087.17.17 0 0 1-.087.051.02.02 0 0 1-.02-.009.016.016 0 0 1-.002-.006.01.01 0 0 1-.003-.004.008.008 0 0 1 0-.008l.004-.003Zm-.288-.461h.01a.029.029 0 0 1 .012-.002.028.028 0 0 1 .021.012.023.023 0 0 1 .004.011c-.008.058-.061.132-.125.135-.01 0-.024-.007-.022-.017 0-.03.008-.058.026-.083a.162.162 0 0 1 .074-.056Zm-.203.522a.215.215 0 0 1 .104-.073.021.021 0 0 1 .02.002.018.018 0 0 1 .006.008.016.016 0 0 1 .001.009.278.278 0 0 1-.15.158c-.003 0-.007 0-.01-.002a.02.02 0 0 1-.008-.005.017.017 0 0 1-.004-.01.096.096 0 0 1 .009-.048.107.107 0 0 1 .032-.04Zm-.33-.36a.128.128 0 0 1 .021-.065.147.147 0 0 1 .052-.048c.01 0 .029 0 .032.008.005.03 0 .06-.014.088a.164.164 0 0 1-.064.066.024.024 0 0 1-.013.005.03.03 0 0 1-.013-.003.021.021 0 0 1-.009-.009.018.018 0 0 1-.002-.012.237.237 0 0 1 .01-.03Zm-.314-.35a.065.065 0 0 1 .025-.034l.007-.007c.01-.01.033-.007.033.007a.12.12 0 0 1-.025.069.094.094 0 0 1-.013.043.108.108 0 0 1-.03.034.017.017 0 0 1-.022-.004.014.014 0 0 1-.004-.008.146.146 0 0 1 .029-.1Zm.311-.971.016-.02c.009-.007.029 0 .029.009a.134.134 0 0 1-.01.066.148.148 0 0 1-.041.055v.007a.015.015 0 0 1-.007.003h-.008a.014.014 0 0 1-.01-.01.061.061 0 0 1 0-.021.076.076 0 0 1 0-.049.085.085 0 0 1 .03-.04Zm-.15 1.853a.014.014 0 0 0 .005.005.017.017 0 0 0 .008.002l.008-.002a.014.014 0 0 0 .005-.005l.01-.01a.21.21 0 0 0 .061-.066.187.187 0 0 0 .025-.083c0-.003 0-.006-.002-.009a.018.018 0 0 0-.007-.007.02.02 0 0 0-.02 0c-.053.035-.117.115-.093.175Zm-.298-.237a.067.067 0 0 1 .023-.038.098.098 0 0 1 .025-.025.022.022 0 0 1 .018 0 .02.02 0 0 1 .007.005c.01.025.01.052 0 .077a.13.13 0 0 1-.042.066.018.018 0 0 1-.007.003h-.008a.017.017 0 0 1-.006-.004.085.085 0 0 1-.01-.083Zm.051.384a.02.02 0 0 1 .009-.003l.01.001a.019.019 0 0 1 .007.006.016.016 0 0 1 .004.008.171.171 0 0 1-.01.08.186.186 0 0 1-.046.07v.009a.015.015 0 0 1-.006.006.018.018 0 0 1-.018 0 .015.015 0 0 1-.006-.006.16.16 0 0 1 .002-.093.175.175 0 0 1 .054-.078Zm.46.166a.022.022 0 0 1 .013 0 .02.02 0 0 1 .01.007.01.01 0 0 1 0 .012v.008a.13.13 0 0 1-.017.063.146.146 0 0 1-.047.05.02.02 0 0 1-.007.003H7.56a.02.02 0 0 1-.007-.004.017.017 0 0 1-.005-.006v-.007H7.54a.014.014 0 0 1-.01-.009V13.8a.137.137 0 0 1 .028-.066.157.157 0 0 1 .058-.046Zm.595-.272a.02.02 0 0 1 .009-.002h.009a.019.019 0 0 1 .007.006.016.016 0 0 1 .004.008.162.162 0 0 1-.029.097.19.19 0 0 1-.082.067.03.03 0 0 1-.02 0l-.014.009h-.007a.016.016 0 0 1-.007-.002.014.014 0 0 1-.004-.005.013.013 0 0 1-.002-.006.212.212 0 0 1 .044-.101.244.244 0 0 1 .092-.07Zm1.014-.078a.066.066 0 0 1 .01-.014.052.052 0 0 1 0-.025.13.13 0 0 1 .065-.055c.01 0 .023 0 .027.007a.08.08 0 0 1 0 .048.074.074 0 0 1-.032.046.09.09 0 0 1-.058.014.02.02 0 0 1-.01-.008.016.016 0 0 1-.002-.012Z"/>
  </g>
  <defs>
    <clipPath id="a">
      <path fill="#fff" d="M0 .388h24v15.247H0z"/>
    </clipPath>
  </defs>
</svg>
