<svg xmlns="http://www.w3.org/2000/svg" width="29" height="14" fill="none" viewBox="0 0 29 14">
  <g clip-path="url(#a)">
    <path fill="#DADADA" d="M28.964 8.41c0 3.087-6.482 5.59-14.477 5.59S0 11.497 0 8.41c0-3.09 6.482-5.593 14.479-5.593 7.997 0 14.485 2.503 14.485 5.591Z"/>
    <path fill="#F4F4F4" d="M29 8.156c0 3.09-6.482 5.592-14.479 5.592-7.997 0-14.477-2.503-14.477-5.592 0-3.09 6.482-5.591 14.477-5.591C22.517 2.565 29 5.069 29 8.155Z"/>
    <path fill="#EBEAEA" d="M24.353 7.552c0 2.105-4.419 3.813-9.874 3.813-5.456 0-9.874-1.708-9.874-3.813 0-2.106 4.418-3.814 9.874-3.814 5.455 0 9.874 1.708 9.874 3.814Z"/>
    <path fill="#F4F4F4" d="M24.009 7.622c0 1.997-4.268 3.618-9.53 3.618-5.263 0-9.532-1.62-9.532-3.618 0-1.998 4.267-3.618 9.532-3.618 5.264 0 9.53 1.62 9.53 3.618Z"/>
    <path fill="#006EC3" d="M14.479 2.96c3.746 0 7.265.549 9.91 1.544 1.273.478 2.27 1.033 2.962 1.65.692.617 1.044 1.26 1.044 1.913 0 .652-.352 1.305-1.044 1.92-.692.616-1.69 1.172-2.969 1.659-2.644.994-6.164 1.543-9.91 1.543-3.745 0-7.267-.549-9.911-1.543-1.267-.487-2.27-1.035-2.956-1.65C.92 9.38.563 8.733.563 8.075c0-.659.35-1.306 1.042-1.913.693-.608 1.69-1.172 2.962-1.65C7.212 3.507 10.732 2.96 14.48 2.96Zm0-.199c-7.8 0-14.12 2.379-14.12 5.314 0 2.934 6.32 5.316 14.12 5.316 7.799 0 14.119-2.378 14.119-5.312 0-2.933-6.322-5.318-14.12-5.318Z"/>
    <path fill="#006EC3" d="M14.479 3.188c3.6 0 6.994.51 9.538 1.435 1.234.448 2.2.97 2.872 1.55.673.578 1.03 1.211 1.03 1.847 0 .636-.346 1.256-1.03 1.846-.684.59-1.636 1.102-2.872 1.551-2.544.928-5.933 1.435-9.538 1.435-3.605 0-6.994-.511-9.542-1.435-1.232-.45-2.198-.97-2.87-1.55-.673-.581-1.03-1.21-1.03-1.847 0-.636.347-1.258 1.03-1.847.682-.59 1.636-1.102 2.87-1.55 2.548-.93 5.935-1.435 9.542-1.435Zm0-.1C6.999 3.088.934 5.298.934 8.03S7 12.972 14.48 12.972c7.48 0 13.542-2.211 13.542-4.942 0-2.731-6.064-4.942-13.542-4.942Z"/>
    <g style="mix-blend-mode:multiply">
      <path fill="#EBEAEA" d="m19.923 11.319-.204-.335-1.108.218-.12.241.226.23a3.38 3.38 0 0 0 1.201-.177c.001-.054.005-.107.013-.16 0 0-.005-.017-.008-.017Zm-4.158-9.062a.308.308 0 0 0 .044.074h-.046c0-.024 0-.048.002-.074Z" style="mix-blend-mode:multiply"/>
      <path fill="#EBEAEA" d="M22.788 8.754a7.634 7.634 0 0 0-1.024-.24l.092-.012c.371-.056.371-.418.56-.289.096.064.277.26.492.104.214-.156.114-.418.21-.65.094-.233.284-.214.456-.14.172.076.327.074.49-.269.164-.343.01-.5-.151-.622-.162-.12-.315-.24-.25-.379l.02-.04.018-.043a.683.683 0 0 0 .03-.099.336.336 0 0 0-.016-.21.285.285 0 0 0-.051-.08c-.107-.118-.262-.135-.568 0l.304-.346a3.34 3.34 0 0 0 .048-.569 2.836 2.836 0 0 1-1.355-.638.214.214 0 0 0-.018-.146l-.01-.027v-.024c0-.005 0 0 0 0v-.018a.03.03 0 0 1 0-.013h.01c.05-.013.1-.03.149-.049a.31.31 0 0 0 .106-.09.38.38 0 0 0 .072-.147c-.033.008-.065.012-.098.017a1.598 1.598 0 0 1-.5-.045 3.79 3.79 0 0 0-.53-.087 23.34 23.34 0 0 0-1.146-.026c-.377-.001-.819 0-1.221-.04-.403-.04-.777-.076-1.169-.1a34.353 34.353 0 0 0-2.29-.07c-.87 0-1.74.025-2.607.056-.876.022-1.75.088-2.618.199-.428.059-.853.126-1.278.193-.382.06-.765.132-1.146.169-.301.027-.633.036-.954.083a3.73 3.73 0 0 0-.057.613 6.463 6.463 0 0 1-.355.104l-.064.018c-.468.126-.77.607-.522.91.173.188 0 .429-.422.638-.422.208-.632.607-.476.902.155.295.476.116.448.349-.028.233-.092.357.239.563.33.205.303.347.082.695-.221.347-.12.518.147.741a.65.65 0 0 0 .283.142.543.543 0 0 0 .188 0l.053-.011a.365.365 0 0 0 .091-.038l.01-.008a.145.145 0 0 0 .028-.02l.03-.03c.109-.143.292-.16.511.008h.01a.653.653 0 0 0-.478.24c-.23.297.102.562.436.463.334-.099.428-.097.348.12a.498.498 0 0 0 .025.416l.013.017.008.011.015.018a.074.074 0 0 0 .011.011l.013.014.028.021H7.5l.023.013h.013l.026.011h.055c.262.035.267-.245.434-.212.167.034.183.219.177.37-.007.151.296.427.586.348.29-.08.337 0 .432.098a.281.281 0 0 0 .35.099c.034-.019.06-.033.078-.046.162.034.326.052.491.053.336.015.67-.04.982-.16a.94.94 0 0 0 .468.319h.044a.179.179 0 0 0 .043 0 .253.253 0 0 0 .05 0c.5-.057.428-.303.547-.478.12-.176.2-.117.301-.018a.213.213 0 0 0 .29.02l1.096.205a2.17 2.17 0 0 1 .491-.603c.125.16.288.332.418.32.24-.03.163-.37.387-.336.225.035.22.436.452.413.226-.021.454-.021.68 0 .098.013.196 0 .287-.036l.026-.013h.013l.041-.024.02-.013.02-.016.026-.02.02-.02.032-.028.015-.018.034-.04v-.012a.525.525 0 0 0 .036-.05l.012-.019a.574.574 0 0 0 .036-.062c.07.022.143.037.217.046.48.056.965-.043 1.38-.282.416-.24.74-.606.92-1.043a.32.32 0 0 0 0 .118c.039.236.219.102.274.32.056.216-.195.41.18.56.375.15.491-.23.804-.205.312.024.203.443.625.499.422.055.918-.444.918-.444a.411.411 0 0 0 .282.34c.467.107.716-.16.773-.319a.862.862 0 0 1 .269-.467l.036-.024.03-.02.029-.02.03-.024.037-.03a.685.685 0 0 0 .21-.526c.058-.429-.482-.76-1.258-.744Zm-3.163.884c.012-.03.021-.059.031-.089a.147.147 0 0 1-.03.09Zm.156-.926a.66.66 0 0 0-.098-.247c.149.041.3.072.454.092a1.516 1.516 0 0 0-.356.155Z" style="mix-blend-mode:multiply"/>
    </g>
    <path fill="#58991F" d="M8.133 7.307s-1.005-1.115.442-2.338c1.446-1.223 6.416-2.72 8.694-2.073 2.278.648 3.677 1.642 3.724 2.789.048 1.146-3.675 2.791-5.046 3.317a4.936 4.936 0 0 1-3.502.072c-.956-.335-4.312-1.767-4.312-1.767Z"/>
    <path fill="#58991F" d="M17.223 2.908c-2.278-.638-7.25.859-8.694 2.072-1.445 1.213-.442 2.339-.442 2.339s3.356 1.434 4.312 1.766a4.936 4.936 0 0 0 3.502-.072c1.371-.524 5.096-2.171 5.047-3.317-.05-1.146-1.445-2.144-3.725-2.788Zm-8.41 3.494a.279.279 0 0 1-.227-.076.264.264 0 0 1-.077-.22c.01-.106.112-.16.203-.189.148-.05.31-.03.458-.075h.01c.05.257-.068.549-.368.56Zm4.63-1.67c-.079.112-.224.119-.345.167a.789.789 0 0 0-.365.285.416.416 0 0 1-.118.12c-.124.068-.036-.133-.033-.174.015-.13-.042-.265.012-.39a.337.337 0 0 1 .227-.197c.102-.02.206-.03.31-.032a.502.502 0 0 1 .299.051.123.123 0 0 1 .013.17Zm2.103 3.416a1.6 1.6 0 0 1-.874.318.9.9 0 0 1 .04-.532c.042-.116.125-.215.165-.335.02-.064 0-.124 0-.188s.057-.08.098-.121c.04-.042.12-.104.176-.16a.779.779 0 0 1 .272-.208c.296-.117.412.234.432.459a.858.858 0 0 1-.31.767Zm4.03-2.277a.793.793 0 0 1-.695.212.276.276 0 0 1-.148-.092.264.264 0 0 1-.06-.16 2.489 2.489 0 0 0-.011-.427.544.544 0 0 1 .085-.55c.065-.065.148.1.171.142.056.097.122.191.246.2a.798.798 0 0 1 .463.09c.245.163.13.416-.05.585Z" opacity=".5" style="mix-blend-mode:multiply"/>
    <path fill="#58991F" d="M8.91 5.913a.525.525 0 0 0-.244.062c-.067.105-.103.253.03.327a.36.36 0 0 0 .31.012.356.356 0 0 0 .17-.175.344.344 0 0 0 .016-.24c-.095-.005-.189 0-.282.014Z"/>
    <path fill="#97C740" d="M9.22 8.24s-1.179.336-1.907 1.175c-.291.207-.563.046-.795.341-.233.295.101.561.435.464.334-.097.429-.099.347.118-.082.217-.02.52.244.555.263.035.266-.246.433-.212.167.033.183.218.175.37-.008.151.298.427.588.349.29-.078.337-.008.43.097a.284.284 0 0 0 .352.099c.128-.073.134-.06.114-.257-.02-.197.639-1.349.863-1.803.224-.454.278-.543.465-.45.186.095.504-.245.063-.736-.44-.49-1.372-.258-1.806-.11Z"/>
    <path fill="#97C740" d="M11.03 8.353a.955.955 0 0 0-.066-.063c-.087.19-.282.261-.467.358-.29.15-.603.228-.903.35-.3.12-.578.248-.859.382a1.44 1.44 0 0 0-.49.319 1.991 1.991 0 0 0-.27.478.978.978 0 0 1-.457.504 1.377 1.377 0 0 1-.192.07.289.289 0 0 0 .218.139c.262.035.266-.246.433-.212.167.033.184.218.175.37-.008.15.298.427.588.349.29-.079.337-.008.43.097a.284.284 0 0 0 .352.099c.128-.074.134-.06.115-.257-.02-.198.638-1.349.862-1.803.224-.454.278-.54.465-.446.186.094.505-.243.065-.734Z" opacity=".5" style="mix-blend-mode:multiply"/>
    <path fill="#68B42E" d="M8.53 9.544s.1-.076.262-.175c.041-.027.085-.053.131-.08l.15-.084.163-.085c.055-.029.111-.056.163-.081l.174-.077c.056-.027.114-.047.164-.068l.163-.06.075-.026.07-.021.223-.06.084-.023-.08.032c-.053.02-.126.05-.215.08l-.07.025-.072.032-.164.065c-.055.023-.113.045-.163.072l-.164.078a1.284 1.284 0 0 0-.164.08l-.163.08c-.105.054-.205.102-.288.146l-.202.109-.076.041Z" style="mix-blend-mode:multiply"/>
    <path fill="#D8B523" d="M9.206 6.678s0-1.32 1.83-1.82c.287.022.561.127.786.302a1.4 1.4 0 0 1 .477.68l-1.518 1.694-1.575-.856Z"/>
    <path fill="#D8B523" d="M11.036 4.859a3.18 3.18 0 0 0-.923.402 2.52 2.52 0 0 1 .982.057c.147.045.62.27.456.478-.096.125-.261.18-.376.289a4.22 4.22 0 0 0-.491.575s-.015.021-.024.016a2.749 2.749 0 0 0-1.364-.397 1.348 1.348 0 0 0-.08.397l1.574.856 1.519-1.694a1.4 1.4 0 0 0-.481-.681 1.459 1.459 0 0 0-.792-.298Z" opacity=".5" style="mix-blend-mode:multiply"/>
    <path fill="#68B42E" d="M13.418 4.073s.179.684.43 1.016c.253.331-.251 1.015.595 1.787.504.419.718.103.818-.193.1-.297.252-.035.432-.018.18.018.34.07.49-.263.151-.333.521-.14.755-.42.234-.281.88-2.87-.268-3.554-1.149-.684-3.538.332-3.252 1.645Z"/>
    <path fill="#68B42E" d="M14.366 6.149c-.08-.348-.05-.717-.223-1.043a.497.497 0 0 0-.384-.3h-.074c.046.1.101.194.164.283.252.333-.252 1.015.594 1.787.252.21.432.236.563.172a1.585 1.585 0 0 1-.64-.9Z" style="mix-blend-mode:multiply"/>
    <path fill="#68B42E" d="M16.673 2.428c-1.145-.684-3.541.332-3.253 1.645.07.258.162.51.275.753a.753.753 0 0 1 .183-.4c.164-.16.291.12.318.24.047.219.046.447.077.67.036.253.117.526.371.65.308.15.655.123.982.225.193.06.419.188.432.399a.617.617 0 0 0 .134-.208c.144-.333.52-.14.754-.42.234-.281.876-2.872-.273-3.554Z" style="mix-blend-mode:multiply"/>
    <path fill="#68B42E" d="M10.77 11s.42.83.919.773c.499-.057.427-.306.546-.478.12-.172.2-.118.301-.018.102.1.277.117.446-.16.168-.275.528-1.534.088-1.928-.44-.394-2.319-.612-2.75.132-.433.745.45 1.679.45 1.679Z"/>
    <path fill="#3E9F32" d="M13.07 9.185c-.44-.393-2.319-.612-2.751.133a.916.916 0 0 0-.115.543.73.73 0 0 1 .472-.346.588.588 0 0 1 .388.037c.111.077.211.168.297.271a.427.427 0 0 0 .52.06c.105-.07.205-.202.326-.243.293-.1.365.319.313.52a.79.79 0 0 1-.18.34c-.098.106-.218.194-.306.305-.174.222-.115.515-.286.732a.771.771 0 0 1-.262.206.487.487 0 0 0 .201.022c.491-.06.427-.306.547-.478.12-.173.2-.118.3-.018.102.1.277.117.446-.16.168-.275.53-1.53.09-1.924Z"/>
    <path fill="#68B42E" d="M6.807 4.52a3.003 3.003 0 0 1-.522.159c-.468.126-.77.607-.522.91.174.186 0 .429-.422.638-.422.208-.633.605-.476.9.157.295.476.117.448.348-.027.231-.091.357.24.563.33.205.3.349.081.696-.22.348-.12.518.147.741.267.224.586.179.696.036.11-.144.294-.16.514.01.219.168.376.277.623.178a.404.404 0 0 0 .2-.135.388.388 0 0 0 .083-.222c.038-.134.175-.152.359-.134.183.017.292-.09.283-.33a.355.355 0 0 0-.192-.32s-.517-.927-.14-1.636c.23-.5.19-.5.053-.683a1.12 1.12 0 0 1-.134-.539s-.522-1.369-1.319-1.18Z"/>
    <path fill="#3E9F32" d="M8.539 8.886a.355.355 0 0 0-.192-.319s-.517-.928-.14-1.637c.23-.5.19-.5.054-.683a1.12 1.12 0 0 1-.135-.538s-.522-1.375-1.318-1.186a2.6 2.6 0 0 1-.459.143c.05.167.09.337.117.509.051.331.041.67-.03.998-.088.408-.239.814-.226 1.237.013.422.228.731.328 1.116a.981.981 0 0 1 0 .608.923.923 0 0 1-.491.501.418.418 0 0 0 .412-.107c.11-.142.295-.16.514.01.22.169.376.277.623.178a.404.404 0 0 0 .2-.135.388.388 0 0 0 .083-.222c.038-.134.175-.151.359-.134.183.018.31-.098.3-.34Z"/>
    <path fill="#68B42E" d="M12.507 4.107a7.776 7.776 0 0 0-.056.915.71.71 0 0 1-.198.594c-.103.138-.441.147-.62-.09-.178-.238-.414-.424-.996-.404-.583.021-.724.01-.79-.283a1.805 1.805 0 0 1-.029-.87c.066-.43-.733-1.263-.564-1.619.168-.355-.363-.42-.062-.756.206-.19.337-.1.515-.027.178.074.555.064.545-.09a.377.377 0 0 1 .097-.295.397.397 0 0 1 .288-.131c.29 0 .45.319.44.558-.01.239.365 1.804 1.43 2.498Z"/>
    <path fill="#68B42E" d="M12.098 5.704a1.47 1.47 0 0 0 .062-.16c.033-.105.067-.264-.041-.342-.134-.097-.31-.054-.463-.05a2.01 2.01 0 0 1-.692-.124 1.93 1.93 0 0 1-.311-.123c-.085-.046-.143-.137-.23-.177-.268-.118-.39.082-.48.303.1.107.29.11.702.091.58-.027.818.16.995.404a.465.465 0 0 0 .458.178Z"/>
    <path fill="#3E9F32" d="M12.507 4.107c-1.066-.694-1.437-2.26-1.429-2.498.008-.238-.149-.558-.44-.558a.407.407 0 0 0-.286.129.386.386 0 0 0-.1.292c0 .097-.14.137-.293.135a.616.616 0 0 0 .164.17.501.501 0 0 0 .294.07.272.272 0 0 1 .22.066c.124.137-.037.332-.136.424-.208.193-.408.357-.465.638a.989.989 0 0 1-.218.532.793.793 0 0 1-.088.077.74.74 0 0 1 .088.386c-.058.288-.045.586.038.869.01.056.033.11.065.159.074-.187.175-.36.388-.354a.409.409 0 0 1 .275.14c.11.083.235.143.368.177.277.103.572.148.867.133.123-.008.313-.012.383.113a.384.384 0 0 1 0 .301c-.02.061-.044.122-.072.18a.241.241 0 0 0 .126-.08.723.723 0 0 0 .198-.594c0-.303.018-.606.053-.907Z"/>
    <path fill="#97C740" d="M7.372 6.65a3.56 3.56 0 0 1-.6-1.37c-.1-.493-.092-1 .02-1.49.282-1.144.848-1.682 1.118-1.55.27.132.32.038.46-.145a.4.4 0 0 1 .322-.137A.41.41 0 0 1 9 2.12c.19.204.311.217.445.17.135-.045.581.074.52.462-.063.387 0 .374.094.65.095.276.164.834-.283 1.228-.175.13-.195.269-.201.524-.007.255-.123.61-.696.604-.376-.025-.613.02-.741.295-.128.276-.077.536-.357.69-.208.112-.409-.092-.409-.092Z"/>
    <path fill="#97C740" d="M10.054 3.402c-.088-.276-.155-.263-.095-.65.06-.388-.383-.506-.519-.461-.135.045-.255.033-.445-.17a.437.437 0 0 0-.527-.112.888.888 0 0 1-.077.567c-.304.707-.864 1.266-1.166 1.979a2.7 2.7 0 0 0-.18 1.16.493.493 0 0 1-.05.276c.097.234.224.456.377.66 0 0 .201.204.404.093.28-.16.23-.413.357-.69.128-.278.365-.32.741-.296.573 0 .687-.347.696-.604.008-.257.026-.394.2-.524.44-.394.376-.952.284-1.228Z" opacity=".5" style="mix-blend-mode:multiply"/>
    <g style="mix-blend-mode:multiply">
      <path fill="#68B42E" d="M7.254 6.463a1.321 1.321 0 0 1-.044-.138c-.01-.044-.026-.098-.036-.159 0-.03-.013-.065-.02-.1-.006-.035 0-.074-.013-.114-.013-.04 0-.08-.011-.122-.012-.043 0-.086 0-.131a2.421 2.421 0 0 1 0-.285c0-.05 0-.1.013-.152.013-.05.014-.1.021-.16.007-.058.018-.103.03-.159.01-.055.022-.103.032-.16.03-.101.062-.203.093-.302l.115-.284c.043-.089.087-.175.128-.256.02-.04.044-.077.065-.115.021-.038.046-.072.066-.105.035-.063.075-.124.119-.182l.1-.134.087-.116-.079.12-.092.141c-.037.053-.07.116-.11.185l-.06.107a1.15 1.15 0 0 0-.06.118c-.04.081-.079.167-.121.255-.043.087-.07.2-.113.296-.043.096-.063.2-.09.3l-.035.151c-.011.051-.024.102-.03.16a1.107 1.107 0 0 0-.009.139c0 .044-.01.098-.015.148-.01.097-.011.191-.014.28v.254a.4.4 0 0 0 .01.111c.01.036 0 .069.012.1.007.054.016.108.028.16l.023.106.01.043Z" style="mix-blend-mode:multiply"/>
      <path fill="#68B42E" d="M7.2 5.018a.688.688 0 0 1 .036-.134 1.022 1.022 0 0 1 .093-.188c.021-.037.045-.074.07-.108.028-.034.055-.074.087-.107.033-.033.063-.07.097-.104a1.714 1.714 0 0 1 .21-.185 2.43 2.43 0 0 1 .102-.076l.097-.064a.852.852 0 0 1 .083-.05l.066-.037.057-.032-.05.041a3.582 3.582 0 0 0-.138.102l-.09.069c-.031.025-.062.054-.097.08-.034.028-.067.06-.101.092s-.069.062-.1.095c-.03.034-.065.067-.096.1-.031.034-.06.07-.089.103-.03.033-.052.067-.075.099a1.316 1.316 0 0 0-.162.304Zm.327-.988a.63.63 0 0 1-.065-.118.568.568 0 0 1-.018-.062.102.102 0 0 1-.01-.034V3.78c0-.024 0-.05-.011-.077-.012-.027 0-.052 0-.078a.676.676 0 0 1 0-.081c0-.026 0-.051.013-.075s.01-.048.013-.07c.003-.023.014-.042.021-.063l.036-.087.015-.034a.202.202 0 0 1 0 .037c0 .022-.008.054-.015.092a.598.598 0 0 0-.013.063v.068c0 .024 0 .05-.01.074-.01.023 0 .05 0 .076v.217c0 .01 0 .043.01.062.01.02.008.037.011.051l.012.04.011.035Z" style="mix-blend-mode:multiply"/>
    </g>
    <path fill="#97C740" d="M10.787 7.381c.107-.356.287-.687.529-.973.242-.286.54-.522.878-.693.328-.16.357-.138.557-.397a1.155 1.155 0 0 1 1.072-.392c.417.085.45.426.351.81-.098.384.018.456.27.797s.387.875.144 1.199c-.242.323-.234.319-.252.561-.018.242-.163.319-.422.368-.258.05-.316.131-.468.43-.152.297-.412.366-.744.34-.332-.025-.288-.366-.558-.148-.27.218-.585.478-.982.218-.398-.26-.234-.368-.188-.526.045-.158-.18-.14-.35-.12-.243.025-.19-.124-.109-.466.082-.343.174-.528.272-1.008Z"/>
    <path fill="#97C740" d="M14.444 6.536c-.252-.341-.368-.411-.27-.797.089-.346.07-.657-.24-.778a.48.48 0 0 1-.056.142c-.067.104-.15.197-.245.277-.136.12-.269.244-.398.368a6.187 6.187 0 0 0-1.268 1.888 4.386 4.386 0 0 0-.218.566c-.044.16-.064.319-.12.459a1.102 1.102 0 0 1-.677.665c.06.07.131.13.211.178.396.254.71 0 .982-.218s.224.123.558.148c.334.026.593-.043.745-.341.152-.298.208-.376.468-.429.26-.052.404-.123.422-.368.018-.246 0-.236.252-.561.252-.325.105-.86-.146-1.199Z" opacity=".5" style="mix-blend-mode:multiply"/>
    <path fill="#68B42E" d="M19.288 6.571s-.02-.445.37-.399c.306.02.371-.138.419-.38.047-.243.258-.52.705-.372.447.148 1.514.622 2 .362s.694-.27.828-.121c.134.148.057.342-.01.478-.067.135.085.26.247.38.162.119.314.278.152.621-.162.343-.327.343-.49.27-.164-.074-.362-.093-.457.138-.095.231.008.493-.211.65-.22.155-.401-.04-.491-.103-.19-.13-.19.233-.562.289-.371.055-1.227.135-1.711.057-.485-.078-.904-.145-.972-.638-.069-.492.248-.773.183-1.232Z"/>
    <path fill="#3E9F32" d="M23.847 6.515c-.164-.12-.314-.24-.247-.38a.509.509 0 0 0 .06-.403c-.133.03-.26.085-.374.16a1.45 1.45 0 0 0-.429.454c-.08.144-.126.3-.193.45a.545.545 0 0 1-.164.226 1.26 1.26 0 0 1-.409.152c-.173.044-.35.077-.527.098a1.067 1.067 0 0 0-.302.055 1.6 1.6 0 0 0-.184.124 1.115 1.115 0 0 1-.428.143 1.8 1.8 0 0 0-.505.208c-.163.084-.507.28-.587.014-.015-.057-.021-.12-.04-.174-.02-.054-.066-.137-.09-.209a.414.414 0 0 1 .071-.309.626.626 0 0 0 .1-.279.652.652 0 0 0-.085-.285 1.514 1.514 0 0 0-.13-.23l-.026-.032a.538.538 0 0 0-.063.267c.065.459-.257.723-.19 1.222.067.5.49.565.972.638.48.073 1.34 0 1.711-.057.372-.058.372-.418.562-.289.093.064.276.26.49.102.215-.158.117-.416.212-.649.095-.233.285-.213.456-.138.172.074.328.073.491-.27.164-.343.01-.488-.152-.609Z"/>
    <path fill="#97C740" d="M14.236 10.622s.364.62.606.591c.242-.028.164-.371.386-.334.223.036.22.433.453.412a3.55 3.55 0 0 1 .68 0c.197.023.512-.02.716-.562.205-.542 1.126-1.956 1.99-2.666.404-.354.34-.368.262-.63-.079-.261.031-.237.128-.38.096-.144.049-.423-.164-.68-.213-.256-.445-.071-.655 0-.21.072-.183 0-.327-.16-.144-.159-.398-.07-.697.095-.3.166-.327.383-.597.233a.499.499 0 0 0-.722.237c-.14.305.07.742-.244 1.186-.445.638-.473.762-1.024 1.078-.552.316-.979 1.151-.79 1.58Z"/>
    <path fill="#97C740" d="M19.448 7.059c.099-.144.05-.423-.163-.68a.35.35 0 0 0-.06-.058 9.836 9.836 0 0 0-1.123.637 7.321 7.321 0 0 0-.712.535 7.995 7.995 0 0 1-.318.26.951.951 0 0 0-.306.318.85.85 0 0 1-.353.43.54.54 0 0 1-.417.028 1.388 1.388 0 0 1-.264-.117 1.83 1.83 0 0 1-.716.638c-.554.319-.968 1.151-.788 1.58.058.095.12.186.189.274.123-.184.304-.325.515-.402a.642.642 0 0 1 .556.034c.07.052.13.139.226.142.097.003.179-.07.277-.075.3-.015.49.358.56.585l.03.102c.164-.048.352-.185.491-.547.205-.54 1.126-1.956 1.99-2.665.404-.354.34-.369.262-.63-.079-.262.028-.246.124-.39Z" opacity=".5" style="mix-blend-mode:multiply"/>
    <path fill="#97C740" d="M19.826 1.964c.244-.113.513-.165.783-.15.386.045.35.21.327.341-.023.13.124.132.44.018.316-.115.52-.096.674.08.154.175.098.318-.018.506s-.126.334.099.404a.365.365 0 0 1 .213.246.345.345 0 0 1-.08.313c-.151.193-.34.062-.26.246.08.183-.072.245-.072.245l-2.146-.752s-.66-.534.04-1.497Z"/>
    <path fill="#97C740" d="M22.157 3.812a.734.734 0 0 1-.264-.182 2.017 2.017 0 0 1-.303-.478c-.063-.13-.144-.397-.327-.408-.183-.012-.39.087-.57.122-.137.026-.364.088-.49-.012-.152-.123-.064-.367-.041-.526a1.175 1.175 0 0 0-.021-.47 1.83 1.83 0 0 0-.318.11c-.7.957-.044 1.498-.044 1.498l2.148.747s.154-.06.073-.245c-.061-.142.037-.096.157-.156Z" style="mix-blend-mode:multiply"/>
    <path fill="#F2D038" d="m21.11 2.726-1.357.603v.012c-.051.375.011.957.615 1.585 1.016 1.049 2.127 1.09 2.127 1.09l.9-1.275c-1.844-.325-2.286-2.015-2.286-2.015Z"/>
    <path fill="#6C8424" d="M20.353 4.926c-.604-.625-.666-1.21-.615-1.585-.021.037-.093.16-.249.408.082 2.167 3.008 2.529 3.008 2.529l-.023-.262s-1.105-.041-2.12-1.09Z"/>
    <path fill="#E39042" d="m23.374 4.749-.9 1.275.023.262.828-.957c.034-.191.05-.385.05-.58Z"/>
    <path fill="#68B42E" d="M16.082 3.02s.848.189.838.508c-.01.319.066.572.686.752.62.18 1.001.16 1.473.542.47.383.818.32.959-.392.14-.71-.143-1.082-.316-1.358-.174-.276-.056-.435.173-.658.23-.224.12-.562-.358-.798-.478-.235-.143-.328-.36-.656-.218-.329-.555-.32-.818-.235-.264.085-.349.011-.328-.296.022-.308-.273-.464-.566-.429-.293.035-.386.293-.49.383-.174.148-.153.084-.37-.032-.218-.117-.588.01-.555.508.032.5-.056.52-.187.711-.13.192-.327.467-.075.69.252.224-.308.565.294.76Z"/>
    <path fill="#3E9F32" d="M19.594 4.581a6.118 6.118 0 0 1-1.096-1.31c-.201-.298-.416-.689-.8-.773-.257-.056-.491-.109-.668-.319-.293-.336-.24-.864-.144-1.263.063-.253.15-.5.259-.74-.07.08-.12.16-.164.206-.174.149-.152.085-.37-.031-.218-.117-.587.01-.555.508.033.499-.055.52-.186.711-.131.191-.327.467-.075.69.252.224-.308.558.294.753 0 0 .848.19.838.508-.01.32.065.573.686.753.62.18 1.001.16 1.472.542.373.296.655.319.835-.013a2.608 2.608 0 0 1-.326-.222Z"/>
    <g style="mix-blend-mode:multiply">
      <path fill="#68B42E" d="M16.72 1.841a3.91 3.91 0 0 0 .382.408c.066.06.14.111.22.15.09.042.184.074.284.11.1.037.204.072.31.118.025.01.05.024.076.035a.688.688 0 0 1 .075.042c.026.014.052.03.076.046l.032.024.035.03c.079.082.149.173.208.27.059.092.113.188.163.279.05.09.097.181.146.263.024.04.05.078.078.114.027.037.051.072.077.106l.133.186c.04.056.077.102.106.142l.092.123-.102-.118c-.03-.037-.07-.082-.113-.136l-.142-.18c-.024-.033-.052-.067-.08-.103-.028-.037-.057-.072-.084-.114-.05-.083-.101-.17-.153-.261-.053-.091-.105-.183-.164-.276a1.486 1.486 0 0 0-.203-.257l-.03-.027-.032-.025c-.02-.015-.046-.029-.069-.043a.632.632 0 0 0-.072-.04.795.795 0 0 0-.075-.035c-.1-.046-.205-.083-.303-.12a2.749 2.749 0 0 1-.285-.118.932.932 0 0 1-.224-.16 1.815 1.815 0 0 1-.163-.166 4.337 4.337 0 0 1-.112-.138l-.086-.129Z" style="mix-blend-mode:multiply"/>
      <path fill="#68B42E" d="M18.83 3.811s-.042 0-.101-.017l-.048-.011-.054-.011c-.036 0-.075-.016-.113-.026a2.934 2.934 0 0 1-.21-.067c-.055-.02-.094-.041-.094-.041a.96.96 0 0 1 .101.01c.06.01.14.026.218.047l.114.034a1.234 1.234 0 0 1 .186.083ZM17.442 1.21a1.45 1.45 0 0 0 .067.332 1.5 1.5 0 0 0 .056.159c.01.027.023.054.036.081.013.027.026.056.041.083.03.056.065.112.1.168l.057.082c.02.028.041.053.062.08.043.054.089.1.134.16l.131.148c.044.048.077.102.115.148a1.583 1.583 0 0 1 .154.265l.013.028v.028c0 .017.01.033.013.047a.294.294 0 0 1 0 .07.096.096 0 0 1 0 .024.323.323 0 0 0-.011-.09c0-.015-.012-.03-.019-.047l-.01-.025-.014-.027a1.493 1.493 0 0 0-.169-.25l-.057-.07a.788.788 0 0 0-.06-.07l-.135-.146c-.044-.05-.095-.1-.137-.16l-.062-.08c-.02-.031-.04-.058-.06-.087a2.061 2.061 0 0 1-.137-.26c-.011-.028-.023-.057-.032-.086a1.41 1.41 0 0 1-.084-.405c0-.033.004-.067.008-.1Zm.872.475v.048c0 .03.014.073.02.124.007.051.015.113.02.179.005.065.01.135.013.205.003.07 0 .14 0 .204 0 .066 0 .128-.01.18-.01.053-.013.096-.016.127v.047-.352c0-.064 0-.135-.009-.204-.008-.069 0-.139 0-.204v-.306c0-.032-.018-.048-.018-.048Z" style="mix-blend-mode:multiply"/>
    </g>
    <path fill="#89BD27" d="M19.894 2.098a.766.766 0 0 0-.3-.392 1.13 1.13 0 0 0-.303-.112c-.207-.067-.19-.261-.191-.424 0-.423-.354-.497-.699-.35-.013 0-.07.03-.044.023.268-.07.555-.076.655.231.05.149-.022.306.037.451a.367.367 0 0 0 .267.182.91.91 0 0 1 .353.174.883.883 0 0 1 .243.304c.02.032-.009-.06-.018-.087Z" style="mix-blend-mode:screen"/>
    <g style="mix-blend-mode:multiply">
      <path fill="#97C740" d="M13.444 5.528s-.04.042-.105.118c-.065.077-.163.185-.261.32-.053.068-.112.14-.164.22l-.09.12-.09.13c-.064.085-.121.18-.184.274-.062.094-.116.19-.173.29a6.726 6.726 0 0 0-.164.296l-.072.15-.036.073-.03.074-.06.145-.03.068c-.012.023-.015.048-.024.07l-.045.134c-.015.043-.032.085-.041.126-.022.082-.041.16-.06.224-.017.063-.022.127-.032.175l-.026.16s0-.056.016-.16c0-.048.01-.108.023-.177a5.612 5.612 0 0 1 .085-.356c.015-.044.028-.089.043-.137 0-.022.014-.046.023-.07l.026-.072.059-.146.03-.075.035-.073c.023-.051.048-.1.07-.16.05-.102.107-.2.164-.303.058-.102.118-.194.179-.29.06-.096.122-.186.186-.272l.094-.13c.03-.043.063-.08.093-.12.06-.076.12-.147.175-.213a6.22 6.22 0 0 1 .28-.31c.07-.072.106-.103.106-.103Z" style="mix-blend-mode:multiply"/>
      <path fill="#97C740" d="M12.633 6.523s0 .029-.02.076c-.02.048-.026.12-.04.205-.01.041-.015.087-.024.137-.008.049-.011.1-.018.159a1.9 1.9 0 0 0-.011.16c-.002.05 0 .113 0 .17v.17c0 .058 0 .11.013.16s.013.104.02.16l.01.07.014.065c.01.041.015.081.025.115.01.033.016.063.023.087l.02.077s-.012-.026-.03-.073l-.033-.085a2.006 2.006 0 0 1-.034-.113c-.012-.042-.013-.043-.018-.067-.005-.024-.012-.046-.015-.07-.01-.048-.023-.1-.03-.16-.006-.059-.014-.11-.017-.159-.004-.05 0-.115 0-.172v-.172c0-.056.013-.114.018-.168.013-.098.031-.195.055-.291.022-.085.046-.16.063-.2.016-.04.029-.081.029-.081Zm.131-.183-.053.019a2.973 2.973 0 0 0-.41.209l-.095.065a1.419 1.419 0 0 0-.093.07c-.03.024-.06.05-.087.074-.028.024-.053.05-.077.071a.649.649 0 0 0-.067.069c-.018.022-.04.04-.054.059-.015.02-.03.035-.04.048l-.036.041.03-.05.033-.053c.013-.021.03-.043.047-.067a.768.768 0 0 1 .06-.077c.024-.024.046-.053.074-.078.028-.028.057-.054.087-.078a.858.858 0 0 1 .095-.073.956.956 0 0 1 .1-.066c.034-.022.069-.038.103-.057a1.497 1.497 0 0 1 .332-.12.417.417 0 0 1 .05-.006Z" style="mix-blend-mode:multiply"/>
    </g>
    <path fill="#97C740" d="M11.116 2.634s-.509-1.134.398-1.62c.327-.11.836.04 1.122-.289.287-.328.459-.366.755-.237a1.326 1.326 0 0 0 1.06.059 1.171 1.171 0 0 1 1.12.06c.328.219.572.665.317 1.032-.255.366-.179.516-.203.725-.025.209-.215.568-.745.596-.53.029-.654.1-.775.418-.121.319-.316 1.116-1.06 1.082-.742-.033-1.58-1.063-1.989-1.826Z"/>
    <path fill="#97C740" d="M15.572.607a.971.971 0 0 0-.263-.129 2.06 2.06 0 0 1-.328.207c-.293.145-.614.222-.918.343-.726.29-1.49 1.078-1.8 1.79-.185.43-.085.601-.239 1.044.342.335.72.58 1.079.595.742.03.947-.765 1.058-1.082.112-.318.246-.388.776-.418.53-.03.723-.387.745-.596.02-.21-.053-.357.202-.726.256-.368.015-.81-.312-1.028Z" opacity=".5" style="mix-blend-mode:multiply"/>
    <path fill="#F5ACA2" d="m18.535 11.086-.126.236.225.23.076-.184-.175-.282Z"/>
    <path fill="#EF7E8A" d="M18.634 11.551c.408.014.816-.046 1.202-.177.012-.221.017-.159.017-.159l-1.146.16-.073.176Z"/>
    <path fill="#F39B99" d="m18.535 11.086.175.282 1.143-.161-.208-.34-1.11.219Z"/>
    <path fill="#97C740" d="M19.637 8.647s.77-.711 3.086-.014c.779-.018 1.309.318 1.309.75a.677.677 0 0 1-.098.39.702.702 0 0 1-.303.27c-.154.103-.211.31-.268.468-.058.157-.306.43-.771.318-.244-.054-.285-.34-.285-.34s-.49.5-.918.444c-.427-.056-.307-.478-.623-.499-.316-.02-.43.356-.805.206-.375-.15-.121-.34-.179-.562-.057-.221-.235-.087-.276-.318-.041-.231.147-.278.049-.372-.098-.094-.113-.543.082-.741Z"/>
    <path fill="#97C740" d="M23.199 9.833a2.706 2.706 0 0 1-1-.208c-.327-.159-.623-.379-.972-.478A3.26 3.26 0 0 0 20.316 9a2.81 2.81 0 0 0-.832.11.442.442 0 0 0 .07.28c.099.093-.088.133-.048.37.039.238.219.104.276.32.057.215-.195.411.178.56.374.15.491-.229.806-.205.314.024.203.443.623.5.42.055.918-.444.918-.444s.041.285.285.34c.465.106.715-.16.77-.32.056-.159.115-.364.269-.466a.876.876 0 0 0 .283-.25 2.822 2.822 0 0 1-.715.038Z" opacity=".5" style="mix-blend-mode:multiply"/>
    <g style="mix-blend-mode:multiply">
      <path fill="#97C740" d="M19.764 8.985h.424l.206.014c.074 0 .15.015.23.026.078.01.163.027.242.041.078.015.163.035.248.056l.123.035.06.018.061.02c.079.027.164.053.23.085.072.028.142.06.209.097l.093.05.046.022.04.027.146.094.105.081c.056.048.09.074.09.074l-.097-.064c-.03-.02-.067-.048-.11-.075l-.15-.085-.04-.024-.045-.022-.096-.044c-.064-.032-.136-.06-.208-.088-.072-.029-.15-.054-.23-.081l-.058-.021-.06-.016-.123-.034c-.08-.02-.164-.04-.244-.057a3.509 3.509 0 0 0-.24-.045c-.078-.01-.153-.024-.225-.032l-.205-.022a7.46 7.46 0 0 0-.306-.022l-.116-.008Z" style="mix-blend-mode:multiply"/>
      <path fill="#97C740" d="m21.04 9.108.048-.029c.042-.024.086-.044.131-.062l.092-.034c.032-.01.067-.022.104-.03.038-.008.076-.02.113-.025l.12-.02.12-.01h.119a.93.93 0 0 1 .206.01c.03 0 .057 0 .08.013l.062.013.054.013h-.401c-.075 0-.154.01-.23.019l-.118.016-.113.02a2.7 2.7 0 0 0-.197.048 1.855 1.855 0 0 0-.19.058Zm-.749-.115a1.165 1.165 0 0 1 .234.11c.041.022.082.052.125.081l.058.048a.55.55 0 0 1 .056.05l.047.049.041.046.05.076.017.03-.026-.022c-.014-.017-.039-.038-.064-.063l-.045-.039-.053-.044c-.016-.015-.037-.027-.055-.043l-.06-.047-.06-.043-.057-.041-.105-.073-.103-.075Z" style="mix-blend-mode:multiply"/>
    </g>
    <g style="mix-blend-mode:multiply">
      <path fill="#68B42E" d="M12.198 2.932a.075.075 0 0 1 .008-.02c0-.017.016-.041.028-.073.026-.064.063-.16.119-.26a2.94 2.94 0 0 1 .092-.167c.034-.06.073-.12.117-.179.045-.059.089-.122.138-.183.049-.06.101-.121.164-.18a3.7 3.7 0 0 1 .343-.319c.06-.048.116-.09.174-.13.057-.037.11-.074.163-.106.053-.032.098-.06.143-.083l.111-.059.098-.046-.093.056c-.031.017-.066.041-.107.067-.04.025-.085.057-.134.089-.049.032-.101.072-.163.113-.063.042-.108.086-.164.134a3.417 3.417 0 0 0-.327.319c-.054.056-.105.115-.164.174-.059.059-.096.118-.139.178a3.722 3.722 0 0 0-.357.584c-.014.032-.027.054-.036.07a.106.106 0 0 1-.01.019l-.004.002Z" style="mix-blend-mode:multiply"/>
      <path fill="#68B42E" d="m13.024 1.116-.031.126c-.012.038-.02.083-.033.129 0 .022-.01.048-.016.072a.864.864 0 0 0-.018.073l-.015.078a.633.633 0 0 0-.015.073c0 .047-.02.091-.024.13-.005.038-.012.07-.015.092a.097.097 0 0 0 0 .035v-.131a.997.997 0 0 1 .01-.207l.015-.078c.011-.05.026-.1.04-.147a.971.971 0 0 1 .05-.126.833.833 0 0 1 .052-.12Z" style="mix-blend-mode:multiply"/>
    </g>
    <g style="mix-blend-mode:multiply">
      <path fill="#97C740" d="m16.482 8.624.05-.095c.035-.06.084-.144.15-.241.032-.05.07-.1.109-.16a3.513 3.513 0 0 1 .278-.341c.052-.057.105-.114.164-.17l.083-.083.088-.078c.058-.053.117-.1.174-.147l.164-.129.08-.057.078-.05a3.23 3.23 0 0 1 .14-.084l.109-.06.097-.049-.09.06-.107.065-.13.092-.078.053-.076.06c-.053.042-.11.085-.164.133-.054.048-.115.095-.164.148l-.085.08-.083.083c-.058.054-.11.111-.164.167-.054.056-.101.113-.15.16-.05.046-.092.11-.135.159-.042.05-.08.102-.116.15-.07.092-.126.172-.163.23-.038.057-.06.104-.06.104Z" style="mix-blend-mode:multiply"/>
      <path fill="#97C740" d="m16.573 8.5.026-.026.077-.062.058-.035a.605.605 0 0 1 .063-.036l.072-.036a.524.524 0 0 1 .076-.03l.076-.029.077-.019.074-.016a.545.545 0 0 1 .066-.01l.1-.007h.037l-.036.011-.095.027a.533.533 0 0 0-.062.018l-.069.022-.075.024-.074.027c-.024.01-.05.018-.075.029l-.07.03a.648.648 0 0 0-.067.029l-.06.027-.086.044-.033.018Zm.233-.395a1.534 1.534 0 0 1 .034-.402c.012-.048.021-.099.036-.143.012-.041.027-.082.044-.121.015-.036.03-.064.04-.085l.016-.03v.033c0 .02-.01.053-.02.09-.01.036-.016.08-.028.124l-.014.072-.015.071c-.012.048-.02.098-.031.144-.012.046-.018.087-.026.124l-.02.088-.016.035Z" style="mix-blend-mode:multiply"/>
    </g>
    <path fill="#68B42E" d="M19.622 8.087s.038-.025.108-.067c.07-.041.163-.102.294-.167.131-.066.27-.139.43-.21l.25-.107c.085-.034.163-.069.26-.1.096-.033.177-.063.265-.089.088-.025.175-.054.262-.076.086-.022.163-.043.247-.059.083-.016.152-.034.222-.041l.19-.028.149-.012.128-.01-.128.02-.146.022-.186.036c-.07.011-.142.034-.221.051a3.718 3.718 0 0 0-.244.066l-.257.078c-.093.027-.175.06-.262.09-.086.03-.175.066-.262.098-.086.032-.163.067-.248.102-.085.035-.164.067-.23.1-.065.034-.142.066-.205.096a7.24 7.24 0 0 0-.303.148l-.113.06Zm1.398-.746a.93.93 0 0 1 .142-.191c.02-.02.039-.043.062-.064l.069-.062a.956.956 0 0 1 .075-.062l.078-.058a.83.83 0 0 1 .08-.05l.076-.042a.426.426 0 0 1 .072-.035l.11-.045.04-.014-.036.024-.1.062a.444.444 0 0 0-.065.041.915.915 0 0 0-.07.048c-.023.018-.053.034-.077.053l-.075.057a.856.856 0 0 0-.074.06l-.07.058a.755.755 0 0 0-.064.056c-.022.019-.043.035-.06.053-.016.017-.063.058-.081.08l-.031.031Z" style="mix-blend-mode:multiply"/>
    <path fill="#E39042" d="M16.704 4.338c-.242-.174-.34-.458-.098-.917l-.028-.196s-.592.666.126 1.113Z"/>
    <path fill="#6C8424" d="M15.873 5.833c-1.586-.512-1.636-1.452-1.636-1.626a1.63 1.63 0 0 0 .104.894c.491 1.276 3.14 1.472 4.165.657a33.587 33.587 0 0 0-.057-.362c-.33.225-1.37.821-2.576.437Z"/>
    <path fill="#F2D038" d="M15.873 5.833c1.206.389 2.247-.212 2.576-.437-.066-.424-.131-.807-.131-.807s-1.111.107-1.614-.251c-.718-.447-.126-1.116-.126-1.116s-.216-.126-.818-.098c-.602.03-.764-.065-.764-.065a1.922 1.922 0 0 0-.746 1.145c-.013.177.037 1.117 1.623 1.629Z"/>
    <path fill="#F2D038" d="M15.71 5.317c-.352-.18-.688-.303-.942-.62a.9.9 0 0 1-.193-.692c.041-.27.218-.42.349-.638.028-.048 0-.097-.05-.045-.068.085-.163.14-.232.23a1.6 1.6 0 0 0-.163.319 1.078 1.078 0 0 0-.013.72c.139.47.684.833 1.162.909.06.005.147-.15.081-.183Zm.422.21c-.074-.03-.164-.041-.225-.103-.06-.062-.1.059-.078.095a.255.255 0 0 0 .258.123c.03-.008.092-.096.045-.115Z" style="mix-blend-mode:screen"/>
    <path fill="#fff" d="M18.116 8.023a3.189 3.189 0 0 0-1.145.514c-.01.008-.02.047 0 .033a4.72 4.72 0 0 1 1.145-.496c.009-.006.03-.059 0-.05Zm.449-.071c-.066 0-.131.01-.197.012-.022 0-.045.06-.02.058l.196-.015c.022-.001.045-.057.02-.055Zm-8.056 1.536a3.19 3.19 0 0 0-1.267.063c-.013 0-.037.038-.013.032a4.76 4.76 0 0 1 1.244-.05c.026.002.065-.041.036-.045Zm.443.094c-.062-.02-.126-.036-.186-.059-.023-.008-.067.039-.043.048.063.02.126.035.188.058.022.006.064-.037.041-.047Z"/>
    <g style="mix-blend-mode:multiply">
      <path fill="#68B42E" d="M6.765 5.285s-.022.035-.054.097l-.058.115-.067.15a4.155 4.155 0 0 0-.142.384l-.034.108-.03.112c-.023.076-.036.16-.054.232-.018.074-.03.16-.042.235-.013.075-.02.16-.03.228-.01.068-.01.146-.016.215-.007.069 0 .134 0 .193v.395l-.012-.097c0-.035-.01-.078-.014-.126a1.272 1.272 0 0 1-.01-.16v-.195c0-.07 0-.142.01-.217.01-.075.013-.16.024-.231.012-.072.023-.16.04-.24.016-.08.034-.159.058-.232l.033-.113.036-.11c.023-.074.052-.14.079-.204.026-.064.052-.125.08-.18.015-.026.026-.052.04-.077l.037-.069c.024-.043.047-.08.065-.11a.847.847 0 0 1 .06-.103Z" style="mix-blend-mode:multiply"/>
      <path fill="#68B42E" d="M6.495 5.828v.06c0 .036.008.087.015.149.006.062.014.135.026.214 0 .038.011.078.018.118l.021.122c.008.042.016.082.026.121.01.04.018.08.03.118.011.039.018.074.03.107.01.034.02.067.032.096l.03.081c.007.026.019.043.025.06l.022.055-.031-.05a1.085 1.085 0 0 1-.074-.135c-.015-.027-.026-.06-.04-.094a.94.94 0 0 1-.04-.108 1.215 1.215 0 0 1-.035-.117c-.01-.04-.018-.083-.027-.124a2.754 2.754 0 0 1-.035-.246c-.006-.078 0-.159-.01-.216-.01-.058 0-.115 0-.16l.017-.05Zm-.226.767-.023.034c-.015.019-.034.05-.057.086-.023.035-.05.08-.08.124-.03.045-.028.046-.041.072a.66.66 0 0 0-.043.073l-.04.075-.019.037c0 .013-.011.025-.016.036-.02.05-.046.095-.059.134a.984.984 0 0 1-.036.098l-.015.038v-.04c0-.024.008-.06.017-.104a.385.385 0 0 1 .018-.068c0-.024.018-.048.026-.075a.397.397 0 0 1 .033-.078l.039-.077c.013-.027.03-.05.044-.076a1.295 1.295 0 0 1 .216-.261.283.283 0 0 1 .036-.028Z" style="mix-blend-mode:multiply"/>
    </g>
    <path fill="#89BD27" d="M6.028 4.92c-.122.088-.253.151-.29.319-.073.352.42.521-.086.857-.278.185-.925.694-.54 1.048.056.052.015 0-.021-.047-.337-.457.654-.797.85-1.115a.445.445 0 0 0 .065-.369.835.835 0 0 0-.094-.2c-.096-.16.023-.3.133-.43.01-.02.026-.093-.017-.063Z" style="mix-blend-mode:screen"/>
    <path fill="#E1CCBB" d="m17.918 2.815-.188.306v.17l1.232.48.385-.403-.064-.318s-.947-.29-1.365-.235Zm-4.197 4.126a5.862 5.862 0 0 0-1.407.099l-.141.429.034.319 1.596.01-.018-.368-.064-.489Zm-4.23-3.375-.71-.084a3.821 3.821 0 0 0-.362 1.508l.115.368.409.034.63-1.55-.082-.264v-.012Zm3.402-1.312.02.435.163.096a3.172 3.172 0 0 1 1.768-.234l.06-.147.164-.414a2.426 2.426 0 0 0-2.175.264Zm8.987 4.04-.355-.308s-1.618 0-1.76 1.362v.017l.043.223.56.19s.191-.899 1.535-1.224l-.023-.26Zm-1.129-.51.059.075.57-.01.044-.09a2.765 2.765 0 0 0 .229-1.518c-.414-.01-.684 0-.684 0v.01l-.087.106s.111.885-.144 1.395l.013.032Z" style="mix-blend-mode:multiply"/>
    <path fill="#F39B99" d="M19.275 2.886s-.94-.284-1.357-.228l-.188.306 1.237.338.308-.416Z"/>
    <path fill="#F5ACA2" d="m17.73 2.963-.008.171 1.232.477.013-.31-1.237-.338Z"/>
    <path fill="#EF7E8A" d="m19.275 2.885-.308.416-.013.31.385-.404-.064-.322Z"/>
    <path fill="#F39B99" d="M13.721 6.783a5.862 5.862 0 0 0-1.407.1l-.141.428 1.612-.032-.064-.496Z"/>
    <path fill="#EF7E8A" d="m12.173 7.31.034.326 1.598.01-.02-.367-1.612.032Z"/>
    <path fill="#F39B99" d="M9.491 3.421v-.013l-.71-.084a3.826 3.826 0 0 0-.362 1.51l.452.084s.32-1.083.62-1.497Z"/>
    <path fill="#F5ACA2" d="m8.416 4.833.115.367.409.034-.072-.316-.452-.085Z"/>
    <path fill="#EF7E8A" d="M9.491 3.42c-.301.415-.625 1.498-.625 1.498l.072.319.633-1.55-.08-.266Z"/>
    <path fill="#F39B99" d="m12.893 2.096.226.319a2.044 2.044 0 0 1 1.785-.16l.164-.414a2.431 2.431 0 0 0-2.175.255Z"/>
    <path fill="#F5ACA2" d="m12.893 2.096.02.435.171.096.035-.215-.226-.316Z"/>
    <path fill="#EF7E8A" d="m13.119 2.412-.028.215a3.172 3.172 0 0 1 1.753-.236l.06-.146a2.057 2.057 0 0 0-1.785.167Z"/>
    <path fill="#F39B99" d="m21.88 6.136-.355-.308s-1.618 0-1.76 1.362v.017c.184.043.362.112.526.206 0-.416.578-1.065 1.59-1.277Z"/>
    <path fill="#F5ACA2" d="m19.768 7.207.044.223.56.188-.08-.205a1.968 1.968 0 0 0-.524-.206Z"/>
    <path fill="#EF7E8A" d="m21.906 6.396-.026-.26c-1.011.212-1.595.86-1.59 1.275l.081.206s.192-.895 1.535-1.221Z"/>
    <path fill="#F5ACA2" d="M21.058 4.865a2.339 2.339 0 0 0-.098-.766l-.086.105s.11.885-.144 1.395c.224.044.3-.338.328-.734Z"/>
    <path fill="#EF7E8A" d="m20.81 5.7.57-.009s.016-.03.044-.089l-.673.024.059.075Z"/>
    <path fill="#F39B99" d="M21.653 4.083c-.414-.01-.684 0-.684 0v.011a2.4 2.4 0 0 1 .098.767c-.03.394-.105.778-.328.733l.022.027.672-.024c.215-.475.29-1 .22-1.514Z"/>
    <path fill="#E1CCBB" d="M10.088 9.507c-.982 0-1.774.354-1.774.797a.422.422 0 0 0 0 .064s.25 1.226 1.78 1.239c1.53.013 1.747-.912 1.766-1.275v-.036c0-.435-.793-.789-1.772-.789Zm2.326-6.328c-.511-.67-1.334-.916-1.838-.55-.504.365-.491 1.205.011 1.873.503.668 1.334.918 1.838.55.504-.369.502-1.204-.011-1.873Zm-1.673 5.525h.015a4.17 4.17 0 0 0 .417-.945 1.184 1.184 0 0 0-.08-.149c-.203-.33-.835-1.088-2.278-.972-.434.035-1.509.362-1.86 1.031 0 .008-.01.018-.014.026-.068.454-.068.494-.068.494l.666.974s1.188-.75 3.202-.459Zm8.912-.282c-.257-.54-1.186-.57-2.137-.139-.315.14-.605.325-.863.55-.4-.16-1.178-.331-2.308.021-.476.13-.9.396-1.22.762a2.4 2.4 0 0 0-.58 1.295l.124.35 1.258.236c.213-.397.554-.716.97-.908a2.167 2.167 0 0 1 1.336-.155l.073-.132a1.1 1.1 0 0 0 .361.45c.16.115.347.189.544.211.982.121 2.232-.459 2.465-1.913a.855.855 0 0 0-.023-.628Z" style="mix-blend-mode:multiply"/>
    <path fill="#BC2921" d="M8.234 10.231s.25 1.226 1.779 1.247c1.528.02 1.746-.92 1.769-1.275l-3.548.028Z"/>
    <path fill="#E83426" d="M11.782 10.168c0 .437-.792.797-1.772.797s-1.773-.356-1.773-.797c0-.442.794-.797 1.773-.797.978 0 1.772.354 1.772.797Z"/>
    <path fill="#EE523B" d="M11.545 10.102c0 .343-.69.62-1.539.62s-1.536-.277-1.536-.62c0-.343.687-.62 1.536-.62.85 0 1.539.277 1.539.62Z"/>
    <path fill="#CA2C21" d="M10.636 10.043s.58.06.567-.105c-.013-.164-.655-.394-1.597-.27-.943.125-1.365.535-.606.682.76.146 1.812.255 2.062.031.25-.223-.057-.256-.426-.338Z"/>
    <path fill="#FFBE60" d="M10.357 10.172s.177.067.164.14c-.014.07-.32-.187-.164-.14Zm.018-.249s.183-.124.243-.074c.061.049-.392.194-.243.074Zm-.295-.062s.11-.138.174-.1c.063.038-.26.226-.174.1Zm-.286-.007s.042-.112.091-.1c.05.014-.12.197-.091.1Zm-.291.02s.024-.065.054-.057-.066.115-.054.057Zm.479.274s.082.085.05.121c-.034.037-.125-.19-.05-.12Zm-.406.01s.046.046.028.065c-.018.02-.069-.102-.028-.065Z"/>
    <path fill="#E83426" d="M12.333 3.048c.51.668.516 1.507.012 1.873-.504.367-1.327.118-1.838-.55-.51-.668-.517-1.501-.011-1.873.505-.371 1.327-.12 1.837.55Z"/>
    <path fill="#EE523B" d="M12.216 3.126c.47.617.49 1.376.054 1.695-.437.319-1.18.08-1.651-.537-.472-.617-.491-1.376-.054-1.695.437-.319 1.18-.08 1.65.537Z"/>
    <path fill="#CA2C21" d="M11.162 3.225s-.24-.542-.164-.598c.075-.056.758.16 1.121.77s.28 1.081.196 1.172c-.083.09-.438-.3-.438-.3s.224.445.13.5c-.093.053-.952.119-1.454-.882-.277-.582-.13-1.772.609-.662Z"/>
    <path fill="#FFBE60" d="M11.602 4.327s0 .134-.057.142c-.057.008.05-.257.057-.142Zm.452-.388s.106 0 .113.045c.006.044-.207-.042-.113-.045ZM11.82 3.7s.116-.035.137.008c.021.043-.236.029-.137-.008Zm-.166-.306s.118-.035.138.008c.02.043-.234.029-.138-.008Zm-.199-.298s0-.12.049-.126c.049-.007-.041.226-.05.126Zm-.29.811s-.13.04-.152 0c-.023-.04.258-.041.152 0Zm-.157-.261s-.173.025-.193-.04c-.02-.065.339.01.193.04Zm-.077-.269s-.234-.027-.255-.1c-.021-.07.451.114.255.1Zm.471.768s-.073.114-.124.092c-.05-.022.177-.188.124-.092Z"/>
    <path fill="#fff" d="M10.463 4.016a1.567 1.567 0 0 1-.096-1.172c.011-.034-.022-.024-.033 0a1.49 1.49 0 0 0 .078 1.235c.017.028.06-.038.051-.063Zm.121.186a.423.423 0 0 1-.049-.059c-.016-.019-.052.032-.036.047a.499.499 0 0 0 .056.062c.018.011.047-.037.03-.05Z"/>
    <path fill="#F2D038" d="M16.089 10.105c.337-.67.548-1.116.645-1.33-.328-.16-1.162-.46-2.47-.053-.475.13-.9.396-1.22.762a2.4 2.4 0 0 0-.58 1.294l1.26.381s.522-1.5 2.365-1.054Z"/>
    <path fill="#CC752E" d="m12.458 10.778.126.351 1.258.238-.118-.203-1.266-.386Z"/>
    <path fill="#E39042" d="m13.725 11.16.117.202s.675-1.366 2.304-1.065l-.057-.196c-1.842-.442-2.364 1.058-2.364 1.058Z"/>
    <path fill="#CC752E" d="M16.734 8.768a40.72 40.72 0 0 1-.645 1.331l.057.196c.506-.892.69-1.275.69-1.275s-.037-.07-.102-.252Z"/>
    <path fill="#F2D038" d="M15.307 8.632a2.558 2.558 0 0 1-.429.008 2.452 2.452 0 0 0-.455.094 2.69 2.69 0 0 0-.785.39 3.457 3.457 0 0 0-.588.541 2.12 2.12 0 0 0-.44.697c-.026.084.05.092.09.022A3.4 3.4 0 0 1 13.775 9.2c.243-.154.509-.27.789-.341.172-.048.348-.078.527-.091a.471.471 0 0 0 .203-.039c.03-.008.072-.12.013-.097Zm.484-.002a1.374 1.374 0 0 0-.229 0c-.043 0-.095.108-.043.11.08.006.159.006.238 0 .036-.004.086-.103.034-.11Z" style="mix-blend-mode:screen"/>
    <path fill="#F2D038" d="m10.543 8.29.468-.812c-.203-.33-.833-1.09-2.276-.974-.435.032-1.509.367-1.862 1.035l.685 1.087s1.044-.902 2.985-.336Z"/>
    <path fill="#CC752E" d="M6.873 7.539a.206.206 0 0 0-.013.027c-.072.452-.072.49-.072.49l.664.975.107-.405-.686-1.087Zm4.218.091a1.184 1.184 0 0 0-.08-.149l-.468.809.116.27v.009h.017c.177-.296.316-.611.415-.94Z"/>
    <path fill="#E39042" d="M10.543 8.29c-1.94-.566-2.983.336-2.983.336l-.106.405s1.193-.75 3.205-.46v-.007l-.116-.274Z"/>
    <path fill="#F2D038" d="M10.538 7.148c-.15-.23-.448-.319-.702-.413a2.533 2.533 0 0 0-1.081-.108c-.583.048-1.208.265-1.588.711-.026.032-.023.115.03.067a2.659 2.659 0 0 1 1.687-.619c.599-.03 1.073.198 1.566.491.052.03.113-.089.088-.129Zm.205.185a.301.301 0 0 0-.064-.072c-.026-.025-.085.063-.06.088a.288.288 0 0 1 .052.073c.011.026.047 0 .055-.015a.073.073 0 0 0 .019-.035.07.07 0 0 0-.002-.039Z" style="mix-blend-mode:screen"/>
    <path fill="#BC2921" d="M16.066 9.618s.072 1.093 1.059 1.214c.986.122 2.233-.459 2.464-1.913-.49.62-3.523.699-3.523.699Z"/>
    <path fill="#E83426" d="M19.573 8.29c.257.538-.236 1.422-1.185 1.852-.95.43-2.006.247-2.263-.292-.257-.538.36-1.267 1.309-1.697.949-.43 1.875-.402 2.139.137Z"/>
    <path fill="#EE523B" d="M19.43 8.334c.257.423-.248 1.154-1.12 1.55-.873.395-1.819.277-2.031-.17-.213-.446.368-1.085 1.243-1.475.717-.318 1.624-.369 1.909.095Z"/>
    <path fill="#CA2C21" d="m18.089 8.714 1.145-.348s.504.249-.339.97c-.842.723-1.94.874-2.353.48-.242-.304.13-1.184 1.403-1.624.304-.084.68-.097.76 0 .08.098-.616.522-.616.522Z"/>
    <path fill="#FFBE60" d="M17.346 9.307s-.48.428-.602.349c-.123-.08.404-.278.602-.35Zm.622-.668a.603.603 0 0 1 .163-.367c.056-.059.007.26-.163.367Zm-.321.113a.428.428 0 0 1 .023-.266c.06-.131.06.081-.023.266Zm-.275-.054s.055.141 0 .172c-.056.03-.054-.29 0-.172Zm-.339.22s.098.092.066.135c-.033.043-.154-.209-.066-.135Zm-.178.223s.093.051.078.09c-.014.04-.168-.127-.078-.09Zm.68.673s-.052-.09-.02-.117c.034-.027.071.187.02.117Zm.249-.09s-.11-.1-.075-.148c.034-.048.175.223.075.148Zm.352-.186s-.126-.08-.101-.133c.024-.052.214.193.101.133Zm.365-.273s-.187-.027-.187-.102c0-.074.35.117.187.102Zm.365-.35s-.216.054-.25-.027c-.035-.082.431-.03.25.027Z"/>
    <path fill="#97C740" d="M17.616 6.523c-.164.079-.235.193-.416.196-.093 0-.25-.12-.327-.122a.475.475 0 0 0-.37.134c-.328.277-.077.864-.264 1.205-.023.04.012.057.036.019a.941.941 0 0 0 .141-.336c.064-.283-.052-.718.327-.864.117-.047.328.068.457.066.13-.001.262-.132.381-.218.023-.025.115-.12.035-.08Zm-4.088-1.477A.614.614 0 0 0 13 5.23c-.094.087-.164.189-.265.273a1.88 1.88 0 0 1-.536.276c-.5.226-.74.56-.945 1.052-.035.078-.056.16-.023.1a3.99 3.99 0 0 1 .438-.664c.199-.204.448-.354.723-.437.16-.063.305-.155.428-.271.225-.207.337-.388.675-.429.03-.003.077-.08.033-.084Z" style="mix-blend-mode:screen"/>
    <path fill="#FFFBDC" d="M16.924 4.89a.089.089 0 0 0-.066.039.123.123 0 0 0-.034.078c0 .022 0 .053.032.054.058 0 .1-.081.1-.127 0-.02-.008-.045-.032-.045Zm1.036.313c-.056 0-.114.136-.053.136.06 0 .114-.136.054-.136Zm-2.198-.687c-.07 0-.144.17-.068.17.077 0 .144-.17.068-.17Zm.957 1.017v-.01c-.016-.02-.043 0-.057 0a.124.124 0 0 0-.04.08.114.114 0 0 0 0 .053c.002.005.004.01.008.013a.03.03 0 0 0 .042.001.07.07 0 0 0 .02-.017.128.128 0 0 0 .042-.083c-.004-.011-.002-.032-.015-.037Zm.791-1.944a.043.043 0 0 0-.04 0c-.034 0-.059.022-.077.05-.036.052-.016.138.06.125a.121.121 0 0 0 .074-.078c.017-.03.022-.08-.018-.097Zm-1.004-1.172c-.01-.045-.065-.037-.09-.011a.085.085 0 0 0-.028.099c.023.04.076 0 .089-.026v-.01a.078.078 0 0 0 .03-.052Zm3.949 1.481a.08.08 0 0 1-.028 0c-.035-.02-.067.044-.074.067-.006.022 0 .074.044.074.045 0 .077-.06.072-.098-.005-.039-.001-.04-.014-.043Zm-5.44-.113c-.027 0-.055.068-.026.068.03 0 .056-.068.026-.068Zm-1.297-.818v.01c-.013.015-.015.049 0 .04.015-.01.028-.018.03-.025a.052.052 0 0 0 0-.03c-.002-.02-.024-.003-.03.005Zm-.756.558c-.03 0-.062.072-.028.072s.06-.072.028-.072Zm2.171 1.34c-.024 0-.049.06-.023.06.027 0 .05-.06.023-.06Zm1.764-3.749c-.021 0-.044.052-.02.052.025 0 .045-.052.02-.052ZM11.908 2.15a.031.031 0 0 0-.015-.014s0-.01-.01-.012a.062.062 0 0 0-.06.017.05.05 0 0 0-.011.057c.022.045.072.021.091-.012a.034.034 0 0 0 .005-.035Zm-2.073.337a.046.046 0 0 0-.045-.016.072.072 0 0 0-.02.008l-.017.011c-.02.022-.041.072-.01.094 0 .011.016.026.028.024a.071.071 0 0 0 .037-.015.068.068 0 0 0 .022-.033v-.014a.064.064 0 0 0 .005-.06Zm-.671.633c.007-.01.01-.02.011-.032a.017.017 0 0 0 0-.013.03.03 0 0 0-.01-.029.031.031 0 0 0-.032-.004c-.025 0-.044.024-.048.048a.055.055 0 0 0 0 .052c.018.034.058.016.079-.014V3.12ZM7.287 5.728a.062.062 0 0 0-.075.017.105.105 0 0 0-.045.067c-.013.062.066.082.112.06a.102.102 0 0 0 .045-.082.067.067 0 0 0-.01-.036.07.07 0 0 0-.027-.026Zm3.217.379a.043.043 0 0 0-.025-.032.045.045 0 0 0-.04.002.058.058 0 0 0-.025.024.064.064 0 0 0-.021.052c0 .028.021.063.052.063a.07.07 0 0 0 .037-.017.066.066 0 0 0 .02-.034V6.15a.049.049 0 0 0 .002-.043Zm-.804.778a.023.023 0 0 0-.026 0c-.016 0-.032.021-.037.034a.038.038 0 0 0 0 .043.037.037 0 0 0 .03 0c.037-.005.06-.054.033-.077Zm-3.187.767h-.01a.071.071 0 0 0-.03.03.069.069 0 0 0-.008.043.04.04 0 0 0 .023.028.042.042 0 0 0 .036 0 .025.025 0 0 0 .018-.012.076.076 0 0 0 .022-.024c.027-.035-.002-.086-.051-.065Zm-.071.956c0-.028-.029-.041-.055-.036a.065.065 0 0 0-.037.026.062.062 0 0 0-.01.042c0 .006.003.012.007.017a.037.037 0 0 0 .032.014.038.038 0 0 0 .018-.005.06.06 0 0 0 .033-.021.058.058 0 0 0 .012-.037Zm-.362-.2c-.019 0-.035.02-.037.033v.013a.051.051 0 0 0 0 .035c0 .013.021.011.034 0a.04.04 0 0 0 .022-.02s.006-.049-.02-.061Zm1.814-1.04c-.025 0-.048.058-.023.058s.047-.058.023-.058Zm.748.166-.012-.01-.01-.01h-.032a.074.074 0 0 0-.035.05.034.034 0 0 0 .014.04.035.035 0 0 0 .014.006c.033 0 .052-.027.059-.054v-.014s.005-.005.002-.008ZM7.25 8.935a.016.016 0 0 0 0-.014c-.04-.027-.08.028-.074.064 0 .023.013.043.042.03a.07.07 0 0 0 .031-.08Zm2.032-.048a.024.024 0 0 0-.015 0 .059.059 0 0 0-.044.021.062.062 0 0 0-.013.066c.011.02.029.02.05.015.022-.004.084-.098.022-.102Zm2.318.315c-.03-.035-.075.016-.07.05 0 .01 0 .028.011.028.02 0 .038-.009.051-.022a.045.045 0 0 0 .008-.056Zm1.179-.651a.018.018 0 0 0 0-.016.027.027 0 0 0-.008-.01.028.028 0 0 0-.037 0 .07.07 0 0 0-.03.06.04.04 0 0 0 0 .028c.03.037.071-.008.078-.041a.091.091 0 0 0-.003-.021Zm.871-.446c-.068 0-.081.137-.01.125a.035.035 0 0 0 .017 0c.053-.031.057-.127-.006-.125Zm-.173-2.304a.043.043 0 0 0 0-.017.012.012 0 0 0 0-.015.078.078 0 0 0-.1.012.074.074 0 0 0-.018.031.075.075 0 0 0 0 .079.06.06 0 0 0 .03.023.062.062 0 0 0 .038.002.088.088 0 0 0 .042-.035.084.084 0 0 0 .013-.053.044.044 0 0 0-.005-.027Zm-1.513.431v-.023a.052.052 0 0 0-.04.012.049.049 0 0 0-.018.036c0 .03.028.032.05.023.02-.01.022-.037.008-.048Zm2.021 3.716a.055.055 0 0 0-.043.017.112.112 0 0 0-.047.104.06.06 0 0 0 .023.034.061.061 0 0 0 .04.01.105.105 0 0 0 .07-.052.07.07 0 0 0-.01-.098.075.075 0 0 0-.033-.015Zm-.15.545h-.01a.037.037 0 0 0-.048 0 .072.072 0 0 0-.028.04.04.04 0 0 0-.003.027.041.041 0 0 0 .014.022c.008.006.017.01.026.01a.05.05 0 0 0 .027-.008c.026-.011.063-.063.022-.091Zm-.744-.223h-.018c-.021 0-.04.049-.02.047h.018c.01-.003.033-.046.02-.047Zm2.782-1.069s0-.01-.01-.01h-.011a.05.05 0 0 0-.046.015.072.072 0 0 0-.021.037v.008a.047.047 0 0 0 0 .029c.032.062.113 0 .108-.055a.051.051 0 0 0-.02-.024Zm1.74-1.579a.062.062 0 0 0-.036-.028.064.064 0 0 0-.045.004.06.06 0 0 0-.037.028.101.101 0 0 0-.015.034.088.088 0 0 0 0 .041c0 .01.004.018.01.025a.043.043 0 0 0 .024.014.079.079 0 0 0 .079-.013.09.09 0 0 0 .02-.105Zm1.042-.478h-.01c-.011 0-.024.017-.028.027-.003.01-.01.05.018.052a.053.053 0 0 0 .03-.016.05.05 0 0 0 .013-.032.024.024 0 0 0-.003-.021.025.025 0 0 0-.02-.01Zm2.039 1.465c0-.021-.026-.032-.043-.04-.016-.008-.037 0-.05.033a.085.085 0 0 0-.027.058.05.05 0 0 0 .036.048.09.09 0 0 0 .067-.032.083.083 0 0 0 .017-.067Zm.01 1.396c0-.014-.028-.016-.041-.014a.042.042 0 0 0-.018.01.055.055 0 0 0-.03.014c-.036.031-.03.092.028.084a.077.077 0 0 0 .052-.033.07.07 0 0 0 .009-.06Zm.814-2.16a.033.033 0 0 0-.022.01.085.085 0 0 0-.048.049.078.078 0 0 0 .026.086c.041.025.087-.032.094-.066a.067.067 0 0 0-.009-.049.07.07 0 0 0-.04-.03Zm.979-.541a.07.07 0 0 0-.04 0 .13.13 0 0 0-.07.054.125.125 0 0 0-.02.085c0 .037.052.051.084.048a.117.117 0 0 0 .065-.03.112.112 0 0 0 .035-.06.077.077 0 0 0 .003-.03.077.077 0 0 0-.03-.052.081.081 0 0 0-.027-.015Zm-.833-1.991c-.013-.017-.038-.033-.059-.02a.078.078 0 0 0-.047.065.091.091 0 0 0 .02.086.05.05 0 0 0 .055.01.103.103 0 0 0 .048-.11.075.075 0 0 0-.017-.03Zm.792-.035a.035.035 0 0 0-.056 0c-.035 0-.058.06-.044.091a.08.08 0 0 0 0 .021c.013.02.041 0 .053-.008a.098.098 0 0 0 .03-.056c.015-.017.024-.04.017-.048Zm-3.353.607a.038.038 0 0 0-.033 0c-.014 0-.03.02-.032.03-.004.009 0 .055.026.063a.07.07 0 0 0 .046-.013.067.067 0 0 0 .026-.04c.01-.017-.007-.027-.033-.04Z"/>
  </g>
  <defs>
    <clipPath id="a">
      <path fill="#fff" d="M0 0h29v14H0z"/>
    </clipPath>
  </defs>
</svg>
