<svg xmlns="http://www.w3.org/2000/svg" width="116" height="80" fill="none" viewBox="0 0 116 80">
  <g clip-path="url(#a)">
    <path fill="#DADADA" d="M115.856 48.053C115.856 65.698 89.929 80 57.948 80 25.966 80 0 65.698 0 48.053s25.927-31.947 57.915-31.947 57.941 14.301 57.941 31.947Z"/>
    <path fill="#F4F4F4" d="M116 46.604c0 17.655-25.927 31.957-57.915 31.957S.177 64.259.177 46.604c0-17.654 25.927-31.947 57.908-31.947C90.067 14.657 116 28.968 116 46.604Z"/>
    <path fill="#EBEAEA" d="M97.41 43.152c0 12.034-17.672 21.79-39.495 21.79-21.823 0-39.496-9.756-39.496-21.79 0-12.034 17.673-21.79 39.496-21.79 21.823 0 39.496 9.756 39.496 21.79Z"/>
    <path fill="#F4F4F4" d="M96.036 43.553c0 11.414-17.07 20.678-38.121 20.678-21.05 0-38.128-9.264-38.128-20.678 0-11.414 17.07-20.67 38.128-20.67 21.057 0 38.121 9.256 38.121 20.67Z"/>
    <path fill="#006EC3" d="M57.915 16.916c14.983 0 29.063 3.134 39.64 8.819 5.093 2.732 9.079 5.902 11.848 9.428 2.768 3.525 4.176 7.206 4.176 10.931 0 3.726-1.408 7.461-4.176 10.977-2.769 3.517-6.755 6.696-11.874 9.474-10.578 5.685-24.657 8.818-39.64 8.818S28.82 72.23 18.243 66.545c-5.066-2.778-9.079-5.912-11.821-9.428-2.743-3.516-4.17-7.215-4.17-10.977 0-3.762 1.401-7.46 4.17-10.931 2.768-3.471 6.755-6.696 11.847-9.429 10.578-5.739 24.657-8.864 39.646-8.864Zm0-1.138c-31.196 0-56.481 13.591-56.481 30.362 0 16.77 25.285 30.38 56.481 30.38 31.197 0 56.475-13.591 56.475-30.353 0-16.761-25.285-30.39-56.475-30.39Z"/>
    <path fill="#006EC3" d="M57.915 18.219c14.4 0 27.975 2.915 38.154 8.198 4.935 2.56 8.797 5.548 11.487 8.855 2.69 3.307 4.117 6.923 4.117 10.558s-1.381 7.178-4.117 10.549c-2.736 3.37-6.545 6.294-11.487 8.863-10.179 5.302-23.734 8.199-38.154 8.199-14.42 0-27.976-2.924-38.167-8.199-4.929-2.569-8.79-5.547-11.481-8.863-2.69-3.316-4.117-6.914-4.117-10.55 0-3.634 1.387-7.187 4.117-10.557s6.545-6.295 11.48-8.854c10.192-5.311 23.741-8.2 38.168-8.2Zm0-.574c-29.92 0-54.178 12.626-54.178 28.24 0 15.613 24.258 28.24 54.178 28.24 29.92 0 54.171-12.636 54.171-28.24 0-15.605-24.258-28.24-54.171-28.24Z"/>
    <g style="mix-blend-mode:multiply">
      <path fill="#EBEAEA" d="m79.692 64.678-.818-1.913-4.431 1.248-.478 1.375.903 1.312c1.633.08 3.262-.263 4.804-1.011.004-.305.021-.61.053-.911 0 0-.02-.1-.033-.1ZM63.06 12.899c.045.15.104.29.176.419h-.183c0-.137 0-.273.007-.42Z" style="mix-blend-mode:multiply"/>
      <path fill="#EBEAEA" d="M91.153 50.02a23.14 23.14 0 0 0-4.097-1.366l.367-.073c1.485-.319 1.485-2.387 2.245-1.649.38.364 1.106 1.485 1.963.592.858-.893.459-2.386.838-3.717.38-1.33 1.14-1.22 1.826-.792.688.428 1.31.419 1.964-1.54.655-1.958.04-2.86-.609-3.552-.648-.693-1.257-1.376-.995-2.168l.079-.228.072-.246c.049-.184.088-.373.118-.565a2.73 2.73 0 0 0 0-.91 2.016 2.016 0 0 0-.066-.292 1.823 1.823 0 0 0-.203-.456c-.425-.674-1.047-.774-2.271 0l1.218-1.977c.128-1.074.191-2.162.19-3.252-2.012-.505-3.886-1.765-5.42-3.643a1.72 1.72 0 0 0-.072-.839l-.04-.154v-.137c0-.027 0 0 0 0v-.1a.234.234 0 0 1 0-.073h.04c.202-.077.401-.17.595-.282.168-.123.314-.298.426-.51.138-.25.237-.54.288-.848a3.09 3.09 0 0 1-.393.1 4.557 4.557 0 0 1-1.996-.255c-.7-.239-1.41-.406-2.128-.5-1.538-.12-3.076-.137-4.582-.146-1.505-.01-3.272 0-4.883-.228-1.61-.228-3.109-.438-4.673-.574a96.357 96.357 0 0 0-9.164-.401c-3.475 0-6.958.146-10.427.319a73.463 73.463 0 0 0-10.473 1.139c-1.708.337-3.41.72-5.112 1.102-1.525.346-3.056.756-4.582.965-1.204.155-2.533.21-3.816.474a30.23 30.23 0 0 0-.229 3.507 20.39 20.39 0 0 1-1.42.592l-.255.1c-1.872.72-3.083 3.471-2.088 5.202.693 1.075 0 2.45-1.69 3.644-1.688 1.193-2.526 3.47-1.904 5.156.622 1.685 1.905.665 1.793 1.995-.11 1.33-.366 2.04.956 3.216 1.322 1.175 1.211 1.986.327 3.971-.883 1.986-.477 2.961.59 4.236.322.398.712.677 1.132.811.249.063.504.063.753 0l.21-.064c.128-.048.251-.122.366-.218l.039-.046a.614.614 0 0 0 .111-.11c.046-.054.079-.118.118-.172.439-.82 1.172-.911 2.049.045h.04a2.029 2.029 0 0 0-1.066.395 2.99 2.99 0 0 0-.846.98c-.923 1.695.406 3.207 1.74 2.643 1.336-.565 1.716-.556 1.395.683a3.969 3.969 0 0 0 .098 2.377l.053.1.032.064.06.1a.379.379 0 0 0 .045.064l.052.082.112.119h.046l.091.073h.052l.105.063h.223c1.047.2 1.067-1.402 1.734-1.211.668.191.733 1.248.707 2.113-.026.866 1.185 2.442 2.344 1.986 1.158-.455 1.348 0 1.728.565.143.316.365.548.623.652a.821.821 0 0 0 .777-.087c.138-.11.243-.192.315-.264a7.007 7.007 0 0 0 1.963.3c1.34.087 2.68-.223 3.928-.91.473.862 1.127 1.499 1.872 1.821h.176c.057.01.114.01.17 0a.69.69 0 0 0 .203 0c1.997-.328 1.709-1.73 2.187-2.733.477-1.002.798-.665 1.204-.1.145.223.347.359.563.38.216.02.43-.077.596-.27l4.385 1.175c.501-1.303 1.166-2.469 1.964-3.444.497.911 1.152 1.895 1.669 1.822.962-.164.654-2.113 1.551-1.913.897.2.877 2.487 1.807 2.36a9.996 9.996 0 0 1 2.723 0c.388.07.783-.002 1.145-.21l.105-.073h.052l.164-.137.078-.073.079-.09.105-.12.085-.108.124-.164.059-.1.138-.228a.444.444 0 0 1 0-.073c.051-.09.1-.185.143-.283l.046-.109c.053-.114.102-.233.144-.355.284.125.575.213.87.264 1.919.322 3.86-.245 5.522-1.613 1.663-1.369 2.955-3.463 3.675-5.957a2.622 2.622 0 0 0 0 .674c.157 1.348.877.583 1.1 1.822.222 1.239-.779 2.35.72 3.207 1.499.856 1.964-1.312 3.214-1.176 1.25.137.811 2.533 2.5 2.852 1.689.319 3.672-2.533 3.672-2.533.04.438.168.852.368 1.195.2.343.465.601.765.746 1.865.61 2.86-.911 3.09-1.822.146-1.025.522-1.96 1.073-2.67l.144-.136.117-.118.118-.11.125-.136.144-.173c.285-.39.507-.86.651-1.378a5.325 5.325 0 0 0 .186-1.629c.236-2.45-1.924-4.345-5.027-4.254Zm-12.652 5.056c.046-.173.085-.337.124-.51 0 .184-.044.363-.124.51Zm.622-5.293a5.001 5.001 0 0 0-.216-.965 4.072 4.072 0 0 0-.177-.447 10.14 10.14 0 0 0 1.82.529 5.337 5.337 0 0 0-1.427.883Z" style="mix-blend-mode:multiply"/>
    </g>
    <path fill="#58991F" d="M32.531 41.758s-4.019-6.377 1.767-13.364c5.787-6.987 25.666-15.54 34.777-11.842 9.111 3.698 14.708 9.383 14.898 15.932.19 6.55-14.702 15.951-20.187 18.957-4.467 2.578-9.467 2.724-14.007.41-3.823-1.913-17.248-10.093-17.248-10.093Z"/>
    <path fill="#58991F" d="M68.892 16.616c-9.111-3.644-28.996 4.91-34.776 11.842-5.78 6.932-1.767 13.364-1.767 13.364s13.424 8.198 17.247 10.093c4.54 2.314 9.54 2.168 14.007-.41 5.485-2.997 20.383-12.407 20.187-18.957-.197-6.55-5.78-12.252-14.898-15.932ZM35.248 36.584a.802.802 0 0 1-.488-.072 1.111 1.111 0 0 1-.416-.363 1.688 1.688 0 0 1-.258-.58 2.078 2.078 0 0 1-.049-.68c.04-.6.445-.91.812-1.075.589-.291 1.237-.173 1.833-.428h.039c.196 1.467-.275 3.134-1.473 3.198Zm18.524-9.547c-.314.647-.897.683-1.381.956-.594.327-1.102.895-1.46 1.631-.122.27-.282.502-.471.683-.498.392-.144-.756-.131-.993.059-.738-.17-1.512.046-2.232a2.04 2.04 0 0 1 .361-.707 1.33 1.33 0 0 1 .549-.413 4.757 4.757 0 0 1 1.237-.182c.411-.082.83.02 1.198.291a.84.84 0 0 1 .162.469.914.914 0 0 1-.11.497Zm8.411 19.522c-1.006 1.085-2.225 1.72-3.495 1.822a7.237 7.237 0 0 1 .163-3.043c.164-.665.498-1.23.655-1.913.078-.364 0-.71 0-1.075 0-.364.229-.455.393-.692.163-.237.484-.592.706-.911.294-.506.665-.914 1.087-1.194 1.185-.665 1.65 1.34 1.728 2.624a6.853 6.853 0 0 1-.226 2.405c-.216.764-.563 1.443-1.011 1.977ZM78.305 33.55c-.36.499-.8.869-1.285 1.08a2.31 2.31 0 0 1-1.497.132c-.233-.081-.44-.266-.59-.526-.15-.26-.234-.58-.242-.913.034-.815.019-1.631-.045-2.442a4.363 4.363 0 0 1-.132-1.634c.06-.552.223-1.072.472-1.509.262-.373.596.574.687.811.223.556.485 1.093.982 1.139.641-.098 1.288.084 1.853.519.981.93.517 2.378-.197 3.343h-.006Z" opacity=".5" style="mix-blend-mode:multiply"/>
    <path fill="#58991F" d="M35.64 33.787a1.628 1.628 0 0 0-.975.355c-.268.602-.413 1.449.118 1.868.19.144.4.226.615.238.216.013.43-.044.628-.165.305-.212.546-.566.681-1.001.136-.435.157-.923.059-1.377a4.232 4.232 0 0 0-1.126.082Z"/>
    <path fill="#97C740" d="M36.883 47.087s-4.719 1.922-7.632 6.714c-1.165 1.184-2.251.264-3.18 1.95-.93 1.685.405 3.206 1.74 2.65 1.336-.555 1.715-.565 1.388.674-.327 1.24-.079 2.97.975 3.17 1.054.201 1.067-1.402 1.735-1.211.668.191.733 1.248.7 2.113-.032.866 1.192 2.442 2.35 1.995 1.159-.446 1.348-.045 1.722.556.144.317.367.549.627.653a.825.825 0 0 0 .78-.088c.51-.42.537-.337.458-1.467-.078-1.13 2.553-7.707 3.45-10.303.896-2.596 1.112-3.106 1.858-2.569.747.538 2.017-1.402.256-4.208s-5.492-1.476-7.227-.629Z"/>
    <path fill="#97C740" d="M44.117 47.734a4.97 4.97 0 0 0-.262-.364c-.347 1.084-1.126 1.494-1.866 2.05-1.158.856-2.415 1.302-3.613 1.994a55.23 55.23 0 0 0-3.436 2.187c-.738.411-1.407 1.032-1.964 1.822a13.312 13.312 0 0 0-1.08 2.732c-.342 1.232-.99 2.253-1.826 2.879a4.59 4.59 0 0 1-.766.4c.092.217.218.401.369.539a.991.991 0 0 0 .502.254c1.047.2 1.067-1.403 1.734-1.211.668.191.733 1.248.7 2.113-.032.866 1.192 2.441 2.35 1.995 1.159-.446 1.349-.045 1.722.556.145.317.368.549.627.653a.827.827 0 0 0 .78-.088c.51-.42.537-.337.458-1.467-.078-1.13 2.553-7.707 3.45-10.303.897-2.596 1.113-3.088 1.859-2.55.746.537 2.022-1.385.262-4.191Z" opacity=".5" style="mix-blend-mode:multiply"/>
    <path fill="#68B42E" d="M34.122 54.539s.4-.437 1.047-1.002c.164-.155.34-.3.524-.456l.596-.482.654-.483c.223-.164.445-.319.655-.465l.694-.437c.222-.155.458-.273.654-.392l.655-.337.3-.155.282-.118.89-.346.334-.128-.32.182c-.21.11-.505.283-.858.456l-.282.146-.288.182-.654.373c-.223.128-.452.256-.655.41l-.654.447a4.725 4.725 0 0 0-.655.455l-.654.456c-.42.31-.818.583-1.152.838l-.805.62-.308.236Z" style="mix-blend-mode:multiply"/>
    <path fill="#D8B523" d="M36.825 38.16s0-7.543 7.318-10.394c1.15.121 2.245.72 3.146 1.72.901.998 1.566 2.35 1.908 3.882l-6.075 9.683-6.297-4.891Z"/>
    <path fill="#D8B523" d="M44.143 27.766c-1.31.485-2.557 1.26-3.691 2.295a7.195 7.195 0 0 1 3.927.328c.59.255 2.48 1.54 1.826 2.733-.386.71-1.047 1.03-1.505 1.649a23.931 23.931 0 0 0-1.964 3.288s-.059.119-.098.092c-1.639-1.422-3.522-2.206-5.453-2.269-.186.73-.294 1.495-.32 2.269l6.297 4.891 6.074-9.683c-.345-1.538-1.016-2.894-1.925-3.892-.909-.998-2.013-1.591-3.168-1.701Z" opacity=".5" style="mix-blend-mode:multiply"/>
    <path fill="#68B42E" d="M53.673 23.275s.714 3.908 1.722 5.803c1.008 1.894-1.008 5.802 2.376 10.211 2.016 2.396 2.873.593 3.273-1.102.399-1.694 1.008-.2 1.728-.1s1.361.4 1.963-1.503c.603-1.904 2.082-.802 3.018-2.405.936-1.603 3.521-16.397-1.074-20.305-4.595-3.908-14.151 1.894-13.006 9.4Z"/>
    <path fill="#68B42E" d="M57.463 35.136c-.32-1.986-.196-4.1-.89-5.958a2.863 2.863 0 0 0-.604-1.144c-.27-.301-.592-.497-.934-.569h-.295c.185.563.404 1.103.655 1.613 1.008 1.904-1.008 5.802 2.376 10.211 1.008 1.203 1.728 1.349 2.252.984-1.265-1.235-2.172-3.056-2.56-5.137Z" style="mix-blend-mode:multiply"/>
    <path fill="#68B42E" d="M66.693 13.874c-4.582-3.908-14.165 1.894-13.013 9.4.28 1.474.647 2.913 1.1 4.3.078-.845.333-1.64.733-2.286.654-.911 1.165.683 1.27 1.375.19 1.248.183 2.551.307 3.826.144 1.449.472 3.007 1.486 3.717 1.23.856 2.618.702 3.928 1.285.772.346 1.675 1.075 1.727 2.277.234-.34.417-.744.537-1.184.576-1.904 2.082-.802 3.018-2.405.936-1.603 3.502-16.406-1.093-20.305Z" style="mix-blend-mode:multiply"/>
    <path fill="#68B42E" d="M43.076 62.856s1.682 4.746 3.679 4.418c1.996-.328 1.708-1.75 2.186-2.733.478-.984.798-.674 1.204-.1.406.574 1.106.665 1.78-.911.675-1.576 2.115-8.773.354-11.023-1.76-2.25-9.275-3.498-11.003.757-1.728 4.254 1.8 9.592 1.8 9.592Z"/>
    <path fill="#3E9F32" d="M52.28 52.49c-1.762-2.25-9.276-3.499-11.004.755a7.147 7.147 0 0 0-.458 3.107c.2-.491.472-.92.796-1.26a2.72 2.72 0 0 1 1.089-.717c.519-.184 1.068-.11 1.551.21a7.42 7.42 0 0 1 1.192 1.548c.267.373.618.61.994.673.376.063.757-.052 1.08-.327.426-.4.825-1.157 1.31-1.393 1.171-.574 1.46 1.821 1.25 2.97a5.37 5.37 0 0 1-.72 1.949c-.393.6-.87 1.102-1.224 1.74-.694 1.266-.458 2.942-1.146 4.18a3.56 3.56 0 0 1-1.047 1.176c.259.124.533.168.805.127 1.964-.337 1.709-1.748 2.186-2.732.478-.984.799-.674 1.205-.1.406.573 1.106.665 1.78-.912.674-1.575 2.12-8.745.36-10.995Z"/>
    <path fill="#68B42E" d="M27.23 25.826a9.564 9.564 0 0 1-2.089.91c-1.872.72-3.083 3.471-2.088 5.202.694 1.066 0 2.45-1.689 3.644-1.688 1.193-2.533 3.462-1.904 5.147.628 1.685 1.904.665 1.793 1.986-.111 1.32-.366 2.04.956 3.215 1.322 1.175 1.204 1.995.327 3.981-.877 1.986-.478 2.96.59 4.236 1.066 1.275 2.343 1.02 2.781.2.439-.82 1.178-.91 2.055.055.878.966 1.506 1.585 2.494 1.02.317-.137.595-.407.797-.772a2.83 2.83 0 0 0 .336-1.268c.15-.765.7-.865 1.433-.765.733.1 1.172-.51 1.133-1.886a2.716 2.716 0 0 0-.204-1.057 1.873 1.873 0 0 0-.562-.765s-2.069-5.302-.563-9.355c.923-2.852.759-2.852.216-3.9a8.666 8.666 0 0 1-.537-3.078s-2.088-7.825-5.276-6.75Z"/>
    <path fill="#3E9F32" d="M34.155 50.777a2.716 2.716 0 0 0-.203-1.058 1.871 1.871 0 0 0-.563-.764s-2.068-5.302-.562-9.356c.922-2.851.759-2.851.216-3.899a8.666 8.666 0 0 1-.537-3.079s-2.088-7.852-5.276-6.777a8.331 8.331 0 0 1-1.833.82c.2.953.356 1.924.465 2.906a22.178 22.178 0 0 1-.118 5.702c-.353 2.332-.955 4.655-.903 7.07.052 2.413.91 4.18 1.31 6.376a7.908 7.908 0 0 1 0 3.48c-.36 1.275-1.065 2.303-1.965 2.86.29.12.596.127.887.02.291-.108.555-.326.763-.63.439-.811 1.178-.911 2.055.054.877.966 1.506 1.585 2.494 1.02.316-.137.595-.407.797-.771a2.82 2.82 0 0 0 .335-1.269c.151-.765.7-.865 1.434-.765.733.1 1.244-.565 1.204-1.94Z"/>
    <path fill="#68B42E" d="M50.028 23.466a63.31 63.31 0 0 0-.223 5.23 5.725 5.725 0 0 1-.12 1.822 4.712 4.712 0 0 1-.672 1.575c-.412.784-1.767.838-2.48-.52-.714-1.356-1.657-2.422-3.987-2.304-2.33.119-2.893.055-3.155-1.621a14.606 14.606 0 0 1-.118-4.965c.262-2.46-2.932-7.224-2.258-9.255.674-2.032-1.453-2.405-.248-4.318.824-1.093 1.348-.574 2.061-.155.714.419 2.22.364 2.18-.52a3.042 3.042 0 0 1 .069-.897c.067-.29.175-.556.32-.784.144-.229.32-.413.518-.542.198-.13.413-.2.631-.209 1.165 0 1.8 1.822 1.761 3.189-.04 1.366 1.46 10.312 5.72 14.274Z"/>
    <path fill="#68B42E" d="M48.39 32.594c.097-.297.18-.6.25-.911.13-.601.268-1.512-.164-1.959-.537-.555-1.237-.31-1.852-.282a5.944 5.944 0 0 1-2.77-.71 6.597 6.597 0 0 1-1.243-.702c-.34-.264-.57-.783-.916-1.011-1.074-.674-1.565.465-1.925 1.73.4.611 1.165.63 2.808.52 2.324-.155 3.273.91 3.98 2.305.206.391.488.695.812.875.324.18.677.23 1.02.145Z"/>
    <path fill="#3E9F32" d="M50.027 23.466c-4.26-3.962-5.747-12.917-5.714-14.274.033-1.358-.596-3.189-1.76-3.189a1.243 1.243 0 0 0-.629.204 1.756 1.756 0 0 0-.518.534c-.145.225-.255.49-.323.776-.069.287-.094.59-.075.891 0 .556-.557.784-1.172.775.17.38.393.711.654.974.354.3.766.438 1.179.392a.777.777 0 0 1 .47.052c.151.066.29.18.407.33.497.784-.144 1.896-.544 2.424-.83 1.102-1.63 2.04-1.858 3.644-.072 1.11-.374 2.168-.871 3.042a3.85 3.85 0 0 1-.354.438c.257.678.379 1.439.354 2.204a14.604 14.604 0 0 0 .15 4.965c.044.324.133.634.262.91.295-1.065.7-2.058 1.552-2.022.212.025.419.11.607.247.19.138.356.326.492.555.437.472.938.816 1.473 1.011 1.105.589 2.287.847 3.47.756.49-.045 1.25-.064 1.53.647.165.551.165 1.17 0 1.722-.08.35-.177.694-.287 1.03a1 1 0 0 0 .504-.456c.305-.45.534-.987.67-1.575.138-.588.18-1.21.122-1.823a63.317 63.317 0 0 1 .21-5.184Z"/>
    <path fill="#97C740" d="M29.488 38.005c-1.183-2.35-2-5.02-2.399-7.835a28.537 28.537 0 0 1 .082-8.517c1.126-6.531 3.39-9.61 4.47-8.854 1.08.756 1.277.219 1.84-.829a1.77 1.77 0 0 1 .578-.596 1.22 1.22 0 0 1 .708-.184c.242.014.48.105.693.265.214.16.399.386.541.66.76 1.167 1.244 1.24 1.78.975.537-.264 2.324.42 2.075 2.633-.248 2.214 0 2.14.38 3.717.38 1.576.655 4.764-1.132 7.014-.7.747-.78 1.54-.806 2.997-.026 1.458-.49 3.49-2.781 3.453-1.506-.146-2.455.109-2.966 1.685-.51 1.576-.307 3.06-1.426 3.944-.832.638-1.637-.528-1.637-.528Z"/>
    <path fill="#97C740" d="M40.216 19.44c-.354-1.576-.622-1.503-.38-3.717.242-2.214-1.531-2.888-2.075-2.633-.543.255-1.02.192-1.78-.974-.245-.428-.589-.724-.972-.84-.384-.117-.785-.045-1.136.202a7.049 7.049 0 0 1-.307 3.243c-1.218 4.036-3.456 7.233-4.667 11.305a21.52 21.52 0 0 0-.72 6.632 3.886 3.886 0 0 1-.197 1.576 20.05 20.05 0 0 0 1.506 3.771s.805 1.166 1.617.528c1.119-.91.916-2.359 1.426-3.944.511-1.585 1.46-1.822 2.966-1.685 2.29 0 2.749-1.986 2.781-3.453.033-1.466.105-2.25.806-2.997 1.754-2.25 1.498-5.438 1.132-7.014Z" opacity=".5" style="mix-blend-mode:multiply"/>
    <g style="mix-blend-mode:multiply">
      <path fill="#68B42E" d="M29.016 36.93a10.084 10.084 0 0 1-.176-.783c-.04-.255-.105-.565-.145-.911 0-.173-.052-.374-.078-.574-.026-.2 0-.42-.052-.647-.053-.228 0-.456-.046-.701-.046-.246 0-.492 0-.747a19.704 19.704 0 0 1 0-1.631c0-.282 0-.574.052-.865.052-.292.06-.574.085-.911.026-.337.072-.593.118-.911.046-.32.092-.592.131-.911.118-.583.249-1.166.373-1.731l.458-1.622c.17-.51.347-1.002.51-1.466.08-.228.178-.438.263-.656.085-.219.183-.41.261-.601.143-.36.303-.708.478-1.039l.4-.765.346-.665s-.11.255-.314.692l-.366.802c-.15.3-.282.665-.439 1.057l-.242.61a7.94 7.94 0 0 0-.242.674c-.157.465-.314.957-.485 1.458-.17.5-.281 1.147-.451 1.694-.17.547-.249 1.139-.36 1.713l-.138.865c-.046.291-.098.583-.124.91a9.016 9.016 0 0 0-.033.793c0 .256-.039.565-.059.848-.039.555-.046 1.093-.059 1.603v1.448c0 .228 0 .438.04.638.039.2 0 .392.052.574.025.306.062.61.111.91.04.256.066.465.092.602l.04.246Z" style="mix-blend-mode:multiply"/>
      <path fill="#68B42E" d="M28.8 28.677c.009-.12.027-.24.052-.355.026-.14.056-.276.092-.41a4.59 4.59 0 0 1 .15-.502c.067-.196.141-.388.223-.573.085-.215.179-.422.282-.62.11-.191.216-.419.347-.61.13-.191.248-.401.386-.592.137-.192.268-.374.412-.556.144-.182.282-.346.426-.501.144-.155.281-.31.412-.437l.386-.365a3.47 3.47 0 0 1 .334-.291l.262-.21.229-.182-.203.237c-.138.137-.327.337-.55.583l-.36.392c-.124.146-.249.31-.386.464-.137.155-.268.337-.406.52-.137.182-.275.355-.4.546-.123.191-.261.383-.385.574-.125.191-.236.392-.354.583-.118.191-.21.383-.3.565a8.37 8.37 0 0 0-.649 1.74Zm1.309-5.648a1.377 1.377 0 0 1-.085-.173 4.378 4.378 0 0 1-.177-.501 4.406 4.406 0 0 1-.072-.355.777.777 0 0 1-.04-.192 1.978 1.978 0 0 1 0-.21c0-.136 0-.282-.045-.436-.046-.155 0-.301 0-.447a5.537 5.537 0 0 1 0-.464c0-.146 0-.292.052-.429.053-.136.04-.273.053-.4.013-.128.059-.237.085-.356l.144-.5.059-.192c.004.07.004.14 0 .21 0 .127-.033.31-.06.528a4.69 4.69 0 0 0-.052.355v.392c0 .136 0 .282-.039.419s0 .291 0 .437v1.239c0 .055 0 .246.04.355.039.11.032.21.045.292.013.082.033.164.046.228.013.063.046.2.046.2Z" style="mix-blend-mode:multiply"/>
    </g>
    <path fill="#97C740" d="M43.148 42.177c.428-2.033 1.147-3.925 2.115-5.561.967-1.636 2.163-2.983 3.515-3.958 1.309-.911 1.427-.793 2.225-2.268.51-.865 1.176-1.527 1.928-1.92a3.388 3.388 0 0 1 2.36-.321c1.669.482 1.8 2.432 1.407 4.627-.393 2.196.072 2.606 1.08 4.555 1.008 1.95 1.544 5.001.576 6.85-.969 1.85-.936 1.822-1.008 3.207-.072 1.385-.655 1.822-1.689 2.104-1.034.283-1.263.747-1.872 2.45-.609 1.704-1.65 2.096-2.978 1.95-1.329-.146-1.152-2.095-2.232-.847-1.08 1.248-2.337 2.733-3.928 1.248-1.59-1.485-.936-2.104-.752-3.006.183-.902-.72-.802-1.401-.693-.969.146-.76-.7-.432-2.66.327-1.958.694-3.015 1.086-5.757Z"/>
    <path fill="#97C740" d="M57.778 37.349c-1.008-1.95-1.473-2.35-1.08-4.555.353-1.977.274-3.753-.963-4.445a3.518 3.518 0 0 1-.222.81 6.761 6.761 0 0 1-.982 1.585 62.184 62.184 0 0 0-1.59 2.105c-2.151 3.133-3.87 6.789-5.073 10.785a32.455 32.455 0 0 0-.87 3.234c-.178.911-.256 1.822-.485 2.624-.285 1.113-.788 2.091-1.453 2.824a5.062 5.062 0 0 1-1.25.975c.238.403.523.748.844 1.02 1.584 1.448 2.84 0 3.927-1.248 1.087-1.248.897.701 2.232.847 1.335.146 2.37-.246 2.978-1.95.61-1.703.832-2.15 1.872-2.45 1.041-.3 1.617-.701 1.69-2.104.071-1.403 0-1.348 1.007-3.207 1.008-1.858.419-4.91-.582-6.85Z" opacity=".5" style="mix-blend-mode:multiply"/>
    <path fill="#68B42E" d="M77.152 37.55s-.079-2.542 1.48-2.278c1.223.11 1.485-.792 1.675-2.177.19-1.385 1.034-2.97 2.821-2.122 1.787.847 6.055 3.552 7.999 2.067 1.944-1.485 2.775-1.54 3.312-.692.537.847.229 1.959-.04 2.733-.268.774.34 1.485.989 2.168.648.683 1.257 1.594.609 3.553-.648 1.958-1.31 1.958-1.964 1.54-.654-.42-1.447-.53-1.826.792-.38 1.32.033 2.815-.845 3.707-.877.893-1.603-.218-1.963-.583-.76-.738-.76 1.33-2.245 1.65-1.486.318-4.91.773-6.847.327-1.938-.446-3.613-.829-3.888-3.644-.275-2.815.995-4.418.733-7.041Z"/>
    <path fill="#3E9F32" d="M95.388 37.23c-.654-.683-1.257-1.375-.988-2.167.15-.342.249-.722.29-1.118.042-.396.026-.8-.048-1.187a4.008 4.008 0 0 0-1.499.91c-.7.683-1.285 1.569-1.715 2.597-.32.82-.504 1.713-.772 2.569-.135.502-.36.948-.655 1.293a4.224 4.224 0 0 1-1.636.866 12.56 12.56 0 0 1-2.108.565c-.412.019-.82.123-1.21.31a6.71 6.71 0 0 0-.734.71c-.524.436-1.109.716-1.715.82a6.24 6.24 0 0 0-2.016 1.184c-.654.483-2.029 1.603-2.35.082-.059-.328-.085-.683-.163-.993-.079-.31-.262-.783-.354-1.193a3.19 3.19 0 0 1 .282-1.768 4.65 4.65 0 0 0 .399-1.594 4.962 4.962 0 0 0-.34-1.63 10.133 10.133 0 0 0-.518-1.312l-.104-.182a4.178 4.178 0 0 0-.256 1.521c.262 2.623-1.027 4.136-.759 6.987.269 2.851 1.964 3.225 3.888 3.644 1.925.419 5.361 0 6.847-.328 1.486-.328 1.486-2.387 2.245-1.649.373.364 1.106 1.485 1.964.583.857-.902.464-2.377.844-3.708.38-1.33 1.139-1.22 1.826-.792.687.428 1.31.419 1.964-1.54.654-1.958.04-2.787-.609-3.48Z"/>
    <path fill="#97C740" d="M56.946 60.697s1.453 3.543 2.422 3.38c.969-.164.655-2.123 1.545-1.913.89.209.877 2.477 1.813 2.359a9.948 9.948 0 0 1 2.716 0c.792.127 2.049-.119 2.867-3.216.818-3.097 4.504-11.177 7.96-15.231 1.616-2.022 1.361-2.104 1.047-3.598-.314-1.494.124-1.358.51-2.177.387-.82.197-2.414-.654-3.881-.851-1.467-1.78-.41-2.618 0-.838.41-.733 0-1.31-.911-.575-.911-1.59-.41-2.788.537-1.198.948-1.309 2.187-2.389 1.33a1.647 1.647 0 0 0-.815-.401 1.448 1.448 0 0 0-.86.125 1.98 1.98 0 0 0-.738.626 2.99 2.99 0 0 0-.474 1.008c-.563 1.74.282 4.236-.975 6.777-1.78 3.644-1.892 4.355-4.097 6.158-2.206 1.804-3.915 6.577-3.162 9.028Z"/>
    <path fill="#97C740" d="M77.794 40.337c.392-.82.196-2.414-.655-3.88a1.804 1.804 0 0 0-.242-.338 39.51 39.51 0 0 0-4.49 3.644 33.056 33.056 0 0 0-2.847 3.052c-.42.51-.832 1.01-1.27 1.485-.505.465-.925 1.089-1.224 1.821-.26 1.017-.759 1.883-1.414 2.46-.256.182-.536.29-.823.317a1.572 1.572 0 0 1-.846-.162 4.921 4.921 0 0 1-1.054-.665c-.705 1.548-1.695 2.806-2.867 3.644-2.212 1.822-3.868 6.577-3.148 9.027.228.543.48 1.066.752 1.567.494-1.052 1.216-1.856 2.062-2.295a1.89 1.89 0 0 1 1.129-.268c.386.033.761.19 1.097.459.274.3.517.792.903.81.386.019.713-.4 1.106-.428 1.198-.082 1.964 2.05 2.239 3.344.039.19.085.382.124.583.655-.274 1.407-1.057 1.964-3.125.818-3.088 4.503-11.177 7.959-15.231 1.617-2.023 1.362-2.104 1.047-3.598-.314-1.494.112-1.403.498-2.223Z" opacity=".5" style="mix-blend-mode:multiply"/>
    <path fill="#97C740" d="M79.306 11.223c.975-.647 2.05-.941 3.129-.856 1.545.255 1.4 1.202 1.309 1.95-.092.746.497.755 1.76.1 1.264-.656 2.082-.547 2.697.455.616 1.002.393 1.822-.072 2.897-.464 1.075-.504 1.904.393 2.304.212.125.4.318.548.563.148.244.253.535.305.846.052.312.05.636-.004.947-.055.311-.162.6-.312.842-.609 1.102-1.361.355-1.04 1.403.32 1.047-.289 1.403-.289 1.403l-8.588-4.3s-2.637-3.052.164-8.554Z"/>
    <path fill="#97C740" d="M88.626 21.78a3.17 3.17 0 0 1-1.053-1.038 12.939 12.939 0 0 1-1.211-2.733c-.256-.738-.576-2.268-1.31-2.332-.733-.063-1.557.501-2.277.702-.55.146-1.46.5-1.964-.073-.609-.702-.255-2.095-.164-3.006a9.527 9.527 0 0 0-.085-2.678 6.017 6.017 0 0 0-1.27.628c-2.801 5.466-.176 8.554-.176 8.554l8.594 4.272s.615-.346.288-1.402c-.242-.811.15-.547.628-.893Z" style="mix-blend-mode:multiply"/>
    <path fill="#F2D038" d="m84.437 15.577-5.426 3.444a.369.369 0 0 1 0 .072c-.203 2.141.046 5.466 2.46 9.055 4.066 5.994 8.51 6.231 8.51 6.231l3.6-7.287c-7.377-1.859-9.144-11.515-9.144-11.515Z"/>
    <path fill="#6C8424" d="M81.413 28.149c-2.415-3.571-2.664-6.915-2.461-9.055-.085.21-.373.91-.995 2.332.327 12.38 12.03 14.448 12.03 14.448l-.09-1.494s-4.42-.237-8.484-6.231Z"/>
    <path fill="#E39042" d="m93.496 27.137-3.6 7.288.092 1.494 3.312-5.466c.137-1.095.203-2.204.196-3.316Z"/>
    <path fill="#68B42E" d="M64.33 17.253s3.39 1.084 3.35 2.906c-.038 1.822.263 3.27 2.743 4.3 2.481 1.03 4.006.911 5.891 3.097 1.886 2.187 3.273 1.822 3.836-2.24.563-4.063-.57-6.186-1.263-7.762-.694-1.576-.223-2.487.694-3.762.916-1.276.477-3.207-1.434-4.555-1.911-1.348-.57-1.877-1.44-3.753-.87-1.877-2.219-1.822-3.273-1.34-1.053.484-1.394.065-1.309-1.694C72.21.692 71.032-.2 69.861 0c-1.172.2-1.545 1.676-1.964 2.186-.694.847-.609.483-1.48-.182-.87-.665-2.35.055-2.218 2.906.13 2.851-.223 2.97-.746 4.063-.524 1.093-1.31 2.669-.302 3.944 1.008 1.276-1.23 3.225 1.179 4.336Z"/>
    <path fill="#3E9F32" d="M78.377 26.18c-1.705-2.199-3.181-4.72-4.386-7.487-.805-1.704-1.662-3.936-3.2-4.418-1.028-.32-1.964-.62-2.671-1.822-1.172-1.922-.962-4.938-.576-7.215.252-1.45.598-2.864 1.034-4.227-.281.456-.478.911-.654 1.175-.694.848-.61.483-1.48-.182s-2.35.055-2.219 2.906c.131 2.851-.222 2.97-.746 4.063-.523 1.093-1.309 2.67-.3 3.944 1.007 1.276-1.232 3.189 1.177 4.3 0 0 3.39 1.084 3.352 2.906-.04 1.822.261 3.27 2.742 4.3 2.48 1.03 4.006.91 5.891 3.097 1.493 1.694 2.618 1.822 3.338-.073a11.19 11.19 0 0 1-1.302-1.266Z"/>
    <g style="mix-blend-mode:multiply">
      <path fill="#68B42E" d="M66.882 10.521s.138.246.4.675c.348.587.724 1.14 1.126 1.658.262.344.56.633.883.856.354.237.733.419 1.133.628.399.21.818.41 1.237.675.104.054.203.136.307.2.104.07.205.149.301.237.104.08.205.168.301.264l.131.137.138.173c.316.47.595.985.831 1.54.236.527.452 1.074.655 1.593.203.52.386 1.039.582 1.503.096.227.2.446.314.656.105.21.203.41.308.602.19.391.373.747.53 1.065.157.32.308.583.426.811l.366.701-.406-.674c-.124-.21-.281-.464-.451-.774l-.57-1.03c-.098-.19-.21-.382-.32-.591-.112-.21-.23-.41-.334-.647a77.481 77.481 0 0 1-.615-1.494c-.21-.52-.42-1.048-.655-1.576a8.763 8.763 0 0 0-.812-1.467l-.118-.155-.13-.145c-.079-.082-.184-.164-.275-.246a2.452 2.452 0 0 0-.288-.228 2.876 2.876 0 0 0-.301-.2c-.4-.265-.819-.474-1.211-.684a9.507 9.507 0 0 1-1.14-.674 4.1 4.1 0 0 1-.896-.91 9.623 9.623 0 0 1-.654-.957c-.177-.3-.328-.565-.446-.784l-.347-.738Z" style="mix-blend-mode:multiply"/>
      <path fill="#68B42E" d="M75.32 21.78s-.17 0-.406-.1l-.19-.063-.216-.064c-.143 0-.3-.091-.451-.146a9.413 9.413 0 0 1-.838-.383c-.222-.118-.38-.236-.38-.236.136.01.272.032.406.063.242.055.557.146.87.265l.459.19c.13.057.257.127.38.21.222.146.366.265.366.265ZM69.77 6.914c.003.18.016.36.038.538.05.46.126.914.23 1.357.061.31.136.613.222.91.04.156.092.31.144.465.052.155.105.32.164.474.117.319.261.638.399.957l.229.473c.079.155.164.3.249.456.17.31.353.574.536.91l.524.848c.177.273.308.583.458.847.133.258.255.526.367.802.099.225.182.463.249.71l.052.164a1.082 1.082 0 0 0 0 .155c0 .1.04.191.052.273.012.134.012.268 0 .401a.78.78 0 0 1 0 .137.482.482 0 0 0 0-.146 2.543 2.543 0 0 0-.046-.373c0-.082-.045-.173-.072-.265l-.039-.145-.059-.155a9.144 9.144 0 0 0-.674-1.43l-.229-.392a4.477 4.477 0 0 0-.242-.41l-.537-.829c-.177-.282-.38-.574-.55-.91l-.248-.466c-.079-.173-.158-.327-.236-.491a13.722 13.722 0 0 1-.393-.993 5.335 5.335 0 0 1-.157-.492 13.357 13.357 0 0 1-.32-1.403c-.079-.46-.127-.93-.145-1.403.003-.192.014-.384.033-.574Zm3.488 2.715v.273c0 .173.052.42.078.71.027.292.06.647.079 1.021.02.374.04.774.052 1.175.013.401 0 .793 0 1.166 0 .374 0 .729-.039 1.03-.04.3-.052.546-.065.72v.272-2.012c0-.365 0-.775-.033-1.167s0-.792 0-1.166V9.902c0-.182-.072-.273-.072-.273Z" style="mix-blend-mode:multiply"/>
    </g>
    <path fill="#89BD27" d="M79.574 11.988c-.212-.91-.633-1.697-1.198-2.241a3.78 3.78 0 0 0-1.21-.638c-.832-.382-.76-1.494-.766-2.423 0-2.414-1.414-2.842-2.795-1.995-.053 0-.282.164-.177.128 1.073-.401 2.219-.438 2.618 1.32.203.848-.085 1.75.15 2.579.11.274.264.51.448.69a1.3 1.3 0 0 0 .62.348c.517.182 1 .521 1.412.994.412.472.743 1.066.97 1.739.079.182-.033-.346-.072-.501Z" style="mix-blend-mode:screen"/>
    <g style="mix-blend-mode:multiply">
      <path fill="#97C740" d="M53.776 31.592s-.157.237-.419.674c-.262.437-.655 1.057-1.047 1.822-.21.392-.445.801-.655 1.257l-.36.692-.36.738c-.255.492-.484 1.03-.733 1.567-.249.537-.465 1.093-.694 1.658-.229.565-.451 1.13-.654 1.694-.099.292-.197.574-.288.857-.046.136-.099.273-.144.419-.046.145-.079.282-.125.419l-.235.829c-.04.127-.079.264-.125.391-.045.128-.059.274-.091.401-.066.264-.125.52-.184.765-.059.246-.124.483-.163.72-.085.465-.164.911-.236 1.275-.072.365-.091.73-.13 1.002l-.105.911s0-.319.065-.91c0-.274.04-.62.092-1.012s.124-.829.203-1.302a7.7 7.7 0 0 1 .137-.73c.059-.254.111-.51.17-.783 0-.127.059-.264.092-.4l.105-.41.235-.838.118-.429c.052-.136.098-.282.144-.419.092-.291.19-.574.281-.91.197-.584.426-1.148.655-1.731.229-.583.471-1.112.713-1.658.243-.547.491-1.066.747-1.558.13-.246.248-.492.373-.738.124-.246.255-.455.373-.683.242-.437.484-.847.7-1.22.445-.757.838-1.349 1.12-1.768.28-.42.425-.592.425-.592Z" style="mix-blend-mode:multiply"/>
      <path fill="#97C740" d="M50.532 37.276s0 .164-.079.438c-.079.273-.105.683-.164 1.166-.039.236-.059.5-.091.783-.033.283-.046.574-.072.911-.026.337-.04.62-.046.911-.007.291 0 .647 0 .975v.974c0 .328 0 .629.052.911.053.283.053.593.079.911l.04.401.058.374c.04.236.059.464.098.656.04.19.066.364.092.5.052.283.078.438.078.438s-.045-.146-.117-.42l-.131-.482c-.046-.191-.092-.41-.138-.647-.046-.237-.052-.246-.072-.382-.02-.137-.046-.265-.059-.401-.039-.273-.091-.574-.117-.911-.027-.337-.06-.629-.072-.911-.014-.282 0-.656 0-.984v-.984c0-.319.052-.647.072-.956.053-.561.127-1.117.222-1.667.085-.483.183-.911.249-1.139.065-.228.118-.465.118-.465Zm.523-1.048-.21.11a6.23 6.23 0 0 0-.523.328c-.21.146-.465.328-.72.537a4.68 4.68 0 0 0-.393.328l-.386.374c-.13.127-.255.264-.373.4-.118.137-.236.283-.347.42-.111.136-.21.282-.308.41a3.485 3.485 0 0 0-.268.391c-.072.128-.157.228-.216.337-.059.11-.118.2-.157.273l-.144.237.118-.291.13-.3a6.75 6.75 0 0 1 .19-.383c.075-.153.155-.3.243-.438.091-.136.183-.3.294-.446.11-.158.226-.307.347-.446.12-.152.246-.292.38-.42a4 4 0 0 1 .4-.373c.137-.127.274-.219.411-.328.246-.176.5-.328.76-.455.186-.093.376-.17.57-.228a1.26 1.26 0 0 1 .202-.037Z" style="mix-blend-mode:multiply"/>
    </g>
    <path fill="#97C740" d="M44.464 15.049s-2.035-6.477 1.59-9.255c1.31-.629 3.346.227 4.491-1.65 1.145-1.876 1.833-2.094 3.017-1.357.65.47 1.364.742 2.095.8.731.058 1.463-.1 2.147-.463.706-.482 1.49-.704 2.274-.643.786.06 1.546.401 2.21.99 1.309 1.248 2.284 3.798 1.263 5.893-1.021 2.096-.714 2.952-.812 4.145-.098 1.194-.857 3.243-2.978 3.407-2.12.164-2.618.565-3.103 2.387-.484 1.822-1.263 6.377-4.234 6.185-2.972-.19-6.323-6.076-7.96-10.44Z"/>
    <path fill="#97C740" d="M62.288 3.47a3.586 3.586 0 0 0-1.054-.738 8.524 8.524 0 0 1-1.31 1.185c-1.171.829-2.454 1.266-3.672 1.958-2.906 1.658-5.962 6.158-7.2 10.23-.74 2.46-.34 3.434-.955 5.967 1.368 1.913 2.88 3.316 4.313 3.398 2.972.173 3.79-4.373 4.235-6.185.445-1.813.982-2.214 3.103-2.387 2.12-.173 2.893-2.214 2.978-3.407.085-1.194-.21-2.04.812-4.145 1.02-2.104.059-4.628-1.25-5.876Z" opacity=".5" style="mix-blend-mode:multiply"/>
    <path fill="#F5ACA2" d="m74.141 63.348-.504 1.348.897 1.312.308-1.048-.7-1.612Z"/>
    <path fill="#EF7E8A" d="M74.534 66.008c1.635.08 3.267-.263 4.811-1.012.046-1.266.066-.91.066-.91l-4.582.91-.294 1.012Z"/>
    <path fill="#F39B99" d="m74.141 63.348.7 1.612 4.57-.92-.832-1.94-4.438 1.248Z"/>
    <path fill="#97C740" d="M78.547 49.41s3.083-4.063 12.344-.082c3.116-.1 5.237 1.822 5.237 4.29a5.214 5.214 0 0 1-.39 2.225c-.286.67-.708 1.21-1.214 1.547-.615.583-.844 1.767-1.073 2.669-.23.902-1.224 2.46-3.083 1.822-.975-.31-1.14-1.94-1.14-1.94s-1.963 2.85-3.671 2.532c-1.709-.319-1.23-2.733-2.494-2.851-1.263-.119-1.721 2.031-3.22 1.175-1.5-.856-.485-1.94-.714-3.207-.229-1.266-.942-.5-1.106-1.822-.164-1.32.59-1.585.196-2.122-.392-.538-.451-3.107.328-4.236Z"/>
    <path fill="#97C740" d="M92.796 56.188c-1.376-.03-2.735-.432-4-1.185-1.309-.91-2.493-2.168-3.888-2.733a9.534 9.534 0 0 0-3.645-.838 8.122 8.122 0 0 0-3.326.629 3.4 3.4 0 0 0 .282 1.594c.393.538-.354.765-.197 2.123.157 1.357.878.592 1.107 1.822.229 1.23-.78 2.35.713 3.206 1.493.856 1.964-1.312 3.22-1.175 1.257.137.812 2.532 2.494 2.851 1.683.319 3.672-2.532 3.672-2.532s.164 1.63 1.14 1.94c1.858.61 2.86-.91 3.082-1.822.223-.91.459-2.086 1.074-2.669.448-.356.834-.844 1.132-1.43a7.972 7.972 0 0 1-2.86.218Z" opacity=".5" style="mix-blend-mode:multiply"/>
    <g style="mix-blend-mode:multiply">
      <path fill="#97C740" d="M79.057 51.341h1.695l.825.082c.294 0 .602.082.916.146.314.064.655.155.969.237.314.082.654.2.995.319l.49.2.243.1.242.119c.314.155.655.3.923.483.286.16.563.345.831.555l.373.283.184.127.163.155.583.538.419.464c.222.273.36.42.36.42l-.386-.365c-.125-.119-.269-.273-.439-.428l-.602-.483-.164-.137-.176-.127-.387-.255c-.255-.183-.543-.337-.83-.502-.289-.163-.603-.31-.917-.464l-.236-.118-.242-.092-.491-.19c-.32-.12-.655-.229-.975-.329-.321-.1-.655-.191-.963-.255-.307-.064-.608-.136-.896-.182-.288-.046-.563-.091-.818-.128a20.99 20.99 0 0 0-1.224-.127l-.465-.046Z" style="mix-blend-mode:multiply"/>
      <path fill="#97C740" d="m84.163 52.043.19-.164c.168-.135.343-.253.523-.355l.367-.192c.13-.054.268-.127.419-.173.15-.045.3-.11.451-.146.15-.036.321-.072.478-.109l.485-.055h.47c.145-.014.289-.014.433 0 .131.009.263.027.393.055.117 0 .229 0 .32.073l.249.073.216.073h-1.604c-.3 0-.615.054-.922.109l-.472.091-.452.118a8.234 8.234 0 0 0-.785.274c-.257.09-.51.2-.76.328Zm-2.999-.656c.161.079.318.17.472.273.16.105.315.224.464.355.164.128.328.3.498.465l.236.273c.078.087.153.181.222.282l.19.283.163.264.197.437c.027.055.051.113.072.174l-.105-.128c-.059-.1-.157-.219-.255-.364l-.183-.22-.21-.254c-.065-.082-.15-.155-.222-.246l-.236-.264-.242-.246-.23-.237-.418-.42-.413-.427Z" style="mix-blend-mode:multiply"/>
    </g>
    <g style="mix-blend-mode:multiply">
      <path fill="#68B42E" d="M48.79 16.752a.586.586 0 0 1 .033-.11c0-.1.066-.237.111-.419.105-.364.256-.91.478-1.485.105-.3.23-.62.367-.956.137-.337.294-.684.471-1.02.177-.338.353-.702.55-1.048.196-.346.406-.692.654-1.03a18.62 18.62 0 0 1 1.375-1.821c.236-.274.465-.52.694-.738.229-.219.445-.428.654-.61.21-.183.393-.347.57-.474l.445-.337.393-.265-.373.32c-.125.1-.262.236-.426.382-.164.146-.34.328-.537.51-.196.182-.406.41-.654.647-.249.237-.432.492-.655.765a17.695 17.695 0 0 0-1.309 1.822c-.216.319-.419.656-.654.993-.236.337-.387.674-.557 1.02a23.511 23.511 0 0 0-.884 1.913 29.347 29.347 0 0 0-.543 1.421c-.059.182-.111.31-.144.401a.704.704 0 0 1-.039.11l-.02.009Z" style="mix-blend-mode:multiply"/>
      <path fill="#68B42E" d="M52.096 6.376s-.053.292-.125.72c-.045.219-.078.474-.13.738 0 .128-.04.273-.066.41a9.265 9.265 0 0 0-.072.419l-.059.446a5.138 5.138 0 0 0-.059.42c0 .264-.078.519-.098.737-.02.219-.046.401-.059.529-.013.127 0 .2 0 .2v-.747a8.274 8.274 0 0 1 0-.765c.007-.14.02-.28.04-.42l.058-.446c.046-.282.105-.573.164-.838a9.41 9.41 0 0 1 .196-.72 5.88 5.88 0 0 1 .21-.683Z" style="mix-blend-mode:multiply"/>
    </g>
    <g style="mix-blend-mode:multiply">
      <path fill="#97C740" d="m65.926 49.282.203-.546c.138-.337.334-.82.596-1.376.13-.282.281-.574.438-.91.157-.338.334-.639.517-.966.184-.328.387-.656.596-.984.21-.328.42-.656.655-.975l.334-.474.353-.446c.23-.3.465-.574.694-.838.229-.264.465-.51.654-.738l.321-.328.314-.282c.203-.182.386-.346.557-.483l.438-.337.386-.283-.36.337-.425.374-.524.528-.307.3-.308.347c-.21.237-.439.483-.655.756-.216.273-.458.547-.654.847l-.34.456-.334.473c-.23.31-.439.638-.655.957-.216.319-.406.647-.602.911-.196.264-.367.629-.537.91-.17.283-.32.584-.465.857-.28.529-.504.984-.654 1.312-.15.328-.236.601-.236.601Z" style="mix-blend-mode:multiply"/>
      <path fill="#97C740" d="m66.293 48.572.104-.146.308-.355.23-.2c.081-.078.166-.148.254-.21l.288-.2c.097-.07.198-.127.301-.174l.308-.164.308-.109.294-.091a1.57 1.57 0 0 1 .262-.055l.4-.045h.15l-.144.063-.38.155c-.084.027-.167.06-.248.1l-.275.128-.301.137-.295.155c-.098.054-.203.1-.301.164l-.281.173a2.264 2.264 0 0 0-.269.164l-.236.155-.346.255-.131.1Zm.93-2.26c-.01-.24-.01-.48 0-.72.012-.53.058-1.057.137-1.575.046-.274.085-.565.144-.82.05-.235.109-.466.177-.693.059-.2.118-.364.157-.482l.065-.173v.19c0 .12-.039.301-.078.511-.04.21-.066.456-.111.71l-.06.41-.058.41c-.046.274-.079.556-.125.82-.045.264-.072.501-.104.71l-.079.502-.065.2Z" style="mix-blend-mode:multiply"/>
    </g>
    <path fill="#68B42E" d="M78.488 46.213s.15-.146.432-.383c.281-.237.654-.583 1.178-.956.523-.374 1.08-.793 1.715-1.203l1.001-.61c.34-.191.655-.392 1.04-.574.387-.182.708-.355 1.061-.501.354-.146.7-.31 1.048-.437.347-.128.654-.246.988-.337.334-.092.609-.192.89-.237l.76-.155.595-.073.51-.055-.51.11-.582.127-.747.21c-.281.063-.57.191-.883.291-.314.1-.655.237-.976.374-.32.136-.654.291-1.027.446-.373.155-.7.346-1.047.52-.347.172-.7.373-1.048.555-.347.182-.654.383-.995.583-.34.2-.654.383-.916.574-.262.191-.57.373-.825.547a26.89 26.89 0 0 0-1.21.847l-.452.337Zm5.596-4.263c.026-.074.056-.144.091-.21a5.82 5.82 0 0 1 .275-.547 4.29 4.29 0 0 1 .203-.337c.072-.109.15-.246.242-.364l.275-.355c.096-.126.197-.244.301-.355l.314-.328c.103-.103.21-.197.321-.283l.301-.246a1.57 1.57 0 0 1 .288-.2l.439-.255.163-.082-.144.136-.399.356c-.092.068-.18.147-.262.236-.091.082-.19.173-.281.274-.092.1-.21.191-.308.3l-.3.328a3.845 3.845 0 0 0-.295.337l-.282.337c-.09.1-.174.206-.255.32-.085.109-.17.2-.236.3-.065.1-.255.337-.327.455l-.124.182Z" style="mix-blend-mode:multiply"/>
    <path fill="#E39042" d="M66.817 24.787c-.969-.993-1.361-2.615-.393-5.238l-.11-1.12s-2.37 3.807.503 6.358Z"/>
    <path fill="#6C8424" d="M63.492 33.332c-6.343-2.924-6.546-8.299-6.546-9.292a13.046 13.046 0 0 0 .42 5.11c1.963 7.288 12.56 8.409 16.657 3.754-.072-.675-.15-1.385-.229-2.068-1.315 1.284-5.478 4.691-10.302 2.496Z"/>
    <path fill="#F2D038" d="M63.492 33.332c4.824 2.222 8.987-1.212 10.303-2.497-.262-2.423-.524-4.609-.524-4.609s-4.444.61-6.454-1.44c-2.873-2.55-.504-6.376-.504-6.376s-.864-.72-3.273-.556c-2.408.164-3.056-.373-3.056-.373-1.532 1.605-2.592 3.93-2.985 6.54-.052 1.012.15 6.386 6.493 9.31Z"/>
    <path fill="#F2D038" d="M62.838 30.38c-1.408-1.03-2.75-1.73-3.764-3.543a6.171 6.171 0 0 1-.678-1.867 7.18 7.18 0 0 1-.094-2.087c.163-1.54.87-2.396 1.394-3.644.111-.273 0-.556-.197-.255-.275.483-.654.793-.93 1.312a10.871 10.871 0 0 0-.654 1.822 8.668 8.668 0 0 0-.052 4.117c.556 2.688 2.736 4.756 4.647 5.193.242.027.59-.857.328-1.048Zm1.689 1.203c-.295-.173-.655-.237-.897-.592s-.4.337-.314.546c.099.252.251.455.437.58a.75.75 0 0 0 .597.122c.118-.046.367-.547.177-.656Z" style="mix-blend-mode:screen"/>
    <path fill="#fff" d="M72.466 45.848c-1.654.538-3.212 1.536-4.582 2.934-.04.045-.079.273 0 .191 1.429-1.227 2.97-2.18 4.582-2.833.033-.037.118-.337 0-.292Zm1.794-.41c-.263 0-.525.055-.786.073-.092 0-.184.337-.086.328l.786-.082c.092-.01.183-.328.085-.319ZM42.035 54.22a9.055 9.055 0 0 0-5.066.355c-.052 0-.15.219-.052.182a13.42 13.42 0 0 1 4.974-.282c.105.009.262-.237.145-.255Zm1.775.537c-.25-.118-.505-.21-.747-.337-.091-.045-.268.219-.17.274.249.118.504.2.753.328.085.036.255-.21.163-.265Z"/>
    <g style="mix-blend-mode:multiply">
      <path fill="#68B42E" d="M27.059 30.198s-.085.2-.216.556c-.066.182-.144.4-.23.656-.084.255-.17.537-.267.856-.099.319-.19.656-.288 1.02a20.76 20.76 0 0 0-.282 1.175l-.137.62-.118.638c-.092.437-.144.91-.216 1.33-.072.419-.118.91-.17 1.339-.053.428-.079.91-.118 1.302-.04.392-.04.839-.066 1.23-.026.392 0 .765 0 1.102v2.26l-.046-.556c0-.2-.039-.447-.058-.72a10.32 10.32 0 0 1-.04-.91v-1.121c0-.401 0-.81.04-1.24.039-.427.052-.91.098-1.32.046-.41.091-.91.157-1.366.065-.456.137-.911.235-1.33.046-.219.086-.438.131-.647.046-.21.099-.428.144-.629.092-.419.21-.801.315-1.166.104-.364.21-.71.32-1.02.06-.155.105-.3.157-.446l.151-.392c.098-.246.19-.456.262-.629.144-.4.242-.592.242-.592Z" style="mix-blend-mode:multiply"/>
      <path fill="#68B42E" d="M25.98 33.305v.337c0 .21.032.5.058.856.026.355.059.774.105 1.22 0 .22.046.447.072.675.026.228.052.464.085.701.032.237.065.465.104.693.04.227.073.455.118.674.046.218.072.419.118.61s.085.383.131.547c.046.164.085.318.118.464.033.146.079.246.105.346.026.1.085.31.085.31l-.125-.282a7.363 7.363 0 0 1-.294-.775c-.06-.154-.105-.346-.164-.537a6.98 6.98 0 0 1-.157-.62 9.306 9.306 0 0 1-.137-.665c-.04-.227-.072-.473-.112-.71a22.166 22.166 0 0 1-.137-1.403c-.026-.446 0-.91-.04-1.239-.039-.328 0-.656 0-.91l.066-.292Zm-.904 4.382-.092.19c-.059.11-.137.292-.229.493-.091.2-.203.455-.32.71-.118.255-.112.264-.164.41-.063.135-.12.275-.17.42l-.157.427-.079.21c0 .073-.046.146-.066.21-.078.282-.183.537-.235.765-.041.188-.09.374-.144.555l-.059.219v-.228c0-.136.033-.346.065-.592a2.99 2.99 0 0 1 .072-.392c0-.136.072-.273.105-.428.032-.154.076-.304.131-.446l.157-.437c.053-.155.118-.292.177-.438.059-.145.124-.273.19-.4.117-.232.244-.454.38-.666.091-.15.19-.293.294-.428.045-.056.093-.108.144-.154Z" style="mix-blend-mode:multiply"/>
    </g>
    <path fill="#89BD27" d="M24.114 28.112c-.491.501-1.015.866-1.159 1.822-.294 2.013 1.676 2.979-.347 4.901-1.112 1.057-3.698 3.963-2.16 5.985.223.3.06 0-.085-.264-1.348-2.615 2.618-4.555 3.397-6.377.15-.304.25-.65.295-1.013a3.563 3.563 0 0 0-.033-1.091 5.893 5.893 0 0 0-.373-1.148c-.386-.911.092-1.713.53-2.45.04-.119.105-.538-.065-.365Z" style="mix-blend-mode:screen"/>
    <path fill="#E1CCBB" d="m71.674 16.088-.753 1.749v.974l4.929 2.733 1.538-2.295-.255-1.822s-3.79-1.658-5.46-1.34Zm-16.79 23.575a16.6 16.6 0 0 0-5.629.565l-.563 2.45.138 1.822 6.382.055-.072-2.096-.256-2.796Zm-16.92-19.285-2.84-.483c-.892 2.71-1.383 5.64-1.447 8.618l.458 2.104 1.636.191 2.52-8.854-.327-1.512v-.064Zm13.608-7.498.079 2.488.654.546c2.212-1.4 4.67-1.867 7.07-1.339l.242-.838.654-2.368c-1.43-.742-2.968-.993-4.482-.73-1.515.264-2.962 1.033-4.217 2.242ZM87.52 35.964l-1.42-1.758s-6.474 0-7.044 7.78v.1l.177 1.275 2.239 1.084s.766-5.138 6.14-6.996l-.092-1.485Zm-4.516-2.914.236.428 2.278-.055.176-.51c.875-2.721 1.192-5.726.917-8.682-1.656-.054-2.736 0-2.736 0v.064l-.347.601s.445 5.056-.576 7.971l.052.182Z" style="mix-blend-mode:multiply"/>
    <path fill="#F39B99" d="M77.1 16.488s-3.757-1.621-5.426-1.302l-.753 1.749 4.948 1.93 1.23-2.377Z"/>
    <path fill="#F5ACA2" d="m70.92 16.935-.032.974 4.929 2.724.052-1.767-4.948-1.931Z"/>
    <path fill="#EF7E8A" d="m77.1 16.488-1.231 2.378-.052 1.767 1.538-2.305-.255-1.84Z"/>
    <path fill="#F39B99" d="M54.884 38.76a16.603 16.603 0 0 0-5.629.566l-.563 2.45 6.447-.182-.255-2.833Z"/>
    <path fill="#EF7E8A" d="m48.692 41.776.138 1.859 6.388.054-.079-2.095-6.447.182Z"/>
    <path fill="#F39B99" d="M37.964 19.549v-.073l-2.84-.483c-.892 2.713-1.384 5.646-1.447 8.627l1.806.483s1.283-6.186 2.481-8.554Z"/>
    <path fill="#F5ACA2" d="m33.664 27.62.458 2.095 1.637.192-.288-1.804-1.807-.483Z"/>
    <path fill="#EF7E8A" d="M37.964 19.549c-1.204 2.368-2.5 8.554-2.5 8.554l.288 1.822 2.533-8.855-.32-1.521Z"/>
    <path fill="#F39B99" d="m51.572 11.979.903 1.822c1.059-.912 2.255-1.468 3.494-1.627 1.24-.158 2.488.087 3.648.716l.654-2.369c-1.427-.747-2.963-1.005-4.477-.752-1.515.254-2.963 1.012-4.222 2.21Z"/>
    <path fill="#F5ACA2" d="m51.572 11.979.079 2.487.687.546.137-1.23-.903-1.803Z"/>
    <path fill="#EF7E8A" d="m52.475 13.783-.11 1.23c2.192-1.389 4.628-1.857 7.01-1.349l.242-.838c-1.162-.622-2.413-.859-3.652-.693-1.24.166-2.434.73-3.49 1.65Z"/>
    <path fill="#F39B99" d="m87.52 35.062-1.42-1.758s-6.474 0-7.043 7.78v.1c.74.246 1.45.642 2.108 1.175 0-2.378 2.31-6.085 6.355-7.297Z"/>
    <path fill="#F5ACA2" d="m79.07 41.184.177 1.275 2.239 1.075-.32-1.175a6.72 6.72 0 0 0-2.096-1.175Z"/>
    <path fill="#EF7E8A" d="m87.625 36.547-.104-1.484c-4.046 1.211-6.382 4.919-6.363 7.287l.328 1.175s.765-5.11 6.14-6.978Z"/>
    <path fill="#F5ACA2" d="M84.234 27.802a19.05 19.05 0 0 0-.393-4.382l-.346.602s.445 5.055-.577 7.97c.897.256 1.198-1.93 1.316-4.19Z"/>
    <path fill="#EF7E8A" d="m83.24 32.575 2.277-.054s.066-.173.177-.51l-2.69.136.235.428Z"/>
    <path fill="#F39B99" d="M86.61 23.33c-1.656-.055-2.736 0-2.736 0v.063c.298 1.422.43 2.902.393 4.382-.118 2.25-.419 4.445-1.31 4.19l.086.155 2.69-.136c.858-2.718 1.161-5.713.877-8.655Z"/>
    <path fill="#E1CCBB" d="M40.353 54.33c-3.928 0-7.096 2.021-7.096 4.554a3.46 3.46 0 0 0 0 .364s1.002 7.006 7.122 7.078c6.12.073 6.984-5.21 7.063-7.287v-.2c0-2.488-3.175-4.51-7.09-4.51Zm9.301-36.166c-2.042-3.826-5.335-5.229-7.35-3.143-2.017 2.086-1.964 6.887.045 10.704 2.01 3.817 5.335 5.247 7.35 3.143 2.017-2.104 2.01-6.878-.045-10.704Zm-6.689 31.574h.058a29.718 29.718 0 0 0 1.67-5.402 7.79 7.79 0 0 0-.321-.847c-.812-1.886-3.338-6.222-9.111-5.557-1.735.2-6.036 2.068-7.443 5.894 0 .045-.04.1-.052.146-.275 2.596-.275 2.823-.275 2.823l2.664 5.566s4.752-4.29 12.81-2.623Zm35.646-1.613c-1.027-3.088-4.745-3.252-8.548-.792-1.258.798-2.42 1.858-3.45 3.143-1.603-.911-4.712-1.895-9.235.118-1.901.748-3.6 2.263-4.882 4.355-1.282 2.092-2.088 4.666-2.318 7.396l.497 2.005 5.034 1.348c.853-2.271 2.215-4.094 3.879-5.19 1.664-1.097 3.54-1.408 5.343-.886.105-.264.203-.51.295-.756.31 1.019.807 1.906 1.443 2.57.636.664 1.387 1.081 2.177 1.21 3.927.692 8.928-2.623 9.857-10.931a6.841 6.841 0 0 0-.092-3.59Z" style="mix-blend-mode:multiply"/>
    <path fill="#BC2921" d="M32.937 58.465s1.001 7.005 7.115 7.123c6.114.119 6.984-5.256 7.076-7.287l-14.191.164Z"/>
    <path fill="#E83426" d="M47.128 58.1c0 2.497-3.168 4.556-7.09 4.556-3.92 0-7.088-2.032-7.088-4.555 0-2.524 3.175-4.555 7.089-4.555 3.914 0 7.089 2.022 7.089 4.555Z"/>
    <path fill="#EE523B" d="M46.178 57.727c0 1.959-2.755 3.544-6.152 3.544-3.397 0-6.147-1.585-6.147-3.544 0-1.958 2.75-3.543 6.147-3.543 3.397 0 6.152 1.585 6.152 3.543Z"/>
    <path fill="#CA2C21" d="M42.546 57.39s2.317.337 2.264-.601c-.052-.939-2.618-2.25-6.388-1.54S32.963 58.301 36 59.14c3.037.838 7.246 1.457 8.248.182 1.001-1.275-.23-1.466-1.702-1.931Z"/>
    <path fill="#FFBE60" d="M41.427 58.128s.707.382.655.792c-.053.41-1.276-1.066-.655-.792Zm.072-1.421s.733-.71.975-.428-1.571 1.111-.975.428Zm-1.179-.356s.439-.792.694-.574c.255.219-1.04 1.294-.694.574Zm-1.145-.045s.17-.638.367-.565c.196.073-.485 1.12-.367.565Zm-1.165.119s.099-.374.217-.328c.117.045-.262.655-.216.328Zm1.918 1.566s.328.483.197.693c-.131.21-.498-1.084-.197-.693Zm-1.624.055s.183.264.111.374c-.072.109-.274-.583-.11-.374Z"/>
    <path fill="#E83426" d="M49.333 17.418c2.043 3.816 2.062 8.608.046 10.703-2.016 2.095-5.308.674-7.35-3.143-2.043-3.817-2.069-8.58-.046-10.703 2.022-2.123 5.308-.684 7.35 3.143Z"/>
    <path fill="#EE523B" d="M48.863 17.864c1.885 3.525 1.964 7.861.216 9.683s-4.72.456-6.605-3.07c-1.885-3.525-1.963-7.861-.216-9.683 1.748-1.822 4.72-.456 6.605 3.07Z"/>
    <path fill="#CA2C21" d="M44.647 18.428s-.956-3.097-.655-3.416c.302-.319 3.03.911 4.484 4.4 1.453 3.49 1.12 6.177.785 6.696-.333.519-1.754-1.713-1.754-1.713s.897 2.542.524 2.852c-.373.31-3.81.683-5.819-5.038-1.106-3.325-.524-10.12 2.435-3.78Z"/>
    <path fill="#FFBE60" d="M46.408 24.723s0 .765-.229.811c-.229.046.203-1.467.23-.81Zm1.807-2.213s.425 0 .451.254c.026.255-.824-.236-.451-.255Zm-.937-1.367s.465-.2.55.046c.085.246-.942.164-.55-.046Zm-.661-1.749s.472-.2.55.046c.079.246-.936.164-.55-.046Zm-.798-1.704s0-.683.196-.719c.197-.037-.163 1.294-.196.72Zm-1.159 4.638s-.517.227-.608 0c-.092-.228 1.034-.237.608 0Zm-.628-1.495s-.694.146-.772-.227c-.079-.374 1.355.054.772.227Zm-.308-1.539s-.936-.155-1.02-.565c-.086-.41 1.806.647 1.02.565Zm1.886 4.391s-.295.655-.498.528c-.203-.128.707-1.075.497-.528Z"/>
    <path fill="#fff" d="M41.852 22.947c-.732-2.084-.87-4.476-.386-6.696.046-.191-.085-.136-.13 0a11.882 11.882 0 0 0-.381 3.576c.054 1.217.29 2.403.694 3.484.066.155.243-.218.203-.364Zm.485 1.066a2.476 2.476 0 0 1-.197-.337c-.065-.11-.209.182-.144.264.068.126.142.245.223.355.072.064.19-.21.118-.282Z"/>
    <path fill="#F2D038" d="M64.356 57.745c1.349-3.825 2.193-6.376 2.579-7.606-1.31-.91-4.647-2.623-9.877-.3-1.901.747-3.6 2.263-4.882 4.354-1.281 2.092-2.088 4.666-2.318 7.397l5.04 2.177s2.088-8.572 9.458-6.022Z"/>
    <path fill="#CC752E" d="m49.83 61.59.505 2.003 5.033 1.358-.47-1.157-5.067-2.205Z"/>
    <path fill="#E39042" d="m54.898 63.767.471 1.156s2.697-7.806 9.216-6.085l-.229-1.12c-7.37-2.524-9.458 6.048-9.458 6.048Z"/>
    <path fill="#CC752E" d="M66.935 50.102a279.61 279.61 0 0 1-2.58 7.607l.23 1.12c2.022-5.1 2.755-7.287 2.755-7.287s-.144-.401-.405-1.44Z"/>
    <path fill="#F2D038" d="M61.227 49.326a7.18 7.18 0 0 1-1.715.045 7.317 7.317 0 0 0-1.82.538c-1.129.495-2.19 1.25-3.142 2.231a17.36 17.36 0 0 0-2.35 3.088c-.766 1.157-1.364 2.508-1.76 3.981-.105.483.203.529.36.128 1.027-2.699 2.501-5.019 4.3-6.768.971-.878 2.036-1.536 3.155-1.95a8.015 8.015 0 0 1 2.108-.52c.279.014.556-.06.812-.218.117-.045.288-.692.052-.555Zm1.937-.016a3.859 3.859 0 0 0-.916 0c-.17 0-.38.62-.17.629.315.04.633.04.949 0 .144-.019.347-.583.137-.629Z" style="mix-blend-mode:screen"/>
    <path fill="#F2D038" d="m42.172 47.37 1.873-4.637c-.812-1.886-3.332-6.231-9.105-5.566-1.741.182-6.035 2.095-7.45 5.912l2.744 6.212s4.175-5.155 11.938-1.922Z"/>
    <path fill="#CC752E" d="M27.492 43.08c-.02.049-.038.1-.053.154-.288 2.587-.288 2.806-.288 2.806l2.658 5.566.425-2.314-2.742-6.213Zm16.874.518a7.79 7.79 0 0 0-.321-.847l-1.872 4.619.465 1.548v.046h.065a29.898 29.898 0 0 0 1.663-5.366Z"/>
    <path fill="#E39042" d="M42.173 47.37c-7.763-3.234-11.933 1.922-11.933 1.922l-.425 2.314s4.772-4.282 12.823-2.624v-.045l-.465-1.567Z"/>
    <path fill="#F2D038" d="M42.153 40.847c-.602-1.32-1.793-1.822-2.808-2.36-1.391-.65-2.87-.862-4.326-.619-2.33.274-4.831 1.512-6.35 4.063-.104.182-.091.656.118.383 1.878-2.253 4.27-3.505 6.749-3.535 2.395-.173 4.294 1.13 6.264 2.806.21.173.451-.51.353-.738Zm.817 1.057a1.684 1.684 0 0 0-.255-.41c-.104-.146-.34.355-.242.501.085.124.156.265.21.42.045.145.19 0 .222-.092a.49.49 0 0 0 .074-.197.577.577 0 0 0-.008-.222Z" style="mix-blend-mode:screen"/>
    <path fill="#BC2921" d="M64.263 54.958s.288 6.249 4.235 6.941c3.947.693 8.935-2.623 9.858-10.931-1.957 3.543-14.093 3.99-14.093 3.99Z"/>
    <path fill="#E83426" d="M78.29 47.37c1.028 3.079-.942 8.125-4.738 10.585-3.797 2.46-8.025 1.412-9.053-1.667-1.027-3.08 1.44-7.242 5.237-9.702 3.796-2.46 7.5-2.295 8.555.784Z"/>
    <path fill="#EE523B" d="M77.722 47.624c1.028 2.414-.995 6.596-4.484 8.855-3.489 2.259-7.272 1.585-8.123-.966-.85-2.55 1.473-6.203 4.975-8.435 2.867-1.813 6.493-2.105 7.632.546Z"/>
    <path fill="#CA2C21" d="m72.354 49.793 4.582-1.986s2.016 1.42-1.355 5.547c-3.37 4.127-7.763 4.992-9.412 2.733-.969-1.73.517-6.759 5.61-9.273 1.217-.483 2.722-.556 3.043 0 .32.555-2.468 2.979-2.468 2.979Z"/>
    <path fill="#FFBE60" d="M69.383 53.182s-1.918 2.45-2.41 1.995c-.49-.456 1.618-1.585 2.41-1.995Zm2.487-3.818c.043-.78.274-1.518.655-2.095.222-.337.026 1.485-.655 2.096Zm-1.283.647a3.43 3.43 0 0 1 .091-1.521c.243-.747.243.465-.091 1.521Zm-1.1-.309s.223.81 0 .983c-.222.173-.215-1.658 0-.983Zm-1.355 1.257s.393.528.262.774c-.13.246-.615-1.193-.262-.774Zm-.713 1.275s.373.291.314.52c-.059.227-.674-.73-.314-.52Zm2.723 3.844s-.21-.51-.078-.665c.13-.155.281 1.066.078.665Zm.995-.51s-.438-.574-.3-.847c.136-.273.7 1.275.3.847Zm1.407-1.066s-.504-.455-.406-.756c.099-.3.858 1.102.406.756Zm1.46-1.558s-.746-.154-.746-.583c0-.428 1.394.666.746.584Zm1.46-2.004s-.864.31-1.002-.154c-.137-.465 1.728-.174 1.002.154Z"/>
    <path fill="#97C740" d="M70.462 37.276c-.654.447-.936 1.102-1.662 1.12-.373 0-1.002-.682-1.31-.7a1.38 1.38 0 0 0-.8.152 1.926 1.926 0 0 0-.679.612c-1.309 1.585-.307 4.938-1.053 6.887-.092.228.045.328.144.11a6.808 6.808 0 0 0 .562-1.923c.256-1.612-.209-4.099 1.31-4.937.464-.264 1.309.392 1.826.383.517-.01 1.047-.756 1.525-1.248.091-.146.458-.684.137-.456Zm-16.35-8.445a1.769 1.769 0 0 0-1.151.163c-.369.184-.7.491-.963.894-.373.492-.654 1.075-1.06 1.558a7.11 7.11 0 0 1-2.14 1.576c-2.004 1.293-2.96 3.197-3.784 6.012-.137.447-.222.911-.092.574a25.69 25.69 0 0 1 1.755-3.799c.795-1.163 1.79-2.022 2.893-2.496.636-.356 1.216-.882 1.708-1.548.904-1.184 1.349-2.214 2.703-2.45.118-.019.308-.456.131-.484Z" style="mix-blend-mode:screen"/>
    <path fill="#FFFBDC" d="M67.694 27.939a.288.288 0 0 0-.15.071.445.445 0 0 0-.112.157.868.868 0 0 0-.137.446c0 .128 0 .3.13.31.23 0 .4-.465.4-.729 0-.11-.033-.255-.13-.255Zm4.149 1.794c-.229 0-.458.775-.216.775.242 0 .458-.775.216-.775Zm-8.797-3.926c-.281 0-.576.975-.268.975.308 0 .576-.975.268-.975Zm3.83 5.812v-.055c-.065-.118-.17 0-.23 0a.857.857 0 0 0-.156.456.924.924 0 0 0 0 .3.193.193 0 0 0 .029.076.12.12 0 0 0 .052.045.08.08 0 0 0 .061.002.114.114 0 0 0 .054-.04.345.345 0 0 0 .079-.1.869.869 0 0 0 .17-.474c-.013-.064-.007-.183-.059-.21Zm3.161-11.114a.133.133 0 0 0-.078-.026.133.133 0 0 0-.079.026c-.137 0-.236.128-.307.283-.144.3-.066.792.242.72a.512.512 0 0 0 .185-.175.778.778 0 0 0 .11-.272c.065-.173.084-.456-.073-.556Zm-4.012-6.695c-.04-.255-.262-.21-.36-.064a.546.546 0 0 0-.122.257.687.687 0 0 0 .01.308c.092.237.301 0 .354-.146v-.055a.443.443 0 0 0 .08-.134.582.582 0 0 0 .038-.166Zm15.794 8.463a.223.223 0 0 1-.111 0c-.138-.11-.269.255-.295.382-.026.128 0 .428.177.428s.307-.346.288-.564c-.02-.219-.007-.228-.06-.246Zm-21.757-.647c-.112 0-.223.392-.105.392.118 0 .222-.392.105-.392Zm-5.191-4.673v.054c-.052.091-.059.283 0 .228.06-.055.112-.1.118-.137a.413.413 0 0 0 0-.173c-.006-.118-.091-.018-.118.028Zm-3.024 3.188c-.118 0-.249.41-.111.41.137 0 .242-.41.111-.41Zm8.686 7.661c-.098 0-.197.337-.092.337.105 0 .197-.337.092-.337ZM67.59 6.376c-.086 0-.178.301-.08.301.099 0 .177-.3.08-.3Zm-19.958 5.913a.159.159 0 0 0-.059-.082s0-.064-.04-.073a.177.177 0 0 0-.13.002.249.249 0 0 0-.111.098.337.337 0 0 0-.06.154.398.398 0 0 0 .014.174c.091.255.288.118.366-.073a.274.274 0 0 0 .02-.2Zm-8.293 1.921a.2.2 0 0 0-.08-.079.135.135 0 0 0-.097-.011.247.247 0 0 0-.079.045l-.072.064c-.078.127-.163.41-.039.537 0 .064.066.146.111.137a.25.25 0 0 0 .147-.088.426.426 0 0 0 .089-.185v-.082a.508.508 0 0 0 .02-.337Zm-2.684 3.617a.427.427 0 0 0 .046-.182.137.137 0 0 0 0-.073.236.236 0 0 0-.005-.091.182.182 0 0 0-.039-.075.11.11 0 0 0-.06-.037.093.093 0 0 0-.066.012c-.098 0-.177.137-.19.273a.424.424 0 0 0 0 .3c.072.192.23.092.314-.081v-.046ZM29.147 32.73a.182.182 0 0 0-.163-.025.253.253 0 0 0-.138.126.657.657 0 0 0-.177.382c-.052.356.262.465.445.337a.532.532 0 0 0 .133-.2.756.756 0 0 0 .05-.264.516.516 0 0 0-.038-.207.35.35 0 0 0-.112-.148Zm12.869 2.169a.302.302 0 0 0-.033-.108.204.204 0 0 0-.066-.074.137.137 0 0 0-.082-.023.142.142 0 0 0-.081.032.3.3 0 0 0-.098.136.389.389 0 0 0-.068.137.495.495 0 0 0-.017.164c0 .155.085.355.21.355a.252.252 0 0 0 .146-.096.425.425 0 0 0 .082-.195v-.082a.373.373 0 0 0 .007-.246Zm-3.214 4.445a.075.075 0 0 0-.053-.023.075.075 0 0 0-.052.023c-.065 0-.13.119-.15.191a.281.281 0 0 0-.028.123c0 .044.01.087.028.123a.11.11 0 0 0 .059.018.11.11 0 0 0 .058-.018c.15-.027.243-.31.138-.437Zm-12.751 4.382h-.039a.37.37 0 0 0-.124.175.54.54 0 0 0-.026.244.274.274 0 0 0 .031.094c.016.027.036.05.059.065a.126.126 0 0 0 .073.021c.025 0 .05-.01.072-.026a.081.081 0 0 0 .041-.02.125.125 0 0 0 .031-.043.42.42 0 0 0 .085-.137c.112-.2-.006-.492-.203-.373Zm-.281 5.466c0-.164-.118-.237-.223-.21a.285.285 0 0 0-.147.147.479.479 0 0 0-.043.245.259.259 0 0 0 .029.095c.015.027.035.05.058.064a.115.115 0 0 0 .142-.013.252.252 0 0 0 .133-.12.428.428 0 0 0 .05-.208Zm-1.454-1.148c-.072 0-.137.118-.144.19a.317.317 0 0 0 0 .074.414.414 0 0 0 0 .2c0 .073.085.064.138 0a.2.2 0 0 0 .085-.11s.026-.282-.079-.355Zm7.26-5.94c-.099 0-.19.328-.092.328s.19-.328.091-.328Zm2.991.948-.046-.055-.04-.055h-.13a.378.378 0 0 0-.09.121.521.521 0 0 0-.048.162.274.274 0 0 0 .012.168c.01.025.025.047.042.063a.126.126 0 0 0 .057.033c.131 0 .21-.155.236-.31a.34.34 0 0 0 0-.082s.02-.027.007-.045Zm-5.57 8.008a.121.121 0 0 0 0-.083c-.157-.155-.314.164-.294.365 0 .136.052.245.17.173a.411.411 0 0 0 .116-.2.562.562 0 0 0 .008-.256Zm8.129-.274a.068.068 0 0 0-.059 0 .178.178 0 0 0-.098.031.418.418 0 0 0-.144.263.487.487 0 0 0 .013.197c.046.119.118.119.203.092.085-.028.334-.565.085-.583Zm9.275 1.794c-.118-.2-.3.091-.281.292 0 .054 0 .154.046.154a.267.267 0 0 0 .203-.127.354.354 0 0 0 .033-.319Zm4.713-3.716a.147.147 0 0 0 0-.091.162.162 0 0 0-.03-.059.105.105 0 0 0-.048-.032.08.08 0 0 0-.052.001.107.107 0 0 0-.046.035.39.39 0 0 0-.093.147.535.535 0 0 0-.032.19.325.325 0 0 0 0 .164c.125.21.288-.046.314-.237a.716.716 0 0 0-.013-.118Zm3.489-2.551c-.275 0-.328.783-.04.72a.1.1 0 0 0 .066 0c.21-.183.23-.73-.026-.72Zm-.694-13.163a.358.358 0 0 0 0-.1.094.094 0 0 0 .009-.042.094.094 0 0 0-.01-.04.262.262 0 0 0-.136-.072.228.228 0 0 0-.145.024.328.328 0 0 0-.12.114.5.5 0 0 0-.07.18.574.574 0 0 0 0 .446.282.282 0 0 0 .117.134.18.18 0 0 0 .152.011.414.414 0 0 0 .171-.199.65.65 0 0 0 .051-.302.404.404 0 0 0-.02-.155Zm-6.055 2.459v-.128a.149.149 0 0 0-.084.01.195.195 0 0 0-.074.056.293.293 0 0 0-.051.093.377.377 0 0 0-.02.115c0 .173.111.182.197.127.085-.054.091-.21.032-.273Zm8.084 21.234a.164.164 0 0 0-.093.024.234.234 0 0 0-.077.077.64.64 0 0 0-.153.26.865.865 0 0 0-.037.332.362.362 0 0 0 .094.193.195.195 0 0 0 .162.062.374.374 0 0 0 .165-.106.574.574 0 0 0 .116-.195.558.558 0 0 0 .04-.39.435.435 0 0 0-.085-.167.272.272 0 0 0-.132-.09Zm-.596 3.117h-.04a.125.125 0 0 0-.097-.055.125.125 0 0 0-.099.054.44.44 0 0 0-.111.228.323.323 0 0 0-.012.153.263.263 0 0 0 .058.131c.03.034.066.053.104.054a.14.14 0 0 0 .105-.047c.105-.063.256-.355.092-.519Zm-2.977-1.276h-.072c-.085 0-.157.282-.079.273h.072c.04-.018.131-.264.079-.273Zm11.127-6.104s0-.054-.04-.054h-.045a.145.145 0 0 0-.1.007.203.203 0 0 0-.084.075.47.47 0 0 0-.085.209.14.14 0 0 1 0 .046.378.378 0 0 0 0 .164c.131.355.452 0 .432-.31a.295.295 0 0 0-.078-.137Zm6.958-9.027a.283.283 0 0 0-.141-.155.186.186 0 0 0-.18.018.218.218 0 0 0-.088.06.718.718 0 0 0-.122.532.292.292 0 0 0 .043.142c.025.04.058.067.095.077a.228.228 0 0 0 .165.025.28.28 0 0 0 .15-.098.602.602 0 0 0 .109-.283.704.704 0 0 0-.031-.318Zm4.17-2.733h-.04c-.045 0-.098.1-.11.155-.014.054-.04.291.071.3a.207.207 0 0 0 .12-.095.361.361 0 0 0 .05-.178.188.188 0 0 0-.012-.124.118.118 0 0 0-.034-.042.077.077 0 0 0-.045-.016Zm8.155 8.371c0-.118-.105-.182-.17-.227-.066-.046-.15 0-.203.19a.596.596 0 0 0-.105.329.351.351 0 0 0 .038.171.21.21 0 0 0 .106.102c.098 0 .21-.073.269-.182a.58.58 0 0 0 .062-.182.667.667 0 0 0 .003-.2Zm.039 7.98c0-.082-.11-.09-.163-.082a.175.175 0 0 0-.072.064.195.195 0 0 0-.118.073c-.144.182-.118.528.111.483a.258.258 0 0 0 .12-.064.388.388 0 0 0 .09-.128.579.579 0 0 0 .033-.346Zm3.26-12.343c-.034 0-.067.02-.091.055a.375.375 0 0 0-.125.127.508.508 0 0 0-.065.156.61.61 0 0 0 .021.353c.021.053.05.1.083.138.164.146.347-.182.373-.373a.526.526 0 0 0-.034-.282.317.317 0 0 0-.162-.174Zm3.914-3.088a.202.202 0 0 0-.163 0 .596.596 0 0 0-.28.307.969.969 0 0 0-.074.486c0 .209.203.291.334.273a.422.422 0 0 0 .259-.166.737.737 0 0 0 .14-.344.61.61 0 0 0-.025-.34.446.446 0 0 0-.08-.135.305.305 0 0 0-.11-.081Zm-3.332-11.378c-.052-.1-.15-.191-.235-.118a.372.372 0 0 0-.132.15.566.566 0 0 0-.058.223.73.73 0 0 0-.006.26.625.625 0 0 0 .084.232c.029.04.066.067.106.076.04.01.08.003.117-.021a.53.53 0 0 0 .133-.183.741.741 0 0 0 .063-.246.59.59 0 0 0-.004-.198.498.498 0 0 0-.068-.175Zm3.169-.2a.163.163 0 0 0-.05-.059.108.108 0 0 0-.062-.02.107.107 0 0 0-.062.02.16.16 0 0 0-.049.058c-.144 0-.236.338-.177.52a.633.633 0 0 0 0 .118c.053.11.164 0 .21-.045a.663.663 0 0 0 .118-.32c.065-.1.098-.227.072-.273Zm-13.413 3.47a.117.117 0 0 0-.065-.02.117.117 0 0 0-.066.02c-.058 0-.117.11-.13.164-.013.055 0 .319.104.364a.224.224 0 0 0 .185-.075.419.419 0 0 0 .103-.225c.04-.1-.026-.155-.13-.228Z"/>
  </g>
  <defs>
    <clipPath id="a">
      <path fill="#fff" d="M0 0h116v80H0z"/>
    </clipPath>
  </defs>
</svg>
