<svg xmlns="http://www.w3.org/2000/svg" width="18" height="21" fill="none" viewBox="0 0 18 21">
  <path fill="#FC9495" d="M13.5 5.35v9.44c0 .333-.118.653-.33.89a1.068 1.068 0 0 1-.795.368H9.562a2.134 2.134 0 0 1-1.59-.737 2.677 2.677 0 0 1-.66-1.78v-.108c0-.166-.029-.33-.085-.482a1.277 1.277 0 0 0-.244-.408l-1.028-1.151a1.278 1.278 0 0 1-.244-.408 1.39 1.39 0 0 1-.086-.482V6.608c0-1.001.356-1.962.989-2.67C7.246 3.23 8.104 2.832 9 2.832h2.25c.597 0 1.169.265 1.591.737.422.472.659 1.113.659 1.78Z"/>
  <path fill="#E74444" d="M9 4.09h2.25c.298 0 .585.133.796.37.21.236.329.556.329.89v8.81a.67.67 0 0 1-.165.445.534.534 0 0 1-.398.184h-2.25c-.298 0-.584-.132-.795-.368a1.338 1.338 0 0 1-.33-.89v-.738c0-.165-.029-.329-.085-.481a1.277 1.277 0 0 0-.244-.409l-1.028-1.15a1.278 1.278 0 0 1-.244-.409 1.39 1.39 0 0 1-.086-.481V6.608c0-.667.237-1.308.659-1.78.422-.472.994-.737 1.591-.737Z"/>
  <path fill="#FAE8D8" d="M10.406 7.237c.466 0 .844-.423.844-.944 0-.521-.378-.944-.844-.944-.466 0-.844.423-.844.944 0 .521.378.944.844.944Z"/>
  <path fill="#606669" d="m5.906 16.677-1.687-.629-1.688.63.844-2.203v-.944h1.688v.944l.843 2.202Z"/>
  <path fill="#99A2A7" d="M4.219 1.888s3.375 1.259 3.375 4.406c0 2.92-.728 5.029-2.182 6.574a1.27 1.27 0 0 0-.258.416c-.06.157-.092.325-.091.496v.695H3.375v-.695c0-.17-.03-.34-.091-.496a1.27 1.27 0 0 0-.258-.416C1.57 11.323.844 9.215.844 6.294c0-3.147 3.375-4.406 3.375-4.406Z"/>
  <path fill="#606669" d="M4.5 6.293h1.688v.944c0 .25-.09.49-.248.668a.801.801 0 0 1-.596.276.801.801 0 0 1-.597-.276 1.004 1.004 0 0 1-.247-.668v-.944Z"/>
  <path fill="#DEB89A" d="M17.156 15.418c0-.943-.843-2.202-2.812-2.202-1.969 0-1.969 2.203-1.969 2.203s0 2.202 1.969 2.202 2.812-1.258 2.812-2.202Z"/>
  <path fill="#F5CBAA" d="M11.813 12.901c-.844 0-1.97.944-1.97 3.147s1.97 2.203 1.97 2.203 1.968 0 1.968-2.203-1.125-3.147-1.969-3.147Z"/>
  <path fill="#606669" d="M2.813 5.35v7.281C1.5 11.11.844 9.068.844 6.293c0-.318.035-.636.107-.944h1.862Z"/>
  <path fill="#757C80" d="M7.594 6.294H.844c0-3.147 3.375-4.406 3.375-4.406s3.375 1.259 3.375 4.406Z"/>
  <path fill="#606669" d="M3.938 4.72c.31 0 .562-.282.562-.63 0-.347-.252-.629-.563-.629-.31 0-.562.282-.562.63 0 .347.252.63.563.63Z"/>
  <path fill="#000" d="M10.406 7.552c.223 0 .44-.074.625-.212s.33-.335.415-.565c.085-.23.107-.483.064-.727a1.311 1.311 0 0 0-.308-.645 1.094 1.094 0 0 0-.576-.344 1.014 1.014 0 0 0-.65.071 1.163 1.163 0 0 0-.505.464c-.124.207-.19.45-.19.7 0 .333.12.653.33.889.211.236.497.369.795.369Zm0-1.888c.111 0 .22.037.313.106.092.07.164.168.207.283a.699.699 0 0 1 .032.363.656.656 0 0 1-.154.322.547.547 0 0 1-.288.173.507.507 0 0 1-.325-.036.581.581 0 0 1-.252-.232.684.684 0 0 1 .07-.794.535.535 0 0 1 .397-.185Z"/>
  <path fill="#000" d="M16.67 13.723c-.396-.375-1.121-.822-2.326-.822-.19 0-.378.02-.563.062V5.35c0-.75-.267-1.47-.742-2.001-.474-.531-1.118-.83-1.789-.83H9a3.4 3.4 0 0 0-2.22.841 5.736 5.736 0 0 0-.705-.7 6.708 6.708 0 0 0-1.767-1.07.253.253 0 0 0-.178 0 6.708 6.708 0 0 0-1.768 1.07c-1.177.988-1.8 2.245-1.8 3.634 0 2.955.743 5.18 2.27 6.803a.954.954 0 0 1 .193.312c.045.117.069.244.069.372v.63l-.821 2.143a.349.349 0 0 0 .051.337.277.277 0 0 0 .137.092.253.253 0 0 0 .16-.006l1.598-.596 1.598.596a.258.258 0 0 0 .16.006.277.277 0 0 0 .136-.092.349.349 0 0 0 .052-.337l-.821-2.143v-.63c0-.128.023-.255.068-.372a.956.956 0 0 1 .194-.312c.254-.27.49-.561.704-.871l.474.53c.158.177.247.417.247.667v.109c.001.75.268 1.47.742 2.001.475.531 1.118.83 1.79.83h.013c.091 1.087.65 1.628 1.126 1.895.347.189.725.294 1.11.308.386-.014.764-.12 1.11-.308.216-.119.41-.278.577-.47.272.102.558.152.845.149 1.205 0 1.93-.447 2.326-.822.488-.462.767-1.08.767-1.695 0-.616-.28-1.234-.767-1.696ZM9 3.147h2.25c.522 0 1.022.233 1.392.645.369.413.576.973.577 1.557v7.837c-.025.014-.049.03-.072.045a2.247 2.247 0 0 0-.49-.399V5.35a1.682 1.682 0 0 0-.413-1.112 1.337 1.337 0 0 0-.994-.461H9a2.374 2.374 0 0 0-1.559.601 4.644 4.644 0 0 0-.301-.534A2.878 2.878 0 0 1 9 3.147Zm-.693 8.534L7.278 10.53a.904.904 0 0 1-.058-.073c.439-1.19.655-2.57.655-4.164a4.42 4.42 0 0 0-.198-1.316A1.864 1.864 0 0 1 9 4.405h2.25a.8.8 0 0 1 .596.277 1 1 0 0 1 .248.667v7.265a1.487 1.487 0 0 0-.281-.027c-.55 0-1.103.313-1.516.858a3.36 3.36 0 0 0-.515 1.03h-.22a.802.802 0 0 1-.596-.277 1.005 1.005 0 0 1-.247-.667v-.738c0-.207-.036-.411-.107-.602a1.587 1.587 0 0 0-.305-.51Zm-5.62-8.509c.471-.391.986-.71 1.532-.95a6.37 6.37 0 0 1 1.518.94c.953.8 1.478 1.746 1.563 2.817H1.138c.085-1.066.605-2.01 1.55-2.807Zm2.094 3.436h1.125v.63a.67.67 0 0 1-.164.444.534.534 0 0 1-.398.185.534.534 0 0 1-.398-.185.67.67 0 0 1-.165-.445v-.63Zm-3.653 0h1.403v5.174a7.296 7.296 0 0 1-.878-1.796c-.329-.98-.501-2.089-.525-3.378Zm3.18 9.141a.253.253 0 0 0-.178 0l-1.094.408.524-1.368h1.317l.524 1.368-1.093-.408Zm.91-3.109a1.594 1.594 0 0 0-.322.52 1.74 1.74 0 0 0-.115.62v.38H3.656v-.38a1.73 1.73 0 0 0-.114-.62 1.593 1.593 0 0 0-.323-.52 7.213 7.213 0 0 1-.125-.137V6.608h1.125v.63c0 .333.118.653.33.89.21.235.496.368.795.368.298 0 .584-.133.795-.369.211-.236.33-.556.33-.89v-.63h.84c-.024 1.29-.196 2.398-.524 3.38a7.053 7.053 0 0 1-1.567 2.653Zm2.376.89v-.108c0-.206-.036-.411-.107-.602a1.585 1.585 0 0 0-.305-.51l-.543-.607a7.89 7.89 0 0 0 .327-.632l.943 1.055c.158.177.247.417.247.667v.738c0 .417.149.817.413 1.112.263.294.62.46.993.46h.073a5.6 5.6 0 0 0-.065.63h-.008a1.871 1.871 0 0 1-1.391-.646 2.345 2.345 0 0 1-.577-1.556Zm5.093 4.155c-.273.15-.57.236-.874.25-.07 0-1.688-.02-1.688-1.887 0-2.063 1.035-2.832 1.688-2.832.652 0 1.687.769 1.687 2.832 0 .777-.274 1.328-.813 1.637Zm1.657-.378c-.17 0-.34-.02-.506-.064.137-.315.225-.707.225-1.195 0-1.104-.268-1.847-.549-2.324a1.7 1.7 0 0 1 .83-.193c1.844 0 2.531 1.158 2.531 1.888s-.687 1.887-2.531 1.887Z"/>
  <path fill="#000" d="M3.938 5.034c.166 0 .33-.055.468-.159a.93.93 0 0 0 .311-.423c.064-.173.08-.363.048-.546a.983.983 0 0 0-.23-.483.82.82 0 0 0-.433-.258.76.76 0 0 0-.487.053.872.872 0 0 0-.38.348 1.026 1.026 0 0 0-.141.524c0 .25.089.49.247.668a.802.802 0 0 0 .596.276Zm0-1.258a.26.26 0 0 1 .156.053.31.31 0 0 1 .103.141.35.35 0 0 1 .016.182.328.328 0 0 1-.077.161.273.273 0 0 1-.144.086.254.254 0 0 1-.162-.018.29.29 0 0 1-.126-.116.342.342 0 0 1 .035-.397.267.267 0 0 1 .199-.092Z"/>
</svg>
