<svg xmlns="http://www.w3.org/2000/svg" width="24" height="31" fill="none" viewBox="0 0 24 31">
  <circle cx="12" cy="29" r="2" fill="url(#a)"/>
  <path fill="url(#b)" fill-rule="evenodd" d="M9.157 20.771v-3.066c0-.78.636-1.414 1.424-1.42h2.886c.792 0 1.433.636 1.433 1.42v3.076c0 .662.534 1.204 1.203 1.219h1.924c1.918 0 3.473-1.54 3.473-3.438V9.838a2.44 2.44 0 0 0-.962-1.905l-6.58-5.248a3.18 3.18 0 0 0-3.945 0L3.462 7.943A2.42 2.42 0 0 0 2.5 9.847v8.715C2.5 20.46 4.055 22 5.973 22h1.924c.685 0 1.241-.55 1.241-1.229" clip-rule="evenodd"/>
  <defs>
    <linearGradient id="a" x1="14" x2="8.669" y1="31" y2="30.587" gradientUnits="userSpaceOnUse">
      <stop stop-color="#C58BF2"/>
      <stop offset="1" stop-color="#EEA4CE"/>
    </linearGradient>
    <linearGradient id="b" x1="21.5" x2="-3.838" y1="22" y2="20.137" gradientUnits="userSpaceOnUse">
      <stop stop-color="#C58BF2"/>
      <stop offset="1" stop-color="#EEA4CE"/>
    </linearGradient>
  </defs>
</svg>
